%TF.GenerationSoftware,KiCad,Pcbnew,9.0.0*%
%TF.CreationDate,2025-03-28T10:26:18+02:00*%
%TF.ProjectId,MicroMousePower,4d696372-6f4d-46f7-9573-65506f776572,rev?*%
%TF.SameCoordinates,Original*%
%TF.FileFunction,Copper,L1,Top*%
%TF.FilePolarity,Positive*%
%FSLAX46Y46*%
G04 Gerber Fmt 4.6, Leading zero omitted, Abs format (unit mm)*
G04 Created by KiCad (PCBNEW 9.0.0) date 2025-03-28 10:26:18*
%MOMM*%
%LPD*%
G01*
G04 APERTURE LIST*
G04 Aperture macros list*
%AMRoundRect*
0 Rectangle with rounded corners*
0 $1 Rounding radius*
0 $2 $3 $4 $5 $6 $7 $8 $9 X,Y pos of 4 corners*
0 Add a 4 corners polygon primitive as box body*
4,1,4,$2,$3,$4,$5,$6,$7,$8,$9,$2,$3,0*
0 Add four circle primitives for the rounded corners*
1,1,$1+$1,$2,$3*
1,1,$1+$1,$4,$5*
1,1,$1+$1,$6,$7*
1,1,$1+$1,$8,$9*
0 Add four rect primitives between the rounded corners*
20,1,$1+$1,$2,$3,$4,$5,0*
20,1,$1+$1,$4,$5,$6,$7,0*
20,1,$1+$1,$6,$7,$8,$9,0*
20,1,$1+$1,$8,$9,$2,$3,0*%
G04 Aperture macros list end*
%TA.AperFunction,SMDPad,CuDef*%
%ADD10RoundRect,0.250000X-0.250000X-0.475000X0.250000X-0.475000X0.250000X0.475000X-0.250000X0.475000X0*%
%TD*%
%TA.AperFunction,SMDPad,CuDef*%
%ADD11RoundRect,0.250000X-0.262500X-0.450000X0.262500X-0.450000X0.262500X0.450000X-0.262500X0.450000X0*%
%TD*%
%TA.AperFunction,SMDPad,CuDef*%
%ADD12RoundRect,0.100000X-0.637500X-0.100000X0.637500X-0.100000X0.637500X0.100000X-0.637500X0.100000X0*%
%TD*%
%TA.AperFunction,SMDPad,CuDef*%
%ADD13C,1.000000*%
%TD*%
%TA.AperFunction,SMDPad,CuDef*%
%ADD14RoundRect,0.200000X-0.200000X-0.275000X0.200000X-0.275000X0.200000X0.275000X-0.200000X0.275000X0*%
%TD*%
%TA.AperFunction,SMDPad,CuDef*%
%ADD15RoundRect,0.250000X-0.312500X-0.625000X0.312500X-0.625000X0.312500X0.625000X-0.312500X0.625000X0*%
%TD*%
%TA.AperFunction,ComponentPad*%
%ADD16R,1.905000X2.000000*%
%TD*%
%TA.AperFunction,ComponentPad*%
%ADD17O,1.905000X2.000000*%
%TD*%
%TA.AperFunction,SMDPad,CuDef*%
%ADD18RoundRect,0.250000X-0.600000X-1.600000X0.600000X-1.600000X0.600000X1.600000X-0.600000X1.600000X0*%
%TD*%
%TA.AperFunction,SMDPad,CuDef*%
%ADD19RoundRect,0.150000X-0.512500X-0.150000X0.512500X-0.150000X0.512500X0.150000X-0.512500X0.150000X0*%
%TD*%
%TA.AperFunction,ComponentPad*%
%ADD20RoundRect,0.250000X-0.350000X-0.625000X0.350000X-0.625000X0.350000X0.625000X-0.350000X0.625000X0*%
%TD*%
%TA.AperFunction,ComponentPad*%
%ADD21O,1.200000X1.750000*%
%TD*%
%TA.AperFunction,BGAPad,CuDef*%
%ADD22C,0.200000*%
%TD*%
%TA.AperFunction,SMDPad,CuDef*%
%ADD23RoundRect,0.112500X-0.187500X-0.112500X0.187500X-0.112500X0.187500X0.112500X-0.187500X0.112500X0*%
%TD*%
%TA.AperFunction,SMDPad,CuDef*%
%ADD24RoundRect,0.062500X-0.337500X-0.062500X0.337500X-0.062500X0.337500X0.062500X-0.337500X0.062500X0*%
%TD*%
%TA.AperFunction,HeatsinkPad*%
%ADD25R,1.700000X1.400000*%
%TD*%
%TA.AperFunction,SMDPad,CuDef*%
%ADD26RoundRect,0.250000X-0.325000X-0.650000X0.325000X-0.650000X0.325000X0.650000X-0.325000X0.650000X0*%
%TD*%
%TA.AperFunction,SMDPad,CuDef*%
%ADD27RoundRect,0.125000X-0.537500X-0.125000X0.537500X-0.125000X0.537500X0.125000X-0.537500X0.125000X0*%
%TD*%
%TA.AperFunction,SMDPad,CuDef*%
%ADD28RoundRect,0.100000X-0.130000X-0.100000X0.130000X-0.100000X0.130000X0.100000X-0.130000X0.100000X0*%
%TD*%
%TA.AperFunction,SMDPad,CuDef*%
%ADD29RoundRect,0.150000X-0.687500X-0.150000X0.687500X-0.150000X0.687500X0.150000X-0.687500X0.150000X0*%
%TD*%
%TA.AperFunction,HeatsinkPad*%
%ADD30R,2.100000X3.300000*%
%TD*%
%TA.AperFunction,SMDPad,CuDef*%
%ADD31RoundRect,0.140000X-0.140000X-0.170000X0.140000X-0.170000X0.140000X0.170000X-0.140000X0.170000X0*%
%TD*%
%TA.AperFunction,SMDPad,CuDef*%
%ADD32RoundRect,0.087500X-0.250000X-0.087500X0.250000X-0.087500X0.250000X0.087500X-0.250000X0.087500X0*%
%TD*%
%TA.AperFunction,SMDPad,CuDef*%
%ADD33RoundRect,0.175000X-0.175000X-0.425000X0.175000X-0.425000X0.175000X0.425000X-0.175000X0.425000X0*%
%TD*%
%TA.AperFunction,SMDPad,CuDef*%
%ADD34RoundRect,0.190000X0.190000X0.410000X-0.190000X0.410000X-0.190000X-0.410000X0.190000X-0.410000X0*%
%TD*%
%TA.AperFunction,SMDPad,CuDef*%
%ADD35RoundRect,0.200000X0.200000X0.400000X-0.200000X0.400000X-0.200000X-0.400000X0.200000X-0.400000X0*%
%TD*%
%TA.AperFunction,SMDPad,CuDef*%
%ADD36RoundRect,0.175000X0.175000X0.425000X-0.175000X0.425000X-0.175000X-0.425000X0.175000X-0.425000X0*%
%TD*%
%TA.AperFunction,SMDPad,CuDef*%
%ADD37RoundRect,0.190000X-0.190000X-0.410000X0.190000X-0.410000X0.190000X0.410000X-0.190000X0.410000X0*%
%TD*%
%TA.AperFunction,SMDPad,CuDef*%
%ADD38RoundRect,0.200000X-0.200000X-0.400000X0.200000X-0.400000X0.200000X0.400000X-0.200000X0.400000X0*%
%TD*%
%TA.AperFunction,HeatsinkPad*%
%ADD39O,1.100000X1.700000*%
%TD*%
%TA.AperFunction,ComponentPad*%
%ADD40R,1.700000X1.700000*%
%TD*%
%TA.AperFunction,ComponentPad*%
%ADD41O,1.700000X1.700000*%
%TD*%
G04 APERTURE END LIST*
D10*
%TO.P,C6,1*%
%TO.N,/3V3*%
X152480000Y-91560000D03*
%TO.P,C6,2*%
%TO.N,Net-(U5-VCP)*%
X154380000Y-91560000D03*
%TD*%
D11*
%TO.P,R15,1*%
%TO.N,Net-(U6-FB)*%
X165807500Y-85450000D03*
%TO.P,R15,2*%
%TO.N,Net-(R15-Pad2)*%
X167632500Y-85450000D03*
%TD*%
D12*
%TO.P,U5,1,~{SLEEP}*%
%TO.N,/3V3*%
X153092500Y-103685000D03*
%TO.P,U5,2,AOUT1*%
%TO.N,/MOTOR1_A_OUT*%
X153092500Y-104335000D03*
%TO.P,U5,3,AISEN*%
%TO.N,Net-(U5-AISEN)*%
X153092500Y-104985000D03*
%TO.P,U5,4,AOUT2*%
%TO.N,/MOTOR1_B_OUT*%
X153092500Y-105635000D03*
%TO.P,U5,5,BOUT2*%
%TO.N,/MOTOR3_B_OUT*%
X153092500Y-106285000D03*
%TO.P,U5,6,BISEN*%
%TO.N,Net-(U5-AISEN)*%
X153092500Y-106935000D03*
%TO.P,U5,7,BOUT1*%
%TO.N,/MOTOR3_A_OUT*%
X153092500Y-107585000D03*
%TO.P,U5,8,~{FAULT}*%
%TO.N,unconnected-(U5-~{FAULT}-Pad8)*%
X153092500Y-108235000D03*
%TO.P,U5,9,BIN1*%
%TO.N,/MOTOR3_CTRL1*%
X158817500Y-108235000D03*
%TO.P,U5,10,BIN2*%
%TO.N,/MOTOR3_CTRL2*%
X158817500Y-107585000D03*
%TO.P,U5,11,VCP*%
%TO.N,Net-(U5-VCP)*%
X158817500Y-106935000D03*
%TO.P,U5,12,VM*%
%TO.N,/3V3*%
X158817500Y-106285000D03*
%TO.P,U5,13,GND*%
%TO.N,-BATT*%
X158817500Y-105635000D03*
%TO.P,U5,14,VINT*%
%TO.N,/3V3*%
X158817500Y-104985000D03*
%TO.P,U5,15,AIN2*%
%TO.N,/MOTOR1_CTRL2*%
X158817500Y-104335000D03*
%TO.P,U5,16,AIN1*%
%TO.N,/MOTOR1_CTRL1*%
X158817500Y-103685000D03*
%TD*%
D13*
%TO.P,TP10,1,1*%
%TO.N,+BATT*%
X154630000Y-71960000D03*
%TD*%
D14*
%TO.P,R40,1*%
%TO.N,-BATT*%
X138415000Y-94830000D03*
%TO.P,R40,2*%
%TO.N,Net-(U4-AISEN)*%
X140065000Y-94830000D03*
%TD*%
D13*
%TO.P,TP2,1,1*%
%TO.N,+BATT*%
X151580000Y-65860000D03*
%TD*%
D15*
%TO.P,R3,1*%
%TO.N,/FAST_CHARGE_CTRL*%
X134567500Y-66220000D03*
%TO.P,R3,2*%
%TO.N,Net-(Q2-B)*%
X137492500Y-66220000D03*
%TD*%
D13*
%TO.P,TP4,1,1*%
%TO.N,+BATT*%
X151580000Y-71960000D03*
%TD*%
D11*
%TO.P,R16,1*%
%TO.N,Net-(R15-Pad2)*%
X165807500Y-88400000D03*
%TO.P,R16,2*%
%TO.N,-BATT*%
X167632500Y-88400000D03*
%TD*%
D10*
%TO.P,C7,1*%
%TO.N,/3V3*%
X152480000Y-94570000D03*
%TO.P,C7,2*%
%TO.N,-BATT*%
X154380000Y-94570000D03*
%TD*%
D15*
%TO.P,R27,1*%
%TO.N,Net-(R2-Pad1)*%
X140177500Y-76090000D03*
%TO.P,R27,2*%
%TO.N,+BATT*%
X143102500Y-76090000D03*
%TD*%
D10*
%TO.P,C1,1*%
%TO.N,+BATT*%
X152480000Y-82530000D03*
%TO.P,C1,2*%
%TO.N,-BATT*%
X154380000Y-82530000D03*
%TD*%
D16*
%TO.P,Q3,1,B*%
%TO.N,Net-(Q3-B)*%
X228600000Y-85725000D03*
D17*
%TO.P,Q3,2,C*%
%TO.N,+BATT*%
X231140000Y-85725000D03*
%TO.P,Q3,3,E*%
%TO.N,/EXT_LOAD2_OUT*%
X233680000Y-85725000D03*
%TD*%
D14*
%TO.P,R12,1*%
%TO.N,-BATT*%
X134405000Y-84790000D03*
%TO.P,R12,2*%
%TO.N,Net-(U4-AISEN)*%
X136055000Y-84790000D03*
%TD*%
%TO.P,R39,1*%
%TO.N,-BATT*%
X138415000Y-92320000D03*
%TO.P,R39,2*%
%TO.N,Net-(U4-AISEN)*%
X140065000Y-92320000D03*
%TD*%
%TO.P,R21,1*%
%TO.N,Net-(R19-Pad2)*%
X134405000Y-92320000D03*
%TO.P,R21,2*%
%TO.N,Net-(R18-Pad1)*%
X136055000Y-92320000D03*
%TD*%
D10*
%TO.P,C10,1*%
%TO.N,Net-(C10-Pad1)*%
X156930000Y-85540000D03*
%TO.P,C10,2*%
%TO.N,/USB 5V*%
X158830000Y-85540000D03*
%TD*%
D15*
%TO.P,R36,1*%
%TO.N,-BATT*%
X145787500Y-66220000D03*
%TO.P,R36,2*%
%TO.N,Net-(U8-FB)*%
X148712500Y-66220000D03*
%TD*%
D13*
%TO.P,TP17,1,1*%
%TO.N,/9V*%
X157680000Y-75010000D03*
%TD*%
%TO.P,TP19,1,1*%
%TO.N,Net-(U1-IN-)*%
X175260000Y-46355000D03*
%TD*%
D18*
%TO.P,L5,1,1*%
%TO.N,Net-(L3-Pad2)*%
X151605000Y-130810000D03*
%TO.P,L5,2,2*%
%TO.N,/USB 5V*%
X154305000Y-130810000D03*
%TD*%
D10*
%TO.P,C13,1*%
%TO.N,/9V*%
X156930000Y-94570000D03*
%TO.P,C13,2*%
%TO.N,-BATT*%
X158830000Y-94570000D03*
%TD*%
D14*
%TO.P,R1,1*%
%TO.N,+BATT*%
X134405000Y-82280000D03*
%TO.P,R1,2*%
%TO.N,Net-(U1-IN-)*%
X136055000Y-82280000D03*
%TD*%
D15*
%TO.P,R37,1*%
%TO.N,Net-(U8-EN)*%
X145787500Y-69510000D03*
%TO.P,R37,2*%
%TO.N,/9V*%
X148712500Y-69510000D03*
%TD*%
D19*
%TO.P,U8,1,GND*%
%TO.N,-BATT*%
X128652500Y-105485000D03*
%TO.P,U8,2,SW*%
%TO.N,Net-(U8-SW)*%
X128652500Y-106435000D03*
%TO.P,U8,3,IN*%
%TO.N,/9V*%
X128652500Y-107385000D03*
%TO.P,U8,4,FB*%
%TO.N,Net-(U8-FB)*%
X130927500Y-107385000D03*
%TO.P,U8,5,EN*%
%TO.N,Net-(U8-EN)*%
X130927500Y-106435000D03*
%TO.P,U8,6,BST*%
%TO.N,Net-(U8-BST)*%
X130927500Y-105485000D03*
%TD*%
D15*
%TO.P,R9,1*%
%TO.N,/9V*%
X134567500Y-72800000D03*
%TO.P,R9,2*%
%TO.N,Net-(U3-VBUS)*%
X137492500Y-72800000D03*
%TD*%
D20*
%TO.P,J3,1,Pin_1*%
%TO.N,+BATT*%
X136200000Y-105480000D03*
D21*
%TO.P,J3,2,Pin_2*%
%TO.N,-BATT*%
X138200000Y-105480000D03*
%TD*%
D14*
%TO.P,R33,1*%
%TO.N,Net-(U1-IN-)*%
X138415000Y-89810000D03*
%TO.P,R33,2*%
%TO.N,-BATT*%
X140065000Y-89810000D03*
%TD*%
D22*
%TO.P,U7,A1,SW*%
%TO.N,Net-(U7-SW)*%
X142860000Y-104420000D03*
%TO.P,U7,A2,VIN*%
%TO.N,+BATT*%
X143260000Y-104420000D03*
%TO.P,U7,B1,EN*%
X142860000Y-104820000D03*
%TO.P,U7,B2,GND*%
%TO.N,-BATT*%
X143260000Y-104820000D03*
%TO.P,U7,C1,VSEL1*%
%TO.N,+BATT*%
X142860000Y-105220000D03*
%TO.P,U7,C2,VOS*%
%TO.N,Net-(U7-SW)*%
X143260000Y-105220000D03*
%TO.P,U7,D1,VSEL2*%
%TO.N,+BATT*%
X142860000Y-105620000D03*
%TO.P,U7,D2,VSEL3*%
X143260000Y-105620000D03*
%TD*%
D15*
%TO.P,R20,1*%
%TO.N,/CTRL_EXT_LOAD1*%
X140177500Y-30480000D03*
%TO.P,R20,2*%
%TO.N,Net-(R17-Pad1)*%
X143102500Y-30480000D03*
%TD*%
D13*
%TO.P,TP7,1,1*%
%TO.N,Net-(U7-SW)*%
X167640000Y-45720000D03*
%TD*%
D11*
%TO.P,R4,1*%
%TO.N,+BATT*%
X161397500Y-82500000D03*
%TO.P,R4,2*%
%TO.N,Net-(U1-A0)*%
X163222500Y-82500000D03*
%TD*%
%TO.P,R34,1*%
%TO.N,/USB 5V*%
X165807500Y-91350000D03*
%TO.P,R34,2*%
%TO.N,Net-(R34-Pad2)*%
X167632500Y-91350000D03*
%TD*%
D15*
%TO.P,R29,1*%
%TO.N,/5V*%
X145787500Y-62930000D03*
%TO.P,R29,2*%
%TO.N,Net-(R28-Pad1)*%
X148712500Y-62930000D03*
%TD*%
D13*
%TO.P,TP22,1,1*%
%TO.N,/3V3*%
X160730000Y-71960000D03*
%TD*%
%TO.P,TP12,1,1*%
%TO.N,/EXT_LOAD2_OUT*%
X154630000Y-78060000D03*
%TD*%
D10*
%TO.P,C4,1*%
%TO.N,/3V3*%
X152480000Y-85540000D03*
%TO.P,C4,2*%
%TO.N,Net-(U4-VCP)*%
X154380000Y-85540000D03*
%TD*%
D13*
%TO.P,TP1,1,1*%
%TO.N,Net-(Q2-B)*%
X151580000Y-62810000D03*
%TD*%
%TO.P,TP9,1,1*%
%TO.N,Net-(U8-EN)*%
X154630000Y-68910000D03*
%TD*%
%TO.P,TP13,1,1*%
%TO.N,/EXT_LOAD1_OUT*%
X163195000Y-39370000D03*
%TD*%
%TO.P,TP11,1,1*%
%TO.N,Net-(D2-PadC)*%
X154630000Y-75010000D03*
%TD*%
D23*
%TO.P,D1,1*%
%TO.N,N/C*%
X124045000Y-105510000D03*
%TO.P,D1,2*%
X126145000Y-105510000D03*
%TD*%
D16*
%TO.P,Q1,1,B*%
%TO.N,Net-(Q1-B)*%
X222250000Y-46030000D03*
D17*
%TO.P,Q1,2,C*%
%TO.N,+BATT*%
X224790000Y-46030000D03*
%TO.P,Q1,3,E*%
%TO.N,/EXT_LOAD1_OUT*%
X227330000Y-46030000D03*
%TD*%
D15*
%TO.P,R19,1*%
%TO.N,Net-(D1-PadC)*%
X134567500Y-79380000D03*
%TO.P,R19,2*%
%TO.N,Net-(R19-Pad2)*%
X137492500Y-79380000D03*
%TD*%
D18*
%TO.P,L4,1,1*%
%TO.N,Net-(U8-SW)*%
X146880000Y-100765000D03*
%TO.P,L4,2,2*%
%TO.N,Net-(L3-Pad2)*%
X149580000Y-100765000D03*
%TD*%
D11*
%TO.P,R6,1*%
%TO.N,/5V*%
X161397500Y-88400000D03*
%TO.P,R6,2*%
%TO.N,Net-(U2-STAT)*%
X163222500Y-88400000D03*
%TD*%
D15*
%TO.P,R2,1*%
%TO.N,Net-(R2-Pad1)*%
X134567500Y-62930000D03*
%TO.P,R2,2*%
%TO.N,+BATT*%
X137492500Y-62930000D03*
%TD*%
D24*
%TO.P,U2,1,V_{DD}*%
%TO.N,/USB 5V*%
X178045000Y-108185000D03*
%TO.P,U2,2,V_{DD}*%
X178045000Y-108685000D03*
%TO.P,U2,3,V_{BAT}*%
%TO.N,+BATT*%
X178045000Y-109185000D03*
%TO.P,U2,4,V_{BAT}*%
X178045000Y-109685000D03*
%TO.P,U2,5,STAT*%
%TO.N,Net-(U2-STAT)*%
X180945000Y-109685000D03*
%TO.P,U2,6,V_{SS}*%
%TO.N,-BATT*%
X180945000Y-109185000D03*
%TO.P,U2,7,NC*%
%TO.N,unconnected-(U2-NC-Pad7)*%
X180945000Y-108685000D03*
%TO.P,U2,8,PROG*%
%TO.N,Net-(U2-PROG)*%
X180945000Y-108185000D03*
D25*
%TO.P,U2,9*%
%TO.N,N/C*%
X179495000Y-108935000D03*
%TD*%
D26*
%TO.P,C8,1*%
%TO.N,/5V*%
X118625000Y-105710000D03*
%TO.P,C8,2*%
%TO.N,Net-(C15-Pad1)*%
X121575000Y-105710000D03*
%TD*%
D15*
%TO.P,R18,1*%
%TO.N,Net-(R18-Pad1)*%
X134567500Y-76090000D03*
%TO.P,R18,2*%
%TO.N,Net-(Q1-B)*%
X137492500Y-76090000D03*
%TD*%
D11*
%TO.P,R8,1*%
%TO.N,-BATT*%
X161397500Y-91350000D03*
%TO.P,R8,2*%
%TO.N,Net-(U3-DM)*%
X163222500Y-91350000D03*
%TD*%
D14*
%TO.P,R14,1*%
%TO.N,/5V*%
X134405000Y-89810000D03*
%TO.P,R14,2*%
%TO.N,Net-(U6-FB)*%
X136055000Y-89810000D03*
%TD*%
D13*
%TO.P,TP6,1,1*%
%TO.N,Net-(U7-SW)*%
X151580000Y-78060000D03*
%TD*%
D15*
%TO.P,R38,1*%
%TO.N,-BATT*%
X145787500Y-72800000D03*
%TO.P,R38,2*%
%TO.N,Net-(U8-EN)*%
X148712500Y-72800000D03*
%TD*%
D27*
%TO.P,U1,1,IN+*%
%TO.N,+BATT*%
X96785000Y-154260000D03*
%TO.P,U1,2,IN-*%
%TO.N,Net-(U1-IN-)*%
X96785000Y-154910000D03*
%TO.P,U1,3,GND*%
%TO.N,-BATT*%
X96785000Y-155560000D03*
%TO.P,U1,4,VS*%
%TO.N,+BATT*%
X96785000Y-156210000D03*
%TO.P,U1,5,SCL*%
%TO.N,/I2C1_SCL*%
X99060000Y-156210000D03*
%TO.P,U1,6,SDA*%
%TO.N,/I2C1_SDA*%
X99060000Y-155560000D03*
%TO.P,U1,7,A0*%
%TO.N,Net-(U1-A0)*%
X99060000Y-154910000D03*
%TO.P,U1,8,A1*%
%TO.N,-BATT*%
X99060000Y-154260000D03*
%TD*%
D28*
%TO.P,R17,1*%
%TO.N,Net-(R17-Pad1)*%
X192085000Y-105410000D03*
%TO.P,R17,2*%
%TO.N,Net-(D1-PadC)*%
X192725000Y-105410000D03*
%TD*%
D14*
%TO.P,R43,1*%
%TO.N,-BATT*%
X142425000Y-87300000D03*
%TO.P,R43,2*%
%TO.N,Net-(U5-AISEN)*%
X144075000Y-87300000D03*
%TD*%
D11*
%TO.P,R11,1*%
%TO.N,Net-(U3-PG)*%
X165807500Y-82500000D03*
%TO.P,R11,2*%
%TO.N,-BATT*%
X167632500Y-82500000D03*
%TD*%
D14*
%TO.P,R30,1*%
%TO.N,+BATT*%
X138415000Y-82280000D03*
%TO.P,R30,2*%
%TO.N,Net-(U1-IN-)*%
X140065000Y-82280000D03*
%TD*%
D15*
%TO.P,R7,1*%
%TO.N,/9V*%
X134567500Y-69510000D03*
%TO.P,R7,2*%
%TO.N,/3V3*%
X137492500Y-69510000D03*
%TD*%
D29*
%TO.P,U3,1,VDD*%
%TO.N,/3V3*%
X134832500Y-97535000D03*
%TO.P,U3,2,CFG2*%
%TO.N,-BATT*%
X134832500Y-98535000D03*
%TO.P,U3,3,CFG3*%
X134832500Y-99535000D03*
%TO.P,U3,4,DP*%
%TO.N,Net-(U3-DP)*%
X134832500Y-100535000D03*
%TO.P,U3,5,DM*%
%TO.N,Net-(U3-DM)*%
X134832500Y-101535000D03*
%TO.P,U3,6,CC2*%
%TO.N,Net-(J1-CC2)*%
X140107500Y-101535000D03*
%TO.P,U3,7,CC1*%
%TO.N,Net-(J1-CC1)*%
X140107500Y-100535000D03*
%TO.P,U3,8,VBUS*%
%TO.N,Net-(U3-VBUS)*%
X140107500Y-99535000D03*
%TO.P,U3,9,CFG1*%
%TO.N,-BATT*%
X140107500Y-98535000D03*
%TO.P,U3,10,PG*%
%TO.N,Net-(U3-PG)*%
X140107500Y-97535000D03*
D30*
%TO.P,U3,11,GND*%
%TO.N,-BATT*%
X137470000Y-99535000D03*
%TD*%
D10*
%TO.P,C11,1*%
%TO.N,-BATT*%
X156930000Y-88550000D03*
%TO.P,C11,2*%
%TO.N,Net-(C10-Pad1)*%
X158830000Y-88550000D03*
%TD*%
D13*
%TO.P,TP16,1,1*%
%TO.N,+BATT*%
X157680000Y-71960000D03*
%TD*%
D15*
%TO.P,R28,1*%
%TO.N,Net-(R28-Pad1)*%
X140177500Y-79380000D03*
%TO.P,R28,2*%
%TO.N,Net-(R2-Pad1)*%
X143102500Y-79380000D03*
%TD*%
D11*
%TO.P,R35,1*%
%TO.N,Net-(R34-Pad2)*%
X165807500Y-94300000D03*
%TO.P,R35,2*%
%TO.N,Net-(U8-FB)*%
X167632500Y-94300000D03*
%TD*%
D10*
%TO.P,C5,1*%
%TO.N,/3V3*%
X152480000Y-88550000D03*
%TO.P,C5,2*%
%TO.N,-BATT*%
X154380000Y-88550000D03*
%TD*%
D11*
%TO.P,R5,1*%
%TO.N,Net-(U2-PROG)*%
X161397500Y-85450000D03*
%TO.P,R5,2*%
%TO.N,-BATT*%
X163222500Y-85450000D03*
%TD*%
D14*
%TO.P,R42,1*%
%TO.N,-BATT*%
X142425000Y-84790000D03*
%TO.P,R42,2*%
%TO.N,Net-(U5-AISEN)*%
X144075000Y-84790000D03*
%TD*%
D11*
%TO.P,R10,1*%
%TO.N,Net-(U3-DP)*%
X161397500Y-94300000D03*
%TO.P,R10,2*%
%TO.N,-BATT*%
X163222500Y-94300000D03*
%TD*%
D13*
%TO.P,TP18,1,1*%
%TO.N,unconnected-(TP18-Pad1)*%
X157680000Y-78060000D03*
%TD*%
D31*
%TO.P,C3,1*%
%TO.N,-BATT*%
X142670000Y-99040000D03*
%TO.P,C3,2*%
%TO.N,/3V3*%
X143630000Y-99040000D03*
%TD*%
D18*
%TO.P,L3,1,1*%
%TO.N,Net-(U8-SW)*%
X146880000Y-95125000D03*
%TO.P,L3,2,2*%
%TO.N,Net-(L3-Pad2)*%
X149580000Y-95125000D03*
%TD*%
D31*
%TO.P,C14,1*%
%TO.N,Net-(U8-SW)*%
X142670000Y-101010000D03*
%TO.P,C14,2*%
%TO.N,Net-(U8-BST)*%
X143630000Y-101010000D03*
%TD*%
D23*
%TO.P,D2,1*%
%TO.N,N/C*%
X124045000Y-108460000D03*
%TO.P,D2,2*%
X126145000Y-108460000D03*
%TD*%
D16*
%TO.P,Q2,1,B*%
%TO.N,Net-(Q2-B)*%
X221615000Y-69850000D03*
D17*
%TO.P,Q2,2,C*%
%TO.N,/5V*%
X224155000Y-69850000D03*
%TO.P,Q2,3,E*%
%TO.N,+BATT*%
X226695000Y-69850000D03*
%TD*%
D13*
%TO.P,TP23,1,1*%
%TO.N,/3V3*%
X160730000Y-75010000D03*
%TD*%
D18*
%TO.P,L1,1,1*%
%TO.N,+BATT*%
X146880000Y-83845000D03*
%TO.P,L1,2,2*%
%TO.N,Net-(U6-SW)*%
X149580000Y-83845000D03*
%TD*%
D13*
%TO.P,TP3,1,1*%
%TO.N,/5V*%
X151580000Y-68910000D03*
%TD*%
D28*
%TO.P,R23,1*%
%TO.N,Net-(R22-Pad2)*%
X190470000Y-110490000D03*
%TO.P,R23,2*%
%TO.N,Net-(D2-PadC)*%
X191110000Y-110490000D03*
%TD*%
D13*
%TO.P,TP8,1,1*%
%TO.N,/USB 5V*%
X154630000Y-65860000D03*
%TD*%
D32*
%TO.P,U6,1,FB*%
%TO.N,Net-(U6-FB)*%
X142662500Y-108280000D03*
%TO.P,U6,2,EN*%
%TO.N,+BATT*%
X142662500Y-108780000D03*
%TO.P,U6,3,VIN*%
X142662500Y-109280000D03*
%TO.P,U6,4,GND*%
%TO.N,-BATT*%
X144087500Y-109280000D03*
%TO.P,U6,5,SW*%
%TO.N,Net-(U6-SW)*%
X144087500Y-108780000D03*
%TO.P,U6,6,VOUT*%
%TO.N,/5V*%
X144087500Y-108280000D03*
%TD*%
D10*
%TO.P,C9,1*%
%TO.N,+BATT*%
X156930000Y-82530000D03*
%TO.P,C9,2*%
%TO.N,-BATT*%
X158830000Y-82530000D03*
%TD*%
D15*
%TO.P,R24,1*%
%TO.N,Net-(D2-PadC)*%
X140177500Y-69510000D03*
%TO.P,R24,2*%
%TO.N,Net-(R24-Pad2)*%
X143102500Y-69510000D03*
%TD*%
D33*
%TO.P,J1,A5,CC1*%
%TO.N,Net-(J1-CC1)*%
X199525000Y-87090000D03*
D34*
%TO.P,J1,A9,VBUS*%
%TO.N,/9V*%
X201545000Y-87090000D03*
D35*
%TO.P,J1,A12,GND*%
%TO.N,-BATT*%
X202775000Y-87090000D03*
D36*
%TO.P,J1,B5,CC2*%
%TO.N,Net-(J1-CC2)*%
X200525000Y-87090000D03*
D37*
%TO.P,J1,B9,VBUS*%
%TO.N,/9V*%
X198505000Y-87090000D03*
D38*
%TO.P,J1,B12,GND*%
%TO.N,-BATT*%
X197275000Y-87090000D03*
D39*
%TO.P,J1,S1,SHIELD*%
X195705000Y-87170000D03*
X195705000Y-90970000D03*
X204345000Y-87170000D03*
X204345000Y-90970000D03*
%TD*%
D14*
%TO.P,R31,1*%
%TO.N,Net-(U1-IN-)*%
X138415000Y-84790000D03*
%TO.P,R31,2*%
%TO.N,-BATT*%
X140065000Y-84790000D03*
%TD*%
%TO.P,R32,1*%
%TO.N,Net-(U1-IN-)*%
X138415000Y-87300000D03*
%TO.P,R32,2*%
%TO.N,-BATT*%
X140065000Y-87300000D03*
%TD*%
D10*
%TO.P,C12,1*%
%TO.N,/3V3*%
X156930000Y-91560000D03*
%TO.P,C12,2*%
%TO.N,-BATT*%
X158830000Y-91560000D03*
%TD*%
D13*
%TO.P,TP21,1,1*%
%TO.N,/USB 5V*%
X160730000Y-68910000D03*
%TD*%
D31*
%TO.P,C2,1*%
%TO.N,-BATT*%
X142670000Y-97070000D03*
%TO.P,C2,2*%
%TO.N,+BATT*%
X143630000Y-97070000D03*
%TD*%
D14*
%TO.P,R41,1*%
%TO.N,-BATT*%
X142425000Y-82280000D03*
%TO.P,R41,2*%
%TO.N,Net-(U4-AISEN)*%
X144075000Y-82280000D03*
%TD*%
D18*
%TO.P,L2,1,1*%
%TO.N,Net-(U7-SW)*%
X146880000Y-89485000D03*
%TO.P,L2,2,2*%
%TO.N,/3V3*%
X149580000Y-89485000D03*
%TD*%
D15*
%TO.P,R22,1*%
%TO.N,/CTRL_EXT_LOAD2*%
X140177500Y-66220000D03*
%TO.P,R22,2*%
%TO.N,Net-(R22-Pad2)*%
X143102500Y-66220000D03*
%TD*%
D14*
%TO.P,R44,1*%
%TO.N,-BATT*%
X142425000Y-89810000D03*
%TO.P,R44,2*%
%TO.N,Net-(U5-AISEN)*%
X144075000Y-89810000D03*
%TD*%
%TO.P,R25,1*%
%TO.N,Net-(R24-Pad2)*%
X134405000Y-94830000D03*
%TO.P,R25,2*%
%TO.N,Net-(R25-Pad2)*%
X136055000Y-94830000D03*
%TD*%
D12*
%TO.P,U4,1,~{SLEEP}*%
%TO.N,/3V3*%
X153092500Y-97095000D03*
%TO.P,U4,2,AOUT1*%
%TO.N,/MOTOR2_A_OUT*%
X153092500Y-97745000D03*
%TO.P,U4,3,AISEN*%
%TO.N,Net-(U4-AISEN)*%
X153092500Y-98395000D03*
%TO.P,U4,4,AOUT2*%
%TO.N,/MOTOR2_B_OUT*%
X153092500Y-99045000D03*
%TO.P,U4,5,BOUT2*%
%TO.N,/MOTOR4_B_OUT*%
X153092500Y-99695000D03*
%TO.P,U4,6,BISEN*%
%TO.N,Net-(U4-AISEN)*%
X153092500Y-100345000D03*
%TO.P,U4,7,BOUT1*%
%TO.N,/MOTOR4_A_OUT*%
X153092500Y-100995000D03*
%TO.P,U4,8,~{FAULT}*%
%TO.N,unconnected-(U4-~{FAULT}-Pad8)*%
X153092500Y-101645000D03*
%TO.P,U4,9,BIN1*%
%TO.N,/MOTOR4_CTRL1*%
X158817500Y-101645000D03*
%TO.P,U4,10,BIN2*%
%TO.N,/MOTOR4_CTRL2*%
X158817500Y-100995000D03*
%TO.P,U4,11,VCP*%
%TO.N,Net-(U4-VCP)*%
X158817500Y-100345000D03*
%TO.P,U4,12,VM*%
%TO.N,/3V3*%
X158817500Y-99695000D03*
%TO.P,U4,13,GND*%
%TO.N,-BATT*%
X158817500Y-99045000D03*
%TO.P,U4,14,VINT*%
%TO.N,/3V3*%
X158817500Y-98395000D03*
%TO.P,U4,15,AIN2*%
%TO.N,/MOTOR2_CTRL2*%
X158817500Y-97745000D03*
%TO.P,U4,16,AIN1*%
%TO.N,/MOTOR2_CTRL1*%
X158817500Y-97095000D03*
%TD*%
D13*
%TO.P,TP15,1,1*%
%TO.N,/5V*%
X157680000Y-68910000D03*
%TD*%
D15*
%TO.P,R26,1*%
%TO.N,Net-(R25-Pad2)*%
X140177500Y-72800000D03*
%TO.P,R26,2*%
%TO.N,Net-(Q3-B)*%
X143102500Y-72800000D03*
%TD*%
D13*
%TO.P,TP20,1,1*%
%TO.N,+BATT*%
X160730000Y-65860000D03*
%TD*%
%TO.P,TP14,1,1*%
%TO.N,+BATT*%
X157680000Y-65860000D03*
%TD*%
D26*
%TO.P,C15,1*%
%TO.N,Net-(C15-Pad1)*%
X118625000Y-109060000D03*
%TO.P,C15,2*%
%TO.N,-BATT*%
X121575000Y-109060000D03*
%TD*%
D13*
%TO.P,TP5,1,1*%
%TO.N,Net-(D1-PadC)*%
X151580000Y-75010000D03*
%TD*%
D40*
%TO.P,J2,1,Pin_1*%
%TO.N,/MOTOR2_B_OUT*%
X65405000Y-45720000D03*
D41*
%TO.P,J2,2,Pin_2*%
%TO.N,/MOTOR2_A_OUT*%
X67945000Y-45720000D03*
%TO.P,J2,3,Pin_3*%
%TO.N,/MOTOR4_A_OUT*%
X65405000Y-48260000D03*
%TO.P,J2,4,Pin_4*%
%TO.N,/MOTOR2_CTRL1*%
X67945000Y-48260000D03*
%TO.P,J2,5,Pin_5*%
%TO.N,/MOTOR4_B_OUT*%
X65405000Y-50800000D03*
%TO.P,J2,6,Pin_6*%
%TO.N,/MOTOR2_CTRL2*%
X67945000Y-50800000D03*
%TO.P,J2,7,Pin_7*%
%TO.N,/CTRL_EXT_LOAD2*%
X65405000Y-53340000D03*
%TO.P,J2,8,Pin_8*%
%TO.N,/MOTOR4_CTRL1*%
X67945000Y-53340000D03*
%TO.P,J2,9,Pin_9*%
%TO.N,/USART2_RX*%
X65405000Y-55880000D03*
%TO.P,J2,10,Pin_10*%
%TO.N,/MOTOR4_CTRL2*%
X67945000Y-55880000D03*
%TO.P,J2,11,Pin_11*%
%TO.N,/EXT_LOAD2_OUT*%
X65405000Y-58420000D03*
%TO.P,J2,12,Pin_12*%
%TO.N,/USART2_TX*%
X67945000Y-58420000D03*
%TO.P,J2,13,Pin_13*%
%TO.N,/FAST_CHARGE_CTRL*%
X65405000Y-60960000D03*
%TO.P,J2,14,Pin_14*%
%TO.N,+BATT*%
X67945000Y-60960000D03*
%TO.P,J2,15,Pin_15*%
%TO.N,unconnected-(J2-Pin_15-Pad15)*%
X65405000Y-63500000D03*
%TO.P,J2,16,Pin_16*%
%TO.N,/I2C1_SCL*%
X67945000Y-63500000D03*
%TO.P,J2,17,Pin_17*%
%TO.N,/I2C1_SDA*%
X65405000Y-66040000D03*
%TO.P,J2,18,Pin_18*%
%TO.N,/3V3*%
X67945000Y-66040000D03*
%TO.P,J2,19,Pin_19*%
%TO.N,-BATT*%
X65405000Y-68580000D03*
%TO.P,J2,20,Pin_20*%
%TO.N,/5V*%
X67945000Y-68580000D03*
%TO.P,J2,21,Pin_21*%
%TO.N,/EXT_LOAD1_OUT*%
X65405000Y-71120000D03*
%TO.P,J2,22,Pin_22*%
%TO.N,/9V*%
X67945000Y-71120000D03*
%TO.P,J2,23,Pin_23*%
%TO.N,-BATT*%
X65405000Y-73660000D03*
%TO.P,J2,24,Pin_24*%
%TO.N,/MOTOR3_CTRL1*%
X67945000Y-73660000D03*
%TO.P,J2,25,Pin_25*%
%TO.N,/CTRL_EXT_LOAD1*%
X65405000Y-76200000D03*
%TO.P,J2,26,Pin_26*%
%TO.N,/MOTOR3_CTRL2*%
X67945000Y-76200000D03*
%TO.P,J2,27,Pin_27*%
%TO.N,/MOTOR3_A_OUT*%
X65405000Y-78740000D03*
%TO.P,J2,28,Pin_28*%
%TO.N,/MOTOR1_CTRL1*%
X67945000Y-78740000D03*
%TO.P,J2,29,Pin_29*%
%TO.N,/MOTOR3_B_OUT*%
X65405000Y-81280000D03*
%TO.P,J2,30,Pin_30*%
%TO.N,/MOTOR1_CTRL2*%
X67945000Y-81280000D03*
%TO.P,J2,31,Pin_31*%
%TO.N,/MOTOR1_B_OUT*%
X65405000Y-83820000D03*
%TO.P,J2,32,Pin_32*%
%TO.N,/MOTOR1_A_OUT*%
X67945000Y-83820000D03*
%TD*%
D14*
%TO.P,R13,1*%
%TO.N,-BATT*%
X134405000Y-87300000D03*
%TO.P,R13,2*%
%TO.N,Net-(U5-AISEN)*%
X136055000Y-87300000D03*
%TD*%
M02*
