%TF.GenerationSoftware,KiCad,Pcbnew,9.0.0*%
%TF.CreationDate,2025-03-28T10:26:18+02:00*%
%TF.ProjectId,MicroMousePower,4d696372-6f4d-46f7-9573-65506f776572,rev?*%
%TF.SameCoordinates,Original*%
%TF.FileFunction,Soldermask,Top*%
%TF.FilePolarity,Negative*%
%FSLAX46Y46*%
G04 Gerber Fmt 4.6, Leading zero omitted, Abs format (unit mm)*
G04 Created by KiCad (PCBNEW 9.0.0) date 2025-03-28 10:26:18*
%MOMM*%
%LPD*%
G01*
G04 APERTURE LIST*
G04 Aperture macros list*
%AMRoundRect*
0 Rectangle with rounded corners*
0 $1 Rounding radius*
0 $2 $3 $4 $5 $6 $7 $8 $9 X,Y pos of 4 corners*
0 Add a 4 corners polygon primitive as box body*
4,1,4,$2,$3,$4,$5,$6,$7,$8,$9,$2,$3,0*
0 Add four circle primitives for the rounded corners*
1,1,$1+$1,$2,$3*
1,1,$1+$1,$4,$5*
1,1,$1+$1,$6,$7*
1,1,$1+$1,$8,$9*
0 Add four rect primitives between the rounded corners*
20,1,$1+$1,$2,$3,$4,$5,0*
20,1,$1+$1,$4,$5,$6,$7,0*
20,1,$1+$1,$6,$7,$8,$9,0*
20,1,$1+$1,$8,$9,$2,$3,0*%
G04 Aperture macros list end*
%ADD10RoundRect,0.250000X-0.250000X-0.475000X0.250000X-0.475000X0.250000X0.475000X-0.250000X0.475000X0*%
%ADD11RoundRect,0.250000X-0.262500X-0.450000X0.262500X-0.450000X0.262500X0.450000X-0.262500X0.450000X0*%
%ADD12RoundRect,0.100000X-0.637500X-0.100000X0.637500X-0.100000X0.637500X0.100000X-0.637500X0.100000X0*%
%ADD13C,1.000000*%
%ADD14RoundRect,0.200000X-0.200000X-0.275000X0.200000X-0.275000X0.200000X0.275000X-0.200000X0.275000X0*%
%ADD15RoundRect,0.250000X-0.312500X-0.625000X0.312500X-0.625000X0.312500X0.625000X-0.312500X0.625000X0*%
%ADD16R,1.905000X2.000000*%
%ADD17O,1.905000X2.000000*%
%ADD18RoundRect,0.250000X-0.600000X-1.600000X0.600000X-1.600000X0.600000X1.600000X-0.600000X1.600000X0*%
%ADD19RoundRect,0.150000X-0.512500X-0.150000X0.512500X-0.150000X0.512500X0.150000X-0.512500X0.150000X0*%
%ADD20RoundRect,0.250000X-0.350000X-0.625000X0.350000X-0.625000X0.350000X0.625000X-0.350000X0.625000X0*%
%ADD21O,1.200000X1.750000*%
%ADD22C,0.300000*%
%ADD23RoundRect,0.112500X-0.187500X-0.112500X0.187500X-0.112500X0.187500X0.112500X-0.187500X0.112500X0*%
%ADD24RoundRect,0.062500X-0.337500X-0.062500X0.337500X-0.062500X0.337500X0.062500X-0.337500X0.062500X0*%
%ADD25R,1.700000X1.400000*%
%ADD26RoundRect,0.250000X-0.325000X-0.650000X0.325000X-0.650000X0.325000X0.650000X-0.325000X0.650000X0*%
%ADD27RoundRect,0.125000X-0.537500X-0.125000X0.537500X-0.125000X0.537500X0.125000X-0.537500X0.125000X0*%
%ADD28RoundRect,0.100000X-0.130000X-0.100000X0.130000X-0.100000X0.130000X0.100000X-0.130000X0.100000X0*%
%ADD29RoundRect,0.150000X-0.687500X-0.150000X0.687500X-0.150000X0.687500X0.150000X-0.687500X0.150000X0*%
%ADD30R,2.100000X3.300000*%
%ADD31RoundRect,0.140000X-0.140000X-0.170000X0.140000X-0.170000X0.140000X0.170000X-0.140000X0.170000X0*%
%ADD32RoundRect,0.087500X-0.250000X-0.087500X0.250000X-0.087500X0.250000X0.087500X-0.250000X0.087500X0*%
%ADD33RoundRect,0.175000X-0.175000X-0.425000X0.175000X-0.425000X0.175000X0.425000X-0.175000X0.425000X0*%
%ADD34RoundRect,0.190000X0.190000X0.410000X-0.190000X0.410000X-0.190000X-0.410000X0.190000X-0.410000X0*%
%ADD35RoundRect,0.200000X0.200000X0.400000X-0.200000X0.400000X-0.200000X-0.400000X0.200000X-0.400000X0*%
%ADD36RoundRect,0.175000X0.175000X0.425000X-0.175000X0.425000X-0.175000X-0.425000X0.175000X-0.425000X0*%
%ADD37RoundRect,0.190000X-0.190000X-0.410000X0.190000X-0.410000X0.190000X0.410000X-0.190000X0.410000X0*%
%ADD38RoundRect,0.200000X-0.200000X-0.400000X0.200000X-0.400000X0.200000X0.400000X-0.200000X0.400000X0*%
%ADD39O,1.100000X1.700000*%
%ADD40R,1.700000X1.700000*%
%ADD41O,1.700000X1.700000*%
G04 APERTURE END LIST*
D10*
%TO.C,C6*%
X152480000Y-91560000D03*
X154380000Y-91560000D03*
%TD*%
D11*
%TO.C,R15*%
X165807500Y-85450000D03*
X167632500Y-85450000D03*
%TD*%
D12*
%TO.C,U5*%
X153092500Y-103685000D03*
X153092500Y-104335000D03*
X153092500Y-104985000D03*
X153092500Y-105635000D03*
X153092500Y-106285000D03*
X153092500Y-106935000D03*
X153092500Y-107585000D03*
X153092500Y-108235000D03*
X158817500Y-108235000D03*
X158817500Y-107585000D03*
X158817500Y-106935000D03*
X158817500Y-106285000D03*
X158817500Y-105635000D03*
X158817500Y-104985000D03*
X158817500Y-104335000D03*
X158817500Y-103685000D03*
%TD*%
D13*
%TO.C,TP10*%
X154630000Y-71960000D03*
%TD*%
D14*
%TO.C,R40*%
X138415000Y-94830000D03*
X140065000Y-94830000D03*
%TD*%
D13*
%TO.C,TP2*%
X151580000Y-65860000D03*
%TD*%
D15*
%TO.C,R3*%
X134567500Y-66220000D03*
X137492500Y-66220000D03*
%TD*%
D13*
%TO.C,TP4*%
X151580000Y-71960000D03*
%TD*%
D11*
%TO.C,R16*%
X165807500Y-88400000D03*
X167632500Y-88400000D03*
%TD*%
D10*
%TO.C,C7*%
X152480000Y-94570000D03*
X154380000Y-94570000D03*
%TD*%
D15*
%TO.C,R27*%
X140177500Y-76090000D03*
X143102500Y-76090000D03*
%TD*%
D10*
%TO.C,C1*%
X152480000Y-82530000D03*
X154380000Y-82530000D03*
%TD*%
D16*
%TO.C,Q3*%
X228600000Y-85725000D03*
D17*
X231140000Y-85725000D03*
X233680000Y-85725000D03*
%TD*%
D14*
%TO.C,R12*%
X134405000Y-84790000D03*
X136055000Y-84790000D03*
%TD*%
%TO.C,R39*%
X138415000Y-92320000D03*
X140065000Y-92320000D03*
%TD*%
%TO.C,R21*%
X134405000Y-92320000D03*
X136055000Y-92320000D03*
%TD*%
D10*
%TO.C,C10*%
X156930000Y-85540000D03*
X158830000Y-85540000D03*
%TD*%
D15*
%TO.C,R36*%
X145787500Y-66220000D03*
X148712500Y-66220000D03*
%TD*%
D13*
%TO.C,TP17*%
X157680000Y-75010000D03*
%TD*%
%TO.C,TP19*%
X175260000Y-46355000D03*
%TD*%
D18*
%TO.C,L5*%
X151605000Y-130810000D03*
X154305000Y-130810000D03*
%TD*%
D10*
%TO.C,C13*%
X156930000Y-94570000D03*
X158830000Y-94570000D03*
%TD*%
D14*
%TO.C,R1*%
X134405000Y-82280000D03*
X136055000Y-82280000D03*
%TD*%
D15*
%TO.C,R37*%
X145787500Y-69510000D03*
X148712500Y-69510000D03*
%TD*%
D19*
%TO.C,U8*%
X128652500Y-105485000D03*
X128652500Y-106435000D03*
X128652500Y-107385000D03*
X130927500Y-107385000D03*
X130927500Y-106435000D03*
X130927500Y-105485000D03*
%TD*%
D15*
%TO.C,R9*%
X134567500Y-72800000D03*
X137492500Y-72800000D03*
%TD*%
D20*
%TO.C,J3*%
X136200000Y-105480000D03*
D21*
X138200000Y-105480000D03*
%TD*%
D14*
%TO.C,R33*%
X138415000Y-89810000D03*
X140065000Y-89810000D03*
%TD*%
D22*
%TO.C,U7*%
X142860000Y-104420000D03*
X143260000Y-104420000D03*
X142860000Y-104820000D03*
X143260000Y-104820000D03*
X142860000Y-105220000D03*
X143260000Y-105220000D03*
X142860000Y-105620000D03*
X143260000Y-105620000D03*
%TD*%
D15*
%TO.C,R20*%
X140177500Y-30480000D03*
X143102500Y-30480000D03*
%TD*%
D13*
%TO.C,TP7*%
X167640000Y-45720000D03*
%TD*%
D11*
%TO.C,R4*%
X161397500Y-82500000D03*
X163222500Y-82500000D03*
%TD*%
%TO.C,R34*%
X165807500Y-91350000D03*
X167632500Y-91350000D03*
%TD*%
D15*
%TO.C,R29*%
X145787500Y-62930000D03*
X148712500Y-62930000D03*
%TD*%
D13*
%TO.C,TP22*%
X160730000Y-71960000D03*
%TD*%
%TO.C,TP12*%
X154630000Y-78060000D03*
%TD*%
D10*
%TO.C,C4*%
X152480000Y-85540000D03*
X154380000Y-85540000D03*
%TD*%
D13*
%TO.C,TP1*%
X151580000Y-62810000D03*
%TD*%
%TO.C,TP9*%
X154630000Y-68910000D03*
%TD*%
%TO.C,TP13*%
X163195000Y-39370000D03*
%TD*%
%TO.C,TP11*%
X154630000Y-75010000D03*
%TD*%
D23*
%TO.C,D1*%
X124045000Y-105510000D03*
X126145000Y-105510000D03*
%TD*%
D16*
%TO.C,Q1*%
X222250000Y-46030000D03*
D17*
X224790000Y-46030000D03*
X227330000Y-46030000D03*
%TD*%
D15*
%TO.C,R19*%
X134567500Y-79380000D03*
X137492500Y-79380000D03*
%TD*%
D18*
%TO.C,L4*%
X146880000Y-100765000D03*
X149580000Y-100765000D03*
%TD*%
D11*
%TO.C,R6*%
X161397500Y-88400000D03*
X163222500Y-88400000D03*
%TD*%
D15*
%TO.C,R2*%
X134567500Y-62930000D03*
X137492500Y-62930000D03*
%TD*%
D24*
%TO.C,U2*%
X178045000Y-108185000D03*
X178045000Y-108685000D03*
X178045000Y-109185000D03*
X178045000Y-109685000D03*
X180945000Y-109685000D03*
X180945000Y-109185000D03*
X180945000Y-108685000D03*
X180945000Y-108185000D03*
D25*
X179495000Y-108935000D03*
%TD*%
D26*
%TO.C,C8*%
X118625000Y-105710000D03*
X121575000Y-105710000D03*
%TD*%
D15*
%TO.C,R18*%
X134567500Y-76090000D03*
X137492500Y-76090000D03*
%TD*%
D11*
%TO.C,R8*%
X161397500Y-91350000D03*
X163222500Y-91350000D03*
%TD*%
D14*
%TO.C,R14*%
X134405000Y-89810000D03*
X136055000Y-89810000D03*
%TD*%
D13*
%TO.C,TP6*%
X151580000Y-78060000D03*
%TD*%
D15*
%TO.C,R38*%
X145787500Y-72800000D03*
X148712500Y-72800000D03*
%TD*%
D27*
%TO.C,U1*%
X96785000Y-154260000D03*
X96785000Y-154910000D03*
X96785000Y-155560000D03*
X96785000Y-156210000D03*
X99060000Y-156210000D03*
X99060000Y-155560000D03*
X99060000Y-154910000D03*
X99060000Y-154260000D03*
%TD*%
D28*
%TO.C,R17*%
X192085000Y-105410000D03*
X192725000Y-105410000D03*
%TD*%
D14*
%TO.C,R43*%
X142425000Y-87300000D03*
X144075000Y-87300000D03*
%TD*%
D11*
%TO.C,R11*%
X165807500Y-82500000D03*
X167632500Y-82500000D03*
%TD*%
D14*
%TO.C,R30*%
X138415000Y-82280000D03*
X140065000Y-82280000D03*
%TD*%
D15*
%TO.C,R7*%
X134567500Y-69510000D03*
X137492500Y-69510000D03*
%TD*%
D29*
%TO.C,U3*%
X134832500Y-97535000D03*
X134832500Y-98535000D03*
X134832500Y-99535000D03*
X134832500Y-100535000D03*
X134832500Y-101535000D03*
X140107500Y-101535000D03*
X140107500Y-100535000D03*
X140107500Y-99535000D03*
X140107500Y-98535000D03*
X140107500Y-97535000D03*
D30*
X137470000Y-99535000D03*
%TD*%
D10*
%TO.C,C11*%
X156930000Y-88550000D03*
X158830000Y-88550000D03*
%TD*%
D13*
%TO.C,TP16*%
X157680000Y-71960000D03*
%TD*%
D15*
%TO.C,R28*%
X140177500Y-79380000D03*
X143102500Y-79380000D03*
%TD*%
D11*
%TO.C,R35*%
X165807500Y-94300000D03*
X167632500Y-94300000D03*
%TD*%
D10*
%TO.C,C5*%
X152480000Y-88550000D03*
X154380000Y-88550000D03*
%TD*%
D11*
%TO.C,R5*%
X161397500Y-85450000D03*
X163222500Y-85450000D03*
%TD*%
D14*
%TO.C,R42*%
X142425000Y-84790000D03*
X144075000Y-84790000D03*
%TD*%
D11*
%TO.C,R10*%
X161397500Y-94300000D03*
X163222500Y-94300000D03*
%TD*%
D13*
%TO.C,TP18*%
X157680000Y-78060000D03*
%TD*%
D31*
%TO.C,C3*%
X142670000Y-99040000D03*
X143630000Y-99040000D03*
%TD*%
D18*
%TO.C,L3*%
X146880000Y-95125000D03*
X149580000Y-95125000D03*
%TD*%
D31*
%TO.C,C14*%
X142670000Y-101010000D03*
X143630000Y-101010000D03*
%TD*%
D23*
%TO.C,D2*%
X124045000Y-108460000D03*
X126145000Y-108460000D03*
%TD*%
D16*
%TO.C,Q2*%
X221615000Y-69850000D03*
D17*
X224155000Y-69850000D03*
X226695000Y-69850000D03*
%TD*%
D13*
%TO.C,TP23*%
X160730000Y-75010000D03*
%TD*%
D18*
%TO.C,L1*%
X146880000Y-83845000D03*
X149580000Y-83845000D03*
%TD*%
D13*
%TO.C,TP3*%
X151580000Y-68910000D03*
%TD*%
D28*
%TO.C,R23*%
X190470000Y-110490000D03*
X191110000Y-110490000D03*
%TD*%
D13*
%TO.C,TP8*%
X154630000Y-65860000D03*
%TD*%
D32*
%TO.C,U6*%
X142662500Y-108280000D03*
X142662500Y-108780000D03*
X142662500Y-109280000D03*
X144087500Y-109280000D03*
X144087500Y-108780000D03*
X144087500Y-108280000D03*
%TD*%
D10*
%TO.C,C9*%
X156930000Y-82530000D03*
X158830000Y-82530000D03*
%TD*%
D15*
%TO.C,R24*%
X140177500Y-69510000D03*
X143102500Y-69510000D03*
%TD*%
D33*
%TO.C,J1*%
X199525000Y-87090000D03*
D34*
X201545000Y-87090000D03*
D35*
X202775000Y-87090000D03*
D36*
X200525000Y-87090000D03*
D37*
X198505000Y-87090000D03*
D38*
X197275000Y-87090000D03*
D39*
X195705000Y-87170000D03*
X195705000Y-90970000D03*
X204345000Y-87170000D03*
X204345000Y-90970000D03*
%TD*%
D14*
%TO.C,R31*%
X138415000Y-84790000D03*
X140065000Y-84790000D03*
%TD*%
%TO.C,R32*%
X138415000Y-87300000D03*
X140065000Y-87300000D03*
%TD*%
D10*
%TO.C,C12*%
X156930000Y-91560000D03*
X158830000Y-91560000D03*
%TD*%
D13*
%TO.C,TP21*%
X160730000Y-68910000D03*
%TD*%
D31*
%TO.C,C2*%
X142670000Y-97070000D03*
X143630000Y-97070000D03*
%TD*%
D14*
%TO.C,R41*%
X142425000Y-82280000D03*
X144075000Y-82280000D03*
%TD*%
D18*
%TO.C,L2*%
X146880000Y-89485000D03*
X149580000Y-89485000D03*
%TD*%
D15*
%TO.C,R22*%
X140177500Y-66220000D03*
X143102500Y-66220000D03*
%TD*%
D14*
%TO.C,R44*%
X142425000Y-89810000D03*
X144075000Y-89810000D03*
%TD*%
%TO.C,R25*%
X134405000Y-94830000D03*
X136055000Y-94830000D03*
%TD*%
D12*
%TO.C,U4*%
X153092500Y-97095000D03*
X153092500Y-97745000D03*
X153092500Y-98395000D03*
X153092500Y-99045000D03*
X153092500Y-99695000D03*
X153092500Y-100345000D03*
X153092500Y-100995000D03*
X153092500Y-101645000D03*
X158817500Y-101645000D03*
X158817500Y-100995000D03*
X158817500Y-100345000D03*
X158817500Y-99695000D03*
X158817500Y-99045000D03*
X158817500Y-98395000D03*
X158817500Y-97745000D03*
X158817500Y-97095000D03*
%TD*%
D13*
%TO.C,TP15*%
X157680000Y-68910000D03*
%TD*%
D15*
%TO.C,R26*%
X140177500Y-72800000D03*
X143102500Y-72800000D03*
%TD*%
D13*
%TO.C,TP20*%
X160730000Y-65860000D03*
%TD*%
%TO.C,TP14*%
X157680000Y-65860000D03*
%TD*%
D26*
%TO.C,C15*%
X118625000Y-109060000D03*
X121575000Y-109060000D03*
%TD*%
D13*
%TO.C,TP5*%
X151580000Y-75010000D03*
%TD*%
D40*
%TO.C,J2*%
X65405000Y-45720000D03*
D41*
X67945000Y-45720000D03*
X65405000Y-48260000D03*
X67945000Y-48260000D03*
X65405000Y-50800000D03*
X67945000Y-50800000D03*
X65405000Y-53340000D03*
X67945000Y-53340000D03*
X65405000Y-55880000D03*
X67945000Y-55880000D03*
X65405000Y-58420000D03*
X67945000Y-58420000D03*
X65405000Y-60960000D03*
X67945000Y-60960000D03*
X65405000Y-63500000D03*
X67945000Y-63500000D03*
X65405000Y-66040000D03*
X67945000Y-66040000D03*
X65405000Y-68580000D03*
X67945000Y-68580000D03*
X65405000Y-71120000D03*
X67945000Y-71120000D03*
X65405000Y-73660000D03*
X67945000Y-73660000D03*
X65405000Y-76200000D03*
X67945000Y-76200000D03*
X65405000Y-78740000D03*
X67945000Y-78740000D03*
X65405000Y-81280000D03*
X67945000Y-81280000D03*
X65405000Y-83820000D03*
X67945000Y-83820000D03*
%TD*%
D14*
%TO.C,R13*%
X134405000Y-87300000D03*
X136055000Y-87300000D03*
%TD*%
M02*
