%TF.GenerationSoftware,KiCad,Pcbnew,9.0.0*%
%TF.CreationDate,2025-03-28T10:26:18+02:00*%
%TF.ProjectId,MicroMousePower,4d696372-6f4d-46f7-9573-65506f776572,rev?*%
%TF.SameCoordinates,Original*%
%TF.FileFunction,Soldermask,Bot*%
%TF.FilePolarity,Negative*%
%FSLAX46Y46*%
G04 Gerber Fmt 4.6, Leading zero omitted, Abs format (unit mm)*
G04 Created by KiCad (PCBNEW 9.0.0) date 2025-03-28 10:26:18*
%MOMM*%
%LPD*%
G01*
G04 APERTURE LIST*
G04 Aperture macros list*
%AMRoundRect*
0 Rectangle with rounded corners*
0 $1 Rounding radius*
0 $2 $3 $4 $5 $6 $7 $8 $9 X,Y pos of 4 corners*
0 Add a 4 corners polygon primitive as box body*
4,1,4,$2,$3,$4,$5,$6,$7,$8,$9,$2,$3,0*
0 Add four circle primitives for the rounded corners*
1,1,$1+$1,$2,$3*
1,1,$1+$1,$4,$5*
1,1,$1+$1,$6,$7*
1,1,$1+$1,$8,$9*
0 Add four rect primitives between the rounded corners*
20,1,$1+$1,$2,$3,$4,$5,0*
20,1,$1+$1,$4,$5,$6,$7,0*
20,1,$1+$1,$6,$7,$8,$9,0*
20,1,$1+$1,$8,$9,$2,$3,0*%
G04 Aperture macros list end*
%ADD10R,1.905000X2.000000*%
%ADD11O,1.905000X2.000000*%
%ADD12RoundRect,0.250000X-0.350000X-0.625000X0.350000X-0.625000X0.350000X0.625000X-0.350000X0.625000X0*%
%ADD13O,1.200000X1.750000*%
%ADD14O,1.100000X1.700000*%
%ADD15R,1.700000X1.700000*%
%ADD16O,1.700000X1.700000*%
G04 APERTURE END LIST*
D10*
%TO.C,Q3*%
X228600000Y-85725000D03*
D11*
X231140000Y-85725000D03*
X233680000Y-85725000D03*
%TD*%
D12*
%TO.C,J3*%
X136200000Y-105480000D03*
D13*
X138200000Y-105480000D03*
%TD*%
D10*
%TO.C,Q1*%
X222250000Y-46030000D03*
D11*
X224790000Y-46030000D03*
X227330000Y-46030000D03*
%TD*%
D10*
%TO.C,Q2*%
X221615000Y-69850000D03*
D11*
X224155000Y-69850000D03*
X226695000Y-69850000D03*
%TD*%
D14*
%TO.C,J1*%
X195705000Y-87170000D03*
X195705000Y-90970000D03*
X204345000Y-87170000D03*
X204345000Y-90970000D03*
%TD*%
D15*
%TO.C,J2*%
X65405000Y-45720000D03*
D16*
X67945000Y-45720000D03*
X65405000Y-48260000D03*
X67945000Y-48260000D03*
X65405000Y-50800000D03*
X67945000Y-50800000D03*
X65405000Y-53340000D03*
X67945000Y-53340000D03*
X65405000Y-55880000D03*
X67945000Y-55880000D03*
X65405000Y-58420000D03*
X67945000Y-58420000D03*
X65405000Y-60960000D03*
X67945000Y-60960000D03*
X65405000Y-63500000D03*
X67945000Y-63500000D03*
X65405000Y-66040000D03*
X67945000Y-66040000D03*
X65405000Y-68580000D03*
X67945000Y-68580000D03*
X65405000Y-71120000D03*
X67945000Y-71120000D03*
X65405000Y-73660000D03*
X67945000Y-73660000D03*
X65405000Y-76200000D03*
X67945000Y-76200000D03*
X65405000Y-78740000D03*
X67945000Y-78740000D03*
X65405000Y-81280000D03*
X67945000Y-81280000D03*
X65405000Y-83820000D03*
X67945000Y-83820000D03*
%TD*%
M02*
