M48
; DRILL file {KiCad 9.0.0} date 2025-03-28T15:56:11+0200
; FORMAT={-:-/ absolute / inch / decimal}
; #@! TF.CreationDate,2025-03-28T15:56:11+02:00
; #@! TF.GenerationSoftware,Kicad,Pcbnew,9.0.0
; #@! TF.FileFunction,Plated,1,2,PTH
FMAT,2
INCH
; #@! TA.AperFunction,Plated,PTH,ViaDrill
T1C0.0118
; #@! TA.AperFunction,Plated,PTH,ComponentDrill
T2C0.0236
; #@! TA.AperFunction,Plated,PTH,ComponentDrill
T3C0.0295
; #@! TA.AperFunction,Plated,PTH,ComponentDrill
T4C0.0394
; #@! TA.AperFunction,Plated,PTH,ComponentDrill
T5C0.0433
%
G90
G05
T1
X5.8194Y-4.3833
X5.862Y-4.6029
X5.935Y-4.4977
X6.0928Y-3.2551
X6.1178Y-3.916
X6.1422Y-3.9477
X6.1448Y-3.0287
X6.1635Y-2.8279
X6.1666Y-3.8934
X6.2081Y-3.4261
X6.215Y-2.9271
X6.2162Y-3.7999
X6.2194Y-3.5498
X6.247Y-2.7859
X6.247Y-3.0968
X6.2511Y-3.4836
X6.2511Y-3.6727
X6.2841Y-3.7751
X6.3222Y-3.8435
X6.3443Y-4.0499
X6.3687Y-3.4922
X6.3733Y-3.5336
X6.3944Y-3.9224
X6.3944Y-4.1673
X6.4228Y-2.9246
X6.4253Y-4.0104
X6.4265Y-4.1858
X6.4398Y-2.8952
X6.4526Y-3.9881
X6.4615Y-3.221
X6.4619Y-2.6759
X6.4864Y-3.1882
X6.5147Y-3.0914
X6.5698Y-3.8933
X6.5818Y-3.3799
X6.5818Y-3.6488
X6.5915Y-3.7709
X6.5944Y-3.0378
X6.6887Y-4.0317
X6.7069Y-3.9333
X6.7742Y-3.4765
X6.7968Y-3.9685
X6.8143Y-4.3635
X6.8418Y-4.3892
X6.8418Y-4.5595
X6.8484Y-3.0835
X6.8706Y-2.9307
X6.9513Y-4.3975
X6.9606Y-2.9534
X6.973Y-4.2667
X7.0471Y-3.2355
X7.0503Y-3.0121
X7.0663Y-4.3984
X7.0748Y-3.7129
X7.0783Y-2.7475
X7.1002Y-2.5849
X7.1002Y-2.8538
X7.1278Y-3.8404
X7.1364Y-2.6417
X7.1743Y-2.6409
X7.1852Y-3.9167
X7.1902Y-4.5561
X7.201Y-3.9685
X7.2054Y-4.1255
X7.2054Y-4.4822
X7.2278Y-2.6933
X7.2278Y-3.5405
X7.2496Y-2.9003
X7.2496Y-3.0928
X7.2948Y-2.9387
X7.3194Y-4.2005
X7.3833Y-2.9745
X7.3833Y-4.0501
X7.438Y-4.0207
X7.4988Y-2.6811
X7.4988Y-3.0386
X7.5222Y-4.128
X7.5287Y-3.0491
X7.5439Y-3.8869
X7.5454Y-4.3732
X7.5517Y-2.732
X7.5904Y-2.6334
X7.6531Y-4.5164
X7.6872Y-2.5554
T3
X6.811Y-4.0453
X6.8898Y-4.0453
T4
X5.9055Y-2.7858
X5.9055Y-2.8858
X5.9055Y-2.9858
X5.9055Y-3.0858
X5.9055Y-3.1858
X5.9055Y-3.2858
X5.9055Y-3.3858
X5.9055Y-3.4858
X5.9055Y-3.5858
X5.9055Y-3.6858
X5.9055Y-3.7858
X5.9055Y-3.8858
X5.9055Y-3.9858
X5.9055Y-4.0858
X5.9055Y-4.1858
X5.9055Y-4.2858
X6.0055Y-2.7858
X6.0055Y-2.8858
X6.0055Y-2.9858
X6.0055Y-3.0858
X6.0055Y-3.1858
X6.0055Y-3.2858
X6.0055Y-3.3858
X6.0055Y-3.4858
X6.0055Y-3.5858
X6.0055Y-3.6858
X6.0055Y-3.7858
X6.0055Y-3.8858
X6.0055Y-3.9858
X6.0055Y-4.0858
X6.0055Y-4.1858
X6.0055Y-4.2858
T5
X7.685Y-3.5827
X7.685Y-3.6827
X7.685Y-3.7827
X7.685Y-4.0236
X7.685Y-4.1236
X7.685Y-4.2236
X7.6872Y-3.1362
X7.6872Y-3.2362
X7.6872Y-3.3362
T2
G00X6.1488Y-4.0827
M15
G01X6.1488Y-4.1063
M16
G05
G00X6.1488Y-4.2323
M15
G01X6.1488Y-4.2559
M16
G05
G00X6.489Y-4.0827
M15
G01X6.489Y-4.1063
M16
G05
G00X6.489Y-4.2323
M15
G01X6.489Y-4.2559
M16
G05
M30
