%TF.GenerationSoftware,KiCad,Pcbnew,9.0.0*%
%TF.CreationDate,2025-03-28T10:26:18+02:00*%
%TF.ProjectId,MicroMousePower,4d696372-6f4d-46f7-9573-65506f776572,rev?*%
%TF.SameCoordinates,Original*%
%TF.FileFunction,Copper,L2,Bot*%
%TF.FilePolarity,Positive*%
%FSLAX46Y46*%
G04 Gerber Fmt 4.6, Leading zero omitted, Abs format (unit mm)*
G04 Created by KiCad (PCBNEW 9.0.0) date 2025-03-28 10:26:18*
%MOMM*%
%LPD*%
G01*
G04 APERTURE LIST*
G04 Aperture macros list*
%AMRoundRect*
0 Rectangle with rounded corners*
0 $1 Rounding radius*
0 $2 $3 $4 $5 $6 $7 $8 $9 X,Y pos of 4 corners*
0 Add a 4 corners polygon primitive as box body*
4,1,4,$2,$3,$4,$5,$6,$7,$8,$9,$2,$3,0*
0 Add four circle primitives for the rounded corners*
1,1,$1+$1,$2,$3*
1,1,$1+$1,$4,$5*
1,1,$1+$1,$6,$7*
1,1,$1+$1,$8,$9*
0 Add four rect primitives between the rounded corners*
20,1,$1+$1,$2,$3,$4,$5,0*
20,1,$1+$1,$4,$5,$6,$7,0*
20,1,$1+$1,$6,$7,$8,$9,0*
20,1,$1+$1,$8,$9,$2,$3,0*%
G04 Aperture macros list end*
%TA.AperFunction,ComponentPad*%
%ADD10R,1.905000X2.000000*%
%TD*%
%TA.AperFunction,ComponentPad*%
%ADD11O,1.905000X2.000000*%
%TD*%
%TA.AperFunction,ComponentPad*%
%ADD12RoundRect,0.250000X-0.350000X-0.625000X0.350000X-0.625000X0.350000X0.625000X-0.350000X0.625000X0*%
%TD*%
%TA.AperFunction,ComponentPad*%
%ADD13O,1.200000X1.750000*%
%TD*%
%TA.AperFunction,HeatsinkPad*%
%ADD14O,1.100000X1.700000*%
%TD*%
%TA.AperFunction,ComponentPad*%
%ADD15R,1.700000X1.700000*%
%TD*%
%TA.AperFunction,ComponentPad*%
%ADD16O,1.700000X1.700000*%
%TD*%
G04 APERTURE END LIST*
D10*
%TO.P,Q3,1,B*%
%TO.N,Net-(Q3-B)*%
X228600000Y-85725000D03*
D11*
%TO.P,Q3,2,C*%
%TO.N,+BATT*%
X231140000Y-85725000D03*
%TO.P,Q3,3,E*%
%TO.N,/EXT_LOAD2_OUT*%
X233680000Y-85725000D03*
%TD*%
D12*
%TO.P,J3,1,Pin_1*%
%TO.N,+BATT*%
X136200000Y-105480000D03*
D13*
%TO.P,J3,2,Pin_2*%
%TO.N,-BATT*%
X138200000Y-105480000D03*
%TD*%
D10*
%TO.P,Q1,1,B*%
%TO.N,Net-(Q1-B)*%
X222250000Y-46030000D03*
D11*
%TO.P,Q1,2,C*%
%TO.N,+BATT*%
X224790000Y-46030000D03*
%TO.P,Q1,3,E*%
%TO.N,/EXT_LOAD1_OUT*%
X227330000Y-46030000D03*
%TD*%
D10*
%TO.P,Q2,1,B*%
%TO.N,Net-(Q2-B)*%
X221615000Y-69850000D03*
D11*
%TO.P,Q2,2,C*%
%TO.N,/5V*%
X224155000Y-69850000D03*
%TO.P,Q2,3,E*%
%TO.N,+BATT*%
X226695000Y-69850000D03*
%TD*%
D14*
%TO.P,J1,S1,SHIELD*%
%TO.N,-BATT*%
X195705000Y-87170000D03*
X195705000Y-90970000D03*
X204345000Y-87170000D03*
X204345000Y-90970000D03*
%TD*%
D15*
%TO.P,J2,1,Pin_1*%
%TO.N,/MOTOR2_B_OUT*%
X65405000Y-45720000D03*
D16*
%TO.P,J2,2,Pin_2*%
%TO.N,/MOTOR2_A_OUT*%
X67945000Y-45720000D03*
%TO.P,J2,3,Pin_3*%
%TO.N,/MOTOR4_A_OUT*%
X65405000Y-48260000D03*
%TO.P,J2,4,Pin_4*%
%TO.N,/MOTOR2_CTRL1*%
X67945000Y-48260000D03*
%TO.P,J2,5,Pin_5*%
%TO.N,/MOTOR4_B_OUT*%
X65405000Y-50800000D03*
%TO.P,J2,6,Pin_6*%
%TO.N,/MOTOR2_CTRL2*%
X67945000Y-50800000D03*
%TO.P,J2,7,Pin_7*%
%TO.N,/CTRL_EXT_LOAD2*%
X65405000Y-53340000D03*
%TO.P,J2,8,Pin_8*%
%TO.N,/MOTOR4_CTRL1*%
X67945000Y-53340000D03*
%TO.P,J2,9,Pin_9*%
%TO.N,/USART2_RX*%
X65405000Y-55880000D03*
%TO.P,J2,10,Pin_10*%
%TO.N,/MOTOR4_CTRL2*%
X67945000Y-55880000D03*
%TO.P,J2,11,Pin_11*%
%TO.N,/EXT_LOAD2_OUT*%
X65405000Y-58420000D03*
%TO.P,J2,12,Pin_12*%
%TO.N,/USART2_TX*%
X67945000Y-58420000D03*
%TO.P,J2,13,Pin_13*%
%TO.N,/FAST_CHARGE_CTRL*%
X65405000Y-60960000D03*
%TO.P,J2,14,Pin_14*%
%TO.N,+BATT*%
X67945000Y-60960000D03*
%TO.P,J2,15,Pin_15*%
%TO.N,unconnected-(J2-Pin_15-Pad15)*%
X65405000Y-63500000D03*
%TO.P,J2,16,Pin_16*%
%TO.N,/I2C1_SCL*%
X67945000Y-63500000D03*
%TO.P,J2,17,Pin_17*%
%TO.N,/I2C1_SDA*%
X65405000Y-66040000D03*
%TO.P,J2,18,Pin_18*%
%TO.N,/3V3*%
X67945000Y-66040000D03*
%TO.P,J2,19,Pin_19*%
%TO.N,-BATT*%
X65405000Y-68580000D03*
%TO.P,J2,20,Pin_20*%
%TO.N,/5V*%
X67945000Y-68580000D03*
%TO.P,J2,21,Pin_21*%
%TO.N,/EXT_LOAD1_OUT*%
X65405000Y-71120000D03*
%TO.P,J2,22,Pin_22*%
%TO.N,/9V*%
X67945000Y-71120000D03*
%TO.P,J2,23,Pin_23*%
%TO.N,-BATT*%
X65405000Y-73660000D03*
%TO.P,J2,24,Pin_24*%
%TO.N,/MOTOR3_CTRL1*%
X67945000Y-73660000D03*
%TO.P,J2,25,Pin_25*%
%TO.N,/CTRL_EXT_LOAD1*%
X65405000Y-76200000D03*
%TO.P,J2,26,Pin_26*%
%TO.N,/MOTOR3_CTRL2*%
X67945000Y-76200000D03*
%TO.P,J2,27,Pin_27*%
%TO.N,/MOTOR3_A_OUT*%
X65405000Y-78740000D03*
%TO.P,J2,28,Pin_28*%
%TO.N,/MOTOR1_CTRL1*%
X67945000Y-78740000D03*
%TO.P,J2,29,Pin_29*%
%TO.N,/MOTOR3_B_OUT*%
X65405000Y-81280000D03*
%TO.P,J2,30,Pin_30*%
%TO.N,/MOTOR1_CTRL2*%
X67945000Y-81280000D03*
%TO.P,J2,31,Pin_31*%
%TO.N,/MOTOR1_B_OUT*%
X65405000Y-83820000D03*
%TO.P,J2,32,Pin_32*%
%TO.N,/MOTOR1_A_OUT*%
X67945000Y-83820000D03*
%TD*%
M02*
