%TF.GenerationSoftware,KiCad,Pcbnew,9.0.0*%
%TF.CreationDate,2025-03-28T16:52:22+02:00*%
%TF.ProjectId,MicroMousePower,4d696372-6f4d-46f7-9573-65506f776572,rev?*%
%TF.SameCoordinates,Original*%
%TF.FileFunction,Copper,L1,Top*%
%TF.FilePolarity,Positive*%
%FSLAX46Y46*%
G04 Gerber Fmt 4.6, Leading zero omitted, Abs format (unit mm)*
G04 Created by KiCad (PCBNEW 9.0.0) date 2025-03-28 16:52:22*
%MOMM*%
%LPD*%
G01*
G04 APERTURE LIST*
G04 Aperture macros list*
%AMRoundRect*
0 Rectangle with rounded corners*
0 $1 Rounding radius*
0 $2 $3 $4 $5 $6 $7 $8 $9 X,Y pos of 4 corners*
0 Add a 4 corners polygon primitive as box body*
4,1,4,$2,$3,$4,$5,$6,$7,$8,$9,$2,$3,0*
0 Add four circle primitives for the rounded corners*
1,1,$1+$1,$2,$3*
1,1,$1+$1,$4,$5*
1,1,$1+$1,$6,$7*
1,1,$1+$1,$8,$9*
0 Add four rect primitives between the rounded corners*
20,1,$1+$1,$2,$3,$4,$5,0*
20,1,$1+$1,$4,$5,$6,$7,0*
20,1,$1+$1,$6,$7,$8,$9,0*
20,1,$1+$1,$8,$9,$2,$3,0*%
G04 Aperture macros list end*
%TA.AperFunction,SMDPad,CuDef*%
%ADD10RoundRect,0.250000X0.625000X-0.312500X0.625000X0.312500X-0.625000X0.312500X-0.625000X-0.312500X0*%
%TD*%
%TA.AperFunction,SMDPad,CuDef*%
%ADD11RoundRect,0.250000X-0.312500X-0.625000X0.312500X-0.625000X0.312500X0.625000X-0.312500X0.625000X0*%
%TD*%
%TA.AperFunction,SMDPad,CuDef*%
%ADD12RoundRect,0.250000X-0.250000X-0.475000X0.250000X-0.475000X0.250000X0.475000X-0.250000X0.475000X0*%
%TD*%
%TA.AperFunction,SMDPad,CuDef*%
%ADD13RoundRect,0.250000X-0.262500X-0.450000X0.262500X-0.450000X0.262500X0.450000X-0.262500X0.450000X0*%
%TD*%
%TA.AperFunction,SMDPad,CuDef*%
%ADD14RoundRect,0.100000X-0.100000X0.637500X-0.100000X-0.637500X0.100000X-0.637500X0.100000X0.637500X0*%
%TD*%
%TA.AperFunction,SMDPad,CuDef*%
%ADD15C,1.000000*%
%TD*%
%TA.AperFunction,SMDPad,CuDef*%
%ADD16RoundRect,0.200000X-0.200000X-0.275000X0.200000X-0.275000X0.200000X0.275000X-0.200000X0.275000X0*%
%TD*%
%TA.AperFunction,SMDPad,CuDef*%
%ADD17RoundRect,0.375000X0.375000X-0.625000X0.375000X0.625000X-0.375000X0.625000X-0.375000X-0.625000X0*%
%TD*%
%TA.AperFunction,SMDPad,CuDef*%
%ADD18RoundRect,0.500000X1.400000X-0.500000X1.400000X0.500000X-1.400000X0.500000X-1.400000X-0.500000X0*%
%TD*%
%TA.AperFunction,ComponentPad*%
%ADD19R,2.000000X1.905000*%
%TD*%
%TA.AperFunction,ComponentPad*%
%ADD20O,2.000000X1.905000*%
%TD*%
%TA.AperFunction,SMDPad,CuDef*%
%ADD21RoundRect,0.250000X-0.600000X-1.600000X0.600000X-1.600000X0.600000X1.600000X-0.600000X1.600000X0*%
%TD*%
%TA.AperFunction,SMDPad,CuDef*%
%ADD22RoundRect,0.250000X0.250000X0.475000X-0.250000X0.475000X-0.250000X-0.475000X0.250000X-0.475000X0*%
%TD*%
%TA.AperFunction,SMDPad,CuDef*%
%ADD23RoundRect,0.250000X0.312500X0.625000X-0.312500X0.625000X-0.312500X-0.625000X0.312500X-0.625000X0*%
%TD*%
%TA.AperFunction,SMDPad,CuDef*%
%ADD24RoundRect,0.150000X-0.512500X-0.150000X0.512500X-0.150000X0.512500X0.150000X-0.512500X0.150000X0*%
%TD*%
%TA.AperFunction,ComponentPad*%
%ADD25RoundRect,0.250000X-0.350000X-0.625000X0.350000X-0.625000X0.350000X0.625000X-0.350000X0.625000X0*%
%TD*%
%TA.AperFunction,ComponentPad*%
%ADD26O,1.200000X1.750000*%
%TD*%
%TA.AperFunction,SMDPad,CuDef*%
%ADD27RoundRect,0.112500X-0.112500X0.187500X-0.112500X-0.187500X0.112500X-0.187500X0.112500X0.187500X0*%
%TD*%
%TA.AperFunction,SMDPad,CuDef*%
%ADD28RoundRect,0.062500X0.062500X-0.337500X0.062500X0.337500X-0.062500X0.337500X-0.062500X-0.337500X0*%
%TD*%
%TA.AperFunction,HeatsinkPad*%
%ADD29R,1.400000X1.700000*%
%TD*%
%TA.AperFunction,SMDPad,CuDef*%
%ADD30RoundRect,0.250000X-0.325000X-0.650000X0.325000X-0.650000X0.325000X0.650000X-0.325000X0.650000X0*%
%TD*%
%TA.AperFunction,SMDPad,CuDef*%
%ADD31RoundRect,0.125000X-0.537500X-0.125000X0.537500X-0.125000X0.537500X0.125000X-0.537500X0.125000X0*%
%TD*%
%TA.AperFunction,SMDPad,CuDef*%
%ADD32RoundRect,0.100000X-0.130000X-0.100000X0.130000X-0.100000X0.130000X0.100000X-0.130000X0.100000X0*%
%TD*%
%TA.AperFunction,SMDPad,CuDef*%
%ADD33RoundRect,0.150000X0.150000X-0.687500X0.150000X0.687500X-0.150000X0.687500X-0.150000X-0.687500X0*%
%TD*%
%TA.AperFunction,HeatsinkPad*%
%ADD34R,3.300000X2.100000*%
%TD*%
%TA.AperFunction,SMDPad,CuDef*%
%ADD35RoundRect,0.140000X-0.140000X-0.170000X0.140000X-0.170000X0.140000X0.170000X-0.140000X0.170000X0*%
%TD*%
%TA.AperFunction,SMDPad,CuDef*%
%ADD36RoundRect,0.112500X-0.187500X-0.112500X0.187500X-0.112500X0.187500X0.112500X-0.187500X0.112500X0*%
%TD*%
%TA.AperFunction,SMDPad,CuDef*%
%ADD37RoundRect,0.250000X0.600000X1.600000X-0.600000X1.600000X-0.600000X-1.600000X0.600000X-1.600000X0*%
%TD*%
%TA.AperFunction,SMDPad,CuDef*%
%ADD38RoundRect,0.100000X-0.100000X0.130000X-0.100000X-0.130000X0.100000X-0.130000X0.100000X0.130000X0*%
%TD*%
%TA.AperFunction,SMDPad,CuDef*%
%ADD39RoundRect,0.087500X-0.250000X-0.087500X0.250000X-0.087500X0.250000X0.087500X-0.250000X0.087500X0*%
%TD*%
%TA.AperFunction,SMDPad,CuDef*%
%ADD40RoundRect,0.175000X-0.175000X-0.425000X0.175000X-0.425000X0.175000X0.425000X-0.175000X0.425000X0*%
%TD*%
%TA.AperFunction,SMDPad,CuDef*%
%ADD41RoundRect,0.190000X0.190000X0.410000X-0.190000X0.410000X-0.190000X-0.410000X0.190000X-0.410000X0*%
%TD*%
%TA.AperFunction,SMDPad,CuDef*%
%ADD42RoundRect,0.200000X0.200000X0.400000X-0.200000X0.400000X-0.200000X-0.400000X0.200000X-0.400000X0*%
%TD*%
%TA.AperFunction,SMDPad,CuDef*%
%ADD43RoundRect,0.175000X0.175000X0.425000X-0.175000X0.425000X-0.175000X-0.425000X0.175000X-0.425000X0*%
%TD*%
%TA.AperFunction,SMDPad,CuDef*%
%ADD44RoundRect,0.190000X-0.190000X-0.410000X0.190000X-0.410000X0.190000X0.410000X-0.190000X0.410000X0*%
%TD*%
%TA.AperFunction,SMDPad,CuDef*%
%ADD45RoundRect,0.200000X-0.200000X-0.400000X0.200000X-0.400000X0.200000X0.400000X-0.200000X0.400000X0*%
%TD*%
%TA.AperFunction,HeatsinkPad*%
%ADD46O,1.100000X1.700000*%
%TD*%
%TA.AperFunction,SMDPad,CuDef*%
%ADD47RoundRect,0.100000X-0.637500X-0.100000X0.637500X-0.100000X0.637500X0.100000X-0.637500X0.100000X0*%
%TD*%
%TA.AperFunction,ComponentPad*%
%ADD48R,1.700000X1.700000*%
%TD*%
%TA.AperFunction,ComponentPad*%
%ADD49O,1.700000X1.700000*%
%TD*%
%TA.AperFunction,ViaPad*%
%ADD50C,0.600000*%
%TD*%
%TA.AperFunction,Conductor*%
%ADD51C,0.200000*%
%TD*%
G04 APERTURE END LIST*
D10*
%TO.P,R48,2*%
%TO.N,/3V3*%
X175500000Y-73037500D03*
%TO.P,R48,1*%
%TO.N,Net-(R45-Pad2)*%
X175500000Y-75962500D03*
%TD*%
D11*
%TO.P,R47,2*%
%TO.N,/3V3*%
X172962500Y-75000000D03*
%TO.P,R47,1*%
%TO.N,Net-(R45-Pad2)*%
X170037500Y-75000000D03*
%TD*%
%TO.P,R46,2*%
%TO.N,Net-(R45-Pad2)*%
X191462500Y-111000000D03*
%TO.P,R46,1*%
%TO.N,Net-(U9-VO)*%
X188537500Y-111000000D03*
%TD*%
%TO.P,R45,2*%
%TO.N,Net-(R45-Pad2)*%
X191500000Y-107000000D03*
%TO.P,R45,1*%
%TO.N,Net-(U9-VO)*%
X188575000Y-107000000D03*
%TD*%
D12*
%TO.P,C6,1*%
%TO.N,/3V3*%
X166050000Y-74000000D03*
%TO.P,C6,2*%
%TO.N,Net-(U5-VCP)*%
X167950000Y-74000000D03*
%TD*%
D13*
%TO.P,R15,1*%
%TO.N,Net-(U6-FB)*%
X190175000Y-93000000D03*
%TO.P,R15,2*%
%TO.N,Net-(R15-Pad2)*%
X192000000Y-93000000D03*
%TD*%
D14*
%TO.P,U5,1,~{SLEEP}*%
%TO.N,/3V3*%
X164000000Y-70775000D03*
%TO.P,U5,2,AOUT1*%
%TO.N,/MOTOR1_A_OUT*%
X163350000Y-70775000D03*
%TO.P,U5,3,AISEN*%
%TO.N,Net-(U5-AISEN)*%
X162700000Y-70775000D03*
%TO.P,U5,4,AOUT2*%
%TO.N,/MOTOR1_B_OUT*%
X162050000Y-70775000D03*
%TO.P,U5,5,BOUT2*%
%TO.N,/MOTOR3_B_OUT*%
X161400000Y-70775000D03*
%TO.P,U5,6,BISEN*%
%TO.N,Net-(U5-AISEN)*%
X160750000Y-70775000D03*
%TO.P,U5,7,BOUT1*%
%TO.N,/MOTOR3_A_OUT*%
X160100000Y-70775000D03*
%TO.P,U5,8,~{FAULT}*%
%TO.N,unconnected-(U5-~{FAULT}-Pad8)*%
X159450000Y-70775000D03*
%TO.P,U5,9,BIN1*%
%TO.N,/MOTOR3_CTRL1*%
X159450000Y-76500000D03*
%TO.P,U5,10,BIN2*%
%TO.N,/MOTOR3_CTRL2*%
X160100000Y-76500000D03*
%TO.P,U5,11,VCP*%
%TO.N,Net-(U5-VCP)*%
X160750000Y-76500000D03*
%TO.P,U5,12,VM*%
%TO.N,/3V3*%
X161400000Y-76500000D03*
%TO.P,U5,13,GND*%
%TO.N,-BATT*%
X162050000Y-76500000D03*
%TO.P,U5,14,VINT*%
%TO.N,/3V3*%
X162700000Y-76500000D03*
%TO.P,U5,15,AIN2*%
%TO.N,/MOTOR1_CTRL2*%
X163350000Y-76500000D03*
%TO.P,U5,16,AIN1*%
%TO.N,/MOTOR1_CTRL1*%
X164000000Y-76500000D03*
%TD*%
D15*
%TO.P,TP10,1,1*%
%TO.N,+BATT*%
X153400000Y-114800000D03*
%TD*%
D16*
%TO.P,R40,1*%
%TO.N,-BATT*%
X155856000Y-92237000D03*
%TO.P,R40,2*%
%TO.N,Net-(U4-AISEN)*%
X157506000Y-92237000D03*
%TD*%
D15*
%TO.P,TP2,1,1*%
%TO.N,+BATT*%
X163950000Y-66950000D03*
%TD*%
D11*
%TO.P,R3,1*%
%TO.N,/FAST_CHARGE_CTRL*%
X172500000Y-85000000D03*
%TO.P,R3,2*%
%TO.N,Net-(Q2-B)*%
X175425000Y-85000000D03*
%TD*%
D15*
%TO.P,TP4,1,1*%
%TO.N,+BATT*%
X192600000Y-114400000D03*
%TD*%
D13*
%TO.P,R16,1*%
%TO.N,Net-(R15-Pad2)*%
X186107000Y-97127000D03*
%TO.P,R16,2*%
%TO.N,-BATT*%
X187932000Y-97127000D03*
%TD*%
D12*
%TO.P,C7,1*%
%TO.N,/3V3*%
X166100000Y-70500000D03*
%TO.P,C7,2*%
%TO.N,-BATT*%
X168000000Y-70500000D03*
%TD*%
D11*
%TO.P,R27,1*%
%TO.N,Net-(R2-Pad1)*%
X178037500Y-77500000D03*
%TO.P,R27,2*%
%TO.N,+BATT*%
X180962500Y-77500000D03*
%TD*%
D12*
%TO.P,C1,1*%
%TO.N,+BATT*%
X190100000Y-78400000D03*
%TO.P,C1,2*%
%TO.N,-BATT*%
X192000000Y-78400000D03*
%TD*%
D17*
%TO.P,U9,1,VI*%
%TO.N,+BATT*%
X166200000Y-94650000D03*
%TO.P,U9,2,GND*%
%TO.N,-BATT*%
X168500000Y-94650000D03*
D18*
X168500000Y-88350000D03*
D17*
%TO.P,U9,3,VO*%
%TO.N,Net-(U9-VO)*%
X170800000Y-94650000D03*
%TD*%
D19*
%TO.P,Q3,1,B*%
%TO.N,Net-(Q3-B)*%
X195200000Y-91000000D03*
D20*
%TO.P,Q3,2,C*%
%TO.N,+BATT*%
X195200000Y-93540000D03*
%TO.P,Q3,3,E*%
%TO.N,/EXT_LOAD2_OUT*%
X195200000Y-96080000D03*
%TD*%
D16*
%TO.P,R12,1*%
%TO.N,-BATT*%
X155856000Y-95031000D03*
%TO.P,R12,2*%
%TO.N,Net-(U4-AISEN)*%
X157506000Y-95031000D03*
%TD*%
%TO.P,R39,1*%
%TO.N,-BATT*%
X155729000Y-98206000D03*
%TO.P,R39,2*%
%TO.N,Net-(U4-AISEN)*%
X157379000Y-98206000D03*
%TD*%
%TO.P,R21,1*%
%TO.N,Net-(R19-Pad2)*%
X186150000Y-74600000D03*
%TO.P,R21,2*%
%TO.N,Net-(R18-Pad1)*%
X187800000Y-74600000D03*
%TD*%
D12*
%TO.P,C10,1*%
%TO.N,Net-(C10-Pad1)*%
X189900000Y-71000000D03*
%TO.P,C10,2*%
%TO.N,/USB 5V*%
X191800000Y-71000000D03*
%TD*%
D11*
%TO.P,R36,1*%
%TO.N,-BATT*%
X172675000Y-81400000D03*
%TO.P,R36,2*%
%TO.N,Net-(U8-FB)*%
X175600000Y-81400000D03*
%TD*%
D15*
%TO.P,TP17,1,1*%
%TO.N,/9V*%
X175750000Y-114750000D03*
%TD*%
%TO.P,TP19,1,1*%
%TO.N,Net-(U1-IN-)*%
X194800000Y-67400000D03*
%TD*%
D21*
%TO.P,L5,1,1*%
%TO.N,Net-(L3-Pad2)*%
X184393000Y-85814000D03*
%TO.P,L5,2,2*%
%TO.N,/USB 5V*%
X187093000Y-85814000D03*
%TD*%
D22*
%TO.P,C13,1*%
%TO.N,/9V*%
X163000000Y-93500000D03*
%TO.P,C13,2*%
%TO.N,-BATT*%
X161100000Y-93500000D03*
%TD*%
D16*
%TO.P,R1,1*%
%TO.N,+BATT*%
X182750000Y-74600000D03*
%TO.P,R1,2*%
%TO.N,Net-(U1-IN-)*%
X184400000Y-74600000D03*
%TD*%
D23*
%TO.P,R37,1*%
%TO.N,Net-(U8-EN)*%
X175962500Y-97500000D03*
%TO.P,R37,2*%
%TO.N,/9V*%
X173037500Y-97500000D03*
%TD*%
D24*
%TO.P,U8,1,GND*%
%TO.N,-BATT*%
X173525000Y-90900000D03*
%TO.P,U8,2,SW*%
%TO.N,Net-(U8-SW)*%
X173525000Y-91850000D03*
%TO.P,U8,3,IN*%
%TO.N,/9V*%
X173525000Y-92800000D03*
%TO.P,U8,4,FB*%
%TO.N,Net-(U8-FB)*%
X175800000Y-92800000D03*
%TO.P,U8,5,EN*%
%TO.N,Net-(U8-EN)*%
X175800000Y-91850000D03*
%TO.P,U8,6,BST*%
%TO.N,Net-(U8-BST)*%
X175800000Y-90900000D03*
%TD*%
D11*
%TO.P,R9,1*%
%TO.N,/9V*%
X166575000Y-81424000D03*
%TO.P,R9,2*%
%TO.N,Net-(U3-VBUS)*%
X169500000Y-81424000D03*
%TD*%
D25*
%TO.P,J3,1,Pin_1*%
%TO.N,+BATT*%
X173000000Y-102750000D03*
D26*
%TO.P,J3,2,Pin_2*%
%TO.N,-BATT*%
X175000000Y-102750000D03*
%TD*%
D16*
%TO.P,R33,1*%
%TO.N,Net-(U1-IN-)*%
X182675000Y-81250000D03*
%TO.P,R33,2*%
%TO.N,-BATT*%
X184325000Y-81250000D03*
%TD*%
D11*
%TO.P,R20,1*%
%TO.N,/CTRL_EXT_LOAD1*%
X177737500Y-81200000D03*
%TO.P,R20,2*%
%TO.N,Net-(R17-Pad1)*%
X180662500Y-81200000D03*
%TD*%
D15*
%TO.P,TP7,1,1*%
%TO.N,Net-(U7-SW)*%
X174950000Y-67200000D03*
%TD*%
D13*
%TO.P,R4,1*%
%TO.N,+BATT*%
X180487500Y-70800000D03*
%TO.P,R4,2*%
%TO.N,Net-(U1-A0)*%
X182312500Y-70800000D03*
%TD*%
%TO.P,R34,1*%
%TO.N,/USB 5V*%
X182093000Y-97250000D03*
%TO.P,R34,2*%
%TO.N,Net-(R34-Pad2)*%
X183918000Y-97250000D03*
%TD*%
D11*
%TO.P,R29,1*%
%TO.N,/5V*%
X175537500Y-71000000D03*
%TO.P,R29,2*%
%TO.N,Net-(R28-Pad1)*%
X178462500Y-71000000D03*
%TD*%
D15*
%TO.P,TP22,1,1*%
%TO.N,/3V3*%
X162750000Y-114500000D03*
%TD*%
%TO.P,TP12,1,1*%
%TO.N,/EXT_LOAD2_OUT*%
X180200000Y-114600000D03*
%TD*%
D12*
%TO.P,C4,1*%
%TO.N,/3V3*%
X167100000Y-101000000D03*
%TO.P,C4,2*%
%TO.N,Net-(U4-VCP)*%
X169000000Y-101000000D03*
%TD*%
D15*
%TO.P,TP1,1,1*%
%TO.N,Net-(Q2-B)*%
X171450000Y-67200000D03*
%TD*%
%TO.P,TP9,1,1*%
%TO.N,Net-(U8-EN)*%
X158000000Y-115600000D03*
%TD*%
%TO.P,TP13,1,1*%
%TO.N,/EXT_LOAD1_OUT*%
X184400000Y-114600000D03*
%TD*%
%TO.P,TP11,1,1*%
%TO.N,Net-(D2-PadC)*%
X196200000Y-114400000D03*
%TD*%
D27*
%TO.P,D1,1*%
%TO.N,N/C*%
X198200000Y-66100000D03*
%TO.P,D1,2*%
X198200000Y-68200000D03*
%TD*%
D19*
%TO.P,Q1,1,B*%
%TO.N,Net-(Q1-B)*%
X195200000Y-102200000D03*
D20*
%TO.P,Q1,2,C*%
%TO.N,+BATT*%
X195200000Y-104740000D03*
%TO.P,Q1,3,E*%
%TO.N,/EXT_LOAD1_OUT*%
X195200000Y-107280000D03*
%TD*%
D11*
%TO.P,R19,1*%
%TO.N,Net-(D1-PadC)*%
X178937500Y-100800000D03*
%TO.P,R19,2*%
%TO.N,Net-(R19-Pad2)*%
X181862500Y-100800000D03*
%TD*%
D21*
%TO.P,L4,1,1*%
%TO.N,Net-(U8-SW)*%
X178551000Y-92164000D03*
%TO.P,L4,2,2*%
%TO.N,Net-(L3-Pad2)*%
X181251000Y-92164000D03*
%TD*%
D13*
%TO.P,R6,1*%
%TO.N,/5V*%
X167175000Y-104500000D03*
%TO.P,R6,2*%
%TO.N,Net-(U2-STAT)*%
X169000000Y-104500000D03*
%TD*%
D23*
%TO.P,R2,1*%
%TO.N,Net-(R2-Pad1)*%
X197062500Y-73600000D03*
%TO.P,R2,2*%
%TO.N,+BATT*%
X194137500Y-73600000D03*
%TD*%
D28*
%TO.P,U2,1,V_{DD}*%
%TO.N,/USB 5V*%
X167700000Y-110275000D03*
%TO.P,U2,2,V_{DD}*%
X168200000Y-110275000D03*
%TO.P,U2,3,V_{BAT}*%
%TO.N,+BATT*%
X168700000Y-110275000D03*
%TO.P,U2,4,V_{BAT}*%
X169200000Y-110275000D03*
%TO.P,U2,5,STAT*%
%TO.N,Net-(U2-STAT)*%
X169200000Y-107375000D03*
%TO.P,U2,6,V_{SS}*%
%TO.N,-BATT*%
X168700000Y-107375000D03*
%TO.P,U2,7,NC*%
%TO.N,unconnected-(U2-NC-Pad7)*%
X168200000Y-107375000D03*
%TO.P,U2,8,PROG*%
%TO.N,Net-(U2-PROG)*%
X167700000Y-107375000D03*
D29*
%TO.P,U2,9*%
%TO.N,N/C*%
X168450000Y-108825000D03*
%TD*%
D30*
%TO.P,C8,1*%
%TO.N,/5V*%
X184925000Y-71200000D03*
%TO.P,C8,2*%
%TO.N,Net-(C15-Pad1)*%
X187875000Y-71200000D03*
%TD*%
D11*
%TO.P,R18,1*%
%TO.N,Net-(R18-Pad1)*%
X178875000Y-104600000D03*
%TO.P,R18,2*%
%TO.N,Net-(Q1-B)*%
X181800000Y-104600000D03*
%TD*%
D13*
%TO.P,R8,1*%
%TO.N,-BATT*%
X155782000Y-85522000D03*
%TO.P,R8,2*%
%TO.N,Net-(U3-DM)*%
X157607000Y-85522000D03*
%TD*%
D16*
%TO.P,R14,1*%
%TO.N,/5V*%
X190100000Y-89500000D03*
%TO.P,R14,2*%
%TO.N,Net-(U6-FB)*%
X191750000Y-89500000D03*
%TD*%
D15*
%TO.P,TP6,1,1*%
%TO.N,Net-(U7-SW)*%
X183200000Y-67450000D03*
%TD*%
D23*
%TO.P,R38,1*%
%TO.N,-BATT*%
X187000000Y-104600000D03*
%TO.P,R38,2*%
%TO.N,Net-(U8-EN)*%
X184075000Y-104600000D03*
%TD*%
D31*
%TO.P,U1,1,IN+*%
%TO.N,+BATT*%
X177862500Y-73525000D03*
%TO.P,U1,2,IN-*%
%TO.N,Net-(U1-IN-)*%
X177862500Y-74175000D03*
%TO.P,U1,3,GND*%
%TO.N,-BATT*%
X177862500Y-74825000D03*
%TO.P,U1,4,VS*%
%TO.N,+BATT*%
X177862500Y-75475000D03*
%TO.P,U1,5,SCL*%
%TO.N,/I2C1_SCL*%
X180137500Y-75475000D03*
%TO.P,U1,6,SDA*%
%TO.N,/I2C1_SDA*%
X180137500Y-74825000D03*
%TO.P,U1,7,A0*%
%TO.N,Net-(U1-A0)*%
X180137500Y-74175000D03*
%TO.P,U1,8,A1*%
%TO.N,-BATT*%
X180137500Y-73525000D03*
%TD*%
D32*
%TO.P,R17,1*%
%TO.N,Net-(R17-Pad1)*%
X166135000Y-77200000D03*
%TO.P,R17,2*%
%TO.N,Net-(D1-PadC)*%
X166775000Y-77200000D03*
%TD*%
D16*
%TO.P,R43,1*%
%TO.N,-BATT*%
X155811000Y-70404000D03*
%TO.P,R43,2*%
%TO.N,Net-(U5-AISEN)*%
X157461000Y-70404000D03*
%TD*%
D13*
%TO.P,R11,1*%
%TO.N,Net-(U3-PG)*%
X155675000Y-81868000D03*
%TO.P,R11,2*%
%TO.N,-BATT*%
X157500000Y-81868000D03*
%TD*%
D16*
%TO.P,R30,1*%
%TO.N,+BATT*%
X182575000Y-77600000D03*
%TO.P,R30,2*%
%TO.N,Net-(U1-IN-)*%
X184225000Y-77600000D03*
%TD*%
D11*
%TO.P,R7,1*%
%TO.N,/9V*%
X167037500Y-84500000D03*
%TO.P,R7,2*%
%TO.N,/3V3*%
X169962500Y-84500000D03*
%TD*%
D33*
%TO.P,U3,1,VDD*%
%TO.N,/3V3*%
X160000000Y-85500000D03*
%TO.P,U3,2,CFG2*%
%TO.N,-BATT*%
X161000000Y-85500000D03*
%TO.P,U3,3,CFG3*%
X162000000Y-85500000D03*
%TO.P,U3,4,DP*%
%TO.N,Net-(U3-DP)*%
X163000000Y-85500000D03*
%TO.P,U3,5,DM*%
%TO.N,Net-(U3-DM)*%
X164000000Y-85500000D03*
%TO.P,U3,6,CC2*%
%TO.N,Net-(J1-CC2)*%
X164000000Y-80225000D03*
%TO.P,U3,7,CC1*%
%TO.N,Net-(J1-CC1)*%
X163000000Y-80225000D03*
%TO.P,U3,8,VBUS*%
%TO.N,Net-(U3-VBUS)*%
X162000000Y-80225000D03*
%TO.P,U3,9,CFG1*%
%TO.N,-BATT*%
X161000000Y-80225000D03*
%TO.P,U3,10,PG*%
%TO.N,Net-(U3-PG)*%
X160000000Y-80225000D03*
D34*
%TO.P,U3,11,GND*%
%TO.N,-BATT*%
X162000000Y-82862500D03*
%TD*%
D12*
%TO.P,C11,1*%
%TO.N,-BATT*%
X189900000Y-74800000D03*
%TO.P,C11,2*%
%TO.N,Net-(C10-Pad1)*%
X191800000Y-74800000D03*
%TD*%
D15*
%TO.P,TP16,1,1*%
%TO.N,+BATT*%
X187200000Y-67200000D03*
%TD*%
D11*
%TO.P,R28,1*%
%TO.N,Net-(R28-Pad1)*%
X170457500Y-71000000D03*
%TO.P,R28,2*%
%TO.N,Net-(R2-Pad1)*%
X173382500Y-71000000D03*
%TD*%
D13*
%TO.P,R35,1*%
%TO.N,Net-(R34-Pad2)*%
X178175000Y-97250000D03*
%TO.P,R35,2*%
%TO.N,Net-(U8-FB)*%
X180000000Y-97250000D03*
%TD*%
D12*
%TO.P,C5,1*%
%TO.N,/3V3*%
X167250000Y-97400000D03*
%TO.P,C5,2*%
%TO.N,-BATT*%
X169150000Y-97400000D03*
%TD*%
D13*
%TO.P,R5,1*%
%TO.N,Net-(U2-PROG)*%
X184575000Y-110800000D03*
%TO.P,R5,2*%
%TO.N,-BATT*%
X186400000Y-110800000D03*
%TD*%
D16*
%TO.P,R42,1*%
%TO.N,-BATT*%
X155874000Y-75992000D03*
%TO.P,R42,2*%
%TO.N,Net-(U5-AISEN)*%
X157524000Y-75992000D03*
%TD*%
D13*
%TO.P,R10,1*%
%TO.N,Net-(U3-DP)*%
X155782000Y-89000000D03*
%TO.P,R10,2*%
%TO.N,-BATT*%
X157607000Y-89000000D03*
%TD*%
D15*
%TO.P,TP18,1,1*%
%TO.N,/3V3*%
X167000000Y-114500000D03*
%TD*%
D35*
%TO.P,C3,1*%
%TO.N,-BATT*%
X165540000Y-79500000D03*
%TO.P,C3,2*%
%TO.N,/3V3*%
X166500000Y-79500000D03*
%TD*%
D21*
%TO.P,L3,1,1*%
%TO.N,Net-(U8-SW)*%
X178725000Y-85941000D03*
%TO.P,L3,2,2*%
%TO.N,Net-(L3-Pad2)*%
X181425000Y-85941000D03*
%TD*%
D35*
%TO.P,C52,1*%
%TO.N,Net-(U9-VO)*%
X176640000Y-110800000D03*
%TO.P,C52,2*%
%TO.N,-BATT*%
X177600000Y-110800000D03*
%TD*%
%TO.P,C14,1*%
%TO.N,Net-(U8-SW)*%
X174022000Y-88228000D03*
%TO.P,C14,2*%
%TO.N,Net-(U8-BST)*%
X174982000Y-88228000D03*
%TD*%
D36*
%TO.P,D2,1*%
%TO.N,N/C*%
X184700000Y-100400000D03*
%TO.P,D2,2*%
X186800000Y-100400000D03*
%TD*%
D19*
%TO.P,Q2,1,B*%
%TO.N,Net-(Q2-B)*%
X195255000Y-79660000D03*
D20*
%TO.P,Q2,2,C*%
%TO.N,/5V*%
X195255000Y-82200000D03*
%TO.P,Q2,3,E*%
%TO.N,+BATT*%
X195255000Y-84740000D03*
%TD*%
D15*
%TO.P,TP23,1,1*%
%TO.N,/3V3*%
X158805000Y-66921000D03*
%TD*%
D37*
%TO.P,L1,1,1*%
%TO.N,+BATT*%
X174600000Y-108800000D03*
%TO.P,L1,2,2*%
%TO.N,Net-(U6-SW)*%
X171900000Y-108800000D03*
%TD*%
D15*
%TO.P,TP3,1,1*%
%TO.N,/5V*%
X167700000Y-67200000D03*
%TD*%
D38*
%TO.P,R23,1*%
%TO.N,Net-(R22-Pad2)*%
X169000000Y-77680000D03*
%TO.P,R23,2*%
%TO.N,Net-(D2-PadC)*%
X169000000Y-78320000D03*
%TD*%
D15*
%TO.P,TP8,1,1*%
%TO.N,/USB 5V*%
X179200000Y-67200000D03*
%TD*%
D39*
%TO.P,U6,1,FB*%
%TO.N,Net-(U6-FB)*%
X190375000Y-96900000D03*
%TO.P,U6,2,EN*%
%TO.N,+BATT*%
X190375000Y-97400000D03*
%TO.P,U6,3,VIN*%
X190375000Y-97900000D03*
%TO.P,U6,4,GND*%
%TO.N,-BATT*%
X191800000Y-97900000D03*
%TO.P,U6,5,SW*%
%TO.N,Net-(U6-SW)*%
X191800000Y-97400000D03*
%TO.P,U6,6,VOUT*%
%TO.N,/5V*%
X191800000Y-96900000D03*
%TD*%
D12*
%TO.P,C9,1*%
%TO.N,+BATT*%
X190050000Y-85750000D03*
%TO.P,C9,2*%
%TO.N,-BATT*%
X191950000Y-85750000D03*
%TD*%
D11*
%TO.P,R24,1*%
%TO.N,Net-(D2-PadC)*%
X179050000Y-108500000D03*
%TO.P,R24,2*%
%TO.N,Net-(R24-Pad2)*%
X181975000Y-108500000D03*
%TD*%
D40*
%TO.P,J1,A5,CC1*%
%TO.N,Net-(J1-CC1)*%
X160000000Y-103920000D03*
D41*
%TO.P,J1,A9,VBUS*%
%TO.N,/9V*%
X162020000Y-103920000D03*
D42*
%TO.P,J1,A12,GND*%
%TO.N,-BATT*%
X163250000Y-103920000D03*
D43*
%TO.P,J1,B5,CC2*%
%TO.N,Net-(J1-CC2)*%
X161000000Y-103920000D03*
D44*
%TO.P,J1,B9,VBUS*%
%TO.N,/9V*%
X158980000Y-103920000D03*
D45*
%TO.P,J1,B12,GND*%
%TO.N,-BATT*%
X157750000Y-103920000D03*
D46*
%TO.P,J1,S1,SHIELD*%
X156180000Y-104000000D03*
X156180000Y-107800000D03*
X164820000Y-104000000D03*
X164820000Y-107800000D03*
%TD*%
D16*
%TO.P,R31,1*%
%TO.N,Net-(U1-IN-)*%
X186175000Y-77600000D03*
%TO.P,R31,2*%
%TO.N,-BATT*%
X187825000Y-77600000D03*
%TD*%
%TO.P,R32,1*%
%TO.N,Net-(U1-IN-)*%
X185925000Y-81250000D03*
%TO.P,R32,2*%
%TO.N,-BATT*%
X187575000Y-81250000D03*
%TD*%
D12*
%TO.P,C12,1*%
%TO.N,/3V3*%
X190038000Y-82000000D03*
%TO.P,C12,2*%
%TO.N,-BATT*%
X191938000Y-82000000D03*
%TD*%
D15*
%TO.P,TP21,1,1*%
%TO.N,/USB 5V*%
X171500000Y-114500000D03*
%TD*%
D35*
%TO.P,C2,1*%
%TO.N,-BATT*%
X190540000Y-99500000D03*
%TO.P,C2,2*%
%TO.N,+BATT*%
X191500000Y-99500000D03*
%TD*%
D16*
%TO.P,R41,1*%
%TO.N,-BATT*%
X155729000Y-101254000D03*
%TO.P,R41,2*%
%TO.N,Net-(U4-AISEN)*%
X157379000Y-101254000D03*
%TD*%
D21*
%TO.P,L2,1,1*%
%TO.N,Net-(U7-SW)*%
X184500000Y-92250000D03*
%TO.P,L2,2,2*%
%TO.N,/3V3*%
X187200000Y-92250000D03*
%TD*%
D23*
%TO.P,R22,1*%
%TO.N,/CTRL_EXT_LOAD2*%
X163062500Y-89000000D03*
%TO.P,R22,2*%
%TO.N,Net-(R22-Pad2)*%
X160137500Y-89000000D03*
%TD*%
D16*
%TO.P,R44,1*%
%TO.N,-BATT*%
X155938000Y-78659000D03*
%TO.P,R44,2*%
%TO.N,Net-(U5-AISEN)*%
X157588000Y-78659000D03*
%TD*%
%TO.P,R25,1*%
%TO.N,Net-(R24-Pad2)*%
X184577500Y-108500000D03*
%TO.P,R25,2*%
%TO.N,Net-(R25-Pad2)*%
X186227500Y-108500000D03*
%TD*%
D47*
%TO.P,U4,1,~{SLEEP}*%
%TO.N,/3V3*%
X159387500Y-96975000D03*
%TO.P,U4,2,AOUT1*%
%TO.N,/MOTOR2_A_OUT*%
X159387500Y-97625000D03*
%TO.P,U4,3,AISEN*%
%TO.N,Net-(U4-AISEN)*%
X159387500Y-98275000D03*
%TO.P,U4,4,AOUT2*%
%TO.N,/MOTOR2_B_OUT*%
X159387500Y-98925000D03*
%TO.P,U4,5,BOUT2*%
%TO.N,/MOTOR4_B_OUT*%
X159387500Y-99575000D03*
%TO.P,U4,6,BISEN*%
%TO.N,Net-(U4-AISEN)*%
X159387500Y-100225000D03*
%TO.P,U4,7,BOUT1*%
%TO.N,/MOTOR4_A_OUT*%
X159387500Y-100875000D03*
%TO.P,U4,8,~{FAULT}*%
%TO.N,unconnected-(U4-~{FAULT}-Pad8)*%
X159387500Y-101525000D03*
%TO.P,U4,9,BIN1*%
%TO.N,/MOTOR4_CTRL1*%
X165112500Y-101525000D03*
%TO.P,U4,10,BIN2*%
%TO.N,/MOTOR4_CTRL2*%
X165112500Y-100875000D03*
%TO.P,U4,11,VCP*%
%TO.N,Net-(U4-VCP)*%
X165112500Y-100225000D03*
%TO.P,U4,12,VM*%
%TO.N,/3V3*%
X165112500Y-99575000D03*
%TO.P,U4,13,GND*%
%TO.N,-BATT*%
X165112500Y-98925000D03*
%TO.P,U4,14,VINT*%
%TO.N,/3V3*%
X165112500Y-98275000D03*
%TO.P,U4,15,AIN2*%
%TO.N,/MOTOR2_CTRL2*%
X165112500Y-97625000D03*
%TO.P,U4,16,AIN1*%
%TO.N,/MOTOR2_CTRL1*%
X165112500Y-96975000D03*
%TD*%
D15*
%TO.P,TP15,1,1*%
%TO.N,/5V*%
X188578000Y-114586500D03*
%TD*%
D11*
%TO.P,R26,1*%
%TO.N,Net-(R25-Pad2)*%
X189537500Y-104500000D03*
%TO.P,R26,2*%
%TO.N,Net-(Q3-B)*%
X192462500Y-104500000D03*
%TD*%
D15*
%TO.P,TP20,1,1*%
%TO.N,+BATT*%
X154400000Y-67000000D03*
%TD*%
%TO.P,TP14,1,1*%
%TO.N,+BATT*%
X199800000Y-114400000D03*
%TD*%
D30*
%TO.P,C15,1*%
%TO.N,Net-(C15-Pad1)*%
X194050000Y-70450000D03*
%TO.P,C15,2*%
%TO.N,-BATT*%
X197000000Y-70450000D03*
%TD*%
D15*
%TO.P,TP5,1,1*%
%TO.N,Net-(D1-PadC)*%
X191200000Y-67200000D03*
%TD*%
D48*
%TO.P,J2,1,Pin_1*%
%TO.N,/MOTOR2_B_OUT*%
X152540000Y-108860000D03*
D49*
%TO.P,J2,2,Pin_2*%
%TO.N,/MOTOR2_A_OUT*%
X150000000Y-108860000D03*
%TO.P,J2,3,Pin_3*%
%TO.N,/MOTOR4_A_OUT*%
X152540000Y-106320000D03*
%TO.P,J2,4,Pin_4*%
%TO.N,/MOTOR2_CTRL1*%
X150000000Y-106320000D03*
%TO.P,J2,5,Pin_5*%
%TO.N,/MOTOR4_B_OUT*%
X152540000Y-103780000D03*
%TO.P,J2,6,Pin_6*%
%TO.N,/MOTOR2_CTRL2*%
X150000000Y-103780000D03*
%TO.P,J2,7,Pin_7*%
%TO.N,/CTRL_EXT_LOAD2*%
X152540000Y-101240000D03*
%TO.P,J2,8,Pin_8*%
%TO.N,/MOTOR4_CTRL1*%
X150000000Y-101240000D03*
%TO.P,J2,9,Pin_9*%
%TO.N,/USART2_RX*%
X152540000Y-98700000D03*
%TO.P,J2,10,Pin_10*%
%TO.N,/MOTOR4_CTRL2*%
X150000000Y-98700000D03*
%TO.P,J2,11,Pin_11*%
%TO.N,/EXT_LOAD2_OUT*%
X152540000Y-96160000D03*
%TO.P,J2,12,Pin_12*%
%TO.N,/USART2_TX*%
X150000000Y-96160000D03*
%TO.P,J2,13,Pin_13*%
%TO.N,/FAST_CHARGE_CTRL*%
X152540000Y-93620000D03*
%TO.P,J2,14,Pin_14*%
%TO.N,+BATT*%
X150000000Y-93620000D03*
%TO.P,J2,15,Pin_15*%
%TO.N,unconnected-(J2-Pin_15-Pad15)*%
X152540000Y-91080000D03*
%TO.P,J2,16,Pin_16*%
%TO.N,/I2C1_SCL*%
X150000000Y-91080000D03*
%TO.P,J2,17,Pin_17*%
%TO.N,/I2C1_SDA*%
X152540000Y-88540000D03*
%TO.P,J2,18,Pin_18*%
%TO.N,/3V3*%
X150000000Y-88540000D03*
%TO.P,J2,19,Pin_19*%
%TO.N,-BATT*%
X152540000Y-86000000D03*
%TO.P,J2,20,Pin_20*%
%TO.N,/5V*%
X150000000Y-86000000D03*
%TO.P,J2,21,Pin_21*%
%TO.N,/EXT_LOAD1_OUT*%
X152540000Y-83460000D03*
%TO.P,J2,22,Pin_22*%
%TO.N,/9V*%
X150000000Y-83460000D03*
%TO.P,J2,23,Pin_23*%
%TO.N,-BATT*%
X152540000Y-80920000D03*
%TO.P,J2,24,Pin_24*%
%TO.N,/MOTOR3_CTRL1*%
X150000000Y-80920000D03*
%TO.P,J2,25,Pin_25*%
%TO.N,/CTRL_EXT_LOAD1*%
X152540000Y-78380000D03*
%TO.P,J2,26,Pin_26*%
%TO.N,/MOTOR3_CTRL2*%
X150000000Y-78380000D03*
%TO.P,J2,27,Pin_27*%
%TO.N,/MOTOR3_A_OUT*%
X152540000Y-75840000D03*
%TO.P,J2,28,Pin_28*%
%TO.N,/MOTOR1_CTRL1*%
X150000000Y-75840000D03*
%TO.P,J2,29,Pin_29*%
%TO.N,/MOTOR3_B_OUT*%
X152540000Y-73300000D03*
%TO.P,J2,30,Pin_30*%
%TO.N,/MOTOR1_CTRL2*%
X150000000Y-73300000D03*
%TO.P,J2,31,Pin_31*%
%TO.N,/MOTOR1_B_OUT*%
X152540000Y-70760000D03*
%TO.P,J2,32,Pin_32*%
%TO.N,/MOTOR1_A_OUT*%
X150000000Y-70760000D03*
%TD*%
D16*
%TO.P,R13,1*%
%TO.N,-BATT*%
X155811000Y-73198000D03*
%TO.P,R13,2*%
%TO.N,Net-(U5-AISEN)*%
X157461000Y-73198000D03*
%TD*%
D50*
%TO.N,Net-(R45-Pad2)*%
X189162300Y-108981200D03*
X184699600Y-79398500D03*
%TO.N,Net-(U9-VO)*%
X176735500Y-110029700D03*
X172012700Y-95390600D03*
X176735500Y-113104900D03*
%TO.N,Net-(U8-EN)*%
X177315800Y-98834900D03*
X177315800Y-106468800D03*
X177315800Y-115680300D03*
%TO.N,Net-(D2-PadC)*%
X180150000Y-109076900D03*
X169895100Y-78849100D03*
X182118900Y-112280000D03*
%TO.N,Net-(R22-Pad2)*%
X163598500Y-78187100D03*
X161156500Y-88291100D03*
%TO.N,Net-(R19-Pad2)*%
X182888500Y-100800000D03*
X185287400Y-74643500D03*
%TO.N,Net-(R18-Pad1)*%
X179890300Y-104600000D03*
X187557700Y-75529700D03*
%TO.N,Net-(D1-PadC)*%
X167716600Y-77271300D03*
X170566600Y-69266000D03*
X174309600Y-99882500D03*
%TO.N,Net-(U4-AISEN)*%
X158604000Y-96193400D03*
X158604000Y-92595000D03*
%TO.N,Net-(R2-Pad1)*%
X177933900Y-64629900D03*
X179057500Y-77177100D03*
X174492800Y-71006600D03*
%TO.N,Net-(Q3-B)*%
X193745300Y-104648700D03*
%TO.N,Net-(Q2-B)*%
X188970000Y-65469500D03*
X173751000Y-84032500D03*
X173625000Y-67276000D03*
%TO.N,Net-(U7-SW)*%
X183616500Y-89928100D03*
X183616500Y-68415600D03*
%TO.N,/MOTOR2_A_OUT*%
X153956200Y-107758300D03*
X158177300Y-97603900D03*
%TO.N,/I2C1_SDA*%
X181273400Y-74825000D03*
X180150000Y-65181600D03*
X148871900Y-65181600D03*
%TO.N,/MOTOR2_B_OUT*%
X154309500Y-99812600D03*
%TO.N,/EXT_LOAD2_OUT*%
X160600100Y-116174700D03*
X197906900Y-96810200D03*
X193835400Y-112751800D03*
%TO.N,/MOTOR1_CTRL1*%
X164657500Y-76030500D03*
%TO.N,/EXT_LOAD1_OUT*%
X192914200Y-113424900D03*
X159507500Y-116023200D03*
%TO.N,/MOTOR2_CTRL1*%
X160582700Y-105335300D03*
X160582700Y-97099600D03*
%TO.N,/CTRL_EXT_LOAD1*%
X173162500Y-78866400D03*
%TO.N,/MOTOR4_B_OUT*%
X154877200Y-100345100D03*
%TO.N,/MOTOR4_A_OUT*%
X161157700Y-106138500D03*
X160842100Y-100875000D03*
%TO.N,/MOTOR3_CTRL1*%
X151668300Y-79836700D03*
X158959000Y-77527700D03*
%TO.N,/CTRL_EXT_LOAD2*%
X158252300Y-90684400D03*
%TO.N,/FAST_CHARGE_CTRL*%
X166693800Y-96162700D03*
X167891300Y-86198200D03*
%TO.N,/MOTOR2_CTRL2*%
X163920100Y-110285200D03*
X163920100Y-97748000D03*
%TO.N,/MOTOR1_CTRL2*%
X163935000Y-75301600D03*
%TO.N,/I2C1_SCL*%
X172261600Y-93378200D03*
X180036600Y-76194700D03*
%TO.N,Net-(J1-CC2)*%
X162631500Y-102209900D03*
X164752500Y-80099200D03*
%TO.N,Net-(J1-CC1)*%
X161781400Y-102022500D03*
X159891400Y-81895200D03*
%TO.N,/9V*%
X166365900Y-82962000D03*
X174234000Y-114405900D03*
X166142100Y-102369500D03*
X158629000Y-91667700D03*
X167317000Y-92865200D03*
%TO.N,/USB 5V*%
X182857700Y-88690500D03*
X180660000Y-67100900D03*
X180084800Y-107856000D03*
%TO.N,/5V*%
X192851600Y-96694900D03*
X189736400Y-114586500D03*
X185960600Y-71280900D03*
X165791900Y-117439100D03*
X165791900Y-105532000D03*
X156157500Y-84143100D03*
%TO.N,/3V3*%
X164875000Y-114500000D03*
X163355800Y-99716500D03*
X165809600Y-84938100D03*
X165050000Y-77492800D03*
X168669300Y-84565300D03*
X161764600Y-87171800D03*
%TO.N,-BATT*%
X156387900Y-100510700D03*
X175851700Y-111950900D03*
X151116600Y-76807700D03*
X181790800Y-72864300D03*
X182230000Y-80301800D03*
X171634800Y-81654600D03*
X168878100Y-71734600D03*
X160548000Y-86775500D03*
X161901100Y-88914300D03*
%TO.N,+BATT*%
X168849000Y-96161600D03*
X151247800Y-114242000D03*
X175287300Y-106374800D03*
X193725000Y-67376600D03*
X154603700Y-93530700D03*
X179235700Y-76149500D03*
X179235700Y-72231200D03*
%TD*%
D51*
%TO.N,Net-(R45-Pad2)*%
X175290500Y-76172000D02*
X175500000Y-75962500D01*
X171209500Y-76172000D02*
X175290500Y-76172000D01*
X170037500Y-75000000D02*
X171209500Y-76172000D01*
X191462500Y-108981200D02*
X191462500Y-111000000D01*
X191500000Y-108943700D02*
X191462500Y-108981200D01*
X191500000Y-107000000D02*
X191500000Y-108943700D01*
X191462500Y-108981200D02*
X189162300Y-108981200D01*
X177754500Y-79398500D02*
X184699600Y-79398500D01*
X175500000Y-77144000D02*
X177754500Y-79398500D01*
X175500000Y-75962500D02*
X175500000Y-77144000D01*
%TO.N,Net-(U9-VO)*%
X171540600Y-95390600D02*
X170800000Y-94650000D01*
X172012700Y-95390600D02*
X171540600Y-95390600D01*
X176735500Y-110704500D02*
X176735500Y-110029700D01*
X176640000Y-110800000D02*
X176735500Y-110704500D01*
X188537500Y-107037500D02*
X188537500Y-111000000D01*
X188575000Y-107000000D02*
X188537500Y-107037500D01*
X177260100Y-113104900D02*
X176735500Y-113104900D01*
X178636700Y-111728300D02*
X177260100Y-113104900D01*
X182347400Y-111728300D02*
X178636700Y-111728300D01*
X182427300Y-111808200D02*
X182347400Y-111728300D01*
X187729300Y-111808200D02*
X182427300Y-111808200D01*
X188537500Y-111000000D02*
X187729300Y-111808200D01*
%TO.N,Net-(U8-EN)*%
X174874800Y-96412300D02*
X175962500Y-97500000D01*
X174874800Y-92486800D02*
X174874800Y-96412300D01*
X175511600Y-91850000D02*
X174874800Y-92486800D01*
X175800000Y-91850000D02*
X175511600Y-91850000D01*
X177297400Y-98834900D02*
X177315800Y-98834900D01*
X175962500Y-97500000D02*
X177297400Y-98834900D01*
X182206200Y-106468800D02*
X177315800Y-106468800D01*
X184075000Y-104600000D02*
X182206200Y-106468800D01*
X161286400Y-115680300D02*
X177315800Y-115680300D01*
X161032400Y-115426300D02*
X161286400Y-115680300D01*
X158173700Y-115426300D02*
X161032400Y-115426300D01*
X158000000Y-115600000D02*
X158173700Y-115426300D01*
%TO.N,Net-(U8-FB)*%
X175600000Y-81866800D02*
X175600000Y-81400000D01*
X176905800Y-83172600D02*
X175600000Y-81866800D01*
X178892300Y-83172600D02*
X176905800Y-83172600D01*
X179843300Y-84123600D02*
X178892300Y-83172600D01*
X179843300Y-93802900D02*
X179843300Y-84123600D01*
X178323100Y-95323100D02*
X179843300Y-93802900D01*
X175800000Y-92800000D02*
X178323100Y-95323100D01*
X180000000Y-97000000D02*
X180000000Y-97250000D01*
X178323100Y-95323100D02*
X180000000Y-97000000D01*
%TO.N,Net-(R34-Pad2)*%
X182936300Y-98231700D02*
X183918000Y-97250000D01*
X179156700Y-98231700D02*
X182936300Y-98231700D01*
X178175000Y-97250000D02*
X179156700Y-98231700D01*
%TO.N,Net-(R28-Pad1)*%
X177287500Y-72175000D02*
X178462500Y-71000000D01*
X171632500Y-72175000D02*
X177287500Y-72175000D01*
X170457500Y-71000000D02*
X171632500Y-72175000D01*
%TO.N,Net-(R25-Pad2)*%
X186227500Y-107672500D02*
X186227500Y-108500000D01*
X189400000Y-104500000D02*
X186227500Y-107672500D01*
X189537500Y-104500000D02*
X189400000Y-104500000D01*
%TO.N,Net-(R24-Pad2)*%
X181975000Y-108500000D02*
X184577500Y-108500000D01*
%TO.N,Net-(D2-PadC)*%
X179626900Y-109076900D02*
X180150000Y-109076900D01*
X179050000Y-108500000D02*
X179626900Y-109076900D01*
X196200000Y-114321300D02*
X196200000Y-114400000D01*
X194039400Y-112160700D02*
X196200000Y-114321300D01*
X182238200Y-112160700D02*
X194039400Y-112160700D01*
X182118900Y-112280000D02*
X182238200Y-112160700D01*
X169529100Y-78849100D02*
X169895100Y-78849100D01*
X169000000Y-78320000D02*
X169529100Y-78849100D01*
%TO.N,Net-(R22-Pad2)*%
X160846400Y-88291100D02*
X161156500Y-88291100D01*
X160137500Y-89000000D02*
X160846400Y-88291100D01*
X168091700Y-78187100D02*
X163598500Y-78187100D01*
X168598800Y-77680000D02*
X168091700Y-78187100D01*
X169000000Y-77680000D02*
X168598800Y-77680000D01*
%TO.N,Net-(R19-Pad2)*%
X186106500Y-74643500D02*
X186150000Y-74600000D01*
X185287400Y-74643500D02*
X186106500Y-74643500D01*
X181862500Y-100800000D02*
X182888500Y-100800000D01*
%TO.N,Net-(R18-Pad1)*%
X178875000Y-104600000D02*
X179890300Y-104600000D01*
X187800000Y-75287400D02*
X187557700Y-75529700D01*
X187800000Y-74600000D02*
X187800000Y-75287400D01*
%TO.N,Net-(D1-PadC)*%
X166846300Y-77271300D02*
X166775000Y-77200000D01*
X167716600Y-77271300D02*
X166846300Y-77271300D01*
X170632500Y-69331900D02*
X170566600Y-69266000D01*
X186733900Y-69331900D02*
X170632500Y-69331900D01*
X188865800Y-67200000D02*
X186733900Y-69331900D01*
X191200000Y-67200000D02*
X188865800Y-67200000D01*
X178020000Y-99882500D02*
X178937500Y-100800000D01*
X174309600Y-99882500D02*
X178020000Y-99882500D01*
%TO.N,Net-(R17-Pad1)*%
X179511400Y-80048900D02*
X180662500Y-81200000D01*
X177788700Y-80048900D02*
X179511400Y-80048900D01*
X174933900Y-77194100D02*
X177788700Y-80048900D01*
X168587400Y-77194100D02*
X174933900Y-77194100D01*
X167958500Y-77823000D02*
X168587400Y-77194100D01*
X166625100Y-77823000D02*
X167958500Y-77823000D01*
X166135000Y-77332900D02*
X166625100Y-77823000D01*
X166135000Y-77200000D02*
X166135000Y-77332900D01*
%TO.N,Net-(R15-Pad2)*%
X190908500Y-94091500D02*
X192000000Y-93000000D01*
X189142500Y-94091500D02*
X190908500Y-94091500D01*
X186107000Y-97127000D02*
X189142500Y-94091500D01*
%TO.N,Net-(U6-FB)*%
X191750000Y-89500000D02*
X191750000Y-91425000D01*
X191750000Y-91425000D02*
X190175000Y-93000000D01*
X190375000Y-96842500D02*
X190375000Y-96900000D01*
X192779100Y-94438400D02*
X190375000Y-96842500D01*
X192779100Y-92281500D02*
X192779100Y-94438400D01*
X191922600Y-91425000D02*
X192779100Y-92281500D01*
X191750000Y-91425000D02*
X191922600Y-91425000D01*
%TO.N,Net-(U5-AISEN)*%
X160750000Y-70162100D02*
X160750000Y-70775000D01*
X160353600Y-69765700D02*
X160750000Y-70162100D01*
X158099300Y-69765700D02*
X160353600Y-69765700D01*
X157461000Y-70404000D02*
X158099300Y-69765700D01*
X160750000Y-70775000D02*
X160750000Y-71392600D01*
X162700000Y-71413200D02*
X162700000Y-70775000D01*
X162302700Y-71810500D02*
X162700000Y-71413200D01*
X161167900Y-71810500D02*
X162302700Y-71810500D01*
X160750000Y-71392600D02*
X161167900Y-71810500D01*
X158944600Y-73198000D02*
X160750000Y-71392600D01*
X157461000Y-73198000D02*
X158944600Y-73198000D01*
X157461000Y-73198000D02*
X157461000Y-75262500D01*
X157524000Y-75325500D02*
X157461000Y-75262500D01*
X157524000Y-75992000D02*
X157524000Y-75325500D01*
X157189600Y-75262500D02*
X157461000Y-75262500D01*
X157131200Y-75320900D02*
X157189600Y-75262500D01*
X157131200Y-78202200D02*
X157131200Y-75320900D01*
X157588000Y-78659000D02*
X157131200Y-78202200D01*
%TO.N,Net-(U4-AISEN)*%
X158408000Y-100225000D02*
X159387500Y-100225000D01*
X157379000Y-101254000D02*
X158408000Y-100225000D01*
X159973700Y-98275000D02*
X159387500Y-98275000D01*
X160400600Y-98701900D02*
X159973700Y-98275000D01*
X160400600Y-99798500D02*
X160400600Y-98701900D01*
X159974100Y-100225000D02*
X160400600Y-99798500D01*
X159387500Y-100225000D02*
X159974100Y-100225000D01*
X157448000Y-98275000D02*
X157379000Y-98206000D01*
X159387500Y-98275000D02*
X157448000Y-98275000D01*
X157506000Y-95031000D02*
X157506000Y-96193400D01*
X157379000Y-96320400D02*
X157506000Y-96193400D01*
X157379000Y-98206000D02*
X157379000Y-96320400D01*
X157506000Y-96193400D02*
X158604000Y-96193400D01*
X157864000Y-92595000D02*
X158604000Y-92595000D01*
X157506000Y-92237000D02*
X157864000Y-92595000D01*
%TO.N,Net-(U3-PG)*%
X157318000Y-80225000D02*
X160000000Y-80225000D01*
X155675000Y-81868000D02*
X157318000Y-80225000D01*
%TO.N,Net-(U3-DP)*%
X163000000Y-86716600D02*
X163000000Y-85500000D01*
X161977300Y-87739300D02*
X163000000Y-86716600D01*
X157042700Y-87739300D02*
X161977300Y-87739300D01*
X155782000Y-89000000D02*
X157042700Y-87739300D01*
%TO.N,Net-(U3-VBUS)*%
X166971300Y-78895300D02*
X169500000Y-81424000D01*
X162910300Y-78895300D02*
X166971300Y-78895300D01*
X162000000Y-79805600D02*
X162910300Y-78895300D01*
X162000000Y-80225000D02*
X162000000Y-79805600D01*
%TO.N,Net-(U3-DM)*%
X158739000Y-84390000D02*
X157607000Y-85522000D01*
X163334000Y-84390000D02*
X158739000Y-84390000D01*
X164000000Y-85056000D02*
X163334000Y-84390000D01*
X164000000Y-85500000D02*
X164000000Y-85056000D01*
%TO.N,Net-(U2-STAT)*%
X169200000Y-104700000D02*
X169000000Y-104500000D01*
X169200000Y-107375000D02*
X169200000Y-104700000D01*
%TO.N,Net-(U2-PROG)*%
X161977100Y-113097900D02*
X167700000Y-107375000D01*
X161977100Y-114871700D02*
X161977100Y-113097900D01*
X162392700Y-115287300D02*
X161977100Y-114871700D01*
X171813700Y-115287300D02*
X162392700Y-115287300D01*
X174586200Y-112514800D02*
X171813700Y-115287300D01*
X176833100Y-112514800D02*
X174586200Y-112514800D01*
X178547900Y-110800000D02*
X176833100Y-112514800D01*
X184575000Y-110800000D02*
X178547900Y-110800000D01*
%TO.N,Net-(U1-A0)*%
X182342500Y-70830000D02*
X182312500Y-70800000D01*
X182342500Y-73092800D02*
X182342500Y-70830000D01*
X181260300Y-74175000D02*
X182342500Y-73092800D01*
X180137500Y-74175000D02*
X181260300Y-74175000D01*
%TO.N,Net-(R2-Pad1)*%
X178360400Y-77177100D02*
X179057500Y-77177100D01*
X178037500Y-77500000D02*
X178360400Y-77177100D01*
X173389100Y-71006600D02*
X174492800Y-71006600D01*
X173382500Y-71000000D02*
X173389100Y-71006600D01*
X193634700Y-64629900D02*
X177933900Y-64629900D01*
X197859500Y-68854700D02*
X193634700Y-64629900D01*
X197859500Y-72803000D02*
X197859500Y-68854700D01*
X197062500Y-73600000D02*
X197859500Y-72803000D01*
%TO.N,Net-(U1-IN-)*%
X186175000Y-77600000D02*
X184225000Y-77600000D01*
X184225000Y-74775000D02*
X184400000Y-74600000D01*
X184225000Y-77600000D02*
X184225000Y-74775000D01*
X185270800Y-80595800D02*
X185270800Y-80492400D01*
X185925000Y-81250000D02*
X185270800Y-80595800D01*
X183432600Y-80492400D02*
X182675000Y-81250000D01*
X185270800Y-80492400D02*
X183432600Y-80492400D01*
X185270800Y-78504200D02*
X186175000Y-77600000D01*
X185270800Y-80492400D02*
X185270800Y-78504200D01*
X193405000Y-68795000D02*
X194800000Y-67400000D01*
X188594200Y-68795000D02*
X193405000Y-68795000D01*
X186877100Y-70512100D02*
X188594200Y-68795000D01*
X186877100Y-72122900D02*
X186877100Y-70512100D01*
X184400000Y-74600000D02*
X186877100Y-72122900D01*
X183148800Y-78676200D02*
X184225000Y-77600000D01*
X177529500Y-78676200D02*
X183148800Y-78676200D01*
X176903100Y-78049800D02*
X177529500Y-78676200D01*
X176903100Y-74584900D02*
X176903100Y-78049800D01*
X177313000Y-74175000D02*
X176903100Y-74584900D01*
X177862500Y-74175000D02*
X177313000Y-74175000D01*
%TO.N,Net-(Q3-B)*%
X192611200Y-104648700D02*
X192462500Y-104500000D01*
X193745300Y-104648700D02*
X192611200Y-104648700D01*
%TO.N,Net-(Q2-B)*%
X173549000Y-67200000D02*
X171450000Y-67200000D01*
X173625000Y-67276000D02*
X173549000Y-67200000D01*
X180642300Y-65469500D02*
X188970000Y-65469500D01*
X180290600Y-65821200D02*
X180642300Y-65469500D01*
X175079800Y-65821200D02*
X180290600Y-65821200D01*
X173625000Y-67276000D02*
X175079800Y-65821200D01*
X174457500Y-84032500D02*
X173751000Y-84032500D01*
X175425000Y-85000000D02*
X174457500Y-84032500D01*
%TO.N,Net-(Q1-B)*%
X193596600Y-102551700D02*
X193948300Y-102200000D01*
X183848300Y-102551700D02*
X193596600Y-102551700D01*
X181800000Y-104600000D02*
X183848300Y-102551700D01*
X195200000Y-102200000D02*
X193948300Y-102200000D01*
%TO.N,Net-(L3-Pad2)*%
X184266000Y-85941000D02*
X184393000Y-85814000D01*
X181425000Y-85941000D02*
X184266000Y-85941000D01*
X181425000Y-91990000D02*
X181425000Y-85941000D01*
X181251000Y-92164000D02*
X181425000Y-91990000D01*
%TO.N,Net-(U7-SW)*%
X184500000Y-90811600D02*
X183616500Y-89928100D01*
X184500000Y-92250000D02*
X184500000Y-90811600D01*
X182925500Y-67724500D02*
X183616500Y-68415600D01*
X183200000Y-67450000D02*
X182925500Y-67724500D01*
X175745700Y-67995700D02*
X174950000Y-67200000D01*
X182654300Y-67995700D02*
X175745700Y-67995700D01*
X182925500Y-67724500D02*
X182654300Y-67995700D01*
%TO.N,Net-(U6-SW)*%
X171900000Y-108578300D02*
X171900000Y-108800000D01*
X177315200Y-103163100D02*
X171900000Y-108578300D01*
X182468800Y-103163100D02*
X177315200Y-103163100D01*
X183606900Y-102025000D02*
X182468800Y-103163100D01*
X190467000Y-102025000D02*
X183606900Y-102025000D01*
X192414900Y-100077100D02*
X190467000Y-102025000D01*
X192414900Y-97643400D02*
X192414900Y-100077100D01*
X192171500Y-97400000D02*
X192414900Y-97643400D01*
X191800000Y-97400000D02*
X192171500Y-97400000D01*
%TO.N,/MOTOR2_A_OUT*%
X158198400Y-97625000D02*
X158177300Y-97603900D01*
X159387500Y-97625000D02*
X158198400Y-97625000D01*
X150000000Y-108860000D02*
X151101700Y-108860000D01*
X151514800Y-107758300D02*
X153956200Y-107758300D01*
X151101700Y-108171400D02*
X151514800Y-107758300D01*
X151101700Y-108860000D02*
X151101700Y-108171400D01*
%TO.N,/MOTOR4_CTRL1*%
X150000000Y-101240000D02*
X151101700Y-101240000D01*
X151101700Y-101468300D02*
X151101700Y-101240000D01*
X152020300Y-102386900D02*
X151101700Y-101468300D01*
X160636900Y-102386900D02*
X152020300Y-102386900D01*
X161553000Y-101470800D02*
X160636900Y-102386900D01*
X165058300Y-101470800D02*
X161553000Y-101470800D01*
X165112500Y-101525000D02*
X165058300Y-101470800D01*
%TO.N,/I2C1_SDA*%
X180137500Y-74825000D02*
X181273400Y-74825000D01*
X180150000Y-65181600D02*
X148871900Y-65181600D01*
%TO.N,/MOTOR3_CTRL2*%
X160100000Y-77349100D02*
X160100000Y-76500000D01*
X158060400Y-79388700D02*
X160100000Y-77349100D01*
X157200400Y-79388700D02*
X158060400Y-79388700D01*
X156770100Y-78958400D02*
X157200400Y-79388700D01*
X156770100Y-78351200D02*
X156770100Y-78958400D01*
X155696600Y-77277700D02*
X156770100Y-78351200D01*
X151964800Y-77277700D02*
X155696600Y-77277700D01*
X151101700Y-78140800D02*
X151964800Y-77277700D01*
X151101700Y-78380000D02*
X151101700Y-78140800D01*
X150000000Y-78380000D02*
X151101700Y-78380000D01*
%TO.N,/MOTOR2_B_OUT*%
X154898800Y-99223300D02*
X154309500Y-99812600D01*
X157799500Y-99223300D02*
X154898800Y-99223300D01*
X158097800Y-98925000D02*
X157799500Y-99223300D01*
X159387500Y-98925000D02*
X158097800Y-98925000D01*
%TO.N,/EXT_LOAD2_OUT*%
X197181900Y-96810200D02*
X197906900Y-96810200D01*
X196451700Y-96080000D02*
X197181900Y-96810200D01*
X195200000Y-96080000D02*
X196451700Y-96080000D01*
X160701700Y-116276300D02*
X160600100Y-116174700D01*
X178523700Y-116276300D02*
X160701700Y-116276300D01*
X180200000Y-114600000D02*
X178523700Y-116276300D01*
X182427300Y-112751800D02*
X193835400Y-112751800D01*
X180579100Y-114600000D02*
X182427300Y-112751800D01*
X180200000Y-114600000D02*
X180579100Y-114600000D01*
%TO.N,/MOTOR1_CTRL1*%
X164469500Y-76030500D02*
X164657500Y-76030500D01*
X164000000Y-76500000D02*
X164469500Y-76030500D01*
%TO.N,/EXT_LOAD1_OUT*%
X185575100Y-113424900D02*
X192914200Y-113424900D01*
X184400000Y-114600000D02*
X185575100Y-113424900D01*
X182270300Y-116729700D02*
X184400000Y-114600000D01*
X160214000Y-116729700D02*
X182270300Y-116729700D01*
X159507500Y-116023200D02*
X160214000Y-116729700D01*
%TO.N,/MOTOR3_B_OUT*%
X152857000Y-72198300D02*
X152540000Y-72198300D01*
X155664200Y-69391100D02*
X152857000Y-72198300D01*
X160653600Y-69391100D02*
X155664200Y-69391100D01*
X161400000Y-70137500D02*
X160653600Y-69391100D01*
X161400000Y-70775000D02*
X161400000Y-70137500D01*
X152540000Y-73300000D02*
X152540000Y-72198300D01*
%TO.N,/MOTOR4_CTRL2*%
X161651500Y-100875000D02*
X165112500Y-100875000D01*
X160540200Y-101986300D02*
X161651500Y-100875000D01*
X155033900Y-101986300D02*
X160540200Y-101986300D01*
X152849300Y-99801700D02*
X155033900Y-101986300D01*
X152065600Y-99801700D02*
X152849300Y-99801700D01*
X151101700Y-98837800D02*
X152065600Y-99801700D01*
X151101700Y-98700000D02*
X151101700Y-98837800D01*
X150000000Y-98700000D02*
X151101700Y-98700000D01*
%TO.N,/MOTOR2_CTRL1*%
X164987900Y-97099600D02*
X165112500Y-96975000D01*
X160582700Y-97099600D02*
X164987900Y-97099600D01*
X150000000Y-106320000D02*
X151101700Y-106320000D01*
X160448100Y-105200700D02*
X160582700Y-105335300D01*
X152083300Y-105200700D02*
X160448100Y-105200700D01*
X151101700Y-106182300D02*
X152083300Y-105200700D01*
X151101700Y-106320000D02*
X151101700Y-106182300D01*
%TO.N,/MOTOR1_B_OUT*%
X152540000Y-70760000D02*
X153641700Y-70760000D01*
X155362300Y-69039400D02*
X153641700Y-70760000D01*
X160974200Y-69039400D02*
X155362300Y-69039400D01*
X162050000Y-70115200D02*
X160974200Y-69039400D01*
X162050000Y-70775000D02*
X162050000Y-70115200D01*
%TO.N,/CTRL_EXT_LOAD1*%
X177737500Y-80777800D02*
X177737500Y-81200000D01*
X175826100Y-78866400D02*
X177737500Y-80777800D01*
X173162500Y-78866400D02*
X175826100Y-78866400D01*
%TO.N,/MOTOR4_B_OUT*%
X155647300Y-99575000D02*
X154877200Y-100345100D01*
X159387500Y-99575000D02*
X155647300Y-99575000D01*
%TO.N,/MOTOR4_A_OUT*%
X160976200Y-106320000D02*
X161157700Y-106138500D01*
X152540000Y-106320000D02*
X160976200Y-106320000D01*
X159387500Y-100875000D02*
X160842100Y-100875000D01*
%TO.N,/MOTOR3_CTRL1*%
X151101700Y-80403300D02*
X151668300Y-79836700D01*
X151101700Y-80920000D02*
X151101700Y-80403300D01*
X150000000Y-80920000D02*
X151101700Y-80920000D01*
X159450000Y-77036700D02*
X159450000Y-76500000D01*
X158959000Y-77527700D02*
X159450000Y-77036700D01*
%TO.N,/MOTOR1_A_OUT*%
X150000000Y-70760000D02*
X151101700Y-70760000D01*
X151101700Y-70622300D02*
X151101700Y-70760000D01*
X153036300Y-68687700D02*
X151101700Y-70622300D01*
X161907300Y-68687700D02*
X153036300Y-68687700D01*
X163350000Y-70130400D02*
X161907300Y-68687700D01*
X163350000Y-70775000D02*
X163350000Y-70130400D01*
%TO.N,/CTRL_EXT_LOAD2*%
X161378100Y-90684400D02*
X158252300Y-90684400D01*
X163062500Y-89000000D02*
X161378100Y-90684400D01*
%TO.N,/MOTOR3_A_OUT*%
X152540000Y-75840000D02*
X153641700Y-75840000D01*
X154564500Y-76762800D02*
X153641700Y-75840000D01*
X156227300Y-76762800D02*
X154564500Y-76762800D01*
X156602700Y-76387400D02*
X156227300Y-76762800D01*
X156602700Y-72940300D02*
X156602700Y-76387400D01*
X157715600Y-71827400D02*
X156602700Y-72940300D01*
X159638900Y-71827400D02*
X157715600Y-71827400D01*
X160100000Y-71366300D02*
X159638900Y-71827400D01*
X160100000Y-70775000D02*
X160100000Y-71366300D01*
%TO.N,/FAST_CHARGE_CTRL*%
X160744800Y-96162700D02*
X166693800Y-96162700D01*
X158853400Y-94271300D02*
X160744800Y-96162700D01*
X154293000Y-94271300D02*
X158853400Y-94271300D01*
X153641700Y-93620000D02*
X154293000Y-94271300D01*
X152540000Y-93620000D02*
X153641700Y-93620000D01*
X171301800Y-86198200D02*
X167891300Y-86198200D01*
X172500000Y-85000000D02*
X171301800Y-86198200D01*
%TO.N,/MOTOR2_CTRL2*%
X149858400Y-110285200D02*
X163920100Y-110285200D01*
X148883300Y-109310100D02*
X149858400Y-110285200D01*
X148883300Y-105860700D02*
X148883300Y-109310100D01*
X149862300Y-104881700D02*
X148883300Y-105860700D01*
X150000000Y-104881700D02*
X149862300Y-104881700D01*
X164989500Y-97748000D02*
X163920100Y-97748000D01*
X165112500Y-97625000D02*
X164989500Y-97748000D01*
X150000000Y-103780000D02*
X150000000Y-104881700D01*
%TO.N,/MOTOR1_CTRL2*%
X163350000Y-75886600D02*
X163935000Y-75301600D01*
X163350000Y-76500000D02*
X163350000Y-75886600D01*
%TO.N,/I2C1_SCL*%
X150000000Y-91080000D02*
X151101700Y-91080000D01*
X180137500Y-76093800D02*
X180137500Y-75475000D01*
X180036600Y-76194700D02*
X180137500Y-76093800D01*
X151101700Y-91217800D02*
X151101700Y-91080000D01*
X152065600Y-92181700D02*
X151101700Y-91217800D01*
X154598900Y-92181700D02*
X152065600Y-92181700D01*
X155915700Y-93498500D02*
X154598900Y-92181700D01*
X159350600Y-93498500D02*
X155915700Y-93498500D01*
X160348800Y-94496700D02*
X159350600Y-93498500D01*
X163948100Y-94496700D02*
X160348800Y-94496700D01*
X165066600Y-93378200D02*
X163948100Y-94496700D01*
X167049900Y-93378200D02*
X165066600Y-93378200D01*
X167088600Y-93416900D02*
X167049900Y-93378200D01*
X167545500Y-93416900D02*
X167088600Y-93416900D01*
X167584200Y-93378200D02*
X167545500Y-93416900D01*
X172261600Y-93378200D02*
X167584200Y-93378200D01*
%TO.N,Net-(J1-CC2)*%
X162436400Y-102209900D02*
X162631500Y-102209900D01*
X161000000Y-103646300D02*
X162436400Y-102209900D01*
X161000000Y-103920000D02*
X161000000Y-103646300D01*
X164125800Y-80099200D02*
X164752500Y-80099200D01*
X164000000Y-80225000D02*
X164125800Y-80099200D01*
%TO.N,Net-(J1-CC1)*%
X161684700Y-102022500D02*
X161781400Y-102022500D01*
X160000000Y-103707200D02*
X161684700Y-102022500D01*
X160000000Y-103920000D02*
X160000000Y-103707200D01*
X163000000Y-80668700D02*
X163000000Y-80225000D01*
X162230900Y-81437800D02*
X163000000Y-80668700D01*
X160348800Y-81437800D02*
X162230900Y-81437800D01*
X159891400Y-81895200D02*
X160348800Y-81437800D01*
%TO.N,Net-(U8-SW)*%
X178551000Y-86115000D02*
X178551000Y-87652400D01*
X178725000Y-85941000D02*
X178551000Y-86115000D01*
X178551000Y-87652400D02*
X178551000Y-92164000D01*
X174217400Y-88228000D02*
X174022000Y-88228000D01*
X174217400Y-88423400D02*
X174217400Y-88228000D01*
X174462800Y-88668800D02*
X174217400Y-88423400D01*
X174462800Y-91251100D02*
X174462800Y-88668800D01*
X173863900Y-91850000D02*
X174462800Y-91251100D01*
X173525000Y-91850000D02*
X173863900Y-91850000D01*
X174602900Y-87652400D02*
X178551000Y-87652400D01*
X174217400Y-88037900D02*
X174602900Y-87652400D01*
X174217400Y-88228000D02*
X174217400Y-88037900D01*
%TO.N,Net-(U8-BST)*%
X175800000Y-89046000D02*
X175800000Y-90900000D01*
X174982000Y-88228000D02*
X175800000Y-89046000D01*
%TO.N,/9V*%
X162020000Y-104135200D02*
X162020000Y-103920000D01*
X161375300Y-104779900D02*
X162020000Y-104135200D01*
X159624800Y-104779900D02*
X161375300Y-104779900D01*
X158980000Y-104135100D02*
X159624800Y-104779900D01*
X158980000Y-103920000D02*
X158980000Y-104135100D01*
X166575000Y-84037500D02*
X166575000Y-82962000D01*
X167037500Y-84500000D02*
X166575000Y-84037500D01*
X166575000Y-82962000D02*
X166575000Y-81424000D01*
X175405900Y-114405900D02*
X175750000Y-114750000D01*
X174234000Y-114405900D02*
X175405900Y-114405900D01*
X173525000Y-97012500D02*
X173525000Y-92800000D01*
X173037500Y-97500000D02*
X173525000Y-97012500D01*
X167382200Y-92800000D02*
X167317000Y-92865200D01*
X173525000Y-92800000D02*
X167382200Y-92800000D01*
X163634800Y-92865200D02*
X163000000Y-93500000D01*
X167317000Y-92865200D02*
X163634800Y-92865200D01*
X163465400Y-102369500D02*
X166142100Y-102369500D01*
X162020000Y-103814900D02*
X163465400Y-102369500D01*
X162020000Y-103920000D02*
X162020000Y-103814900D01*
X161167700Y-91667700D02*
X158629000Y-91667700D01*
X163000000Y-93500000D02*
X161167700Y-91667700D01*
X166575000Y-82962000D02*
X166365900Y-82962000D01*
%TO.N,/USB 5V*%
X168200000Y-110275000D02*
X167700000Y-110275000D01*
X184446300Y-88690500D02*
X182857700Y-88690500D01*
X187093000Y-86043800D02*
X184446300Y-88690500D01*
X187093000Y-85814000D02*
X187093000Y-86043800D01*
X182857700Y-96485300D02*
X182857700Y-88690500D01*
X182093000Y-97250000D02*
X182857700Y-96485300D01*
X179299100Y-67100900D02*
X180660000Y-67100900D01*
X179200000Y-67200000D02*
X179299100Y-67100900D01*
X171500000Y-114500000D02*
X171500000Y-111281800D01*
X168859900Y-111281800D02*
X171500000Y-111281800D01*
X168200000Y-110621900D02*
X168859900Y-111281800D01*
X168200000Y-110275000D02*
X168200000Y-110621900D01*
X175077100Y-111281800D02*
X171500000Y-111281800D01*
X175808000Y-110550900D02*
X175077100Y-111281800D01*
X175808000Y-110069000D02*
X175808000Y-110550900D01*
X178504700Y-107372300D02*
X175808000Y-110069000D01*
X179601100Y-107372300D02*
X178504700Y-107372300D01*
X180084800Y-107856000D02*
X179601100Y-107372300D01*
X181715500Y-66045400D02*
X180660000Y-67100900D01*
X194510900Y-66045400D02*
X181715500Y-66045400D01*
X195585800Y-67120300D02*
X194510900Y-66045400D01*
X195585800Y-70646200D02*
X195585800Y-67120300D01*
X194610600Y-71621400D02*
X195585800Y-70646200D01*
X192421400Y-71621400D02*
X194610600Y-71621400D01*
X191800000Y-71000000D02*
X192421400Y-71621400D01*
%TO.N,Net-(C10-Pad1)*%
X189900000Y-72900000D02*
X189900000Y-71000000D01*
X191800000Y-74800000D02*
X189900000Y-72900000D01*
%TO.N,/5V*%
X196558100Y-83503100D02*
X195255000Y-82200000D01*
X196558100Y-85247500D02*
X196558100Y-83503100D01*
X193041600Y-88764000D02*
X196558100Y-85247500D01*
X190836000Y-88764000D02*
X193041600Y-88764000D01*
X190100000Y-89500000D02*
X190836000Y-88764000D01*
X192005100Y-96694900D02*
X192851600Y-96694900D01*
X191800000Y-96900000D02*
X192005100Y-96694900D01*
X175537500Y-69838300D02*
X175537500Y-71000000D01*
X170338300Y-69838300D02*
X175537500Y-69838300D01*
X167700000Y-67200000D02*
X170338300Y-69838300D01*
X183563300Y-69838300D02*
X184925000Y-71200000D01*
X175537500Y-69838300D02*
X183563300Y-69838300D01*
X189736400Y-114586500D02*
X188578000Y-114586500D01*
X185725400Y-117439100D02*
X165791900Y-117439100D01*
X188578000Y-114586500D02*
X185725400Y-117439100D01*
X166143000Y-105532000D02*
X165791900Y-105532000D01*
X167175000Y-104500000D02*
X166143000Y-105532000D01*
X151101700Y-85771700D02*
X151101700Y-86000000D01*
X152143400Y-84730000D02*
X151101700Y-85771700D01*
X154848500Y-84730000D02*
X152143400Y-84730000D01*
X155435400Y-84143100D02*
X154848500Y-84730000D01*
X156157500Y-84143100D02*
X155435400Y-84143100D01*
X150000000Y-86000000D02*
X151101700Y-86000000D01*
X185005900Y-71280900D02*
X185960600Y-71280900D01*
X184925000Y-71200000D02*
X185005900Y-71280900D01*
%TO.N,Net-(C15-Pad1)*%
X189103200Y-69971800D02*
X187875000Y-71200000D01*
X193571800Y-69971800D02*
X189103200Y-69971800D01*
X194050000Y-70450000D02*
X193571800Y-69971800D01*
%TO.N,Net-(U5-VCP)*%
X166925500Y-72975500D02*
X167950000Y-74000000D01*
X163661000Y-72975500D02*
X166925500Y-72975500D01*
X160750000Y-75886500D02*
X163661000Y-72975500D01*
X160750000Y-76500000D02*
X160750000Y-75886500D01*
%TO.N,Net-(U4-VCP)*%
X165698000Y-100225000D02*
X165112500Y-100225000D01*
X166224700Y-100751700D02*
X165698000Y-100225000D01*
X166224700Y-101566800D02*
X166224700Y-100751700D01*
X166675700Y-102017800D02*
X166224700Y-101566800D01*
X167982200Y-102017800D02*
X166675700Y-102017800D01*
X169000000Y-101000000D02*
X167982200Y-102017800D01*
%TO.N,/3V3*%
X150000000Y-88540000D02*
X151101700Y-88540000D01*
X167000000Y-114500000D02*
X164875000Y-114500000D01*
X164875000Y-114500000D02*
X162750000Y-114500000D01*
X164482800Y-99575000D02*
X164103700Y-99195900D01*
X165112500Y-99575000D02*
X164482800Y-99575000D01*
X164482800Y-98275000D02*
X165112500Y-98275000D01*
X164103700Y-98654100D02*
X164482800Y-98275000D01*
X164103700Y-99195900D02*
X164103700Y-98654100D01*
X165716200Y-99575000D02*
X165112500Y-99575000D01*
X167100000Y-100958800D02*
X165716200Y-99575000D01*
X167100000Y-101000000D02*
X167100000Y-100958800D01*
X165714900Y-84843400D02*
X165809600Y-84938100D01*
X165714900Y-80285100D02*
X165714900Y-84843400D01*
X166500000Y-79500000D02*
X165714900Y-80285100D01*
X165742400Y-98275000D02*
X166716900Y-97300500D01*
X165112500Y-98275000D02*
X165742400Y-98275000D01*
X166816300Y-97400000D02*
X166716900Y-97300500D01*
X167250000Y-97400000D02*
X166816300Y-97400000D01*
X159847800Y-96514700D02*
X159387500Y-96975000D01*
X165931000Y-96514700D02*
X159847800Y-96514700D01*
X166716900Y-97300500D02*
X165931000Y-96514700D01*
X165825000Y-70775000D02*
X164000000Y-70775000D01*
X166100000Y-70500000D02*
X165825000Y-70775000D01*
X174674500Y-73863000D02*
X172962500Y-73863000D01*
X175500000Y-73037500D02*
X174674500Y-73863000D01*
X172962500Y-73863000D02*
X172962500Y-75000000D01*
X171274800Y-84500000D02*
X169962500Y-84500000D01*
X173539100Y-82235700D02*
X171274800Y-84500000D01*
X173539100Y-81773400D02*
X173539100Y-82235700D01*
X175040200Y-80272300D02*
X173539100Y-81773400D01*
X176120600Y-80272300D02*
X175040200Y-80272300D01*
X176415200Y-80566900D02*
X176120600Y-80272300D01*
X176415200Y-82129000D02*
X176415200Y-80566900D01*
X176993700Y-82707500D02*
X176415200Y-82129000D01*
X187069900Y-82707500D02*
X176993700Y-82707500D01*
X188200200Y-83837800D02*
X187069900Y-82707500D01*
X190038000Y-82000000D02*
X188200200Y-83837800D01*
X188200200Y-91249800D02*
X187200000Y-92250000D01*
X188200200Y-83837800D02*
X188200200Y-91249800D01*
X161400000Y-75914500D02*
X161400000Y-76500000D01*
X161832600Y-75481900D02*
X161400000Y-75914500D01*
X162455000Y-75481900D02*
X161832600Y-75481900D01*
X162700000Y-75726900D02*
X162455000Y-75481900D01*
X164426900Y-74000000D02*
X162700000Y-75726900D01*
X166050000Y-74000000D02*
X164426900Y-74000000D01*
X162700000Y-75726900D02*
X162700000Y-76500000D01*
X166100000Y-68012600D02*
X166100000Y-69473900D01*
X164225700Y-66138300D02*
X166100000Y-68012600D01*
X159587700Y-66138300D02*
X164225700Y-66138300D01*
X158805000Y-66921000D02*
X159587700Y-66138300D01*
X166100000Y-69473900D02*
X166100000Y-70500000D01*
X169897200Y-84565300D02*
X169962500Y-84500000D01*
X168669300Y-84565300D02*
X169897200Y-84565300D01*
X163075200Y-77492800D02*
X165050000Y-77492800D01*
X162700000Y-77117600D02*
X163075200Y-77492800D01*
X162700000Y-76500000D02*
X162700000Y-77117600D01*
X163583100Y-99716500D02*
X163355800Y-99716500D01*
X164103700Y-99195900D02*
X163583100Y-99716500D01*
X168435200Y-69473900D02*
X166100000Y-69473900D01*
X169429800Y-70468500D02*
X168435200Y-69473900D01*
X169429800Y-73863000D02*
X169429800Y-70468500D01*
X169080700Y-74212100D02*
X169429800Y-73863000D01*
X169080700Y-74310600D02*
X169080700Y-74212100D01*
X168411600Y-74979700D02*
X169080700Y-74310600D01*
X167029700Y-74979700D02*
X168411600Y-74979700D01*
X166050000Y-74000000D02*
X167029700Y-74979700D01*
X169429800Y-73863000D02*
X172962500Y-73863000D01*
X159947800Y-85552200D02*
X159947800Y-87332900D01*
X160000000Y-85500000D02*
X159947800Y-85552200D01*
X152171000Y-87332900D02*
X159947800Y-87332900D01*
X151101700Y-88402200D02*
X152171000Y-87332900D01*
X151101700Y-88540000D02*
X151101700Y-88402200D01*
X161603500Y-87332900D02*
X161764600Y-87171800D01*
X159947800Y-87332900D02*
X161603500Y-87332900D01*
%TO.N,-BATT*%
X152540000Y-80920000D02*
X153641700Y-80920000D01*
X155304000Y-86000000D02*
X155782000Y-85522000D01*
X152540000Y-86000000D02*
X155304000Y-86000000D01*
X156728300Y-102898300D02*
X157750000Y-103920000D01*
X156180000Y-102898300D02*
X156728300Y-102898300D01*
X156180000Y-106698300D02*
X164820000Y-106698300D01*
X156180000Y-107800000D02*
X156180000Y-106698300D01*
X164820000Y-107800000D02*
X164820000Y-107249100D01*
X164820000Y-107249100D02*
X164820000Y-106698300D01*
X162000000Y-82862500D02*
X163901700Y-82862500D01*
X162000000Y-82862500D02*
X160098300Y-82862500D01*
X168700000Y-106965900D02*
X168700000Y-107375000D01*
X168454600Y-106720500D02*
X168700000Y-106965900D01*
X165348600Y-106720500D02*
X168454600Y-106720500D01*
X164820000Y-107249100D02*
X165348600Y-106720500D01*
X164820000Y-104000000D02*
X164820000Y-102960900D01*
X164820000Y-102960900D02*
X164820000Y-102898300D01*
X190305000Y-99500000D02*
X190540000Y-99500000D01*
X187932000Y-97127000D02*
X190305000Y-99500000D01*
X170975000Y-88350000D02*
X168500000Y-88350000D01*
X173525000Y-90900000D02*
X170975000Y-88350000D01*
X155811000Y-70404000D02*
X155811000Y-73198000D01*
X155729000Y-95158000D02*
X155856000Y-95031000D01*
X155729000Y-98206000D02*
X155729000Y-95158000D01*
X190955400Y-81017400D02*
X191938000Y-82000000D01*
X191950000Y-82012000D02*
X191938000Y-82000000D01*
X191950000Y-85750000D02*
X191950000Y-82012000D01*
X190955400Y-81017400D02*
X190955400Y-80273900D01*
X190498900Y-80273900D02*
X190955400Y-80273900D01*
X187825000Y-77600000D02*
X190498900Y-80273900D01*
X192000000Y-79229300D02*
X192000000Y-78400000D01*
X190955400Y-80273900D02*
X192000000Y-79229300D01*
X187807600Y-81017400D02*
X187575000Y-81250000D01*
X190955400Y-81017400D02*
X187807600Y-81017400D01*
X156309700Y-92237000D02*
X155856000Y-92237000D01*
X174574200Y-102750000D02*
X174148300Y-102750000D01*
X174574200Y-102750000D02*
X175000000Y-102750000D01*
X192034300Y-98134300D02*
X191800000Y-97900000D01*
X192034300Y-99890300D02*
X192034300Y-98134300D01*
X191812100Y-100112500D02*
X192034300Y-99890300D01*
X191152500Y-100112500D02*
X191812100Y-100112500D01*
X190540000Y-99500000D02*
X191152500Y-100112500D01*
X164271700Y-102898300D02*
X164820000Y-102898300D01*
X163250000Y-103920000D02*
X164271700Y-102898300D01*
X155729000Y-101169600D02*
X155729000Y-101254000D01*
X156387900Y-100510700D02*
X155729000Y-101169600D01*
X178571200Y-109828800D02*
X185428800Y-109828800D01*
X177600000Y-110800000D02*
X178571200Y-109828800D01*
X185428800Y-109828800D02*
X186400000Y-110800000D01*
X192248800Y-75801700D02*
X189900000Y-75801700D01*
X192622400Y-75428100D02*
X192248800Y-75801700D01*
X192622400Y-73446200D02*
X192622400Y-75428100D01*
X193612700Y-72455900D02*
X192622400Y-73446200D01*
X194994100Y-72455900D02*
X193612700Y-72455900D01*
X197000000Y-70450000D02*
X194994100Y-72455900D01*
X189900000Y-74800000D02*
X189900000Y-75801700D01*
X188101700Y-77600000D02*
X187825000Y-77600000D01*
X189900000Y-75801700D02*
X188101700Y-77600000D01*
X184325000Y-81980300D02*
X184325000Y-81250000D01*
X186844700Y-81980300D02*
X184325000Y-81980300D01*
X187575000Y-81250000D02*
X186844700Y-81980300D01*
X156180000Y-104000000D02*
X156180000Y-102898300D01*
X155174500Y-79387200D02*
X155938000Y-79387200D01*
X153641700Y-80920000D02*
X155174500Y-79387200D01*
X155938000Y-79387200D02*
X155938000Y-78659000D01*
X154943600Y-101254000D02*
X155729000Y-101254000D01*
X153721400Y-100031800D02*
X154943600Y-101254000D01*
X153721400Y-99597600D02*
X153721400Y-100031800D01*
X155113000Y-98206000D02*
X153721400Y-99597600D01*
X155729000Y-98206000D02*
X155113000Y-98206000D01*
X167667200Y-98925000D02*
X168024700Y-98567500D01*
X165112500Y-98925000D02*
X167667200Y-98925000D01*
X171540200Y-103886700D02*
X169789600Y-102136100D01*
X173570500Y-103886700D02*
X171540200Y-103886700D01*
X174148300Y-103308900D02*
X173570500Y-103886700D01*
X174148300Y-102750000D02*
X174148300Y-103308900D01*
X169789600Y-100332400D02*
X169789600Y-102136100D01*
X168024700Y-98567500D02*
X169789600Y-100332400D01*
X168964800Y-102960900D02*
X164820000Y-102960900D01*
X169789600Y-102136100D02*
X168964800Y-102960900D01*
X169402300Y-97147700D02*
X169150000Y-97400000D01*
X169402300Y-95552300D02*
X169402300Y-97147700D01*
X168500000Y-94650000D02*
X169402300Y-95552300D01*
X168024700Y-98525300D02*
X169150000Y-97400000D01*
X168024700Y-98567500D02*
X168024700Y-98525300D01*
X181763200Y-102750000D02*
X175000000Y-102750000D01*
X183152000Y-101361200D02*
X181763200Y-102750000D01*
X188678800Y-101361200D02*
X183152000Y-101361200D01*
X190540000Y-99500000D02*
X188678800Y-101361200D01*
X185428800Y-106171200D02*
X187000000Y-104600000D01*
X185428800Y-109828800D02*
X185428800Y-106171200D01*
X161000000Y-79797800D02*
X161000000Y-80225000D01*
X160305800Y-79103600D02*
X161000000Y-79797800D01*
X154415500Y-89952700D02*
X156309700Y-91846900D01*
X149503100Y-89952700D02*
X154415500Y-89952700D01*
X148860200Y-90595600D02*
X149503100Y-89952700D01*
X148860200Y-91517800D02*
X148860200Y-90595600D01*
X149524100Y-92181700D02*
X148860200Y-91517800D01*
X150189500Y-92181700D02*
X149524100Y-92181700D01*
X151270000Y-93262200D02*
X150189500Y-92181700D01*
X151270000Y-93980800D02*
X151270000Y-93262200D01*
X152320200Y-95031000D02*
X151270000Y-93980800D01*
X155856000Y-95031000D02*
X152320200Y-95031000D01*
X156309700Y-91846900D02*
X156309700Y-92237000D01*
X168005500Y-87855500D02*
X168500000Y-88350000D01*
X167323600Y-87855500D02*
X168005500Y-87855500D01*
X158177400Y-89570400D02*
X157607000Y-89000000D01*
X158177400Y-89979200D02*
X158177400Y-89570400D01*
X158177400Y-89979200D02*
X156309700Y-91846900D01*
X176449100Y-111950900D02*
X175851700Y-111950900D01*
X177600000Y-110800000D02*
X176449100Y-111950900D01*
X162050000Y-77359400D02*
X162050000Y-76500000D01*
X160305800Y-79103600D02*
X162050000Y-77359400D01*
X167323600Y-87855500D02*
X167323600Y-85885600D01*
X163901700Y-82862500D02*
X164526600Y-82862500D01*
X165304200Y-82084900D02*
X164526600Y-82862500D01*
X165304200Y-79735800D02*
X165304200Y-82084900D01*
X165540000Y-79500000D02*
X165304200Y-79735800D01*
X165914800Y-85885600D02*
X167323600Y-85885600D01*
X164526600Y-84497400D02*
X165914800Y-85885600D01*
X164526600Y-82862500D02*
X164526600Y-84497400D01*
X155811000Y-73198000D02*
X155811000Y-74733400D01*
X155811000Y-75929000D02*
X155874000Y-75992000D01*
X155811000Y-74733400D02*
X155811000Y-75929000D01*
X181995700Y-80536100D02*
X181995700Y-81980300D01*
X182230000Y-80301800D02*
X181995700Y-80536100D01*
X181995700Y-81980300D02*
X184325000Y-81980300D01*
X178531600Y-74825000D02*
X177862500Y-74825000D01*
X178955900Y-74400700D02*
X178531600Y-74825000D01*
X178955900Y-74125700D02*
X178955900Y-74400700D01*
X179556600Y-73525000D02*
X178955900Y-74125700D01*
X180137500Y-73525000D02*
X179556600Y-73525000D01*
X168000000Y-70856500D02*
X168000000Y-70500000D01*
X168878100Y-71734600D02*
X168000000Y-70856500D01*
X171889400Y-81400000D02*
X171634800Y-81654600D01*
X172675000Y-81400000D02*
X171889400Y-81400000D01*
X168117600Y-85091600D02*
X167323600Y-85885600D01*
X168117600Y-84336900D02*
X168117600Y-85091600D01*
X168440900Y-84013600D02*
X168117600Y-84336900D01*
X168684200Y-84013600D02*
X168440900Y-84013600D01*
X171043200Y-81654600D02*
X168684200Y-84013600D01*
X171634800Y-81654600D02*
X171043200Y-81654600D01*
X159516600Y-79103600D02*
X160305800Y-79103600D01*
X158848400Y-79771800D02*
X159516600Y-79103600D01*
X156322600Y-79771800D02*
X158848400Y-79771800D01*
X155938000Y-79387200D02*
X156322600Y-79771800D01*
X181620200Y-82355800D02*
X181995700Y-81980300D01*
X177186400Y-82355800D02*
X181620200Y-82355800D01*
X176859600Y-82029000D02*
X177186400Y-82355800D01*
X176859600Y-80428800D02*
X176859600Y-82029000D01*
X176337800Y-79907000D02*
X176859600Y-80428800D01*
X174168000Y-79907000D02*
X176337800Y-79907000D01*
X172675000Y-81400000D02*
X174168000Y-79907000D01*
X157219500Y-93146800D02*
X156309700Y-92237000D01*
X160746800Y-93146800D02*
X157219500Y-93146800D01*
X161100000Y-93500000D02*
X160746800Y-93146800D01*
X180798200Y-72864300D02*
X181790800Y-72864300D01*
X180137500Y-73525000D02*
X180798200Y-72864300D01*
X151116600Y-75679100D02*
X151116600Y-76807700D01*
X152062300Y-74733400D02*
X151116600Y-75679100D01*
X155811000Y-74733400D02*
X152062300Y-74733400D01*
X158328100Y-90129900D02*
X158177400Y-89979200D01*
X160685500Y-90129900D02*
X158328100Y-90129900D01*
X161901100Y-88914300D02*
X160685500Y-90129900D01*
X162558700Y-87855500D02*
X167323600Y-87855500D01*
X161901100Y-88513100D02*
X162558700Y-87855500D01*
X161901100Y-88914300D02*
X161901100Y-88513100D01*
X162000000Y-85500000D02*
X161000000Y-85500000D01*
X161000000Y-86323500D02*
X160548000Y-86775500D01*
X161000000Y-85500000D02*
X161000000Y-86323500D01*
X158441500Y-82809500D02*
X157500000Y-81868000D01*
X158441500Y-82862500D02*
X158441500Y-82809500D01*
X155782000Y-85522000D02*
X158441500Y-82862500D01*
X158441500Y-82862500D02*
X160098300Y-82862500D01*
%TO.N,+BATT*%
X169200000Y-110275000D02*
X168700000Y-110275000D01*
X190375000Y-98375000D02*
X190375000Y-97900000D01*
X191500000Y-99500000D02*
X190375000Y-98375000D01*
X182475000Y-77500000D02*
X182575000Y-77600000D01*
X180962500Y-77500000D02*
X182475000Y-77500000D01*
X195746500Y-105944200D02*
X195200000Y-105944200D01*
X199800000Y-109997700D02*
X195746500Y-105944200D01*
X199800000Y-114400000D02*
X199800000Y-109997700D01*
X163181600Y-67718400D02*
X163950000Y-66950000D01*
X155118400Y-67718400D02*
X163181600Y-67718400D01*
X154400000Y-67000000D02*
X155118400Y-67718400D01*
X194466500Y-86732700D02*
X195255000Y-85944200D01*
X191032700Y-86732700D02*
X194466500Y-86732700D01*
X190050000Y-85750000D02*
X191032700Y-86732700D01*
X195255000Y-84740000D02*
X195255000Y-85944200D01*
X195255000Y-84740000D02*
X195255000Y-83535800D01*
X194137500Y-74770900D02*
X194137500Y-73600000D01*
X191982300Y-76926100D02*
X194137500Y-74770900D01*
X194708500Y-83535800D02*
X195255000Y-83535800D01*
X193917700Y-82745000D02*
X194708500Y-83535800D01*
X193917700Y-78861500D02*
X193917700Y-82745000D01*
X191982300Y-76926100D02*
X193917700Y-78861500D01*
X190375000Y-97900000D02*
X190375000Y-97400000D01*
X195200000Y-93540000D02*
X193948300Y-93540000D01*
X191573900Y-76926100D02*
X191982300Y-76926100D01*
X190100000Y-78400000D02*
X191573900Y-76926100D01*
X190713300Y-97400000D02*
X190375000Y-97400000D01*
X191130000Y-96983300D02*
X190713300Y-97400000D01*
X191130000Y-96584800D02*
X191130000Y-96983300D01*
X193948300Y-93766500D02*
X191130000Y-96584800D01*
X193948300Y-93540000D02*
X193948300Y-93766500D01*
X195200000Y-104740000D02*
X195200000Y-105944200D01*
X195200000Y-104740000D02*
X195200000Y-103535800D01*
X169855100Y-110930100D02*
X169200000Y-110275000D01*
X172733000Y-110930100D02*
X169855100Y-110930100D01*
X174600000Y-109063100D02*
X172733000Y-110930100D01*
X174600000Y-108800000D02*
X174600000Y-109063100D01*
X180962500Y-77500000D02*
X180962500Y-77035400D01*
X182749900Y-75248000D02*
X180962500Y-77035400D01*
X182749900Y-74600000D02*
X182749900Y-75248000D01*
X182750000Y-74600000D02*
X182749900Y-74600000D01*
X185419800Y-68980200D02*
X187200000Y-67200000D01*
X179028900Y-68980200D02*
X185419800Y-68980200D01*
X178396100Y-68347400D02*
X179028900Y-68980200D01*
X170203800Y-68347400D02*
X178396100Y-68347400D01*
X167625500Y-65769100D02*
X170203800Y-68347400D01*
X155630900Y-65769100D02*
X167625500Y-65769100D01*
X154400000Y-67000000D02*
X155630900Y-65769100D01*
X175933100Y-107466900D02*
X174600000Y-108800000D01*
X175933100Y-107020600D02*
X175933100Y-107466900D01*
X183364800Y-107020600D02*
X175933100Y-107020600D01*
X186094300Y-104291100D02*
X183364800Y-107020600D01*
X186094300Y-103832500D02*
X186094300Y-104291100D01*
X186601500Y-103325300D02*
X186094300Y-103832500D01*
X193785300Y-103325300D02*
X186601500Y-103325300D01*
X193995800Y-103535800D02*
X193785300Y-103325300D01*
X195200000Y-103535800D02*
X193995800Y-103535800D01*
X175933100Y-107020600D02*
X175287300Y-106374800D01*
X193725000Y-67376600D02*
X191978000Y-67376600D01*
X191978000Y-67559100D02*
X191978000Y-67376600D01*
X191124000Y-68413100D02*
X191978000Y-67559100D01*
X188418700Y-68413100D02*
X191124000Y-68413100D01*
X186519000Y-70312800D02*
X188418700Y-68413100D01*
X186519000Y-71533600D02*
X186519000Y-70312800D01*
X184180100Y-73872500D02*
X186519000Y-71533600D01*
X183477500Y-73872500D02*
X184180100Y-73872500D01*
X182750000Y-74600000D02*
X183477500Y-73872500D01*
X187952700Y-66447300D02*
X187200000Y-67200000D01*
X191573400Y-66447300D02*
X187952700Y-66447300D01*
X191978000Y-66851900D02*
X191573400Y-66447300D01*
X191978000Y-67376600D02*
X191978000Y-66851900D01*
X193377700Y-115177700D02*
X192600000Y-114400000D01*
X199022300Y-115177700D02*
X193377700Y-115177700D01*
X199800000Y-114400000D02*
X199022300Y-115177700D01*
X152842000Y-114242000D02*
X153400000Y-114800000D01*
X151247800Y-114242000D02*
X152842000Y-114242000D01*
X154923200Y-93850200D02*
X154603700Y-93530700D01*
X159030100Y-93850200D02*
X154923200Y-93850200D01*
X160043600Y-94863700D02*
X159030100Y-93850200D01*
X166200000Y-94863700D02*
X160043600Y-94863700D01*
X166200000Y-94650000D02*
X166200000Y-94863700D01*
X167497900Y-96161600D02*
X168849000Y-96161600D01*
X166200000Y-94863700D02*
X167497900Y-96161600D01*
X178561200Y-75475000D02*
X179235700Y-76149500D01*
X177862500Y-75475000D02*
X178561200Y-75475000D01*
X179235700Y-76267400D02*
X179235700Y-76149500D01*
X180003700Y-77035400D02*
X179235700Y-76267400D01*
X180962500Y-77035400D02*
X180003700Y-77035400D01*
X179156300Y-72231200D02*
X179235700Y-72231200D01*
X177862500Y-73525000D02*
X179156300Y-72231200D01*
X179235700Y-72051800D02*
X180487500Y-70800000D01*
X179235700Y-72231200D02*
X179235700Y-72051800D01*
%TD*%
M02*
