M48
; DRILL file {KiCad 9.0.0} date 2025-03-28T10:26:18+0200
; FORMAT={-:-/ absolute / inch / decimal}
; #@! TF.CreationDate,2025-03-28T10:26:18+02:00
; #@! TF.GenerationSoftware,Kicad,Pcbnew,9.0.0
; #@! TF.FileFunction,Plated,1,2,PTH
FMAT,2
INCH
; #@! TA.AperFunction,Plated,PTH,ComponentDrill
T1C0.0236
; #@! TA.AperFunction,Plated,PTH,ComponentDrill
T2C0.0295
; #@! TA.AperFunction,Plated,PTH,ComponentDrill
T3C0.0394
; #@! TA.AperFunction,Plated,PTH,ComponentDrill
T4C0.0433
%
G90
G05
T2
X5.3622Y-4.1528
X5.4409Y-4.1528
T3
X2.575Y-1.8
X2.575Y-1.9
X2.575Y-2.0
X2.575Y-2.1
X2.575Y-2.2
X2.575Y-2.3
X2.575Y-2.4
X2.575Y-2.5
X2.575Y-2.6
X2.575Y-2.7
X2.575Y-2.8
X2.575Y-2.9
X2.575Y-3.0
X2.575Y-3.1
X2.575Y-3.2
X2.575Y-3.3
X2.675Y-1.8
X2.675Y-1.9
X2.675Y-2.0
X2.675Y-2.1
X2.675Y-2.2
X2.675Y-2.3
X2.675Y-2.4
X2.675Y-2.5
X2.675Y-2.6
X2.675Y-2.7
X2.675Y-2.8
X2.675Y-2.9
X2.675Y-3.0
X2.675Y-3.1
X2.675Y-3.2
X2.675Y-3.3
T4
X8.725Y-2.75
X8.75Y-1.8122
X8.825Y-2.75
X8.85Y-1.8122
X8.925Y-2.75
X8.95Y-1.8122
X9.0Y-3.375
X9.1Y-3.375
X9.2Y-3.375
T1
G00X7.7049Y-3.4201
M15
G01X7.7049Y-3.4437
M16
G05
G00X7.7049Y-3.5697
M15
G01X7.7049Y-3.5933
M16
G05
G00X8.0451Y-3.4201
M15
G01X8.0451Y-3.4437
M16
G05
G00X8.0451Y-3.5697
M15
G01X8.0451Y-3.5933
M16
G05
M30
