M48
; DRILL file {KiCad 9.0.0} date 2025-03-28T14:53:48+0200
; FORMAT={-:-/ absolute / inch / decimal}
; #@! TF.CreationDate,2025-03-28T14:53:48+02:00
; #@! TF.GenerationSoftware,Kicad,Pcbnew,9.0.0
; #@! TF.FileFunction,Plated,1,2,PTH
FMAT,2
INCH
; #@! TA.AperFunction,Plated,PTH,ViaDrill
T1C0.0118
; #@! TA.AperFunction,Plated,PTH,ComponentDrill
T2C0.0236
; #@! TA.AperFunction,Plated,PTH,ComponentDrill
T3C0.0295
; #@! TA.AperFunction,Plated,PTH,ComponentDrill
T4C0.0394
; #@! TA.AperFunction,Plated,PTH,ComponentDrill
T5C0.0433
%
G90
G05
T1
X5.8399Y-2.7369
X5.8618Y-4.5997
X5.8619Y-2.6883
X6.1445Y-4.0315
X6.1569Y-3.9229
X6.163Y-3.1381
X6.1927Y-3.1433
X6.1946Y-3.9037
X6.2104Y-4.0341
X6.2157Y-3.7839
X6.2199Y-3.414
X6.2393Y-2.9681
X6.2467Y-3.4779
X6.2615Y-3.3654
X6.2616Y-3.5193
X6.2664Y-3.1199
X6.2832Y-3.2858
X6.2866Y-3.749
X6.3224Y-3.8435
X6.3422Y-3.9715
X6.3422Y-4.179
X6.3549Y-3.4531
X6.3778Y-3.972
X6.3778Y-4.1565
X6.3969Y-3.5613
X6.416Y-4.0196
X6.4266Y-3.4191
X6.4369Y-2.9558
X6.467Y-3.2113
X6.4908Y-3.1585
X6.4908Y-4.0422
X6.4996Y-2.7835
X6.4996Y-2.9224
X6.5131Y-3.0344
X6.5131Y-3.3661
X6.5311Y-3.4159
X6.5311Y-3.7349
X6.5311Y-4.2101
X6.586Y-3.2941
X6.586Y-3.7871
X6.5952Y-4.4738
X6.6095Y-3.0467
X6.65Y-4.3945
X6.69Y-4.3684
X6.6959Y-3.0546
X6.717Y-4.3182
X6.7262Y-4.3977
X6.7406Y-3.0685
X6.7624Y-2.6832
X6.7688Y-3.6752
X6.7764Y-3.2689
X6.7907Y-2.8364
X6.7947Y-4.4228
X6.7986Y-3.0148
X6.8116Y-3.9685
X6.8505Y-2.5835
X6.8539Y-3.5491
X6.8803Y-3.9028
X6.9028Y-3.6843
X6.9034Y-4.5627
X6.9543Y-3.2087
X6.9933Y-4.0586
X7.0003Y-3.0973
X7.0424Y-3.1198
X7.0823Y-4.1181
X7.1029Y-2.6475
X7.1245Y-3.077
X7.1328Y-2.6111
X7.1328Y-3.2913
X7.1774Y-3.7221
X7.2026Y-4.4673
X7.2026Y-4.5997
X7.2069Y-4.1181
X7.2279Y-2.8158
X7.2378Y-2.6891
X7.2689Y-2.9875
X7.2943Y-2.9522
X7.2943Y-3.9685
X7.2967Y-2.7361
X7.3169Y-3.6545
X7.3378Y-3.9764
X7.3778Y-3.7565
X7.4588Y-3.3108
X7.5075Y-4.5113
X7.5081Y-3.388
X7.5486Y-3.0396
X7.5552Y-3.4345
X7.5672Y-4.4204
X7.5709Y-4.0147
X7.571Y-3.9764
X7.5993Y-4.2716
X7.6872Y-2.5603
T3
X6.811Y-4.0453
X6.8898Y-4.0453
T4
X5.9055Y-2.7858
X5.9055Y-2.8858
X5.9055Y-2.9858
X5.9055Y-3.0858
X5.9055Y-3.1858
X5.9055Y-3.2858
X5.9055Y-3.3858
X5.9055Y-3.4858
X5.9055Y-3.5858
X5.9055Y-3.6858
X5.9055Y-3.7858
X5.9055Y-3.8858
X5.9055Y-3.9858
X5.9055Y-4.0858
X5.9055Y-4.1858
X5.9055Y-4.2858
X6.0055Y-2.7858
X6.0055Y-2.8858
X6.0055Y-2.9858
X6.0055Y-3.0858
X6.0055Y-3.1858
X6.0055Y-3.2858
X6.0055Y-3.3858
X6.0055Y-3.4858
X6.0055Y-3.5858
X6.0055Y-3.6858
X6.0055Y-3.7858
X6.0055Y-3.8858
X6.0055Y-3.9858
X6.0055Y-4.0858
X6.0055Y-4.1858
X6.0055Y-4.2858
T5
X7.685Y-3.5827
X7.685Y-3.6827
X7.685Y-3.7827
X7.685Y-4.0236
X7.685Y-4.1236
X7.685Y-4.2236
X7.6872Y-3.1362
X7.6872Y-3.2362
X7.6872Y-3.3362
T2
G00X6.1488Y-4.0827
M15
G01X6.1488Y-4.1063
M16
G05
G00X6.1488Y-4.2323
M15
G01X6.1488Y-4.2559
M16
G05
G00X6.489Y-4.0827
M15
G01X6.489Y-4.1063
M16
G05
G00X6.489Y-4.2323
M15
G01X6.489Y-4.2559
M16
G05
M30
