%TF.GenerationSoftware,KiCad,Pcbnew,9.0.0*%
%TF.CreationDate,2025-03-28T16:52:22+02:00*%
%TF.ProjectId,MicroMousePower,4d696372-6f4d-46f7-9573-65506f776572,rev?*%
%TF.SameCoordinates,Original*%
%TF.FileFunction,Copper,L2,Bot*%
%TF.FilePolarity,Positive*%
%FSLAX46Y46*%
G04 Gerber Fmt 4.6, Leading zero omitted, Abs format (unit mm)*
G04 Created by KiCad (PCBNEW 9.0.0) date 2025-03-28 16:52:22*
%MOMM*%
%LPD*%
G01*
G04 APERTURE LIST*
G04 Aperture macros list*
%AMRoundRect*
0 Rectangle with rounded corners*
0 $1 Rounding radius*
0 $2 $3 $4 $5 $6 $7 $8 $9 X,Y pos of 4 corners*
0 Add a 4 corners polygon primitive as box body*
4,1,4,$2,$3,$4,$5,$6,$7,$8,$9,$2,$3,0*
0 Add four circle primitives for the rounded corners*
1,1,$1+$1,$2,$3*
1,1,$1+$1,$4,$5*
1,1,$1+$1,$6,$7*
1,1,$1+$1,$8,$9*
0 Add four rect primitives between the rounded corners*
20,1,$1+$1,$2,$3,$4,$5,0*
20,1,$1+$1,$4,$5,$6,$7,0*
20,1,$1+$1,$6,$7,$8,$9,0*
20,1,$1+$1,$8,$9,$2,$3,0*%
G04 Aperture macros list end*
%TA.AperFunction,ComponentPad*%
%ADD10R,2.000000X1.905000*%
%TD*%
%TA.AperFunction,ComponentPad*%
%ADD11O,2.000000X1.905000*%
%TD*%
%TA.AperFunction,ComponentPad*%
%ADD12RoundRect,0.250000X-0.350000X-0.625000X0.350000X-0.625000X0.350000X0.625000X-0.350000X0.625000X0*%
%TD*%
%TA.AperFunction,ComponentPad*%
%ADD13O,1.200000X1.750000*%
%TD*%
%TA.AperFunction,HeatsinkPad*%
%ADD14O,1.100000X1.700000*%
%TD*%
%TA.AperFunction,ComponentPad*%
%ADD15R,1.700000X1.700000*%
%TD*%
%TA.AperFunction,ComponentPad*%
%ADD16O,1.700000X1.700000*%
%TD*%
%TA.AperFunction,ViaPad*%
%ADD17C,0.600000*%
%TD*%
%TA.AperFunction,Conductor*%
%ADD18C,0.200000*%
%TD*%
G04 APERTURE END LIST*
D10*
%TO.P,Q3,1,B*%
%TO.N,Net-(Q3-B)*%
X195200000Y-91000000D03*
D11*
%TO.P,Q3,2,C*%
%TO.N,+BATT*%
X195200000Y-93540000D03*
%TO.P,Q3,3,E*%
%TO.N,/EXT_LOAD2_OUT*%
X195200000Y-96080000D03*
%TD*%
D12*
%TO.P,J3,1,Pin_1*%
%TO.N,+BATT*%
X173000000Y-102750000D03*
D13*
%TO.P,J3,2,Pin_2*%
%TO.N,-BATT*%
X175000000Y-102750000D03*
%TD*%
D10*
%TO.P,Q1,1,B*%
%TO.N,Net-(Q1-B)*%
X195200000Y-102200000D03*
D11*
%TO.P,Q1,2,C*%
%TO.N,+BATT*%
X195200000Y-104740000D03*
%TO.P,Q1,3,E*%
%TO.N,/EXT_LOAD1_OUT*%
X195200000Y-107280000D03*
%TD*%
D10*
%TO.P,Q2,1,B*%
%TO.N,Net-(Q2-B)*%
X195255000Y-79660000D03*
D11*
%TO.P,Q2,2,C*%
%TO.N,/5V*%
X195255000Y-82200000D03*
%TO.P,Q2,3,E*%
%TO.N,+BATT*%
X195255000Y-84740000D03*
%TD*%
D14*
%TO.P,J1,S1,SHIELD*%
%TO.N,-BATT*%
X156180000Y-104000000D03*
X156180000Y-107800000D03*
X164820000Y-104000000D03*
X164820000Y-107800000D03*
%TD*%
D15*
%TO.P,J2,1,Pin_1*%
%TO.N,/MOTOR2_B_OUT*%
X152540000Y-108860000D03*
D16*
%TO.P,J2,2,Pin_2*%
%TO.N,/MOTOR2_A_OUT*%
X150000000Y-108860000D03*
%TO.P,J2,3,Pin_3*%
%TO.N,/MOTOR4_A_OUT*%
X152540000Y-106320000D03*
%TO.P,J2,4,Pin_4*%
%TO.N,/MOTOR2_CTRL1*%
X150000000Y-106320000D03*
%TO.P,J2,5,Pin_5*%
%TO.N,/MOTOR4_B_OUT*%
X152540000Y-103780000D03*
%TO.P,J2,6,Pin_6*%
%TO.N,/MOTOR2_CTRL2*%
X150000000Y-103780000D03*
%TO.P,J2,7,Pin_7*%
%TO.N,/CTRL_EXT_LOAD2*%
X152540000Y-101240000D03*
%TO.P,J2,8,Pin_8*%
%TO.N,/MOTOR4_CTRL1*%
X150000000Y-101240000D03*
%TO.P,J2,9,Pin_9*%
%TO.N,/USART2_RX*%
X152540000Y-98700000D03*
%TO.P,J2,10,Pin_10*%
%TO.N,/MOTOR4_CTRL2*%
X150000000Y-98700000D03*
%TO.P,J2,11,Pin_11*%
%TO.N,/EXT_LOAD2_OUT*%
X152540000Y-96160000D03*
%TO.P,J2,12,Pin_12*%
%TO.N,/USART2_TX*%
X150000000Y-96160000D03*
%TO.P,J2,13,Pin_13*%
%TO.N,/FAST_CHARGE_CTRL*%
X152540000Y-93620000D03*
%TO.P,J2,14,Pin_14*%
%TO.N,+BATT*%
X150000000Y-93620000D03*
%TO.P,J2,15,Pin_15*%
%TO.N,unconnected-(J2-Pin_15-Pad15)*%
X152540000Y-91080000D03*
%TO.P,J2,16,Pin_16*%
%TO.N,/I2C1_SCL*%
X150000000Y-91080000D03*
%TO.P,J2,17,Pin_17*%
%TO.N,/I2C1_SDA*%
X152540000Y-88540000D03*
%TO.P,J2,18,Pin_18*%
%TO.N,/3V3*%
X150000000Y-88540000D03*
%TO.P,J2,19,Pin_19*%
%TO.N,-BATT*%
X152540000Y-86000000D03*
%TO.P,J2,20,Pin_20*%
%TO.N,/5V*%
X150000000Y-86000000D03*
%TO.P,J2,21,Pin_21*%
%TO.N,/EXT_LOAD1_OUT*%
X152540000Y-83460000D03*
%TO.P,J2,22,Pin_22*%
%TO.N,/9V*%
X150000000Y-83460000D03*
%TO.P,J2,23,Pin_23*%
%TO.N,-BATT*%
X152540000Y-80920000D03*
%TO.P,J2,24,Pin_24*%
%TO.N,/MOTOR3_CTRL1*%
X150000000Y-80920000D03*
%TO.P,J2,25,Pin_25*%
%TO.N,/CTRL_EXT_LOAD1*%
X152540000Y-78380000D03*
%TO.P,J2,26,Pin_26*%
%TO.N,/MOTOR3_CTRL2*%
X150000000Y-78380000D03*
%TO.P,J2,27,Pin_27*%
%TO.N,/MOTOR3_A_OUT*%
X152540000Y-75840000D03*
%TO.P,J2,28,Pin_28*%
%TO.N,/MOTOR1_CTRL1*%
X150000000Y-75840000D03*
%TO.P,J2,29,Pin_29*%
%TO.N,/MOTOR3_B_OUT*%
X152540000Y-73300000D03*
%TO.P,J2,30,Pin_30*%
%TO.N,/MOTOR1_CTRL2*%
X150000000Y-73300000D03*
%TO.P,J2,31,Pin_31*%
%TO.N,/MOTOR1_B_OUT*%
X152540000Y-70760000D03*
%TO.P,J2,32,Pin_32*%
%TO.N,/MOTOR1_A_OUT*%
X150000000Y-70760000D03*
%TD*%
D17*
%TO.N,Net-(R45-Pad2)*%
X189162300Y-108981200D03*
X184699600Y-79398500D03*
%TO.N,Net-(U9-VO)*%
X176735500Y-110029700D03*
X172012700Y-95390600D03*
X176735500Y-113104900D03*
%TO.N,Net-(U8-EN)*%
X177315800Y-98834900D03*
X177315800Y-106468800D03*
X177315800Y-115680300D03*
%TO.N,Net-(D2-PadC)*%
X180150000Y-109076900D03*
X169895100Y-78849100D03*
X182118900Y-112280000D03*
%TO.N,Net-(R22-Pad2)*%
X163598500Y-78187100D03*
X161156500Y-88291100D03*
%TO.N,Net-(R19-Pad2)*%
X182888500Y-100800000D03*
X185287400Y-74643500D03*
%TO.N,Net-(R18-Pad1)*%
X179890300Y-104600000D03*
X187557700Y-75529700D03*
%TO.N,Net-(D1-PadC)*%
X167716600Y-77271300D03*
X170566600Y-69266000D03*
X174309600Y-99882500D03*
%TO.N,Net-(U4-AISEN)*%
X158604000Y-96193400D03*
X158604000Y-92595000D03*
%TO.N,Net-(R2-Pad1)*%
X177933900Y-64629900D03*
X179057500Y-77177100D03*
X174492800Y-71006600D03*
%TO.N,Net-(Q3-B)*%
X193745300Y-104648700D03*
%TO.N,Net-(Q2-B)*%
X188970000Y-65469500D03*
X173751000Y-84032500D03*
X173625000Y-67276000D03*
%TO.N,Net-(U7-SW)*%
X183616500Y-89928100D03*
X183616500Y-68415600D03*
%TO.N,/MOTOR2_A_OUT*%
X153956200Y-107758300D03*
X158177300Y-97603900D03*
%TO.N,/I2C1_SDA*%
X181273400Y-74825000D03*
X180150000Y-65181600D03*
X148871900Y-65181600D03*
%TO.N,/MOTOR2_B_OUT*%
X154309500Y-99812600D03*
%TO.N,/EXT_LOAD2_OUT*%
X160600100Y-116174700D03*
X197906900Y-96810200D03*
X193835400Y-112751800D03*
%TO.N,/MOTOR1_CTRL1*%
X164657500Y-76030500D03*
%TO.N,/EXT_LOAD1_OUT*%
X192914200Y-113424900D03*
X159507500Y-116023200D03*
%TO.N,/MOTOR2_CTRL1*%
X160582700Y-105335300D03*
X160582700Y-97099600D03*
%TO.N,/CTRL_EXT_LOAD1*%
X173162500Y-78866400D03*
%TO.N,/MOTOR4_B_OUT*%
X154877200Y-100345100D03*
%TO.N,/MOTOR4_A_OUT*%
X161157700Y-106138500D03*
X160842100Y-100875000D03*
%TO.N,/MOTOR3_CTRL1*%
X151668300Y-79836700D03*
X158959000Y-77527700D03*
%TO.N,/CTRL_EXT_LOAD2*%
X158252300Y-90684400D03*
%TO.N,/FAST_CHARGE_CTRL*%
X166693800Y-96162700D03*
X167891300Y-86198200D03*
%TO.N,/MOTOR2_CTRL2*%
X163920100Y-110285200D03*
X163920100Y-97748000D03*
%TO.N,/MOTOR1_CTRL2*%
X163935000Y-75301600D03*
%TO.N,/I2C1_SCL*%
X172261600Y-93378200D03*
X180036600Y-76194700D03*
%TO.N,Net-(J1-CC2)*%
X162631500Y-102209900D03*
X164752500Y-80099200D03*
%TO.N,Net-(J1-CC1)*%
X161781400Y-102022500D03*
X159891400Y-81895200D03*
%TO.N,/9V*%
X166365900Y-82962000D03*
X174234000Y-114405900D03*
X166142100Y-102369500D03*
X158629000Y-91667700D03*
X167317000Y-92865200D03*
%TO.N,/USB 5V*%
X182857700Y-88690500D03*
X180660000Y-67100900D03*
X180084800Y-107856000D03*
%TO.N,/5V*%
X192851600Y-96694900D03*
X189736400Y-114586500D03*
X185960600Y-71280900D03*
X165791900Y-117439100D03*
X165791900Y-105532000D03*
X156157500Y-84143100D03*
%TO.N,/3V3*%
X164875000Y-114500000D03*
X163355800Y-99716500D03*
X165809600Y-84938100D03*
X165050000Y-77492800D03*
X168669300Y-84565300D03*
X161764600Y-87171800D03*
%TO.N,-BATT*%
X156387900Y-100510700D03*
X175851700Y-111950900D03*
X151116600Y-76807700D03*
X181790800Y-72864300D03*
X182230000Y-80301800D03*
X171634800Y-81654600D03*
X168878100Y-71734600D03*
X160548000Y-86775500D03*
X161901100Y-88914300D03*
%TO.N,+BATT*%
X168849000Y-96161600D03*
X151247800Y-114242000D03*
X175287300Y-106374800D03*
X193725000Y-67376600D03*
X154603700Y-93530700D03*
X179235700Y-76149500D03*
X179235700Y-72231200D03*
%TD*%
D18*
%TO.N,Net-(R45-Pad2)*%
X189162300Y-76334300D02*
X189162300Y-108981200D01*
X186886500Y-74058500D02*
X189162300Y-76334300D01*
X185081900Y-74058500D02*
X186886500Y-74058500D01*
X184699600Y-74440800D02*
X185081900Y-74058500D01*
X184699600Y-79398500D02*
X184699600Y-74440800D01*
%TO.N,Net-(U9-VO)*%
X176735500Y-100113400D02*
X176735500Y-110029700D01*
X172012700Y-95390600D02*
X176735500Y-100113400D01*
X176735500Y-110029700D02*
X176735500Y-113104900D01*
%TO.N,Net-(U8-EN)*%
X177315800Y-98834900D02*
X177315800Y-106468800D01*
X177315800Y-106468800D02*
X177315800Y-115680300D01*
%TO.N,Net-(D2-PadC)*%
X182118900Y-111045800D02*
X182118900Y-112280000D01*
X180150000Y-109076900D02*
X182118900Y-111045800D01*
X169895100Y-91818400D02*
X169895100Y-78849100D01*
X176015900Y-97939200D02*
X169895100Y-91818400D01*
X177224100Y-97939200D02*
X176015900Y-97939200D01*
X178114000Y-98829100D02*
X177224100Y-97939200D01*
X178114000Y-107040900D02*
X178114000Y-98829100D01*
X180150000Y-109076900D02*
X178114000Y-107040900D01*
%TO.N,Net-(R22-Pad2)*%
X161156500Y-80629100D02*
X163598500Y-78187100D01*
X161156500Y-88291100D02*
X161156500Y-80629100D01*
%TO.N,Net-(R19-Pad2)*%
X185287400Y-98401100D02*
X185287400Y-74643500D01*
X182888500Y-100800000D02*
X185287400Y-98401100D01*
%TO.N,Net-(R18-Pad1)*%
X187557700Y-96932600D02*
X187557700Y-75529700D01*
X179890300Y-104600000D02*
X187557700Y-96932600D01*
%TO.N,Net-(D1-PadC)*%
X167716600Y-72116000D02*
X167716600Y-77271300D01*
X170566600Y-69266000D02*
X167716600Y-72116000D01*
X169397700Y-94970600D02*
X174309600Y-99882500D01*
X169397700Y-82125700D02*
X169397700Y-94970600D01*
X167716600Y-80444600D02*
X169397700Y-82125700D01*
X167716600Y-77271300D02*
X167716600Y-80444600D01*
%TO.N,Net-(U4-AISEN)*%
X158604000Y-96193400D02*
X158604000Y-92595000D01*
%TO.N,Net-(R2-Pad1)*%
X177933900Y-76053500D02*
X179057500Y-77177100D01*
X177933900Y-71006600D02*
X177933900Y-76053500D01*
X177933900Y-71006600D02*
X174492800Y-71006600D01*
X177933900Y-71006600D02*
X177933900Y-64629900D01*
%TO.N,Net-(Q3-B)*%
X193745300Y-93207300D02*
X193745300Y-104648700D01*
X194748400Y-92204200D02*
X193745300Y-93207300D01*
X195200000Y-92204200D02*
X194748400Y-92204200D01*
X195200000Y-91000000D02*
X195200000Y-92204200D01*
%TO.N,Net-(Q2-B)*%
X188970000Y-72170800D02*
X188970000Y-65469500D01*
X195255000Y-78455800D02*
X188970000Y-72170800D01*
X195255000Y-79660000D02*
X195255000Y-78455800D01*
X173751000Y-67402000D02*
X173751000Y-84032500D01*
X173625000Y-67276000D02*
X173751000Y-67402000D01*
%TO.N,Net-(U7-SW)*%
X183616500Y-89928100D02*
X183616500Y-68415600D01*
%TO.N,/MOTOR2_A_OUT*%
X155428900Y-100352300D02*
X158177300Y-97603900D01*
X155428900Y-100780700D02*
X155428900Y-100352300D01*
X155350000Y-100859600D02*
X155428900Y-100780700D01*
X155350000Y-106364500D02*
X155350000Y-100859600D01*
X153956200Y-107758300D02*
X155350000Y-106364500D01*
%TO.N,/I2C1_SDA*%
X152540000Y-88540000D02*
X151438300Y-88540000D01*
X181239100Y-74790700D02*
X181273400Y-74825000D01*
X181239100Y-66270700D02*
X181239100Y-74790700D01*
X180150000Y-65181600D02*
X181239100Y-66270700D01*
X148871900Y-86430700D02*
X148871900Y-65181600D01*
X149710900Y-87269700D02*
X148871900Y-86430700D01*
X150352800Y-87269700D02*
X149710900Y-87269700D01*
X151438300Y-88355200D02*
X150352800Y-87269700D01*
X151438300Y-88540000D02*
X151438300Y-88355200D01*
%TO.N,/MOTOR2_B_OUT*%
X152540000Y-108860000D02*
X152540000Y-107758300D01*
X154309500Y-106126500D02*
X154309500Y-99812600D01*
X152677700Y-107758300D02*
X154309500Y-106126500D01*
X152540000Y-107758300D02*
X152677700Y-107758300D01*
%TO.N,/EXT_LOAD2_OUT*%
X197906900Y-108680300D02*
X193835400Y-112751800D01*
X197906900Y-96810200D02*
X197906900Y-108680300D01*
X160199800Y-116575000D02*
X160600100Y-116174700D01*
X159248000Y-116575000D02*
X160199800Y-116575000D01*
X158804100Y-116131100D02*
X159248000Y-116575000D01*
X158804100Y-97379500D02*
X158804100Y-116131100D01*
X157584600Y-96160000D02*
X158804100Y-97379500D01*
X152540000Y-96160000D02*
X157584600Y-96160000D01*
%TO.N,/MOTOR1_CTRL1*%
X150000000Y-75840000D02*
X151101700Y-75840000D01*
X164657500Y-76030600D02*
X164657500Y-76030500D01*
X158681400Y-76030600D02*
X164657500Y-76030600D01*
X157736700Y-76975300D02*
X158681400Y-76030600D01*
X152099300Y-76975300D02*
X157736700Y-76975300D01*
X151101700Y-75977700D02*
X152099300Y-76975300D01*
X151101700Y-75840000D02*
X151101700Y-75977700D01*
%TO.N,/EXT_LOAD1_OUT*%
X192914200Y-110770000D02*
X192914200Y-113424900D01*
X195200000Y-108484200D02*
X192914200Y-110770000D01*
X195200000Y-107280000D02*
X195200000Y-108484200D01*
X159185200Y-115700900D02*
X159507500Y-116023200D01*
X159185200Y-90105200D02*
X159185200Y-115700900D01*
X152540000Y-83460000D02*
X159185200Y-90105200D01*
%TO.N,/MOTOR2_CTRL1*%
X160288800Y-97393500D02*
X160582700Y-97099600D01*
X160288800Y-105041400D02*
X160288800Y-97393500D01*
X160582700Y-105335300D02*
X160288800Y-105041400D01*
%TO.N,/CTRL_EXT_LOAD1*%
X173162500Y-71051900D02*
X173162500Y-78866400D01*
X170815400Y-68704800D02*
X173162500Y-71051900D01*
X170332000Y-68704800D02*
X170815400Y-68704800D01*
X165984600Y-73052200D02*
X170332000Y-68704800D01*
X165984600Y-75521100D02*
X165984600Y-73052200D01*
X164703100Y-76802600D02*
X165984600Y-75521100D01*
X158902000Y-76802600D02*
X164703100Y-76802600D01*
X157324600Y-78380000D02*
X158902000Y-76802600D01*
X152540000Y-78380000D02*
X157324600Y-78380000D01*
%TO.N,/MOTOR4_B_OUT*%
X154877200Y-99574800D02*
X154877200Y-100345100D01*
X154563200Y-99260800D02*
X154877200Y-99574800D01*
X154069000Y-99260800D02*
X154563200Y-99260800D01*
X153641700Y-99688100D02*
X154069000Y-99260800D01*
X153641700Y-101714400D02*
X153641700Y-99688100D01*
X152677800Y-102678300D02*
X153641700Y-101714400D01*
X152540000Y-102678300D02*
X152677800Y-102678300D01*
X152540000Y-103780000D02*
X152540000Y-102678300D01*
%TO.N,/MOTOR4_A_OUT*%
X161157700Y-101190600D02*
X160842100Y-100875000D01*
X161157700Y-106138500D02*
X161157700Y-101190600D01*
%TO.N,/MOTOR3_CTRL1*%
X156940800Y-79545900D02*
X158959000Y-77527700D01*
X151959100Y-79545900D02*
X156940800Y-79545900D01*
X151668300Y-79836700D02*
X151959100Y-79545900D01*
%TO.N,/CTRL_EXT_LOAD2*%
X152540000Y-101240000D02*
X152540000Y-100138300D01*
X154046700Y-94890000D02*
X158252300Y-90684400D01*
X152225700Y-94890000D02*
X154046700Y-94890000D01*
X151409300Y-95706400D02*
X152225700Y-94890000D01*
X151409300Y-99145300D02*
X151409300Y-95706400D01*
X152402300Y-100138300D02*
X151409300Y-99145300D01*
X152540000Y-100138300D02*
X152402300Y-100138300D01*
%TO.N,/FAST_CHARGE_CTRL*%
X167891300Y-94965200D02*
X167891300Y-86198200D01*
X166693800Y-96162700D02*
X167891300Y-94965200D01*
%TO.N,/MOTOR2_CTRL2*%
X163920100Y-110285200D02*
X163920100Y-97748000D01*
%TO.N,/MOTOR1_CTRL2*%
X150000000Y-73300000D02*
X151101700Y-73300000D01*
X163035100Y-74401700D02*
X163935000Y-75301600D01*
X152065600Y-74401700D02*
X163035100Y-74401700D01*
X151101700Y-73437800D02*
X152065600Y-74401700D01*
X151101700Y-73300000D02*
X151101700Y-73437800D01*
%TO.N,/I2C1_SCL*%
X180036600Y-85603200D02*
X180036600Y-76194700D01*
X172261600Y-93378200D02*
X180036600Y-85603200D01*
%TO.N,Net-(J1-CC2)*%
X162631500Y-82220200D02*
X164752500Y-80099200D01*
X162631500Y-102209900D02*
X162631500Y-82220200D01*
%TO.N,Net-(J1-CC1)*%
X161781400Y-90193400D02*
X161781400Y-102022500D01*
X159891400Y-88303400D02*
X161781400Y-90193400D01*
X159891400Y-81895200D02*
X159891400Y-88303400D01*
%TO.N,/9V*%
X150000000Y-83460000D02*
X150000000Y-84561700D01*
X166142100Y-94040100D02*
X166142100Y-102369500D01*
X167317000Y-92865200D02*
X166142100Y-94040100D01*
X166493800Y-102721200D02*
X166142100Y-102369500D01*
X166493900Y-102721200D02*
X166493800Y-102721200D01*
X166493900Y-106665800D02*
X166493900Y-102721200D01*
X174234000Y-114405900D02*
X166493900Y-106665800D01*
X158804100Y-91492600D02*
X158629000Y-91667700D01*
X158804100Y-90400000D02*
X158804100Y-91492600D01*
X155674100Y-87270000D02*
X158804100Y-90400000D01*
X152225700Y-87270000D02*
X155674100Y-87270000D01*
X151101700Y-86146000D02*
X152225700Y-87270000D01*
X151101700Y-85525600D02*
X151101700Y-86146000D01*
X150137800Y-84561700D02*
X151101700Y-85525600D01*
X150000000Y-84561700D02*
X150137800Y-84561700D01*
X166365900Y-91914100D02*
X166365900Y-82962000D01*
X167317000Y-92865200D02*
X166365900Y-91914100D01*
%TO.N,/USB 5V*%
X179323800Y-107095000D02*
X180084800Y-107856000D01*
X179323800Y-92224400D02*
X179323800Y-107095000D01*
X182857700Y-88690500D02*
X179323800Y-92224400D01*
X180660000Y-86492800D02*
X180660000Y-67100900D01*
X182857700Y-88690500D02*
X180660000Y-86492800D01*
%TO.N,/5V*%
X195255000Y-82200000D02*
X195255000Y-83404200D01*
X189736400Y-99810100D02*
X189736400Y-114586500D01*
X192851600Y-96694900D02*
X189736400Y-99810100D01*
X156157500Y-85496600D02*
X156157500Y-84143100D01*
X159682500Y-89021600D02*
X156157500Y-85496600D01*
X159682500Y-110088400D02*
X159682500Y-89021600D01*
X164702100Y-115108000D02*
X159682500Y-110088400D01*
X165791900Y-115108000D02*
X164702100Y-115108000D01*
X165791900Y-117439100D02*
X165791900Y-115108000D01*
X165791900Y-115108000D02*
X165791900Y-105532000D01*
X195255000Y-83404200D02*
X192851600Y-83404200D01*
X192851600Y-96694900D02*
X192851600Y-83404200D01*
X192851600Y-78171900D02*
X185960600Y-71280900D01*
X192851600Y-83404200D02*
X192851600Y-78171900D01*
%TO.N,/3V3*%
X168669300Y-84462600D02*
X168669300Y-84565300D01*
X166600100Y-82393400D02*
X168669300Y-84462600D01*
X165809600Y-82393400D02*
X166600100Y-82393400D01*
X165809600Y-82393400D02*
X165809600Y-84938100D01*
X165809600Y-78252400D02*
X165050000Y-77492800D01*
X165809600Y-82393400D02*
X165809600Y-78252400D01*
X163355800Y-112980800D02*
X163355800Y-99716500D01*
X164875000Y-114500000D02*
X163355800Y-112980800D01*
X163355800Y-87391900D02*
X163355800Y-99716500D01*
X165809600Y-84938100D02*
X163355800Y-87391900D01*
X161764600Y-81934700D02*
X161764600Y-87171800D01*
X165050000Y-78649300D02*
X161764600Y-81934700D01*
X165050000Y-77492800D02*
X165050000Y-78649300D01*
%TO.N,-BATT*%
X164820000Y-107800000D02*
X164820000Y-104000000D01*
X152540000Y-86000000D02*
X152540000Y-84898300D01*
X152540000Y-80920000D02*
X152540000Y-82021700D01*
X156180000Y-107800000D02*
X156180000Y-104000000D01*
X156180000Y-104000000D02*
X156180000Y-102898300D01*
X156387900Y-102690400D02*
X156387900Y-100510700D01*
X156180000Y-102898300D02*
X156387900Y-102690400D01*
X175000000Y-102750000D02*
X175851700Y-102750000D01*
X175851700Y-102750000D02*
X175851700Y-111950900D01*
X151428700Y-82904700D02*
X152311700Y-82021700D01*
X151428700Y-83924700D02*
X151428700Y-82904700D01*
X152402300Y-84898300D02*
X151428700Y-83924700D01*
X152540000Y-84898300D02*
X152402300Y-84898300D01*
X152311700Y-82021700D02*
X152540000Y-82021700D01*
X171634800Y-74491300D02*
X171634800Y-81654600D01*
X168878100Y-71734600D02*
X171634800Y-74491300D01*
X182230000Y-73303500D02*
X181790800Y-72864300D01*
X182230000Y-80301800D02*
X182230000Y-73303500D01*
X151116600Y-80826600D02*
X151116600Y-76807700D01*
X152311700Y-82021700D02*
X151116600Y-80826600D01*
X160999600Y-88914300D02*
X161901100Y-88914300D01*
X160548000Y-88462700D02*
X160999600Y-88914300D01*
X160548000Y-86775500D02*
X160548000Y-88462700D01*
%TO.N,+BATT*%
X195200000Y-93540000D02*
X195200000Y-94744200D01*
X195255000Y-84740000D02*
X195255000Y-85944200D01*
X195200000Y-104740000D02*
X195200000Y-103535800D01*
X195200000Y-94744200D02*
X196453700Y-94744200D01*
X196453700Y-103321900D02*
X196453700Y-94744200D01*
X196239800Y-103535800D02*
X196453700Y-103321900D01*
X195200000Y-103535800D02*
X196239800Y-103535800D01*
X173000000Y-100312600D02*
X168849000Y-96161600D01*
X173000000Y-102750000D02*
X173000000Y-100312600D01*
X151247800Y-103446000D02*
X151247800Y-114242000D01*
X150311800Y-102510000D02*
X151247800Y-103446000D01*
X149698600Y-102510000D02*
X150311800Y-102510000D01*
X148897800Y-101709200D02*
X149698600Y-102510000D01*
X148897800Y-95686200D02*
X148897800Y-101709200D01*
X149862300Y-94721700D02*
X148897800Y-95686200D01*
X150000000Y-94721700D02*
X149862300Y-94721700D01*
X150000000Y-93620000D02*
X150000000Y-94721700D01*
X173000000Y-104087500D02*
X175287300Y-106374800D01*
X173000000Y-102750000D02*
X173000000Y-104087500D01*
X196453700Y-87142900D02*
X195255000Y-85944200D01*
X196453700Y-94744200D02*
X196453700Y-87142900D01*
X196506700Y-70158300D02*
X193725000Y-67376600D01*
X196506700Y-84692500D02*
X196506700Y-70158300D01*
X195255000Y-85944200D02*
X196506700Y-84692500D01*
X153582000Y-92509000D02*
X154603700Y-93530700D01*
X152075000Y-92509000D02*
X153582000Y-92509000D01*
X151101700Y-93482300D02*
X152075000Y-92509000D01*
X151101700Y-93620000D02*
X151101700Y-93482300D01*
X150000000Y-93620000D02*
X151101700Y-93620000D01*
X179235700Y-72231200D02*
X179235700Y-76149500D01*
%TD*%
M02*
