%TF.GenerationSoftware,KiCad,Pcbnew,9.0.0*%
%TF.CreationDate,2025-03-28T14:53:48+02:00*%
%TF.ProjectId,MicroMousePower,4d696372-6f4d-46f7-9573-65506f776572,rev?*%
%TF.SameCoordinates,Original*%
%TF.FileFunction,Copper,L1,Top*%
%TF.FilePolarity,Positive*%
%FSLAX46Y46*%
G04 Gerber Fmt 4.6, Leading zero omitted, Abs format (unit mm)*
G04 Created by KiCad (PCBNEW 9.0.0) date 2025-03-28 14:53:48*
%MOMM*%
%LPD*%
G01*
G04 APERTURE LIST*
G04 Aperture macros list*
%AMRoundRect*
0 Rectangle with rounded corners*
0 $1 Rounding radius*
0 $2 $3 $4 $5 $6 $7 $8 $9 X,Y pos of 4 corners*
0 Add a 4 corners polygon primitive as box body*
4,1,4,$2,$3,$4,$5,$6,$7,$8,$9,$2,$3,0*
0 Add four circle primitives for the rounded corners*
1,1,$1+$1,$2,$3*
1,1,$1+$1,$4,$5*
1,1,$1+$1,$6,$7*
1,1,$1+$1,$8,$9*
0 Add four rect primitives between the rounded corners*
20,1,$1+$1,$2,$3,$4,$5,0*
20,1,$1+$1,$4,$5,$6,$7,0*
20,1,$1+$1,$6,$7,$8,$9,0*
20,1,$1+$1,$8,$9,$2,$3,0*%
G04 Aperture macros list end*
%TA.AperFunction,SMDPad,CuDef*%
%ADD10RoundRect,0.250000X-0.250000X-0.475000X0.250000X-0.475000X0.250000X0.475000X-0.250000X0.475000X0*%
%TD*%
%TA.AperFunction,SMDPad,CuDef*%
%ADD11RoundRect,0.250000X-0.262500X-0.450000X0.262500X-0.450000X0.262500X0.450000X-0.262500X0.450000X0*%
%TD*%
%TA.AperFunction,SMDPad,CuDef*%
%ADD12RoundRect,0.100000X-0.100000X0.637500X-0.100000X-0.637500X0.100000X-0.637500X0.100000X0.637500X0*%
%TD*%
%TA.AperFunction,SMDPad,CuDef*%
%ADD13C,1.000000*%
%TD*%
%TA.AperFunction,SMDPad,CuDef*%
%ADD14RoundRect,0.200000X-0.200000X-0.275000X0.200000X-0.275000X0.200000X0.275000X-0.200000X0.275000X0*%
%TD*%
%TA.AperFunction,SMDPad,CuDef*%
%ADD15RoundRect,0.250000X-0.312500X-0.625000X0.312500X-0.625000X0.312500X0.625000X-0.312500X0.625000X0*%
%TD*%
%TA.AperFunction,ComponentPad*%
%ADD16R,2.000000X1.905000*%
%TD*%
%TA.AperFunction,ComponentPad*%
%ADD17O,2.000000X1.905000*%
%TD*%
%TA.AperFunction,SMDPad,CuDef*%
%ADD18RoundRect,0.250000X-0.600000X-1.600000X0.600000X-1.600000X0.600000X1.600000X-0.600000X1.600000X0*%
%TD*%
%TA.AperFunction,SMDPad,CuDef*%
%ADD19RoundRect,0.250000X0.250000X0.475000X-0.250000X0.475000X-0.250000X-0.475000X0.250000X-0.475000X0*%
%TD*%
%TA.AperFunction,SMDPad,CuDef*%
%ADD20RoundRect,0.250000X0.312500X0.625000X-0.312500X0.625000X-0.312500X-0.625000X0.312500X-0.625000X0*%
%TD*%
%TA.AperFunction,SMDPad,CuDef*%
%ADD21RoundRect,0.150000X-0.512500X-0.150000X0.512500X-0.150000X0.512500X0.150000X-0.512500X0.150000X0*%
%TD*%
%TA.AperFunction,ComponentPad*%
%ADD22RoundRect,0.250000X-0.350000X-0.625000X0.350000X-0.625000X0.350000X0.625000X-0.350000X0.625000X0*%
%TD*%
%TA.AperFunction,ComponentPad*%
%ADD23O,1.200000X1.750000*%
%TD*%
%TA.AperFunction,BGAPad,CuDef*%
%ADD24C,0.200000*%
%TD*%
%TA.AperFunction,SMDPad,CuDef*%
%ADD25RoundRect,0.112500X-0.112500X0.187500X-0.112500X-0.187500X0.112500X-0.187500X0.112500X0.187500X0*%
%TD*%
%TA.AperFunction,SMDPad,CuDef*%
%ADD26RoundRect,0.062500X0.062500X-0.337500X0.062500X0.337500X-0.062500X0.337500X-0.062500X-0.337500X0*%
%TD*%
%TA.AperFunction,HeatsinkPad*%
%ADD27R,1.400000X1.700000*%
%TD*%
%TA.AperFunction,SMDPad,CuDef*%
%ADD28RoundRect,0.250000X-0.325000X-0.650000X0.325000X-0.650000X0.325000X0.650000X-0.325000X0.650000X0*%
%TD*%
%TA.AperFunction,SMDPad,CuDef*%
%ADD29RoundRect,0.125000X-0.537500X-0.125000X0.537500X-0.125000X0.537500X0.125000X-0.537500X0.125000X0*%
%TD*%
%TA.AperFunction,SMDPad,CuDef*%
%ADD30RoundRect,0.100000X-0.130000X-0.100000X0.130000X-0.100000X0.130000X0.100000X-0.130000X0.100000X0*%
%TD*%
%TA.AperFunction,SMDPad,CuDef*%
%ADD31RoundRect,0.150000X0.150000X-0.687500X0.150000X0.687500X-0.150000X0.687500X-0.150000X-0.687500X0*%
%TD*%
%TA.AperFunction,HeatsinkPad*%
%ADD32R,3.300000X2.100000*%
%TD*%
%TA.AperFunction,SMDPad,CuDef*%
%ADD33RoundRect,0.140000X-0.140000X-0.170000X0.140000X-0.170000X0.140000X0.170000X-0.140000X0.170000X0*%
%TD*%
%TA.AperFunction,SMDPad,CuDef*%
%ADD34RoundRect,0.112500X-0.187500X-0.112500X0.187500X-0.112500X0.187500X0.112500X-0.187500X0.112500X0*%
%TD*%
%TA.AperFunction,SMDPad,CuDef*%
%ADD35RoundRect,0.250000X0.600000X1.600000X-0.600000X1.600000X-0.600000X-1.600000X0.600000X-1.600000X0*%
%TD*%
%TA.AperFunction,SMDPad,CuDef*%
%ADD36RoundRect,0.100000X-0.100000X0.130000X-0.100000X-0.130000X0.100000X-0.130000X0.100000X0.130000X0*%
%TD*%
%TA.AperFunction,SMDPad,CuDef*%
%ADD37RoundRect,0.087500X-0.250000X-0.087500X0.250000X-0.087500X0.250000X0.087500X-0.250000X0.087500X0*%
%TD*%
%TA.AperFunction,SMDPad,CuDef*%
%ADD38RoundRect,0.175000X-0.175000X-0.425000X0.175000X-0.425000X0.175000X0.425000X-0.175000X0.425000X0*%
%TD*%
%TA.AperFunction,SMDPad,CuDef*%
%ADD39RoundRect,0.190000X0.190000X0.410000X-0.190000X0.410000X-0.190000X-0.410000X0.190000X-0.410000X0*%
%TD*%
%TA.AperFunction,SMDPad,CuDef*%
%ADD40RoundRect,0.200000X0.200000X0.400000X-0.200000X0.400000X-0.200000X-0.400000X0.200000X-0.400000X0*%
%TD*%
%TA.AperFunction,SMDPad,CuDef*%
%ADD41RoundRect,0.175000X0.175000X0.425000X-0.175000X0.425000X-0.175000X-0.425000X0.175000X-0.425000X0*%
%TD*%
%TA.AperFunction,SMDPad,CuDef*%
%ADD42RoundRect,0.190000X-0.190000X-0.410000X0.190000X-0.410000X0.190000X0.410000X-0.190000X0.410000X0*%
%TD*%
%TA.AperFunction,SMDPad,CuDef*%
%ADD43RoundRect,0.200000X-0.200000X-0.400000X0.200000X-0.400000X0.200000X0.400000X-0.200000X0.400000X0*%
%TD*%
%TA.AperFunction,HeatsinkPad*%
%ADD44O,1.100000X1.700000*%
%TD*%
%TA.AperFunction,SMDPad,CuDef*%
%ADD45RoundRect,0.100000X-0.637500X-0.100000X0.637500X-0.100000X0.637500X0.100000X-0.637500X0.100000X0*%
%TD*%
%TA.AperFunction,ComponentPad*%
%ADD46R,1.700000X1.700000*%
%TD*%
%TA.AperFunction,ComponentPad*%
%ADD47O,1.700000X1.700000*%
%TD*%
%TA.AperFunction,ViaPad*%
%ADD48C,0.600000*%
%TD*%
%TA.AperFunction,Conductor*%
%ADD49C,0.200000*%
%TD*%
G04 APERTURE END LIST*
D10*
%TO.P,C6,1*%
%TO.N,/3V3*%
X166050000Y-74000000D03*
%TO.P,C6,2*%
%TO.N,Net-(U5-VCP)*%
X167950000Y-74000000D03*
%TD*%
D11*
%TO.P,R15,1*%
%TO.N,Net-(U6-FB)*%
X190425000Y-97000000D03*
%TO.P,R15,2*%
%TO.N,Net-(R15-Pad2)*%
X192250000Y-97000000D03*
%TD*%
D12*
%TO.P,U5,1,~{SLEEP}*%
%TO.N,/3V3*%
X164000000Y-70775000D03*
%TO.P,U5,2,AOUT1*%
%TO.N,/MOTOR1_A_OUT*%
X163350000Y-70775000D03*
%TO.P,U5,3,AISEN*%
%TO.N,Net-(U5-AISEN)*%
X162700000Y-70775000D03*
%TO.P,U5,4,AOUT2*%
%TO.N,/MOTOR1_B_OUT*%
X162050000Y-70775000D03*
%TO.P,U5,5,BOUT2*%
%TO.N,/MOTOR3_B_OUT*%
X161400000Y-70775000D03*
%TO.P,U5,6,BISEN*%
%TO.N,Net-(U5-AISEN)*%
X160750000Y-70775000D03*
%TO.P,U5,7,BOUT1*%
%TO.N,/MOTOR3_A_OUT*%
X160100000Y-70775000D03*
%TO.P,U5,8,~{FAULT}*%
%TO.N,unconnected-(U5-~{FAULT}-Pad8)*%
X159450000Y-70775000D03*
%TO.P,U5,9,BIN1*%
%TO.N,/MOTOR3_CTRL1*%
X159450000Y-76500000D03*
%TO.P,U5,10,BIN2*%
%TO.N,/MOTOR3_CTRL2*%
X160100000Y-76500000D03*
%TO.P,U5,11,VCP*%
%TO.N,Net-(U5-VCP)*%
X160750000Y-76500000D03*
%TO.P,U5,12,VM*%
%TO.N,/3V3*%
X161400000Y-76500000D03*
%TO.P,U5,13,GND*%
%TO.N,-BATT*%
X162050000Y-76500000D03*
%TO.P,U5,14,VINT*%
%TO.N,/3V3*%
X162700000Y-76500000D03*
%TO.P,U5,15,AIN2*%
%TO.N,/MOTOR1_CTRL2*%
X163350000Y-76500000D03*
%TO.P,U5,16,AIN1*%
%TO.N,/MOTOR1_CTRL1*%
X164000000Y-76500000D03*
%TD*%
D13*
%TO.P,TP10,1,1*%
%TO.N,+BATT*%
X153400000Y-114800000D03*
%TD*%
D14*
%TO.P,R40,1*%
%TO.N,-BATT*%
X155856000Y-92237000D03*
%TO.P,R40,2*%
%TO.N,Net-(U4-AISEN)*%
X157506000Y-92237000D03*
%TD*%
D13*
%TO.P,TP2,1,1*%
%TO.N,+BATT*%
X163950000Y-66950000D03*
%TD*%
D15*
%TO.P,R3,1*%
%TO.N,/FAST_CHARGE_CTRL*%
X172500000Y-85000000D03*
%TO.P,R3,2*%
%TO.N,Net-(Q2-B)*%
X175425000Y-85000000D03*
%TD*%
D13*
%TO.P,TP4,1,1*%
%TO.N,+BATT*%
X192600000Y-114400000D03*
%TD*%
D11*
%TO.P,R16,1*%
%TO.N,Net-(R15-Pad2)*%
X186107000Y-97127000D03*
%TO.P,R16,2*%
%TO.N,-BATT*%
X187932000Y-97127000D03*
%TD*%
D10*
%TO.P,C7,1*%
%TO.N,/3V3*%
X166100000Y-70500000D03*
%TO.P,C7,2*%
%TO.N,-BATT*%
X168000000Y-70500000D03*
%TD*%
D15*
%TO.P,R27,1*%
%TO.N,Net-(R2-Pad1)*%
X170537500Y-75000000D03*
%TO.P,R27,2*%
%TO.N,+BATT*%
X173462500Y-75000000D03*
%TD*%
D10*
%TO.P,C1,1*%
%TO.N,+BATT*%
X190100000Y-78400000D03*
%TO.P,C1,2*%
%TO.N,-BATT*%
X192000000Y-78400000D03*
%TD*%
D16*
%TO.P,Q3,1,B*%
%TO.N,Net-(Q3-B)*%
X195200000Y-91000000D03*
D17*
%TO.P,Q3,2,C*%
%TO.N,+BATT*%
X195200000Y-93540000D03*
%TO.P,Q3,3,E*%
%TO.N,/EXT_LOAD2_OUT*%
X195200000Y-96080000D03*
%TD*%
D14*
%TO.P,R12,1*%
%TO.N,-BATT*%
X155856000Y-95031000D03*
%TO.P,R12,2*%
%TO.N,Net-(U4-AISEN)*%
X157506000Y-95031000D03*
%TD*%
%TO.P,R39,1*%
%TO.N,-BATT*%
X155729000Y-98206000D03*
%TO.P,R39,2*%
%TO.N,Net-(U4-AISEN)*%
X157379000Y-98206000D03*
%TD*%
%TO.P,R21,1*%
%TO.N,Net-(R19-Pad2)*%
X186150000Y-74600000D03*
%TO.P,R21,2*%
%TO.N,Net-(R18-Pad1)*%
X187800000Y-74600000D03*
%TD*%
D10*
%TO.P,C10,1*%
%TO.N,Net-(C10-Pad1)*%
X189900000Y-71000000D03*
%TO.P,C10,2*%
%TO.N,/USB 5V*%
X191800000Y-71000000D03*
%TD*%
D15*
%TO.P,R36,1*%
%TO.N,-BATT*%
X172675000Y-81400000D03*
%TO.P,R36,2*%
%TO.N,Net-(U8-FB)*%
X175600000Y-81400000D03*
%TD*%
D13*
%TO.P,TP17,1,1*%
%TO.N,/9V*%
X175750000Y-114750000D03*
%TD*%
%TO.P,TP19,1,1*%
%TO.N,Net-(U1-IN-)*%
X194800000Y-67400000D03*
%TD*%
D18*
%TO.P,L5,1,1*%
%TO.N,Net-(L3-Pad2)*%
X184393000Y-85814000D03*
%TO.P,L5,2,2*%
%TO.N,/USB 5V*%
X187093000Y-85814000D03*
%TD*%
D19*
%TO.P,C13,1*%
%TO.N,/9V*%
X161950000Y-92000000D03*
%TO.P,C13,2*%
%TO.N,-BATT*%
X160050000Y-92000000D03*
%TD*%
D14*
%TO.P,R1,1*%
%TO.N,+BATT*%
X182750000Y-74600000D03*
%TO.P,R1,2*%
%TO.N,Net-(U1-IN-)*%
X184400000Y-74600000D03*
%TD*%
D20*
%TO.P,R37,1*%
%TO.N,Net-(U8-EN)*%
X175962500Y-97500000D03*
%TO.P,R37,2*%
%TO.N,/9V*%
X173037500Y-97500000D03*
%TD*%
D21*
%TO.P,U8,1,GND*%
%TO.N,-BATT*%
X173525000Y-90900000D03*
%TO.P,U8,2,SW*%
%TO.N,Net-(U8-SW)*%
X173525000Y-91850000D03*
%TO.P,U8,3,IN*%
%TO.N,/9V*%
X173525000Y-92800000D03*
%TO.P,U8,4,FB*%
%TO.N,Net-(U8-FB)*%
X175800000Y-92800000D03*
%TO.P,U8,5,EN*%
%TO.N,Net-(U8-EN)*%
X175800000Y-91850000D03*
%TO.P,U8,6,BST*%
%TO.N,Net-(U8-BST)*%
X175800000Y-90900000D03*
%TD*%
D15*
%TO.P,R9,1*%
%TO.N,/9V*%
X166575000Y-81424000D03*
%TO.P,R9,2*%
%TO.N,Net-(U3-VBUS)*%
X169500000Y-81424000D03*
%TD*%
D22*
%TO.P,J3,1,Pin_1*%
%TO.N,+BATT*%
X173000000Y-102750000D03*
D23*
%TO.P,J3,2,Pin_2*%
%TO.N,-BATT*%
X175000000Y-102750000D03*
%TD*%
D14*
%TO.P,R33,1*%
%TO.N,Net-(U1-IN-)*%
X182675000Y-81250000D03*
%TO.P,R33,2*%
%TO.N,-BATT*%
X184325000Y-81250000D03*
%TD*%
D24*
%TO.P,U7,A1,SW*%
%TO.N,Net-(U7-SW)*%
X190550000Y-85500000D03*
%TO.P,U7,A2,VIN*%
%TO.N,+BATT*%
X190550000Y-85100000D03*
%TO.P,U7,B1,EN*%
X190950000Y-85500000D03*
%TO.P,U7,B2,GND*%
%TO.N,-BATT*%
X190950000Y-85100000D03*
%TO.P,U7,C1,VSEL1*%
%TO.N,+BATT*%
X191350000Y-85500000D03*
%TO.P,U7,C2,VOS*%
%TO.N,Net-(U7-SW)*%
X191350000Y-85100000D03*
%TO.P,U7,D1,VSEL2*%
%TO.N,+BATT*%
X191750000Y-85500000D03*
%TO.P,U7,D2,VSEL3*%
X191750000Y-85100000D03*
%TD*%
D15*
%TO.P,R20,1*%
%TO.N,/CTRL_EXT_LOAD1*%
X177737500Y-81200000D03*
%TO.P,R20,2*%
%TO.N,Net-(R17-Pad1)*%
X180662500Y-81200000D03*
%TD*%
D13*
%TO.P,TP7,1,1*%
%TO.N,Net-(U7-SW)*%
X174950000Y-67200000D03*
%TD*%
D11*
%TO.P,R4,1*%
%TO.N,+BATT*%
X180487500Y-70800000D03*
%TO.P,R4,2*%
%TO.N,Net-(U1-A0)*%
X182312500Y-70800000D03*
%TD*%
%TO.P,R34,1*%
%TO.N,/USB 5V*%
X182093000Y-97250000D03*
%TO.P,R34,2*%
%TO.N,Net-(R34-Pad2)*%
X183918000Y-97250000D03*
%TD*%
D15*
%TO.P,R29,1*%
%TO.N,/5V*%
X175537500Y-71000000D03*
%TO.P,R29,2*%
%TO.N,Net-(R28-Pad1)*%
X178462500Y-71000000D03*
%TD*%
D13*
%TO.P,TP22,1,1*%
%TO.N,/3V3*%
X162750000Y-114500000D03*
%TD*%
%TO.P,TP12,1,1*%
%TO.N,/EXT_LOAD2_OUT*%
X180200000Y-114600000D03*
%TD*%
D10*
%TO.P,C4,1*%
%TO.N,/3V3*%
X167100000Y-101000000D03*
%TO.P,C4,2*%
%TO.N,Net-(U4-VCP)*%
X169000000Y-101000000D03*
%TD*%
D13*
%TO.P,TP1,1,1*%
%TO.N,Net-(Q2-B)*%
X171450000Y-67200000D03*
%TD*%
%TO.P,TP9,1,1*%
%TO.N,Net-(U8-EN)*%
X158000000Y-115600000D03*
%TD*%
%TO.P,TP13,1,1*%
%TO.N,/EXT_LOAD1_OUT*%
X184400000Y-114600000D03*
%TD*%
%TO.P,TP11,1,1*%
%TO.N,Net-(D2-PadC)*%
X196200000Y-114400000D03*
%TD*%
D25*
%TO.P,D1,1*%
%TO.N,N/C*%
X198200000Y-66100000D03*
%TO.P,D1,2*%
X198200000Y-68200000D03*
%TD*%
D16*
%TO.P,Q1,1,B*%
%TO.N,Net-(Q1-B)*%
X195200000Y-102200000D03*
D17*
%TO.P,Q1,2,C*%
%TO.N,+BATT*%
X195200000Y-104740000D03*
%TO.P,Q1,3,E*%
%TO.N,/EXT_LOAD1_OUT*%
X195200000Y-107280000D03*
%TD*%
D15*
%TO.P,R19,1*%
%TO.N,Net-(D1-PadC)*%
X178937500Y-100800000D03*
%TO.P,R19,2*%
%TO.N,Net-(R19-Pad2)*%
X181862500Y-100800000D03*
%TD*%
D18*
%TO.P,L4,1,1*%
%TO.N,Net-(U8-SW)*%
X178551000Y-92164000D03*
%TO.P,L4,2,2*%
%TO.N,Net-(L3-Pad2)*%
X181251000Y-92164000D03*
%TD*%
D11*
%TO.P,R6,1*%
%TO.N,/5V*%
X167175000Y-104500000D03*
%TO.P,R6,2*%
%TO.N,Net-(U2-STAT)*%
X169000000Y-104500000D03*
%TD*%
D20*
%TO.P,R2,1*%
%TO.N,Net-(R2-Pad1)*%
X197062500Y-73600000D03*
%TO.P,R2,2*%
%TO.N,+BATT*%
X194137500Y-73600000D03*
%TD*%
D26*
%TO.P,U2,1,V_{DD}*%
%TO.N,/USB 5V*%
X167700000Y-110275000D03*
%TO.P,U2,2,V_{DD}*%
X168200000Y-110275000D03*
%TO.P,U2,3,V_{BAT}*%
%TO.N,+BATT*%
X168700000Y-110275000D03*
%TO.P,U2,4,V_{BAT}*%
X169200000Y-110275000D03*
%TO.P,U2,5,STAT*%
%TO.N,Net-(U2-STAT)*%
X169200000Y-107375000D03*
%TO.P,U2,6,V_{SS}*%
%TO.N,-BATT*%
X168700000Y-107375000D03*
%TO.P,U2,7,NC*%
%TO.N,unconnected-(U2-NC-Pad7)*%
X168200000Y-107375000D03*
%TO.P,U2,8,PROG*%
%TO.N,Net-(U2-PROG)*%
X167700000Y-107375000D03*
D27*
%TO.P,U2,9*%
%TO.N,N/C*%
X168450000Y-108825000D03*
%TD*%
D28*
%TO.P,C8,1*%
%TO.N,/5V*%
X184925000Y-71200000D03*
%TO.P,C8,2*%
%TO.N,Net-(C15-Pad1)*%
X187875000Y-71200000D03*
%TD*%
D15*
%TO.P,R18,1*%
%TO.N,Net-(R18-Pad1)*%
X178875000Y-104600000D03*
%TO.P,R18,2*%
%TO.N,Net-(Q1-B)*%
X181800000Y-104600000D03*
%TD*%
D11*
%TO.P,R8,1*%
%TO.N,-BATT*%
X155782000Y-85522000D03*
%TO.P,R8,2*%
%TO.N,Net-(U3-DM)*%
X157607000Y-85522000D03*
%TD*%
D14*
%TO.P,R14,1*%
%TO.N,/5V*%
X190350000Y-93500000D03*
%TO.P,R14,2*%
%TO.N,Net-(U6-FB)*%
X192000000Y-93500000D03*
%TD*%
D13*
%TO.P,TP6,1,1*%
%TO.N,Net-(U7-SW)*%
X183200000Y-67450000D03*
%TD*%
D20*
%TO.P,R38,1*%
%TO.N,-BATT*%
X187000000Y-104600000D03*
%TO.P,R38,2*%
%TO.N,Net-(U8-EN)*%
X184075000Y-104600000D03*
%TD*%
D29*
%TO.P,U1,1,IN+*%
%TO.N,+BATT*%
X175662500Y-74625000D03*
%TO.P,U1,2,IN-*%
%TO.N,Net-(U1-IN-)*%
X175662500Y-75275000D03*
%TO.P,U1,3,GND*%
%TO.N,-BATT*%
X175662500Y-75925000D03*
%TO.P,U1,4,VS*%
%TO.N,+BATT*%
X175662500Y-76575000D03*
%TO.P,U1,5,SCL*%
%TO.N,/I2C1_SCL*%
X177937500Y-76575000D03*
%TO.P,U1,6,SDA*%
%TO.N,/I2C1_SDA*%
X177937500Y-75925000D03*
%TO.P,U1,7,A0*%
%TO.N,Net-(U1-A0)*%
X177937500Y-75275000D03*
%TO.P,U1,8,A1*%
%TO.N,-BATT*%
X177937500Y-74625000D03*
%TD*%
D30*
%TO.P,R17,1*%
%TO.N,Net-(R17-Pad1)*%
X166135000Y-77200000D03*
%TO.P,R17,2*%
%TO.N,Net-(D1-PadC)*%
X166775000Y-77200000D03*
%TD*%
D14*
%TO.P,R43,1*%
%TO.N,-BATT*%
X155811000Y-70404000D03*
%TO.P,R43,2*%
%TO.N,Net-(U5-AISEN)*%
X157461000Y-70404000D03*
%TD*%
D11*
%TO.P,R11,1*%
%TO.N,Net-(U3-PG)*%
X155675000Y-81868000D03*
%TO.P,R11,2*%
%TO.N,-BATT*%
X157500000Y-81868000D03*
%TD*%
D14*
%TO.P,R30,1*%
%TO.N,+BATT*%
X182575000Y-77600000D03*
%TO.P,R30,2*%
%TO.N,Net-(U1-IN-)*%
X184225000Y-77600000D03*
%TD*%
D15*
%TO.P,R7,1*%
%TO.N,/9V*%
X166575000Y-85500000D03*
%TO.P,R7,2*%
%TO.N,/3V3*%
X169500000Y-85500000D03*
%TD*%
D31*
%TO.P,U3,1,VDD*%
%TO.N,/3V3*%
X160000000Y-85500000D03*
%TO.P,U3,2,CFG2*%
%TO.N,-BATT*%
X161000000Y-85500000D03*
%TO.P,U3,3,CFG3*%
X162000000Y-85500000D03*
%TO.P,U3,4,DP*%
%TO.N,Net-(U3-DP)*%
X163000000Y-85500000D03*
%TO.P,U3,5,DM*%
%TO.N,Net-(U3-DM)*%
X164000000Y-85500000D03*
%TO.P,U3,6,CC2*%
%TO.N,Net-(J1-CC2)*%
X164000000Y-80225000D03*
%TO.P,U3,7,CC1*%
%TO.N,Net-(J1-CC1)*%
X163000000Y-80225000D03*
%TO.P,U3,8,VBUS*%
%TO.N,Net-(U3-VBUS)*%
X162000000Y-80225000D03*
%TO.P,U3,9,CFG1*%
%TO.N,-BATT*%
X161000000Y-80225000D03*
%TO.P,U3,10,PG*%
%TO.N,Net-(U3-PG)*%
X160000000Y-80225000D03*
D32*
%TO.P,U3,11,GND*%
%TO.N,-BATT*%
X162000000Y-82862500D03*
%TD*%
D10*
%TO.P,C11,1*%
%TO.N,-BATT*%
X189900000Y-74800000D03*
%TO.P,C11,2*%
%TO.N,Net-(C10-Pad1)*%
X191800000Y-74800000D03*
%TD*%
D13*
%TO.P,TP16,1,1*%
%TO.N,+BATT*%
X187200000Y-67200000D03*
%TD*%
D15*
%TO.P,R28,1*%
%TO.N,Net-(R28-Pad1)*%
X170457500Y-71000000D03*
%TO.P,R28,2*%
%TO.N,Net-(R2-Pad1)*%
X173382500Y-71000000D03*
%TD*%
D11*
%TO.P,R35,1*%
%TO.N,Net-(R34-Pad2)*%
X178175000Y-97250000D03*
%TO.P,R35,2*%
%TO.N,Net-(U8-FB)*%
X180000000Y-97250000D03*
%TD*%
D10*
%TO.P,C5,1*%
%TO.N,/3V3*%
X167250000Y-97400000D03*
%TO.P,C5,2*%
%TO.N,-BATT*%
X169150000Y-97400000D03*
%TD*%
D11*
%TO.P,R5,1*%
%TO.N,Net-(U2-PROG)*%
X172175000Y-109750000D03*
%TO.P,R5,2*%
%TO.N,-BATT*%
X174000000Y-109750000D03*
%TD*%
D14*
%TO.P,R42,1*%
%TO.N,-BATT*%
X155874000Y-75992000D03*
%TO.P,R42,2*%
%TO.N,Net-(U5-AISEN)*%
X157524000Y-75992000D03*
%TD*%
D11*
%TO.P,R10,1*%
%TO.N,Net-(U3-DP)*%
X155782000Y-89000000D03*
%TO.P,R10,2*%
%TO.N,-BATT*%
X157607000Y-89000000D03*
%TD*%
D13*
%TO.P,TP18,1,1*%
%TO.N,/3V3*%
X167000000Y-114500000D03*
%TD*%
D33*
%TO.P,C3,1*%
%TO.N,-BATT*%
X165540000Y-79500000D03*
%TO.P,C3,2*%
%TO.N,/3V3*%
X166500000Y-79500000D03*
%TD*%
D18*
%TO.P,L3,1,1*%
%TO.N,Net-(U8-SW)*%
X178725000Y-85941000D03*
%TO.P,L3,2,2*%
%TO.N,Net-(L3-Pad2)*%
X181425000Y-85941000D03*
%TD*%
D33*
%TO.P,C14,1*%
%TO.N,Net-(U8-SW)*%
X174022000Y-88228000D03*
%TO.P,C14,2*%
%TO.N,Net-(U8-BST)*%
X174982000Y-88228000D03*
%TD*%
D34*
%TO.P,D2,1*%
%TO.N,N/C*%
X167700000Y-88800000D03*
%TO.P,D2,2*%
X169800000Y-88800000D03*
%TD*%
D16*
%TO.P,Q2,1,B*%
%TO.N,Net-(Q2-B)*%
X195255000Y-79660000D03*
D17*
%TO.P,Q2,2,C*%
%TO.N,/5V*%
X195255000Y-82200000D03*
%TO.P,Q2,3,E*%
%TO.N,+BATT*%
X195255000Y-84740000D03*
%TD*%
D13*
%TO.P,TP23,1,1*%
%TO.N,/3V3*%
X158805000Y-66921000D03*
%TD*%
D35*
%TO.P,L1,1,1*%
%TO.N,+BATT*%
X167000000Y-92400000D03*
%TO.P,L1,2,2*%
%TO.N,Net-(U6-SW)*%
X164300000Y-92400000D03*
%TD*%
D13*
%TO.P,TP3,1,1*%
%TO.N,/5V*%
X167700000Y-67200000D03*
%TD*%
D36*
%TO.P,R23,1*%
%TO.N,Net-(R22-Pad2)*%
X169000000Y-77680000D03*
%TO.P,R23,2*%
%TO.N,Net-(D2-PadC)*%
X169000000Y-78320000D03*
%TD*%
D13*
%TO.P,TP8,1,1*%
%TO.N,/USB 5V*%
X179200000Y-67200000D03*
%TD*%
D37*
%TO.P,U6,1,FB*%
%TO.N,Net-(U6-FB)*%
X190075000Y-101000000D03*
%TO.P,U6,2,EN*%
%TO.N,+BATT*%
X190075000Y-101500000D03*
%TO.P,U6,3,VIN*%
X190075000Y-102000000D03*
%TO.P,U6,4,GND*%
%TO.N,-BATT*%
X191500000Y-102000000D03*
%TO.P,U6,5,SW*%
%TO.N,Net-(U6-SW)*%
X191500000Y-101500000D03*
%TO.P,U6,6,VOUT*%
%TO.N,/5V*%
X191500000Y-101000000D03*
%TD*%
D10*
%TO.P,C9,1*%
%TO.N,+BATT*%
X190300000Y-89750000D03*
%TO.P,C9,2*%
%TO.N,-BATT*%
X192200000Y-89750000D03*
%TD*%
D15*
%TO.P,R24,1*%
%TO.N,Net-(D2-PadC)*%
X179050000Y-108500000D03*
%TO.P,R24,2*%
%TO.N,Net-(R24-Pad2)*%
X181975000Y-108500000D03*
%TD*%
D38*
%TO.P,J1,A5,CC1*%
%TO.N,Net-(J1-CC1)*%
X160000000Y-103920000D03*
D39*
%TO.P,J1,A9,VBUS*%
%TO.N,/9V*%
X162020000Y-103920000D03*
D40*
%TO.P,J1,A12,GND*%
%TO.N,-BATT*%
X163250000Y-103920000D03*
D41*
%TO.P,J1,B5,CC2*%
%TO.N,Net-(J1-CC2)*%
X161000000Y-103920000D03*
D42*
%TO.P,J1,B9,VBUS*%
%TO.N,/9V*%
X158980000Y-103920000D03*
D43*
%TO.P,J1,B12,GND*%
%TO.N,-BATT*%
X157750000Y-103920000D03*
D44*
%TO.P,J1,S1,SHIELD*%
X156180000Y-104000000D03*
X156180000Y-107800000D03*
X164820000Y-104000000D03*
X164820000Y-107800000D03*
%TD*%
D14*
%TO.P,R31,1*%
%TO.N,Net-(U1-IN-)*%
X186175000Y-77600000D03*
%TO.P,R31,2*%
%TO.N,-BATT*%
X187825000Y-77600000D03*
%TD*%
%TO.P,R32,1*%
%TO.N,Net-(U1-IN-)*%
X185925000Y-81250000D03*
%TO.P,R32,2*%
%TO.N,-BATT*%
X187575000Y-81250000D03*
%TD*%
D10*
%TO.P,C12,1*%
%TO.N,/3V3*%
X190038000Y-82000000D03*
%TO.P,C12,2*%
%TO.N,-BATT*%
X191938000Y-82000000D03*
%TD*%
D13*
%TO.P,TP21,1,1*%
%TO.N,/USB 5V*%
X171500000Y-114500000D03*
%TD*%
D33*
%TO.P,C2,1*%
%TO.N,-BATT*%
X190240000Y-103600000D03*
%TO.P,C2,2*%
%TO.N,+BATT*%
X191200000Y-103600000D03*
%TD*%
D14*
%TO.P,R41,1*%
%TO.N,-BATT*%
X155729000Y-101254000D03*
%TO.P,R41,2*%
%TO.N,Net-(U4-AISEN)*%
X157379000Y-101254000D03*
%TD*%
D18*
%TO.P,L2,1,1*%
%TO.N,Net-(U7-SW)*%
X184500000Y-92250000D03*
%TO.P,L2,2,2*%
%TO.N,/3V3*%
X187200000Y-92250000D03*
%TD*%
D20*
%TO.P,R22,1*%
%TO.N,/CTRL_EXT_LOAD2*%
X163062500Y-88200000D03*
%TO.P,R22,2*%
%TO.N,Net-(R22-Pad2)*%
X160137500Y-88200000D03*
%TD*%
D14*
%TO.P,R44,1*%
%TO.N,-BATT*%
X155938000Y-78659000D03*
%TO.P,R44,2*%
%TO.N,Net-(U5-AISEN)*%
X157588000Y-78659000D03*
%TD*%
%TO.P,R25,1*%
%TO.N,Net-(R24-Pad2)*%
X184577500Y-108500000D03*
%TO.P,R25,2*%
%TO.N,Net-(R25-Pad2)*%
X186227500Y-108500000D03*
%TD*%
D45*
%TO.P,U4,1,~{SLEEP}*%
%TO.N,/3V3*%
X159387500Y-96975000D03*
%TO.P,U4,2,AOUT1*%
%TO.N,/MOTOR2_A_OUT*%
X159387500Y-97625000D03*
%TO.P,U4,3,AISEN*%
%TO.N,Net-(U4-AISEN)*%
X159387500Y-98275000D03*
%TO.P,U4,4,AOUT2*%
%TO.N,/MOTOR2_B_OUT*%
X159387500Y-98925000D03*
%TO.P,U4,5,BOUT2*%
%TO.N,/MOTOR4_B_OUT*%
X159387500Y-99575000D03*
%TO.P,U4,6,BISEN*%
%TO.N,Net-(U4-AISEN)*%
X159387500Y-100225000D03*
%TO.P,U4,7,BOUT1*%
%TO.N,/MOTOR4_A_OUT*%
X159387500Y-100875000D03*
%TO.P,U4,8,~{FAULT}*%
%TO.N,unconnected-(U4-~{FAULT}-Pad8)*%
X159387500Y-101525000D03*
%TO.P,U4,9,BIN1*%
%TO.N,/MOTOR4_CTRL1*%
X165112500Y-101525000D03*
%TO.P,U4,10,BIN2*%
%TO.N,/MOTOR4_CTRL2*%
X165112500Y-100875000D03*
%TO.P,U4,11,VCP*%
%TO.N,Net-(U4-VCP)*%
X165112500Y-100225000D03*
%TO.P,U4,12,VM*%
%TO.N,/3V3*%
X165112500Y-99575000D03*
%TO.P,U4,13,GND*%
%TO.N,-BATT*%
X165112500Y-98925000D03*
%TO.P,U4,14,VINT*%
%TO.N,/3V3*%
X165112500Y-98275000D03*
%TO.P,U4,15,AIN2*%
%TO.N,/MOTOR2_CTRL2*%
X165112500Y-97625000D03*
%TO.P,U4,16,AIN1*%
%TO.N,/MOTOR2_CTRL1*%
X165112500Y-96975000D03*
%TD*%
D13*
%TO.P,TP15,1,1*%
%TO.N,/5V*%
X188578000Y-114586500D03*
%TD*%
D15*
%TO.P,R26,1*%
%TO.N,Net-(R25-Pad2)*%
X188825000Y-108500000D03*
%TO.P,R26,2*%
%TO.N,Net-(Q3-B)*%
X191750000Y-108500000D03*
%TD*%
D13*
%TO.P,TP20,1,1*%
%TO.N,+BATT*%
X154400000Y-67000000D03*
%TD*%
%TO.P,TP14,1,1*%
%TO.N,+BATT*%
X199800000Y-114400000D03*
%TD*%
D28*
%TO.P,C15,1*%
%TO.N,Net-(C15-Pad1)*%
X194050000Y-70450000D03*
%TO.P,C15,2*%
%TO.N,-BATT*%
X197000000Y-70450000D03*
%TD*%
D13*
%TO.P,TP5,1,1*%
%TO.N,Net-(D1-PadC)*%
X191200000Y-67200000D03*
%TD*%
D46*
%TO.P,J2,1,Pin_1*%
%TO.N,/MOTOR2_B_OUT*%
X152540000Y-108860000D03*
D47*
%TO.P,J2,2,Pin_2*%
%TO.N,/MOTOR2_A_OUT*%
X150000000Y-108860000D03*
%TO.P,J2,3,Pin_3*%
%TO.N,/MOTOR4_A_OUT*%
X152540000Y-106320000D03*
%TO.P,J2,4,Pin_4*%
%TO.N,/MOTOR2_CTRL1*%
X150000000Y-106320000D03*
%TO.P,J2,5,Pin_5*%
%TO.N,/MOTOR4_B_OUT*%
X152540000Y-103780000D03*
%TO.P,J2,6,Pin_6*%
%TO.N,/MOTOR2_CTRL2*%
X150000000Y-103780000D03*
%TO.P,J2,7,Pin_7*%
%TO.N,/CTRL_EXT_LOAD2*%
X152540000Y-101240000D03*
%TO.P,J2,8,Pin_8*%
%TO.N,/MOTOR4_CTRL1*%
X150000000Y-101240000D03*
%TO.P,J2,9,Pin_9*%
%TO.N,/USART2_RX*%
X152540000Y-98700000D03*
%TO.P,J2,10,Pin_10*%
%TO.N,/MOTOR4_CTRL2*%
X150000000Y-98700000D03*
%TO.P,J2,11,Pin_11*%
%TO.N,/EXT_LOAD2_OUT*%
X152540000Y-96160000D03*
%TO.P,J2,12,Pin_12*%
%TO.N,/USART2_TX*%
X150000000Y-96160000D03*
%TO.P,J2,13,Pin_13*%
%TO.N,/FAST_CHARGE_CTRL*%
X152540000Y-93620000D03*
%TO.P,J2,14,Pin_14*%
%TO.N,+BATT*%
X150000000Y-93620000D03*
%TO.P,J2,15,Pin_15*%
%TO.N,unconnected-(J2-Pin_15-Pad15)*%
X152540000Y-91080000D03*
%TO.P,J2,16,Pin_16*%
%TO.N,/I2C1_SCL*%
X150000000Y-91080000D03*
%TO.P,J2,17,Pin_17*%
%TO.N,/I2C1_SDA*%
X152540000Y-88540000D03*
%TO.P,J2,18,Pin_18*%
%TO.N,/3V3*%
X150000000Y-88540000D03*
%TO.P,J2,19,Pin_19*%
%TO.N,-BATT*%
X152540000Y-86000000D03*
%TO.P,J2,20,Pin_20*%
%TO.N,/5V*%
X150000000Y-86000000D03*
%TO.P,J2,21,Pin_21*%
%TO.N,/EXT_LOAD1_OUT*%
X152540000Y-83460000D03*
%TO.P,J2,22,Pin_22*%
%TO.N,/9V*%
X150000000Y-83460000D03*
%TO.P,J2,23,Pin_23*%
%TO.N,-BATT*%
X152540000Y-80920000D03*
%TO.P,J2,24,Pin_24*%
%TO.N,/MOTOR3_CTRL1*%
X150000000Y-80920000D03*
%TO.P,J2,25,Pin_25*%
%TO.N,/CTRL_EXT_LOAD1*%
X152540000Y-78380000D03*
%TO.P,J2,26,Pin_26*%
%TO.N,/MOTOR3_CTRL2*%
X150000000Y-78380000D03*
%TO.P,J2,27,Pin_27*%
%TO.N,/MOTOR3_A_OUT*%
X152540000Y-75840000D03*
%TO.P,J2,28,Pin_28*%
%TO.N,/MOTOR1_CTRL1*%
X150000000Y-75840000D03*
%TO.P,J2,29,Pin_29*%
%TO.N,/MOTOR3_B_OUT*%
X152540000Y-73300000D03*
%TO.P,J2,30,Pin_30*%
%TO.N,/MOTOR1_CTRL2*%
X150000000Y-73300000D03*
%TO.P,J2,31,Pin_31*%
%TO.N,/MOTOR1_B_OUT*%
X152540000Y-70760000D03*
%TO.P,J2,32,Pin_32*%
%TO.N,/MOTOR1_A_OUT*%
X150000000Y-70760000D03*
%TD*%
D14*
%TO.P,R13,1*%
%TO.N,-BATT*%
X155811000Y-73198000D03*
%TO.P,R13,2*%
%TO.N,Net-(U5-AISEN)*%
X157461000Y-73198000D03*
%TD*%
D48*
%TO.N,Net-(U8-EN)*%
X182306000Y-94541100D03*
X183055900Y-104600000D03*
X175345700Y-115891400D03*
%TO.N,Net-(U8-FB)*%
X175330900Y-93581400D03*
X176638500Y-81500000D03*
%TO.N,Net-(D2-PadC)*%
X177630600Y-103088900D03*
X177807500Y-78670500D03*
%TO.N,Net-(R22-Pad2)*%
X165432400Y-77072700D03*
X163235200Y-86845300D03*
%TO.N,Net-(R19-Pad2)*%
X185275000Y-100800000D03*
X185275000Y-74984800D03*
%TO.N,Net-(R18-Pad1)*%
X179891200Y-104600000D03*
X184630000Y-75882600D03*
%TO.N,Net-(D1-PadC)*%
X173014800Y-100800000D03*
X167880500Y-77387100D03*
X178878100Y-79243100D03*
X180413300Y-67246700D03*
%TO.N,Net-(U6-FB)*%
X186381300Y-101000000D03*
X187395600Y-95415400D03*
%TO.N,Net-(U5-AISEN)*%
X158478600Y-75389700D03*
X156540400Y-79706600D03*
%TO.N,Net-(U3-DM)*%
X165432400Y-85500000D03*
X159042300Y-85481500D03*
%TO.N,Net-(U2-PROG)*%
X168910100Y-111621300D03*
X170612000Y-109682100D03*
%TO.N,Net-(U1-A0)*%
X180961900Y-78156800D03*
X183587500Y-71520200D03*
%TO.N,Net-(R2-Pad1)*%
X174003700Y-65619800D03*
X172484700Y-72045300D03*
%TO.N,Net-(Q3-B)*%
X193021800Y-108498700D03*
%TO.N,Net-(Q2-B)*%
X172119500Y-83029500D03*
X171763900Y-68152600D03*
X195255000Y-65030400D03*
%TO.N,Net-(U7-SW)*%
X183841100Y-68303600D03*
X185850000Y-92825000D03*
X190705400Y-86054200D03*
X189452300Y-84095500D03*
%TO.N,Net-(U6-SW)*%
X192301100Y-101973300D03*
X192207400Y-112278900D03*
X170846100Y-111701300D03*
X162480200Y-90457000D03*
%TO.N,/MOTOR2_A_OUT*%
X160589600Y-97625000D03*
%TO.N,/MOTOR4_CTRL1*%
X156069300Y-102399400D03*
X157745400Y-102465300D03*
%TO.N,/I2C1_SDA*%
X171212200Y-77940300D03*
%TO.N,/MOTOR2_B_OUT*%
X157342700Y-99154700D03*
%TO.N,/EXT_LOAD2_OUT*%
X182944800Y-113470100D03*
X148889500Y-116833400D03*
X182944800Y-116833400D03*
%TO.N,/MOTOR1_CTRL1*%
X159166200Y-79245100D03*
%TO.N,/EXT_LOAD1_OUT*%
X159594000Y-83460000D03*
X172584300Y-112338900D03*
%TO.N,/MOTOR4_CTRL2*%
X161995000Y-105574100D03*
X161995000Y-100888800D03*
%TO.N,/MOTOR2_CTRL1*%
X159680300Y-95223500D03*
%TO.N,/CTRL_EXT_LOAD1*%
X163496800Y-75077300D03*
%TO.N,/MOTOR4_B_OUT*%
X156384400Y-99640900D03*
%TO.N,/MOTOR4_A_OUT*%
X161093100Y-106145600D03*
X161093100Y-100875000D03*
%TO.N,/CTRL_EXT_LOAD2*%
X161414800Y-87709500D03*
%TO.N,/FAST_CHARGE_CTRL*%
X159045700Y-89389000D03*
%TO.N,/MOTOR2_CTRL2*%
X157878400Y-96110300D03*
%TO.N,/MOTOR1_CTRL2*%
X157295200Y-79839200D03*
%TO.N,/I2C1_SCL*%
X170076900Y-77586000D03*
%TO.N,Net-(J1-CC2)*%
X164865300Y-80225000D03*
X164865300Y-102670800D03*
%TO.N,Net-(J1-CC1)*%
X162965400Y-102097900D03*
X164261900Y-81567500D03*
%TO.N,/9V*%
X165891100Y-106936500D03*
X165891100Y-94866400D03*
X165891100Y-86764800D03*
%TO.N,/USB 5V*%
X181172000Y-83600200D03*
X181172000Y-66323200D03*
X169925700Y-110958400D03*
%TO.N,/5V*%
X148891900Y-68284000D03*
X190690600Y-114586500D03*
X192303500Y-101000000D03*
X185335400Y-69498000D03*
%TO.N,/3V3*%
X167517600Y-113633400D03*
X167283700Y-96191300D03*
X148333400Y-69517900D03*
X167283700Y-83669800D03*
X165089000Y-70702000D03*
X165089000Y-74228700D03*
%TO.N,-BATT*%
X174090100Y-90146000D03*
X174759500Y-99130200D03*
X158665600Y-88339800D03*
X157985300Y-86714500D03*
%TO.N,+BATT*%
X171928100Y-93350800D03*
X191901500Y-87236600D03*
X172683300Y-76575000D03*
X191735600Y-77206600D03*
%TD*%
D49*
%TO.N,Net-(U8-EN)*%
X184075000Y-104600000D02*
X183055900Y-104600000D01*
X178012400Y-94541100D02*
X182306000Y-94541100D01*
X176885500Y-93414200D02*
X178012400Y-94541100D01*
X176885500Y-92593000D02*
X176885500Y-93414200D01*
X176142500Y-91850000D02*
X176885500Y-92593000D01*
X175800000Y-91850000D02*
X176142500Y-91850000D01*
X174779200Y-96316700D02*
X175962500Y-97500000D01*
X174779200Y-92513900D02*
X174779200Y-96316700D01*
X175443100Y-91850000D02*
X174779200Y-92513900D01*
X175800000Y-91850000D02*
X175443100Y-91850000D01*
X158291400Y-115891400D02*
X175345700Y-115891400D01*
X158000000Y-115600000D02*
X158291400Y-115891400D01*
%TO.N,Net-(U8-FB)*%
X175700000Y-81500000D02*
X175600000Y-81400000D01*
X176638500Y-81500000D02*
X175700000Y-81500000D01*
X175831200Y-93081100D02*
X175330900Y-93581400D01*
X175800000Y-93050000D02*
X175831200Y-93081100D01*
X175800000Y-92800000D02*
X175800000Y-93050000D01*
X175831200Y-93081100D02*
X180000000Y-97250000D01*
%TO.N,Net-(R34-Pad2)*%
X182963000Y-98205000D02*
X183918000Y-97250000D01*
X179130000Y-98205000D02*
X182963000Y-98205000D01*
X178175000Y-97250000D02*
X179130000Y-98205000D01*
%TO.N,Net-(R28-Pad1)*%
X171607600Y-69849900D02*
X170457500Y-71000000D01*
X173923400Y-69849900D02*
X171607600Y-69849900D01*
X174460000Y-70386500D02*
X173923400Y-69849900D01*
X174460000Y-71601100D02*
X174460000Y-70386500D01*
X174994300Y-72135400D02*
X174460000Y-71601100D01*
X177327100Y-72135400D02*
X174994300Y-72135400D01*
X178462500Y-71000000D02*
X177327100Y-72135400D01*
%TO.N,Net-(R25-Pad2)*%
X188825000Y-108500000D02*
X186227500Y-108500000D01*
%TO.N,Net-(R24-Pad2)*%
X181975000Y-108500000D02*
X184577500Y-108500000D01*
%TO.N,Net-(D2-PadC)*%
X177630600Y-107080600D02*
X177630600Y-103088900D01*
X179050000Y-108500000D02*
X177630600Y-107080600D01*
X177634300Y-78843700D02*
X177807500Y-78670500D01*
X169523700Y-78843700D02*
X177634300Y-78843700D01*
X169000000Y-78320000D02*
X169523700Y-78843700D01*
X182265200Y-111715200D02*
X179050000Y-108500000D01*
X193515200Y-111715200D02*
X182265200Y-111715200D01*
X196200000Y-114400000D02*
X193515200Y-111715200D01*
%TO.N,Net-(R22-Pad2)*%
X161186100Y-87151400D02*
X160137500Y-88200000D01*
X162462800Y-87151400D02*
X161186100Y-87151400D01*
X162768900Y-86845300D02*
X162462800Y-87151400D01*
X163235200Y-86845300D02*
X162768900Y-86845300D01*
X165758800Y-76746300D02*
X165432400Y-77072700D01*
X168066300Y-76746300D02*
X165758800Y-76746300D01*
X169000000Y-77680000D02*
X168066300Y-76746300D01*
%TO.N,Net-(R19-Pad2)*%
X185765200Y-74984800D02*
X186150000Y-74600000D01*
X185275000Y-74984800D02*
X185765200Y-74984800D01*
X181862500Y-100800000D02*
X185275000Y-100800000D01*
%TO.N,Net-(R18-Pad1)*%
X186517400Y-75882600D02*
X187800000Y-74600000D01*
X184630000Y-75882600D02*
X186517400Y-75882600D01*
X178875000Y-104600000D02*
X179891200Y-104600000D01*
%TO.N,Net-(D1-PadC)*%
X178937500Y-100800000D02*
X173014800Y-100800000D01*
X190410700Y-66410700D02*
X191200000Y-67200000D01*
X183176200Y-66410700D02*
X190410700Y-66410700D01*
X182340200Y-67246700D02*
X183176200Y-66410700D01*
X180413300Y-67246700D02*
X182340200Y-67246700D01*
X166962100Y-77387100D02*
X167880500Y-77387100D01*
X166775000Y-77200000D02*
X166962100Y-77387100D01*
X169131600Y-79243100D02*
X178878100Y-79243100D01*
X167880500Y-77992000D02*
X169131600Y-79243100D01*
X167880500Y-77387100D02*
X167880500Y-77992000D01*
%TO.N,Net-(R17-Pad1)*%
X180662500Y-80247300D02*
X180662500Y-81200000D01*
X178523400Y-78108200D02*
X180662500Y-80247300D01*
X177589400Y-78108200D02*
X178523400Y-78108200D01*
X177205600Y-78492000D02*
X177589400Y-78108200D01*
X170108200Y-78492000D02*
X177205600Y-78492000D01*
X169477900Y-77861700D02*
X170108200Y-78492000D01*
X169477900Y-77404700D02*
X169477900Y-77861700D01*
X168457100Y-76383900D02*
X169477900Y-77404700D01*
X165290100Y-76383900D02*
X168457100Y-76383900D01*
X164880700Y-76793300D02*
X165290100Y-76383900D01*
X164880700Y-77301100D02*
X164880700Y-76793300D01*
X165204000Y-77624400D02*
X164880700Y-77301100D01*
X165710600Y-77624400D02*
X165204000Y-77624400D01*
X166135000Y-77200000D02*
X165710600Y-77624400D01*
%TO.N,Net-(R15-Pad2)*%
X191296600Y-97953400D02*
X192250000Y-97000000D01*
X189922300Y-97953400D02*
X191296600Y-97953400D01*
X189657500Y-97688600D02*
X189922300Y-97953400D01*
X189657500Y-97421500D02*
X189657500Y-97688600D01*
X188397500Y-96161500D02*
X189657500Y-97421500D01*
X187072500Y-96161500D02*
X188397500Y-96161500D01*
X186107000Y-97127000D02*
X187072500Y-96161500D01*
%TO.N,Net-(U6-FB)*%
X190075000Y-101000000D02*
X186381300Y-101000000D01*
X190425000Y-95415400D02*
X190425000Y-97000000D01*
X187395600Y-95415400D02*
X190425000Y-95415400D01*
X192000000Y-93840400D02*
X192000000Y-93500000D01*
X190425000Y-95415400D02*
X192000000Y-93840400D01*
%TO.N,Net-(U5-AISEN)*%
X157461000Y-73198000D02*
X157524000Y-73261000D01*
X160750000Y-70162100D02*
X160750000Y-70775000D01*
X160353600Y-69765700D02*
X160750000Y-70162100D01*
X158099300Y-69765700D02*
X160353600Y-69765700D01*
X157461000Y-70404000D02*
X158099300Y-69765700D01*
X158881600Y-73261000D02*
X160750000Y-71392600D01*
X157524000Y-73261000D02*
X158881600Y-73261000D01*
X160750000Y-70775000D02*
X160750000Y-71392600D01*
X162700000Y-71434300D02*
X162700000Y-70775000D01*
X162309300Y-71825000D02*
X162700000Y-71434300D01*
X161182400Y-71825000D02*
X162309300Y-71825000D01*
X160750000Y-71392600D02*
X161182400Y-71825000D01*
X156540400Y-79706600D02*
X157588000Y-78659000D01*
X157524000Y-75389700D02*
X158478600Y-75389700D01*
X157524000Y-73261000D02*
X157524000Y-75389700D01*
X157524000Y-75389700D02*
X157524000Y-75992000D01*
%TO.N,Net-(U4-AISEN)*%
X158408000Y-100225000D02*
X159387500Y-100225000D01*
X157379000Y-101254000D02*
X158408000Y-100225000D01*
X160051500Y-98275000D02*
X159387500Y-98275000D01*
X160428400Y-98651900D02*
X160051500Y-98275000D01*
X160428400Y-99777300D02*
X160428400Y-98651900D01*
X159980700Y-100225000D02*
X160428400Y-99777300D01*
X159387500Y-100225000D02*
X159980700Y-100225000D01*
X157506000Y-95031000D02*
X157506000Y-92237000D01*
X157448000Y-98275000D02*
X157379000Y-98206000D01*
X159387500Y-98275000D02*
X157448000Y-98275000D01*
X157326700Y-98153700D02*
X157379000Y-98206000D01*
X157326700Y-95210300D02*
X157326700Y-98153700D01*
X157506000Y-95031000D02*
X157326700Y-95210300D01*
%TO.N,Net-(U3-PG)*%
X159787200Y-80437800D02*
X160000000Y-80225000D01*
X157105200Y-80437800D02*
X159787200Y-80437800D01*
X155675000Y-81868000D02*
X157105200Y-80437800D01*
%TO.N,Net-(U3-DP)*%
X156895700Y-87886300D02*
X155782000Y-89000000D01*
X158305700Y-87886300D02*
X156895700Y-87886300D01*
X159397100Y-86794900D02*
X158305700Y-87886300D01*
X162128000Y-86794900D02*
X159397100Y-86794900D01*
X163000000Y-85922900D02*
X162128000Y-86794900D01*
X163000000Y-85500000D02*
X163000000Y-85922900D01*
%TO.N,Net-(U3-VBUS)*%
X169500000Y-80926700D02*
X169500000Y-81424000D01*
X167146700Y-78573400D02*
X169500000Y-80926700D01*
X163194700Y-78573400D02*
X167146700Y-78573400D01*
X162000000Y-79768100D02*
X163194700Y-78573400D01*
X162000000Y-80225000D02*
X162000000Y-79768100D01*
%TO.N,Net-(U3-DM)*%
X157647500Y-85481500D02*
X159042300Y-85481500D01*
X157607000Y-85522000D02*
X157647500Y-85481500D01*
X164000000Y-85500000D02*
X165432400Y-85500000D01*
%TO.N,Net-(U2-STAT)*%
X169200000Y-104700000D02*
X169000000Y-104500000D01*
X169200000Y-107375000D02*
X169200000Y-104700000D01*
%TO.N,Net-(U2-PROG)*%
X168126100Y-111621300D02*
X168910100Y-111621300D01*
X167271800Y-110767000D02*
X168126100Y-111621300D01*
X167271800Y-107803200D02*
X167271800Y-110767000D01*
X167700000Y-107375000D02*
X167271800Y-107803200D01*
X172107100Y-109682100D02*
X172175000Y-109750000D01*
X170612000Y-109682100D02*
X172107100Y-109682100D01*
%TO.N,Net-(U1-A0)*%
X183032700Y-71520200D02*
X182312500Y-70800000D01*
X183587500Y-71520200D02*
X183032700Y-71520200D01*
X180961900Y-77710700D02*
X180961900Y-78156800D01*
X178526200Y-75275000D02*
X180961900Y-77710700D01*
X177937500Y-75275000D02*
X178526200Y-75275000D01*
%TO.N,Net-(R2-Pad1)*%
X173382500Y-71147500D02*
X173382500Y-71000000D01*
X172484700Y-72045300D02*
X173382500Y-71147500D01*
X170537500Y-73845000D02*
X173382500Y-71000000D01*
X170537500Y-75000000D02*
X170537500Y-73845000D01*
X197858900Y-72803600D02*
X197062500Y-73600000D01*
X197858900Y-68898100D02*
X197858900Y-72803600D01*
X194580600Y-65619800D02*
X197858900Y-68898100D01*
X174003700Y-65619800D02*
X194580600Y-65619800D01*
%TO.N,Net-(U1-IN-)*%
X186175000Y-77600000D02*
X184225000Y-77600000D01*
X185136400Y-80461400D02*
X184225000Y-80461400D01*
X185925000Y-81250000D02*
X185136400Y-80461400D01*
X183463600Y-80461400D02*
X182675000Y-81250000D01*
X184225000Y-80461400D02*
X183463600Y-80461400D01*
X184078300Y-77453300D02*
X184225000Y-77600000D01*
X184078300Y-74921700D02*
X184078300Y-77453300D01*
X184400000Y-74600000D02*
X184078300Y-74921700D01*
X192732800Y-69467200D02*
X194800000Y-67400000D01*
X187922000Y-69467200D02*
X192732800Y-69467200D01*
X186524000Y-70865200D02*
X187922000Y-69467200D01*
X186524000Y-72476000D02*
X186524000Y-70865200D01*
X184400000Y-74600000D02*
X186524000Y-72476000D01*
X184225000Y-80461400D02*
X184225000Y-78329000D01*
X184225000Y-78329000D02*
X184225000Y-77600000D01*
X176251200Y-75275000D02*
X175662500Y-75275000D01*
X176577200Y-74949000D02*
X176251200Y-75275000D01*
X176577200Y-74711100D02*
X176577200Y-74949000D01*
X177241800Y-74046500D02*
X176577200Y-74711100D01*
X178647000Y-74046500D02*
X177241800Y-74046500D01*
X181867200Y-77266700D02*
X178647000Y-74046500D01*
X181867200Y-78010000D02*
X181867200Y-77266700D01*
X182186200Y-78329000D02*
X181867200Y-78010000D01*
X184225000Y-78329000D02*
X182186200Y-78329000D01*
%TO.N,Net-(Q3-B)*%
X191751300Y-108498700D02*
X191750000Y-108500000D01*
X193021800Y-108498700D02*
X191751300Y-108498700D01*
%TO.N,Net-(Q2-B)*%
X173619600Y-65030400D02*
X195255000Y-65030400D01*
X171450000Y-67200000D02*
X173619600Y-65030400D01*
X171450000Y-67838700D02*
X171763900Y-68152600D01*
X171450000Y-67200000D02*
X171450000Y-67838700D01*
X173454500Y-83029500D02*
X172119500Y-83029500D01*
X175425000Y-85000000D02*
X173454500Y-83029500D01*
%TO.N,Net-(Q1-B)*%
X195200000Y-102200000D02*
X193948300Y-102200000D01*
X193167100Y-102981200D02*
X193948300Y-102200000D01*
X183418800Y-102981200D02*
X193167100Y-102981200D01*
X181800000Y-104600000D02*
X183418800Y-102981200D01*
%TO.N,Net-(L3-Pad2)*%
X184266000Y-85941000D02*
X184393000Y-85814000D01*
X181425000Y-85941000D02*
X184266000Y-85941000D01*
X181251000Y-86115000D02*
X181425000Y-85941000D01*
X181251000Y-92164000D02*
X181251000Y-86115000D01*
%TO.N,Net-(U7-SW)*%
X185075000Y-92825000D02*
X184500000Y-92250000D01*
X185850000Y-92825000D02*
X185075000Y-92825000D01*
X175733500Y-67983500D02*
X183200000Y-67983500D01*
X174950000Y-67200000D02*
X175733500Y-67983500D01*
X183520100Y-68303600D02*
X183200000Y-67983500D01*
X183841100Y-68303600D02*
X183520100Y-68303600D01*
X183200000Y-67983500D02*
X183200000Y-67450000D01*
X190550000Y-85898800D02*
X190705400Y-86054200D01*
X190550000Y-85500000D02*
X190550000Y-85898800D01*
X190647300Y-84095500D02*
X189452300Y-84095500D01*
X191350000Y-84798200D02*
X190647300Y-84095500D01*
X191350000Y-85100000D02*
X191350000Y-84798200D01*
%TO.N,Net-(U6-SW)*%
X175991600Y-112278900D02*
X192207400Y-112278900D01*
X175414000Y-111701300D02*
X175991600Y-112278900D01*
X170846100Y-111701300D02*
X175414000Y-111701300D01*
X191827800Y-101500000D02*
X192301100Y-101973300D01*
X191500000Y-101500000D02*
X191827800Y-101500000D01*
X164300000Y-92276800D02*
X164300000Y-92400000D01*
X162480200Y-90457000D02*
X164300000Y-92276800D01*
%TO.N,/MOTOR2_A_OUT*%
X159387500Y-97625000D02*
X160589600Y-97625000D01*
%TO.N,/MOTOR4_CTRL1*%
X150000000Y-101240000D02*
X151101700Y-101240000D01*
X152123400Y-102399400D02*
X156069300Y-102399400D01*
X151101700Y-101377700D02*
X152123400Y-102399400D01*
X151101700Y-101240000D02*
X151101700Y-101377700D01*
X160696800Y-102465300D02*
X157745400Y-102465300D01*
X161637100Y-101525000D02*
X160696800Y-102465300D01*
X165112500Y-101525000D02*
X161637100Y-101525000D01*
%TO.N,/I2C1_SDA*%
X178491000Y-75925000D02*
X177937500Y-75925000D01*
X178876100Y-76310100D02*
X178491000Y-75925000D01*
X178876100Y-76875100D02*
X178876100Y-76310100D01*
X178441800Y-77309400D02*
X178876100Y-76875100D01*
X177217200Y-77309400D02*
X178441800Y-77309400D01*
X176586300Y-77940300D02*
X177217200Y-77309400D01*
X171212200Y-77940300D02*
X176586300Y-77940300D01*
%TO.N,/MOTOR3_CTRL2*%
X150000000Y-78380000D02*
X151101700Y-78380000D01*
X160100000Y-75900600D02*
X160100000Y-76500000D01*
X159667100Y-75467700D02*
X160100000Y-75900600D01*
X159180800Y-75467700D02*
X159667100Y-75467700D01*
X157730600Y-76917900D02*
X159180800Y-75467700D01*
X156625500Y-76917900D02*
X157730600Y-76917900D01*
X156273800Y-77269600D02*
X156625500Y-76917900D01*
X151983800Y-77269600D02*
X156273800Y-77269600D01*
X151101700Y-78151700D02*
X151983800Y-77269600D01*
X151101700Y-78380000D02*
X151101700Y-78151700D01*
%TO.N,/MOTOR2_B_OUT*%
X157999700Y-99154700D02*
X157342700Y-99154700D01*
X158229400Y-98925000D02*
X157999700Y-99154700D01*
X159387500Y-98925000D02*
X158229400Y-98925000D01*
%TO.N,/EXT_LOAD2_OUT*%
X182944800Y-116833400D02*
X148889500Y-116833400D01*
X181329900Y-113470100D02*
X182944800Y-113470100D01*
X180200000Y-114600000D02*
X181329900Y-113470100D01*
%TO.N,/MOTOR1_CTRL1*%
X159276100Y-79135200D02*
X159166200Y-79245100D01*
X162029100Y-79135200D02*
X159276100Y-79135200D01*
X164000000Y-77164300D02*
X162029100Y-79135200D01*
X164000000Y-76500000D02*
X164000000Y-77164300D01*
%TO.N,/EXT_LOAD1_OUT*%
X195200000Y-107280000D02*
X195200000Y-108484200D01*
X152540000Y-83460000D02*
X159594000Y-83460000D01*
X175179100Y-112338900D02*
X172584300Y-112338900D01*
X175529200Y-112689000D02*
X175179100Y-112338900D01*
X182948700Y-112689000D02*
X175529200Y-112689000D01*
X184629900Y-114370100D02*
X182948700Y-112689000D01*
X185351700Y-113648300D02*
X184629900Y-114370100D01*
X193889000Y-113648300D02*
X185351700Y-113648300D01*
X195393300Y-115152600D02*
X193889000Y-113648300D01*
X196522400Y-115152600D02*
X195393300Y-115152600D01*
X197009200Y-114665800D02*
X196522400Y-115152600D01*
X197009200Y-110293400D02*
X197009200Y-114665800D01*
X195200000Y-108484200D02*
X197009200Y-110293400D01*
X184629900Y-114370100D02*
X184400000Y-114600000D01*
%TO.N,/MOTOR3_B_OUT*%
X152857000Y-72198300D02*
X152540000Y-72198300D01*
X155664200Y-69391100D02*
X152857000Y-72198300D01*
X160653600Y-69391100D02*
X155664200Y-69391100D01*
X161400000Y-70137500D02*
X160653600Y-69391100D01*
X161400000Y-70775000D02*
X161400000Y-70137500D01*
X152540000Y-73300000D02*
X152540000Y-72198300D01*
%TO.N,/MOTOR4_CTRL2*%
X165098700Y-100888800D02*
X161995000Y-100888800D01*
X165112500Y-100875000D02*
X165098700Y-100888800D01*
X150000000Y-98700000D02*
X150000000Y-99801700D01*
X149862300Y-99801700D02*
X150000000Y-99801700D01*
X148894000Y-100770000D02*
X149862300Y-99801700D01*
X148894000Y-101709000D02*
X148894000Y-100770000D01*
X149759400Y-102574400D02*
X148894000Y-101709000D01*
X150425200Y-102574400D02*
X149759400Y-102574400D01*
X151270000Y-103419200D02*
X150425200Y-102574400D01*
X151270000Y-104094300D02*
X151270000Y-103419200D01*
X152275900Y-105100200D02*
X151270000Y-104094300D01*
X155801300Y-105100200D02*
X152275900Y-105100200D01*
X156275200Y-105574100D02*
X155801300Y-105100200D01*
X161995000Y-105574100D02*
X156275200Y-105574100D01*
%TO.N,/MOTOR2_CTRL1*%
X163361000Y-95223500D02*
X165112500Y-96975000D01*
X159680300Y-95223500D02*
X163361000Y-95223500D01*
%TO.N,/MOTOR1_B_OUT*%
X152540000Y-70760000D02*
X153641700Y-70760000D01*
X155362300Y-69039400D02*
X153641700Y-70760000D01*
X160974200Y-69039400D02*
X155362300Y-69039400D01*
X162050000Y-70115200D02*
X160974200Y-69039400D01*
X162050000Y-70775000D02*
X162050000Y-70115200D01*
%TO.N,/CTRL_EXT_LOAD1*%
X176776000Y-80238500D02*
X177737500Y-81200000D01*
X169309100Y-80238500D02*
X176776000Y-80238500D01*
X167292300Y-78221700D02*
X169309100Y-80238500D01*
X165304000Y-78221700D02*
X167292300Y-78221700D01*
X164529000Y-77446700D02*
X165304000Y-78221700D01*
X164529000Y-75782300D02*
X164529000Y-77446700D01*
X163824000Y-75077300D02*
X164529000Y-75782300D01*
X163496800Y-75077300D02*
X163824000Y-75077300D01*
%TO.N,/MOTOR4_B_OUT*%
X159254900Y-99707600D02*
X159387500Y-99575000D01*
X156451100Y-99707600D02*
X159254900Y-99707600D01*
X156384400Y-99640900D02*
X156451100Y-99707600D01*
%TO.N,/MOTOR4_A_OUT*%
X160918700Y-106320000D02*
X161093100Y-106145600D01*
X152540000Y-106320000D02*
X160918700Y-106320000D01*
X159387500Y-100875000D02*
X161093100Y-100875000D01*
%TO.N,/MOTOR3_CTRL1*%
X151101700Y-80691700D02*
X151101700Y-80920000D01*
X152143400Y-79650000D02*
X151101700Y-80691700D01*
X153796400Y-79650000D02*
X152143400Y-79650000D01*
X155793900Y-77652500D02*
X153796400Y-79650000D01*
X156449200Y-77652500D02*
X155793900Y-77652500D01*
X156596100Y-77505600D02*
X156449200Y-77652500D01*
X158444400Y-77505600D02*
X156596100Y-77505600D01*
X159450000Y-76500000D02*
X158444400Y-77505600D01*
X150000000Y-80920000D02*
X151101700Y-80920000D01*
%TO.N,/MOTOR1_A_OUT*%
X150000000Y-70760000D02*
X151101700Y-70760000D01*
X151101700Y-70622300D02*
X151101700Y-70760000D01*
X153036300Y-68687700D02*
X151101700Y-70622300D01*
X161907300Y-68687700D02*
X153036300Y-68687700D01*
X163350000Y-70130400D02*
X161907300Y-68687700D01*
X163350000Y-70775000D02*
X163350000Y-70130400D01*
%TO.N,/CTRL_EXT_LOAD2*%
X162572000Y-87709500D02*
X161414800Y-87709500D01*
X163062500Y-88200000D02*
X162572000Y-87709500D01*
%TO.N,/MOTOR3_A_OUT*%
X152540000Y-75840000D02*
X153641700Y-75840000D01*
X154529900Y-76728200D02*
X153641700Y-75840000D01*
X156259000Y-76728200D02*
X154529900Y-76728200D01*
X156699000Y-76288200D02*
X156259000Y-76728200D01*
X156699000Y-72827200D02*
X156699000Y-76288200D01*
X157493900Y-72032300D02*
X156699000Y-72827200D01*
X159460300Y-72032300D02*
X157493900Y-72032300D01*
X160100000Y-71392600D02*
X159460300Y-72032300D01*
X160100000Y-70775000D02*
X160100000Y-71392600D01*
%TO.N,/FAST_CHARGE_CTRL*%
X168111000Y-89389000D02*
X159045700Y-89389000D01*
X172500000Y-85000000D02*
X168111000Y-89389000D01*
%TO.N,/MOTOR2_CTRL2*%
X164003900Y-97625000D02*
X165112500Y-97625000D01*
X162489200Y-96110300D02*
X164003900Y-97625000D01*
X157878400Y-96110300D02*
X162489200Y-96110300D01*
%TO.N,/MOTOR1_CTRL2*%
X157792000Y-79839200D02*
X157295200Y-79839200D01*
X158937800Y-78693400D02*
X157792000Y-79839200D01*
X161742800Y-78693400D02*
X158937800Y-78693400D01*
X163350000Y-77086200D02*
X161742800Y-78693400D01*
X163350000Y-76500000D02*
X163350000Y-77086200D01*
%TO.N,/I2C1_SCL*%
X170274400Y-77388500D02*
X170076900Y-77586000D01*
X171982400Y-77388500D02*
X170274400Y-77388500D01*
X172076900Y-77483000D02*
X171982400Y-77388500D01*
X176546300Y-77483000D02*
X172076900Y-77483000D01*
X177454300Y-76575000D02*
X176546300Y-77483000D01*
X177937500Y-76575000D02*
X177454300Y-76575000D01*
%TO.N,Net-(J1-CC2)*%
X162000800Y-102670800D02*
X164865300Y-102670800D01*
X161000000Y-103671600D02*
X162000800Y-102670800D01*
X161000000Y-103920000D02*
X161000000Y-103671600D01*
X164000000Y-80225000D02*
X164865300Y-80225000D01*
%TO.N,Net-(J1-CC1)*%
X163000000Y-80709300D02*
X163000000Y-80225000D01*
X163858200Y-81567500D02*
X163000000Y-80709300D01*
X164261900Y-81567500D02*
X163858200Y-81567500D01*
X161561500Y-102097900D02*
X162965400Y-102097900D01*
X160000000Y-103659400D02*
X161561500Y-102097900D01*
X160000000Y-103920000D02*
X160000000Y-103659400D01*
%TO.N,Net-(U8-SW)*%
X172566800Y-89683200D02*
X174022000Y-88228000D01*
X172566800Y-91258900D02*
X172566800Y-89683200D01*
X173157900Y-91850000D02*
X172566800Y-91258900D01*
X173525000Y-91850000D02*
X173157900Y-91850000D01*
X174616300Y-87633700D02*
X178551000Y-87633700D01*
X174022000Y-88228000D02*
X174616300Y-87633700D01*
X178551000Y-92164000D02*
X178551000Y-87633700D01*
X178551000Y-86115000D02*
X178725000Y-85941000D01*
X178551000Y-87633700D02*
X178551000Y-86115000D01*
%TO.N,Net-(U8-BST)*%
X175800000Y-89046000D02*
X175800000Y-90900000D01*
X174982000Y-88228000D02*
X175800000Y-89046000D01*
%TO.N,/9V*%
X162020000Y-103920000D02*
X162020000Y-104779900D01*
X158980000Y-104148400D02*
X158980000Y-103920000D01*
X159611500Y-104779900D02*
X158980000Y-104148400D01*
X162020000Y-104779900D02*
X159611500Y-104779900D01*
X163429700Y-104779900D02*
X165671400Y-107021600D01*
X162020000Y-104779900D02*
X163429700Y-104779900D01*
X175238300Y-115261700D02*
X175750000Y-114750000D01*
X171130600Y-115261700D02*
X175238300Y-115261700D01*
X165671400Y-109802500D02*
X171130600Y-115261700D01*
X165671400Y-107021600D02*
X165671400Y-109802500D01*
X173525000Y-94162700D02*
X173525000Y-92800000D01*
X172821300Y-94866400D02*
X173525000Y-94162700D01*
X173037500Y-95082600D02*
X173037500Y-97500000D01*
X172821300Y-94866400D02*
X173037500Y-95082600D01*
X172821300Y-94866400D02*
X165891100Y-94866400D01*
X163259100Y-94866400D02*
X165891100Y-94866400D01*
X161950000Y-93557300D02*
X163259100Y-94866400D01*
X161950000Y-92000000D02*
X161950000Y-93557300D01*
X165756500Y-106936500D02*
X165891100Y-106936500D01*
X165671400Y-107021600D02*
X165756500Y-106936500D01*
X166575000Y-85500000D02*
X166575000Y-81424000D01*
X165891100Y-86183900D02*
X165891100Y-86764800D01*
X166575000Y-85500000D02*
X165891100Y-86183900D01*
X150000000Y-83460000D02*
X150000000Y-84561700D01*
X149862300Y-84561700D02*
X150000000Y-84561700D01*
X148887400Y-85536600D02*
X149862300Y-84561700D01*
X148887400Y-88986600D02*
X148887400Y-85536600D01*
X149853500Y-89952700D02*
X148887400Y-88986600D01*
X162042400Y-89952700D02*
X149853500Y-89952700D01*
X162089800Y-89905300D02*
X162042400Y-89952700D01*
X169982800Y-89905300D02*
X162089800Y-89905300D01*
X172877500Y-92800000D02*
X169982800Y-89905300D01*
X173525000Y-92800000D02*
X172877500Y-92800000D01*
%TO.N,/USB 5V*%
X168200000Y-110275000D02*
X167700000Y-110275000D01*
X187093000Y-86047400D02*
X187093000Y-85814000D01*
X182999400Y-90141000D02*
X187093000Y-86047400D01*
X182999400Y-96343600D02*
X182999400Y-90141000D01*
X182093000Y-97250000D02*
X182999400Y-96343600D01*
X180076800Y-66323200D02*
X181172000Y-66323200D01*
X179200000Y-67200000D02*
X180076800Y-66323200D01*
X169925700Y-112925700D02*
X171500000Y-114500000D01*
X169925700Y-110958400D02*
X169925700Y-112925700D01*
X168200000Y-110658800D02*
X168200000Y-110275000D01*
X168499600Y-110958400D02*
X168200000Y-110658800D01*
X169925700Y-110958400D02*
X168499600Y-110958400D01*
X187093000Y-85581400D02*
X187093000Y-85814000D01*
X185111800Y-83600200D02*
X187093000Y-85581400D01*
X181172000Y-83600200D02*
X185111800Y-83600200D01*
X192406100Y-71606100D02*
X191800000Y-71000000D01*
X194658500Y-71606100D02*
X192406100Y-71606100D01*
X195585800Y-70678800D02*
X194658500Y-71606100D01*
X195585800Y-67122300D02*
X195585800Y-70678800D01*
X194486500Y-66023000D02*
X195585800Y-67122300D01*
X181472200Y-66023000D02*
X194486500Y-66023000D01*
X181172000Y-66323200D02*
X181472200Y-66023000D01*
%TO.N,Net-(C10-Pad1)*%
X189900000Y-72900000D02*
X189900000Y-71000000D01*
X191800000Y-74800000D02*
X189900000Y-72900000D01*
%TO.N,/5V*%
X195255000Y-82200000D02*
X195255000Y-83404200D01*
X196523600Y-87326400D02*
X191740100Y-92109900D01*
X196523600Y-84221200D02*
X196523600Y-87326400D01*
X195706600Y-83404200D02*
X196523600Y-84221200D01*
X195255000Y-83404200D02*
X195706600Y-83404200D01*
X191740100Y-92109900D02*
X190350000Y-93500000D01*
X175153900Y-69456900D02*
X175537500Y-69840500D01*
X169956900Y-69456900D02*
X175153900Y-69456900D01*
X167700000Y-67200000D02*
X169956900Y-69456900D01*
X175537500Y-69840500D02*
X175537500Y-71000000D01*
X188578000Y-114586500D02*
X190690600Y-114586500D01*
X193024400Y-93394200D02*
X191740100Y-92109900D01*
X193024400Y-99475600D02*
X193024400Y-93394200D01*
X191500000Y-101000000D02*
X193024400Y-99475600D01*
X175537500Y-69840500D02*
X184925000Y-69840500D01*
X184925000Y-71200000D02*
X184925000Y-69840500D01*
X185267500Y-69498000D02*
X185335400Y-69498000D01*
X184925000Y-69840500D02*
X185267500Y-69498000D01*
X168968400Y-102706600D02*
X167175000Y-104500000D01*
X169760600Y-102706600D02*
X168968400Y-102706600D01*
X172785300Y-99681900D02*
X169760600Y-102706600D01*
X174988000Y-99681900D02*
X172785300Y-99681900D01*
X175054000Y-99615900D02*
X174988000Y-99681900D01*
X190115900Y-99615900D02*
X175054000Y-99615900D01*
X191500000Y-101000000D02*
X190115900Y-99615900D01*
X149243600Y-67932300D02*
X148891900Y-68284000D01*
X155629000Y-67932300D02*
X149243600Y-67932300D01*
X157409000Y-66152300D02*
X155629000Y-67932300D01*
X160716400Y-66152300D02*
X157409000Y-66152300D01*
X162309100Y-67745000D02*
X160716400Y-66152300D01*
X167155000Y-67745000D02*
X162309100Y-67745000D01*
X167700000Y-67200000D02*
X167155000Y-67745000D01*
X191500000Y-101000000D02*
X192303500Y-101000000D01*
%TO.N,Net-(C15-Pad1)*%
X189103200Y-69971800D02*
X187875000Y-71200000D01*
X193571800Y-69971800D02*
X189103200Y-69971800D01*
X194050000Y-70450000D02*
X193571800Y-69971800D01*
%TO.N,Net-(U5-VCP)*%
X166943000Y-72993000D02*
X167950000Y-74000000D01*
X163617800Y-72993000D02*
X166943000Y-72993000D01*
X160750000Y-75860800D02*
X163617800Y-72993000D01*
X160750000Y-76500000D02*
X160750000Y-75860800D01*
%TO.N,Net-(U4-VCP)*%
X168020700Y-100020700D02*
X169000000Y-101000000D01*
X166324200Y-100020700D02*
X168020700Y-100020700D01*
X166119900Y-100225000D02*
X166324200Y-100020700D01*
X165112500Y-100225000D02*
X166119900Y-100225000D01*
%TO.N,/3V3*%
X164498300Y-99575000D02*
X165112500Y-99575000D01*
X164105000Y-99181700D02*
X164498300Y-99575000D01*
X164105000Y-98275000D02*
X164105000Y-99181700D01*
X165112500Y-98275000D02*
X164105000Y-98275000D01*
X162805000Y-96975000D02*
X159387500Y-96975000D01*
X164105000Y-98275000D02*
X162805000Y-96975000D01*
X166375000Y-98275000D02*
X167250000Y-97400000D01*
X165112500Y-98275000D02*
X166375000Y-98275000D01*
X188228700Y-83809300D02*
X190038000Y-82000000D01*
X188228700Y-91221300D02*
X188228700Y-83809300D01*
X187200000Y-92250000D02*
X188228700Y-91221300D01*
X167000000Y-114500000D02*
X162750000Y-114500000D01*
X161774400Y-75510400D02*
X162700000Y-75510400D01*
X161400000Y-75884800D02*
X161774400Y-75510400D01*
X161400000Y-76500000D02*
X161400000Y-75884800D01*
X162700000Y-75510400D02*
X162700000Y-76500000D01*
X167000000Y-114151000D02*
X167517600Y-113633400D01*
X167000000Y-114500000D02*
X167000000Y-114151000D01*
X150000000Y-88540000D02*
X151036600Y-88540000D01*
X168103200Y-102003200D02*
X167100000Y-101000000D01*
X169469400Y-102003200D02*
X168103200Y-102003200D01*
X169779700Y-101692900D02*
X169469400Y-102003200D01*
X169779700Y-100319100D02*
X169779700Y-101692900D01*
X169035600Y-99575000D02*
X169779700Y-100319100D01*
X165112500Y-99575000D02*
X169035600Y-99575000D01*
X151432600Y-69517900D02*
X148333400Y-69517900D01*
X152666500Y-68284000D02*
X151432600Y-69517900D01*
X157442000Y-68284000D02*
X152666500Y-68284000D01*
X158805000Y-66921000D02*
X157442000Y-68284000D01*
X167434500Y-80434500D02*
X167434500Y-83669800D01*
X166500000Y-79500000D02*
X167434500Y-80434500D01*
X167669800Y-83669800D02*
X167434500Y-83669800D01*
X169500000Y-85500000D02*
X167669800Y-83669800D01*
X167434500Y-83669800D02*
X167283700Y-83669800D01*
X167871200Y-96778800D02*
X167283700Y-96191300D01*
X168232200Y-96417800D02*
X167871200Y-96778800D01*
X169987200Y-96417800D02*
X168232200Y-96417800D01*
X172205900Y-98636500D02*
X169987200Y-96417800D01*
X174473100Y-98636500D02*
X172205900Y-98636500D01*
X174531100Y-98578500D02*
X174473100Y-98636500D01*
X174988000Y-98578500D02*
X174531100Y-98578500D01*
X175046000Y-98636500D02*
X174988000Y-98578500D01*
X183968300Y-98636500D02*
X175046000Y-98636500D01*
X184990100Y-97614700D02*
X183968300Y-98636500D01*
X184990100Y-95925100D02*
X184990100Y-97614700D01*
X187200000Y-93715200D02*
X184990100Y-95925100D01*
X187200000Y-92250000D02*
X187200000Y-93715200D01*
X167871200Y-96778800D02*
X167250000Y-97400000D01*
X165317700Y-74000000D02*
X166050000Y-74000000D01*
X165089000Y-74228700D02*
X165317700Y-74000000D01*
X163565200Y-74228700D02*
X165089000Y-74228700D01*
X162700000Y-75093900D02*
X163565200Y-74228700D01*
X162700000Y-75510400D02*
X162700000Y-75093900D01*
X164218700Y-70775000D02*
X164291700Y-70702000D01*
X164000000Y-70775000D02*
X164218700Y-70775000D01*
X164291700Y-70702000D02*
X165089000Y-70702000D01*
X164291700Y-70500000D02*
X166100000Y-70500000D01*
X164291700Y-70399200D02*
X164291700Y-70500000D01*
X160813500Y-66921000D02*
X164291700Y-70399200D01*
X158805000Y-66921000D02*
X160813500Y-66921000D01*
X164291700Y-70500000D02*
X164291700Y-70702000D01*
X158192400Y-87307600D02*
X160000000Y-85500000D01*
X152196300Y-87307600D02*
X158192400Y-87307600D01*
X151036600Y-88467300D02*
X152196300Y-87307600D01*
X151036600Y-88540000D02*
X151036600Y-88467300D01*
%TO.N,-BATT*%
X152540000Y-80920000D02*
X153641700Y-80920000D01*
X157670000Y-104000000D02*
X157750000Y-103920000D01*
X156180000Y-104000000D02*
X157670000Y-104000000D01*
X156180000Y-106698300D02*
X164820000Y-106698300D01*
X156180000Y-107800000D02*
X156180000Y-106698300D01*
X164820000Y-107800000D02*
X164820000Y-106698300D01*
X175000000Y-102750000D02*
X175851700Y-102750000D01*
X155811000Y-70404000D02*
X155811000Y-73198000D01*
X189386400Y-79161400D02*
X189386400Y-79438600D01*
X187825000Y-77600000D02*
X189386400Y-79161400D01*
X190961400Y-79438600D02*
X192000000Y-78400000D01*
X189386400Y-79438600D02*
X190961400Y-79438600D01*
X155856000Y-98079000D02*
X155856000Y-95031000D01*
X155729000Y-98206000D02*
X155856000Y-98079000D01*
X155856000Y-95031000D02*
X155856000Y-92237000D01*
X175000000Y-108750000D02*
X175000000Y-102750000D01*
X174000000Y-109750000D02*
X175000000Y-108750000D01*
X157500000Y-82862500D02*
X157500000Y-81868000D01*
X161000000Y-80633100D02*
X161000000Y-80225000D01*
X159765100Y-81868000D02*
X161000000Y-80633100D01*
X157500000Y-81868000D02*
X159765100Y-81868000D01*
X163330000Y-104000000D02*
X163250000Y-103920000D01*
X164820000Y-104000000D02*
X163330000Y-104000000D01*
X168700000Y-107016300D02*
X168700000Y-107375000D01*
X167911100Y-106227400D02*
X168700000Y-107016300D01*
X165945700Y-106227400D02*
X167911100Y-106227400D01*
X164820000Y-105101700D02*
X165945700Y-106227400D01*
X160098300Y-82862500D02*
X157500000Y-82862500D01*
X155902700Y-78659000D02*
X153641700Y-80920000D01*
X155938000Y-78659000D02*
X155902700Y-78659000D01*
X167625000Y-98925000D02*
X169150000Y-97400000D01*
X165112500Y-98925000D02*
X167625000Y-98925000D01*
X174090100Y-90334900D02*
X174090100Y-90146000D01*
X173525000Y-90900000D02*
X174090100Y-90334900D01*
X155729000Y-101254000D02*
X155729000Y-98206000D01*
X157750000Y-103275000D02*
X157750000Y-103920000D01*
X155729000Y-101254000D02*
X157750000Y-103275000D01*
X185101800Y-82026800D02*
X184325000Y-81250000D01*
X186798200Y-82026800D02*
X185101800Y-82026800D01*
X187575000Y-81250000D02*
X186798200Y-82026800D01*
X155184300Y-82862500D02*
X153641700Y-81319900D01*
X157500000Y-82862500D02*
X155184300Y-82862500D01*
X153641700Y-81319900D02*
X153641700Y-80920000D01*
X152912000Y-82049600D02*
X153641700Y-81319900D01*
X149546400Y-82049600D02*
X152912000Y-82049600D01*
X148832900Y-81336100D02*
X149546400Y-82049600D01*
X148832900Y-77906800D02*
X148832900Y-81336100D01*
X149629700Y-77110000D02*
X148832900Y-77906800D01*
X150359500Y-77110000D02*
X149629700Y-77110000D01*
X151393900Y-76075600D02*
X150359500Y-77110000D01*
X151393900Y-75398600D02*
X151393900Y-76075600D01*
X152072400Y-74720100D02*
X151393900Y-75398600D01*
X155811000Y-74720100D02*
X152072400Y-74720100D01*
X155811000Y-73198000D02*
X155811000Y-74720100D01*
X155811000Y-75929000D02*
X155874000Y-75992000D01*
X155811000Y-74720100D02*
X155811000Y-75929000D01*
X162050000Y-77161200D02*
X162050000Y-76500000D01*
X161283700Y-77927500D02*
X162050000Y-77161200D01*
X156671500Y-77927500D02*
X161283700Y-77927500D01*
X155940000Y-78659000D02*
X156671500Y-77927500D01*
X155938000Y-78659000D02*
X155940000Y-78659000D01*
X161049200Y-82862500D02*
X162000000Y-82862500D01*
X164820000Y-104000000D02*
X164820000Y-104550800D01*
X164820000Y-104550800D02*
X164820000Y-105101700D01*
X169150000Y-97400000D02*
X170739700Y-98989700D01*
X189240000Y-104600000D02*
X187000000Y-104600000D01*
X190240000Y-103600000D02*
X189240000Y-104600000D01*
X176091300Y-102510400D02*
X180951400Y-102510400D01*
X175851700Y-102750000D02*
X176091300Y-102510400D01*
X190989600Y-102510400D02*
X191500000Y-102000000D01*
X180951400Y-102510400D02*
X190989600Y-102510400D01*
X180951400Y-105423400D02*
X180951400Y-102510400D01*
X181319800Y-105791800D02*
X180951400Y-105423400D01*
X185808200Y-105791800D02*
X181319800Y-105791800D01*
X187000000Y-104600000D02*
X185808200Y-105791800D01*
X159520800Y-91470800D02*
X160050000Y-92000000D01*
X156622200Y-91470800D02*
X159520800Y-91470800D01*
X155856000Y-92237000D02*
X156622200Y-91470800D01*
X177391600Y-74625000D02*
X177937500Y-74625000D01*
X177022300Y-74994300D02*
X177391600Y-74625000D01*
X177022300Y-75135100D02*
X177022300Y-74994300D01*
X176232400Y-75925000D02*
X177022300Y-75135100D01*
X175662500Y-75925000D02*
X176232400Y-75925000D01*
X194986500Y-75413500D02*
X192000000Y-78400000D01*
X194986500Y-72436300D02*
X194986500Y-75413500D01*
X195013700Y-72436300D02*
X194986500Y-72436300D01*
X197000000Y-70450000D02*
X195013700Y-72436300D01*
X190913600Y-75813600D02*
X189900000Y-74800000D01*
X192244200Y-75813600D02*
X190913600Y-75813600D01*
X192593600Y-75464200D02*
X192244200Y-75813600D01*
X192593600Y-73444200D02*
X192593600Y-75464200D01*
X193601500Y-72436300D02*
X192593600Y-73444200D01*
X194986500Y-72436300D02*
X193601500Y-72436300D01*
X189386400Y-80689200D02*
X189386400Y-79438600D01*
X190627200Y-80689200D02*
X189386400Y-80689200D01*
X191938000Y-82000000D02*
X190627200Y-80689200D01*
X188135800Y-80689200D02*
X187575000Y-81250000D01*
X189386400Y-80689200D02*
X188135800Y-80689200D01*
X165540000Y-81224200D02*
X165540000Y-79674800D01*
X163901700Y-82862500D02*
X165540000Y-81224200D01*
X165540000Y-79674800D02*
X165540000Y-79500000D01*
X171489300Y-82585700D02*
X172675000Y-81400000D01*
X168969300Y-82585700D02*
X171489300Y-82585700D01*
X168460200Y-82076600D02*
X168969300Y-82585700D01*
X168460200Y-80507900D02*
X168460200Y-82076600D01*
X166877400Y-78925100D02*
X168460200Y-80507900D01*
X166139700Y-78925100D02*
X166877400Y-78925100D01*
X165540000Y-79524800D02*
X166139700Y-78925100D01*
X165540000Y-79674800D02*
X165540000Y-79524800D01*
X170739700Y-101230200D02*
X170739700Y-98989700D01*
X169615000Y-102354900D02*
X170739700Y-101230200D01*
X167015900Y-102354900D02*
X169615000Y-102354900D01*
X164820000Y-104550800D02*
X167015900Y-102354900D01*
X174759500Y-98989700D02*
X174759500Y-99130200D01*
X174759500Y-98989700D02*
X170739700Y-98989700D01*
X186942400Y-98116600D02*
X185341800Y-98116600D01*
X187932000Y-97127000D02*
X186942400Y-98116600D01*
X184468700Y-98989700D02*
X185341800Y-98116600D01*
X174759500Y-98989700D02*
X184468700Y-98989700D01*
X185341800Y-96442000D02*
X185341800Y-98116600D01*
X186920100Y-94863700D02*
X185341800Y-96442000D01*
X187569600Y-94863700D02*
X186920100Y-94863700D01*
X192200000Y-90233300D02*
X187569600Y-94863700D01*
X192200000Y-89750000D02*
X192200000Y-90233300D01*
X176264400Y-75925000D02*
X175662500Y-75925000D01*
X176606600Y-76267200D02*
X176264400Y-75925000D01*
X176606600Y-76837800D02*
X176606600Y-76267200D01*
X176313100Y-77131300D02*
X176606600Y-76837800D01*
X172222500Y-77131300D02*
X176313100Y-77131300D01*
X172128000Y-77036800D02*
X172222500Y-77131300D01*
X170918300Y-77036800D02*
X172128000Y-77036800D01*
X168793000Y-74911500D02*
X170918300Y-77036800D01*
X168793000Y-71293000D02*
X168793000Y-74911500D01*
X168000000Y-70500000D02*
X168793000Y-71293000D01*
X155304000Y-86000000D02*
X152540000Y-86000000D01*
X155782000Y-85522000D02*
X155304000Y-86000000D01*
X156974500Y-86714500D02*
X155782000Y-85522000D01*
X157985300Y-86714500D02*
X156974500Y-86714500D01*
X158267200Y-88339800D02*
X158665600Y-88339800D01*
X157607000Y-89000000D02*
X158267200Y-88339800D01*
X161049200Y-82862500D02*
X160098300Y-82862500D01*
X162000000Y-82862500D02*
X163901700Y-82862500D01*
X162000000Y-85500000D02*
X161000000Y-85500000D01*
X181013000Y-82536500D02*
X181779300Y-81770200D01*
X173811500Y-82536500D02*
X181013000Y-82536500D01*
X172675000Y-81400000D02*
X173811500Y-82536500D01*
X181515500Y-81506500D02*
X181779300Y-81770200D01*
X181515500Y-77650400D02*
X181515500Y-81506500D01*
X178490100Y-74625000D02*
X181515500Y-77650400D01*
X177937500Y-74625000D02*
X178490100Y-74625000D01*
X183571200Y-82003800D02*
X184325000Y-81250000D01*
X182012800Y-82003800D02*
X183571200Y-82003800D01*
X181779300Y-81770200D02*
X182012800Y-82003800D01*
X162000000Y-82862500D02*
X162000000Y-85500000D01*
X191938000Y-83525500D02*
X191938000Y-82000000D01*
X192463700Y-84051200D02*
X191938000Y-83525500D01*
X192463700Y-89486300D02*
X192463700Y-84051200D01*
X192200000Y-89750000D02*
X192463700Y-89486300D01*
X190950000Y-84940900D02*
X190950000Y-85100000D01*
X190682700Y-84673600D02*
X190950000Y-84940900D01*
X189232800Y-84673600D02*
X190682700Y-84673600D01*
X188865400Y-84306200D02*
X189232800Y-84673600D01*
X188865400Y-83894700D02*
X188865400Y-84306200D01*
X189234600Y-83525500D02*
X188865400Y-83894700D01*
X191938000Y-83525500D02*
X189234600Y-83525500D01*
%TO.N,+BATT*%
X190075000Y-101500000D02*
X190075000Y-102000000D01*
X195200000Y-104740000D02*
X193948300Y-104740000D01*
X192340000Y-104740000D02*
X193948300Y-104740000D01*
X191200000Y-103600000D02*
X192340000Y-104740000D01*
X168700000Y-110275000D02*
X169200000Y-110275000D01*
X195746500Y-105944200D02*
X195200000Y-105944200D01*
X199800000Y-109997700D02*
X195746500Y-105944200D01*
X199800000Y-114400000D02*
X199800000Y-109997700D01*
X195200000Y-104740000D02*
X195200000Y-105944200D01*
X155599400Y-65800600D02*
X154400000Y-67000000D01*
X162800600Y-65800600D02*
X155599400Y-65800600D01*
X163950000Y-66950000D02*
X162800600Y-65800600D01*
X150000000Y-93620000D02*
X151101700Y-93620000D01*
X167000000Y-93350800D02*
X167000000Y-92400000D01*
X167000000Y-93350800D02*
X171928100Y-93350800D01*
X198695700Y-115504300D02*
X199800000Y-114400000D01*
X193704300Y-115504300D02*
X198695700Y-115504300D01*
X192600000Y-114400000D02*
X193704300Y-115504300D01*
X191644500Y-115355500D02*
X192600000Y-114400000D01*
X176523600Y-115355500D02*
X191644500Y-115355500D01*
X178479700Y-102000000D02*
X190075000Y-102000000D01*
X178102500Y-101622800D02*
X178479700Y-102000000D01*
X174127200Y-101622800D02*
X178102500Y-101622800D01*
X173000000Y-102750000D02*
X174127200Y-101622800D01*
X170060300Y-105689700D02*
X170060300Y-110119300D01*
X173000000Y-102750000D02*
X170060300Y-105689700D01*
X169355700Y-110119300D02*
X170060300Y-110119300D01*
X169200000Y-110275000D02*
X169355700Y-110119300D01*
X176523600Y-115615400D02*
X176523600Y-115355500D01*
X175666700Y-116472300D02*
X176523600Y-115615400D01*
X155072300Y-116472300D02*
X175666700Y-116472300D01*
X153400000Y-114800000D02*
X155072300Y-116472300D01*
X191350000Y-85500000D02*
X190950000Y-85500000D01*
X182750000Y-77425000D02*
X182750000Y-74600000D01*
X182575000Y-77600000D02*
X182750000Y-77425000D01*
X180487500Y-72366800D02*
X180487500Y-70800000D01*
X190300000Y-87236600D02*
X190300000Y-89750000D01*
X190300000Y-87236600D02*
X191901500Y-87236600D01*
X175037500Y-76575000D02*
X175350000Y-76575000D01*
X173462500Y-75000000D02*
X175037500Y-76575000D01*
X175350000Y-76575000D02*
X175662500Y-76575000D01*
X191750000Y-85100000D02*
X191750000Y-85500000D01*
X191750000Y-85500000D02*
X191350000Y-85500000D01*
X190300000Y-87236600D02*
X190300000Y-86606000D01*
X190397300Y-85100000D02*
X190550000Y-85100000D01*
X190152300Y-85345000D02*
X190397300Y-85100000D01*
X190152300Y-86458300D02*
X190152300Y-85345000D01*
X190300000Y-86606000D02*
X190152300Y-86458300D01*
X190997100Y-86606000D02*
X190300000Y-86606000D01*
X191350000Y-86253100D02*
X190997100Y-86606000D01*
X191350000Y-85500000D02*
X191350000Y-86253100D01*
X190542200Y-78400000D02*
X191735600Y-77206600D01*
X190100000Y-78400000D02*
X190542200Y-78400000D01*
X194137500Y-74804700D02*
X194137500Y-73600000D01*
X191735600Y-77206600D02*
X194137500Y-74804700D01*
X175350000Y-76575000D02*
X172683300Y-76575000D01*
X176523600Y-114373500D02*
X176523600Y-115355500D01*
X175040700Y-112890600D02*
X176523600Y-114373500D01*
X172355900Y-112890600D02*
X175040700Y-112890600D01*
X172032600Y-112567300D02*
X172355900Y-112890600D01*
X172032600Y-112567200D02*
X172032600Y-112567300D01*
X170931900Y-112567200D02*
X172032600Y-112567200D01*
X170294400Y-111929700D02*
X170931900Y-112567200D01*
X170294400Y-111472900D02*
X170294400Y-111929700D01*
X170536900Y-111230400D02*
X170294400Y-111472900D01*
X170536900Y-110595900D02*
X170536900Y-111230400D01*
X170060300Y-110119300D02*
X170536900Y-110595900D01*
X166302500Y-93350800D02*
X167000000Y-93350800D01*
X165138600Y-94514700D02*
X166302500Y-93350800D01*
X163404700Y-94514700D02*
X165138600Y-94514700D01*
X162949000Y-94059000D02*
X163404700Y-94514700D01*
X162949000Y-91496100D02*
X162949000Y-94059000D01*
X162461600Y-91008700D02*
X162949000Y-91496100D01*
X155356400Y-91008700D02*
X162461600Y-91008700D01*
X153846800Y-92518300D02*
X155356400Y-91008700D01*
X152065600Y-92518300D02*
X153846800Y-92518300D01*
X151101700Y-93482200D02*
X152065600Y-92518300D01*
X151101700Y-93620000D02*
X151101700Y-93482200D01*
X173837500Y-74625000D02*
X173462500Y-75000000D01*
X175662500Y-74625000D02*
X173837500Y-74625000D01*
X177920700Y-72366800D02*
X175662500Y-74625000D01*
X180487500Y-72366800D02*
X177920700Y-72366800D01*
X187200000Y-67200000D02*
X185542000Y-68858000D01*
X164464300Y-66435700D02*
X163950000Y-66950000D01*
X169004200Y-66435700D02*
X164464300Y-66435700D01*
X171426500Y-68858000D02*
X169004200Y-66435700D01*
X185542000Y-68858000D02*
X171426500Y-68858000D01*
X182750000Y-74600000D02*
X182750000Y-73483400D01*
X181633400Y-72366800D02*
X182750000Y-73483400D01*
X180487500Y-72366800D02*
X181633400Y-72366800D01*
X185929700Y-69245700D02*
X185542000Y-68858000D01*
X185929700Y-71909000D02*
X185929700Y-69245700D01*
X184355300Y-73483400D02*
X185929700Y-71909000D01*
X182750000Y-73483400D02*
X184355300Y-73483400D01*
%TD*%
M02*
