M48
; DRILL file {KiCad 9.0.0} date 2025-03-28T16:52:22+0200
; FORMAT={-:-/ absolute / inch / decimal}
; #@! TF.CreationDate,2025-03-28T16:52:22+02:00
; #@! TF.GenerationSoftware,Kicad,Pcbnew,9.0.0
; #@! TF.FileFunction,Plated,1,2,PTH
FMAT,2
INCH
; #@! TA.AperFunction,Plated,PTH,ViaDrill
T1C0.0118
; #@! TA.AperFunction,Plated,PTH,ComponentDrill
T2C0.0236
; #@! TA.AperFunction,Plated,PTH,ComponentDrill
T3C0.0295
; #@! TA.AperFunction,Plated,PTH,ComponentDrill
T4C0.0394
; #@! TA.AperFunction,Plated,PTH,ComponentDrill
T5C0.0433
%
G90
G05
T1
X5.8611Y-2.5662
X5.9495Y-3.0239
X5.9546Y-4.4977
X5.9712Y-3.1432
X6.0613Y-4.2425
X6.0752Y-3.9296
X6.0868Y-3.6823
X6.0975Y-3.9506
X6.1479Y-3.3127
X6.157Y-3.9571
X6.2275Y-3.8427
X6.2304Y-3.5703
X6.2443Y-3.6455
X6.2443Y-3.7871
X6.2452Y-3.609
X6.2582Y-3.0523
X6.2798Y-4.5678
X6.2949Y-3.2242
X6.3208Y-3.4164
X6.3222Y-3.8228
X6.3222Y-4.1471
X6.3228Y-4.5738
X6.3324Y-3.9715
X6.3447Y-3.476
X6.3448Y-4.1787
X6.3687Y-3.432
X6.3693Y-4.0166
X6.3741Y-3.5006
X6.4028Y-4.024
X6.4313Y-3.9258
X6.4409Y-3.0782
X6.4535Y-3.8483
X6.4535Y-4.3419
X6.4541Y-2.9646
X6.4826Y-2.9933
X6.4863Y-3.1535
X6.4911Y-4.5079
X6.498Y-3.0509
X6.5272Y-4.1548
X6.5272Y-4.6236
X6.5279Y-3.344
X6.541Y-4.0303
X6.5498Y-3.2662
X6.5627Y-3.7859
X6.5873Y-3.6561
X6.603Y-3.0422
X6.6099Y-3.3936
X6.6405Y-3.3293
X6.6476Y-3.7859
X6.6487Y-2.8242
X6.6888Y-3.1043
X6.7152Y-2.727
X6.7573Y-3.2147
X6.7722Y-3.7555
X6.782Y-3.6763
X6.8174Y-3.105
X6.8356Y-2.6487
X6.8406Y-3.3084
X6.8596Y-4.5042
X6.8626Y-3.9324
X6.8698Y-2.7955
X6.9011Y-4.188
X6.9233Y-4.4075
X6.9581Y-4.3319
X6.9581Y-4.4529
X6.9809Y-3.8911
X6.9809Y-4.1917
X6.9809Y-4.5543
X7.0053Y-2.5445
X7.0495Y-3.0385
X7.0565Y-2.8437
X7.0565Y-2.998
X7.0823Y-4.1181
X7.0881Y-2.9998
X7.09Y-4.2463
X7.0925Y-2.5662
X7.0925Y-4.2944
X7.1126Y-2.6418
X7.1367Y-2.9459
X7.1571Y-2.8687
X7.17Y-4.4205
X7.1744Y-3.1615
X7.1991Y-3.4918
X7.2003Y-3.9685
X7.229Y-2.6935
X7.229Y-3.5405
X7.2716Y-3.1259
X7.2948Y-2.9387
X7.3213Y-2.8063
X7.3842Y-2.9736
X7.4398Y-2.5775
X7.4473Y-4.2906
X7.4699Y-4.5113
X7.5926Y-3.8069
X7.595Y-4.4655
X7.627Y-2.6526
X7.6278Y-4.12
X7.6313Y-4.439
X7.7916Y-3.8114
T3
X6.811Y-4.0453
X6.8898Y-4.0453
T4
X5.9055Y-2.7858
X5.9055Y-2.8858
X5.9055Y-2.9858
X5.9055Y-3.0858
X5.9055Y-3.1858
X5.9055Y-3.2858
X5.9055Y-3.3858
X5.9055Y-3.4858
X5.9055Y-3.5858
X5.9055Y-3.6858
X5.9055Y-3.7858
X5.9055Y-3.8858
X5.9055Y-3.9858
X5.9055Y-4.0858
X5.9055Y-4.1858
X5.9055Y-4.2858
X6.0055Y-2.7858
X6.0055Y-2.8858
X6.0055Y-2.9858
X6.0055Y-3.0858
X6.0055Y-3.1858
X6.0055Y-3.2858
X6.0055Y-3.3858
X6.0055Y-3.4858
X6.0055Y-3.5858
X6.0055Y-3.6858
X6.0055Y-3.7858
X6.0055Y-3.8858
X6.0055Y-3.9858
X6.0055Y-4.0858
X6.0055Y-4.1858
X6.0055Y-4.2858
T5
X7.685Y-3.5827
X7.685Y-3.6827
X7.685Y-3.7827
X7.685Y-4.0236
X7.685Y-4.1236
X7.685Y-4.2236
X7.6872Y-3.1362
X7.6872Y-3.2362
X7.6872Y-3.3362
T2
G00X6.1488Y-4.0827
M15
G01X6.1488Y-4.1063
M16
G05
G00X6.1488Y-4.2323
M15
G01X6.1488Y-4.2559
M16
G05
G00X6.489Y-4.0827
M15
G01X6.489Y-4.1063
M16
G05
G00X6.489Y-4.2323
M15
G01X6.489Y-4.2559
M16
G05
M30
