%TF.GenerationSoftware,KiCad,Pcbnew,9.0.0*%
%TF.CreationDate,2025-03-28T14:43:10+02:00*%
%TF.ProjectId,MicroMousePower,4d696372-6f4d-46f7-9573-65506f776572,rev?*%
%TF.SameCoordinates,Original*%
%TF.FileFunction,Legend,Top*%
%TF.FilePolarity,Positive*%
%FSLAX46Y46*%
G04 Gerber Fmt 4.6, Leading zero omitted, Abs format (unit mm)*
G04 Created by KiCad (PCBNEW 9.0.0) date 2025-03-28 14:43:10*
%MOMM*%
%LPD*%
G01*
G04 APERTURE LIST*
G04 Aperture macros list*
%AMRoundRect*
0 Rectangle with rounded corners*
0 $1 Rounding radius*
0 $2 $3 $4 $5 $6 $7 $8 $9 X,Y pos of 4 corners*
0 Add a 4 corners polygon primitive as box body*
4,1,4,$2,$3,$4,$5,$6,$7,$8,$9,$2,$3,0*
0 Add four circle primitives for the rounded corners*
1,1,$1+$1,$2,$3*
1,1,$1+$1,$4,$5*
1,1,$1+$1,$6,$7*
1,1,$1+$1,$8,$9*
0 Add four rect primitives between the rounded corners*
20,1,$1+$1,$2,$3,$4,$5,0*
20,1,$1+$1,$4,$5,$6,$7,0*
20,1,$1+$1,$6,$7,$8,$9,0*
20,1,$1+$1,$8,$9,$2,$3,0*%
G04 Aperture macros list end*
%ADD10C,0.100000*%
%ADD11C,0.150000*%
%ADD12C,0.120000*%
%ADD13RoundRect,0.250000X-0.250000X-0.475000X0.250000X-0.475000X0.250000X0.475000X-0.250000X0.475000X0*%
%ADD14RoundRect,0.250000X-0.262500X-0.450000X0.262500X-0.450000X0.262500X0.450000X-0.262500X0.450000X0*%
%ADD15RoundRect,0.100000X-0.100000X0.637500X-0.100000X-0.637500X0.100000X-0.637500X0.100000X0.637500X0*%
%ADD16C,1.000000*%
%ADD17RoundRect,0.200000X-0.200000X-0.275000X0.200000X-0.275000X0.200000X0.275000X-0.200000X0.275000X0*%
%ADD18RoundRect,0.250000X-0.312500X-0.625000X0.312500X-0.625000X0.312500X0.625000X-0.312500X0.625000X0*%
%ADD19R,2.000000X1.905000*%
%ADD20O,2.000000X1.905000*%
%ADD21RoundRect,0.250000X-0.600000X-1.600000X0.600000X-1.600000X0.600000X1.600000X-0.600000X1.600000X0*%
%ADD22RoundRect,0.250000X0.250000X0.475000X-0.250000X0.475000X-0.250000X-0.475000X0.250000X-0.475000X0*%
%ADD23RoundRect,0.250000X0.312500X0.625000X-0.312500X0.625000X-0.312500X-0.625000X0.312500X-0.625000X0*%
%ADD24RoundRect,0.150000X-0.512500X-0.150000X0.512500X-0.150000X0.512500X0.150000X-0.512500X0.150000X0*%
%ADD25RoundRect,0.250000X-0.350000X-0.625000X0.350000X-0.625000X0.350000X0.625000X-0.350000X0.625000X0*%
%ADD26O,1.200000X1.750000*%
%ADD27C,0.300000*%
%ADD28RoundRect,0.112500X-0.112500X0.187500X-0.112500X-0.187500X0.112500X-0.187500X0.112500X0.187500X0*%
%ADD29RoundRect,0.062500X0.062500X-0.337500X0.062500X0.337500X-0.062500X0.337500X-0.062500X-0.337500X0*%
%ADD30R,1.400000X1.700000*%
%ADD31RoundRect,0.250000X-0.325000X-0.650000X0.325000X-0.650000X0.325000X0.650000X-0.325000X0.650000X0*%
%ADD32RoundRect,0.125000X-0.537500X-0.125000X0.537500X-0.125000X0.537500X0.125000X-0.537500X0.125000X0*%
%ADD33RoundRect,0.100000X-0.130000X-0.100000X0.130000X-0.100000X0.130000X0.100000X-0.130000X0.100000X0*%
%ADD34RoundRect,0.150000X0.150000X-0.687500X0.150000X0.687500X-0.150000X0.687500X-0.150000X-0.687500X0*%
%ADD35R,3.300000X2.100000*%
%ADD36RoundRect,0.140000X-0.140000X-0.170000X0.140000X-0.170000X0.140000X0.170000X-0.140000X0.170000X0*%
%ADD37RoundRect,0.112500X-0.187500X-0.112500X0.187500X-0.112500X0.187500X0.112500X-0.187500X0.112500X0*%
%ADD38RoundRect,0.250000X0.600000X1.600000X-0.600000X1.600000X-0.600000X-1.600000X0.600000X-1.600000X0*%
%ADD39RoundRect,0.100000X-0.100000X0.130000X-0.100000X-0.130000X0.100000X-0.130000X0.100000X0.130000X0*%
%ADD40RoundRect,0.087500X-0.250000X-0.087500X0.250000X-0.087500X0.250000X0.087500X-0.250000X0.087500X0*%
%ADD41RoundRect,0.175000X-0.175000X-0.425000X0.175000X-0.425000X0.175000X0.425000X-0.175000X0.425000X0*%
%ADD42RoundRect,0.190000X0.190000X0.410000X-0.190000X0.410000X-0.190000X-0.410000X0.190000X-0.410000X0*%
%ADD43RoundRect,0.200000X0.200000X0.400000X-0.200000X0.400000X-0.200000X-0.400000X0.200000X-0.400000X0*%
%ADD44RoundRect,0.175000X0.175000X0.425000X-0.175000X0.425000X-0.175000X-0.425000X0.175000X-0.425000X0*%
%ADD45RoundRect,0.190000X-0.190000X-0.410000X0.190000X-0.410000X0.190000X0.410000X-0.190000X0.410000X0*%
%ADD46RoundRect,0.200000X-0.200000X-0.400000X0.200000X-0.400000X0.200000X0.400000X-0.200000X0.400000X0*%
%ADD47O,1.100000X1.700000*%
%ADD48RoundRect,0.100000X-0.637500X-0.100000X0.637500X-0.100000X0.637500X0.100000X-0.637500X0.100000X0*%
%ADD49R,1.700000X1.700000*%
%ADD50O,1.700000X1.700000*%
G04 APERTURE END LIST*
D10*
X145472419Y-101896115D02*
X146281942Y-101896115D01*
X146281942Y-101896115D02*
X146377180Y-101848496D01*
X146377180Y-101848496D02*
X146424800Y-101800877D01*
X146424800Y-101800877D02*
X146472419Y-101705639D01*
X146472419Y-101705639D02*
X146472419Y-101515163D01*
X146472419Y-101515163D02*
X146424800Y-101419925D01*
X146424800Y-101419925D02*
X146377180Y-101372306D01*
X146377180Y-101372306D02*
X146281942Y-101324687D01*
X146281942Y-101324687D02*
X145472419Y-101324687D01*
X146377180Y-100277068D02*
X146424800Y-100324687D01*
X146424800Y-100324687D02*
X146472419Y-100467544D01*
X146472419Y-100467544D02*
X146472419Y-100562782D01*
X146472419Y-100562782D02*
X146424800Y-100705639D01*
X146424800Y-100705639D02*
X146329561Y-100800877D01*
X146329561Y-100800877D02*
X146234323Y-100848496D01*
X146234323Y-100848496D02*
X146043847Y-100896115D01*
X146043847Y-100896115D02*
X145900990Y-100896115D01*
X145900990Y-100896115D02*
X145710514Y-100848496D01*
X145710514Y-100848496D02*
X145615276Y-100800877D01*
X145615276Y-100800877D02*
X145520038Y-100705639D01*
X145520038Y-100705639D02*
X145472419Y-100562782D01*
X145472419Y-100562782D02*
X145472419Y-100467544D01*
X145472419Y-100467544D02*
X145520038Y-100324687D01*
X145520038Y-100324687D02*
X145567657Y-100277068D01*
X145472419Y-99991353D02*
X145472419Y-99419925D01*
X146472419Y-99705639D02*
X145472419Y-99705639D01*
X145948609Y-98324686D02*
X145948609Y-97991353D01*
X146472419Y-97848496D02*
X146472419Y-98324686D01*
X146472419Y-98324686D02*
X145472419Y-98324686D01*
X145472419Y-98324686D02*
X145472419Y-97848496D01*
X146424800Y-97467543D02*
X146472419Y-97324686D01*
X146472419Y-97324686D02*
X146472419Y-97086591D01*
X146472419Y-97086591D02*
X146424800Y-96991353D01*
X146424800Y-96991353D02*
X146377180Y-96943734D01*
X146377180Y-96943734D02*
X146281942Y-96896115D01*
X146281942Y-96896115D02*
X146186704Y-96896115D01*
X146186704Y-96896115D02*
X146091466Y-96943734D01*
X146091466Y-96943734D02*
X146043847Y-96991353D01*
X146043847Y-96991353D02*
X145996228Y-97086591D01*
X145996228Y-97086591D02*
X145948609Y-97277067D01*
X145948609Y-97277067D02*
X145900990Y-97372305D01*
X145900990Y-97372305D02*
X145853371Y-97419924D01*
X145853371Y-97419924D02*
X145758133Y-97467543D01*
X145758133Y-97467543D02*
X145662895Y-97467543D01*
X145662895Y-97467543D02*
X145567657Y-97419924D01*
X145567657Y-97419924D02*
X145520038Y-97372305D01*
X145520038Y-97372305D02*
X145472419Y-97277067D01*
X145472419Y-97277067D02*
X145472419Y-97038972D01*
X145472419Y-97038972D02*
X145520038Y-96896115D01*
X145472419Y-96562781D02*
X146472419Y-96324686D01*
X146472419Y-96324686D02*
X145758133Y-96134210D01*
X145758133Y-96134210D02*
X146472419Y-95943734D01*
X146472419Y-95943734D02*
X145472419Y-95705639D01*
X146472419Y-95324686D02*
X145472419Y-95324686D01*
X146472419Y-94753258D02*
X145900990Y-95181829D01*
X145472419Y-94753258D02*
X146043847Y-95324686D01*
X146472419Y-93753258D02*
X145996228Y-94086591D01*
X146472419Y-94324686D02*
X145472419Y-94324686D01*
X145472419Y-94324686D02*
X145472419Y-93943734D01*
X145472419Y-93943734D02*
X145520038Y-93848496D01*
X145520038Y-93848496D02*
X145567657Y-93800877D01*
X145567657Y-93800877D02*
X145662895Y-93753258D01*
X145662895Y-93753258D02*
X145805752Y-93753258D01*
X145805752Y-93753258D02*
X145900990Y-93800877D01*
X145900990Y-93800877D02*
X145948609Y-93848496D01*
X145948609Y-93848496D02*
X145996228Y-93943734D01*
X145996228Y-93943734D02*
X145996228Y-94324686D01*
X146472419Y-93324686D02*
X145472419Y-93324686D01*
X145472419Y-92658020D02*
X145472419Y-92562782D01*
X145472419Y-92562782D02*
X145520038Y-92467544D01*
X145520038Y-92467544D02*
X145567657Y-92419925D01*
X145567657Y-92419925D02*
X145662895Y-92372306D01*
X145662895Y-92372306D02*
X145853371Y-92324687D01*
X145853371Y-92324687D02*
X146091466Y-92324687D01*
X146091466Y-92324687D02*
X146281942Y-92372306D01*
X146281942Y-92372306D02*
X146377180Y-92419925D01*
X146377180Y-92419925D02*
X146424800Y-92467544D01*
X146424800Y-92467544D02*
X146472419Y-92562782D01*
X146472419Y-92562782D02*
X146472419Y-92658020D01*
X146472419Y-92658020D02*
X146424800Y-92753258D01*
X146424800Y-92753258D02*
X146377180Y-92800877D01*
X146377180Y-92800877D02*
X146281942Y-92848496D01*
X146281942Y-92848496D02*
X146091466Y-92896115D01*
X146091466Y-92896115D02*
X145853371Y-92896115D01*
X145853371Y-92896115D02*
X145662895Y-92848496D01*
X145662895Y-92848496D02*
X145567657Y-92800877D01*
X145567657Y-92800877D02*
X145520038Y-92753258D01*
X145520038Y-92753258D02*
X145472419Y-92658020D01*
X145472419Y-91705639D02*
X145472419Y-91610401D01*
X145472419Y-91610401D02*
X145520038Y-91515163D01*
X145520038Y-91515163D02*
X145567657Y-91467544D01*
X145567657Y-91467544D02*
X145662895Y-91419925D01*
X145662895Y-91419925D02*
X145853371Y-91372306D01*
X145853371Y-91372306D02*
X146091466Y-91372306D01*
X146091466Y-91372306D02*
X146281942Y-91419925D01*
X146281942Y-91419925D02*
X146377180Y-91467544D01*
X146377180Y-91467544D02*
X146424800Y-91515163D01*
X146424800Y-91515163D02*
X146472419Y-91610401D01*
X146472419Y-91610401D02*
X146472419Y-91705639D01*
X146472419Y-91705639D02*
X146424800Y-91800877D01*
X146424800Y-91800877D02*
X146377180Y-91848496D01*
X146377180Y-91848496D02*
X146281942Y-91896115D01*
X146281942Y-91896115D02*
X146091466Y-91943734D01*
X146091466Y-91943734D02*
X145853371Y-91943734D01*
X145853371Y-91943734D02*
X145662895Y-91896115D01*
X145662895Y-91896115D02*
X145567657Y-91848496D01*
X145567657Y-91848496D02*
X145520038Y-91800877D01*
X145520038Y-91800877D02*
X145472419Y-91705639D01*
X146472419Y-90419925D02*
X146472419Y-90991353D01*
X146472419Y-90705639D02*
X145472419Y-90705639D01*
X145472419Y-90705639D02*
X145615276Y-90800877D01*
X145615276Y-90800877D02*
X145710514Y-90896115D01*
X145710514Y-90896115D02*
X145758133Y-90991353D01*
X145948609Y-88896115D02*
X145996228Y-88753258D01*
X145996228Y-88753258D02*
X146043847Y-88705639D01*
X146043847Y-88705639D02*
X146139085Y-88658020D01*
X146139085Y-88658020D02*
X146281942Y-88658020D01*
X146281942Y-88658020D02*
X146377180Y-88705639D01*
X146377180Y-88705639D02*
X146424800Y-88753258D01*
X146424800Y-88753258D02*
X146472419Y-88848496D01*
X146472419Y-88848496D02*
X146472419Y-89229448D01*
X146472419Y-89229448D02*
X145472419Y-89229448D01*
X145472419Y-89229448D02*
X145472419Y-88896115D01*
X145472419Y-88896115D02*
X145520038Y-88800877D01*
X145520038Y-88800877D02*
X145567657Y-88753258D01*
X145567657Y-88753258D02*
X145662895Y-88705639D01*
X145662895Y-88705639D02*
X145758133Y-88705639D01*
X145758133Y-88705639D02*
X145853371Y-88753258D01*
X145853371Y-88753258D02*
X145900990Y-88800877D01*
X145900990Y-88800877D02*
X145948609Y-88896115D01*
X145948609Y-88896115D02*
X145948609Y-89229448D01*
X146472419Y-88229448D02*
X145472419Y-88229448D01*
X145948609Y-88229448D02*
X145948609Y-87658020D01*
X146472419Y-87658020D02*
X145472419Y-87658020D01*
X145472419Y-87277067D02*
X146472419Y-87038972D01*
X146472419Y-87038972D02*
X145758133Y-86848496D01*
X145758133Y-86848496D02*
X146472419Y-86658020D01*
X146472419Y-86658020D02*
X145472419Y-86419925D01*
X146472419Y-86038972D02*
X145472419Y-86038972D01*
X146472419Y-85467544D02*
X145900990Y-85896115D01*
X145472419Y-85467544D02*
X146043847Y-86038972D01*
X146186704Y-85086591D02*
X146186704Y-84610401D01*
X146472419Y-85181829D02*
X145472419Y-84848496D01*
X145472419Y-84848496D02*
X146472419Y-84515163D01*
X145472419Y-84181829D02*
X146281942Y-84181829D01*
X146281942Y-84181829D02*
X146377180Y-84134210D01*
X146377180Y-84134210D02*
X146424800Y-84086591D01*
X146424800Y-84086591D02*
X146472419Y-83991353D01*
X146472419Y-83991353D02*
X146472419Y-83800877D01*
X146472419Y-83800877D02*
X146424800Y-83705639D01*
X146424800Y-83705639D02*
X146377180Y-83658020D01*
X146377180Y-83658020D02*
X146281942Y-83610401D01*
X146281942Y-83610401D02*
X145472419Y-83610401D01*
X145472419Y-82943734D02*
X145472419Y-82848496D01*
X145472419Y-82848496D02*
X145520038Y-82753258D01*
X145520038Y-82753258D02*
X145567657Y-82705639D01*
X145567657Y-82705639D02*
X145662895Y-82658020D01*
X145662895Y-82658020D02*
X145853371Y-82610401D01*
X145853371Y-82610401D02*
X146091466Y-82610401D01*
X146091466Y-82610401D02*
X146281942Y-82658020D01*
X146281942Y-82658020D02*
X146377180Y-82705639D01*
X146377180Y-82705639D02*
X146424800Y-82753258D01*
X146424800Y-82753258D02*
X146472419Y-82848496D01*
X146472419Y-82848496D02*
X146472419Y-82943734D01*
X146472419Y-82943734D02*
X146424800Y-83038972D01*
X146424800Y-83038972D02*
X146377180Y-83086591D01*
X146377180Y-83086591D02*
X146281942Y-83134210D01*
X146281942Y-83134210D02*
X146091466Y-83181829D01*
X146091466Y-83181829D02*
X145853371Y-83181829D01*
X145853371Y-83181829D02*
X145662895Y-83134210D01*
X145662895Y-83134210D02*
X145567657Y-83086591D01*
X145567657Y-83086591D02*
X145520038Y-83038972D01*
X145520038Y-83038972D02*
X145472419Y-82943734D01*
X145472419Y-81991353D02*
X145472419Y-81896115D01*
X145472419Y-81896115D02*
X145520038Y-81800877D01*
X145520038Y-81800877D02*
X145567657Y-81753258D01*
X145567657Y-81753258D02*
X145662895Y-81705639D01*
X145662895Y-81705639D02*
X145853371Y-81658020D01*
X145853371Y-81658020D02*
X146091466Y-81658020D01*
X146091466Y-81658020D02*
X146281942Y-81705639D01*
X146281942Y-81705639D02*
X146377180Y-81753258D01*
X146377180Y-81753258D02*
X146424800Y-81800877D01*
X146424800Y-81800877D02*
X146472419Y-81896115D01*
X146472419Y-81896115D02*
X146472419Y-81991353D01*
X146472419Y-81991353D02*
X146424800Y-82086591D01*
X146424800Y-82086591D02*
X146377180Y-82134210D01*
X146377180Y-82134210D02*
X146281942Y-82181829D01*
X146281942Y-82181829D02*
X146091466Y-82229448D01*
X146091466Y-82229448D02*
X145853371Y-82229448D01*
X145853371Y-82229448D02*
X145662895Y-82181829D01*
X145662895Y-82181829D02*
X145567657Y-82134210D01*
X145567657Y-82134210D02*
X145520038Y-82086591D01*
X145520038Y-82086591D02*
X145472419Y-81991353D01*
X146472419Y-80705639D02*
X146472419Y-81277067D01*
X146472419Y-80991353D02*
X145472419Y-80991353D01*
X145472419Y-80991353D02*
X145615276Y-81086591D01*
X145615276Y-81086591D02*
X145710514Y-81181829D01*
X145710514Y-81181829D02*
X145758133Y-81277067D01*
X145520038Y-78991353D02*
X145472419Y-79086591D01*
X145472419Y-79086591D02*
X145472419Y-79229448D01*
X145472419Y-79229448D02*
X145520038Y-79372305D01*
X145520038Y-79372305D02*
X145615276Y-79467543D01*
X145615276Y-79467543D02*
X145710514Y-79515162D01*
X145710514Y-79515162D02*
X145900990Y-79562781D01*
X145900990Y-79562781D02*
X146043847Y-79562781D01*
X146043847Y-79562781D02*
X146234323Y-79515162D01*
X146234323Y-79515162D02*
X146329561Y-79467543D01*
X146329561Y-79467543D02*
X146424800Y-79372305D01*
X146424800Y-79372305D02*
X146472419Y-79229448D01*
X146472419Y-79229448D02*
X146472419Y-79134210D01*
X146472419Y-79134210D02*
X146424800Y-78991353D01*
X146424800Y-78991353D02*
X146377180Y-78943734D01*
X146377180Y-78943734D02*
X146043847Y-78943734D01*
X146043847Y-78943734D02*
X146043847Y-79134210D01*
X146472419Y-77943734D02*
X145996228Y-78277067D01*
X146472419Y-78515162D02*
X145472419Y-78515162D01*
X145472419Y-78515162D02*
X145472419Y-78134210D01*
X145472419Y-78134210D02*
X145520038Y-78038972D01*
X145520038Y-78038972D02*
X145567657Y-77991353D01*
X145567657Y-77991353D02*
X145662895Y-77943734D01*
X145662895Y-77943734D02*
X145805752Y-77943734D01*
X145805752Y-77943734D02*
X145900990Y-77991353D01*
X145900990Y-77991353D02*
X145948609Y-78038972D01*
X145948609Y-78038972D02*
X145996228Y-78134210D01*
X145996228Y-78134210D02*
X145996228Y-78515162D01*
X146472419Y-77515162D02*
X145472419Y-77515162D01*
X145472419Y-77515162D02*
X145472419Y-77134210D01*
X145472419Y-77134210D02*
X145520038Y-77038972D01*
X145520038Y-77038972D02*
X145567657Y-76991353D01*
X145567657Y-76991353D02*
X145662895Y-76943734D01*
X145662895Y-76943734D02*
X145805752Y-76943734D01*
X145805752Y-76943734D02*
X145900990Y-76991353D01*
X145900990Y-76991353D02*
X145948609Y-77038972D01*
X145948609Y-77038972D02*
X145996228Y-77134210D01*
X145996228Y-77134210D02*
X145996228Y-77515162D01*
X145805752Y-76086591D02*
X146472419Y-76086591D01*
X145424800Y-76324686D02*
X146139085Y-76562781D01*
X146139085Y-76562781D02*
X146139085Y-75943734D01*
X145472419Y-75658019D02*
X145472419Y-74991353D01*
X145472419Y-74991353D02*
X146472419Y-75419924D01*
X149703884Y-68672419D02*
X149703884Y-68005752D01*
X149703884Y-68100990D02*
X149751503Y-68053371D01*
X149751503Y-68053371D02*
X149846741Y-68005752D01*
X149846741Y-68005752D02*
X149989598Y-68005752D01*
X149989598Y-68005752D02*
X150084836Y-68053371D01*
X150084836Y-68053371D02*
X150132455Y-68148609D01*
X150132455Y-68148609D02*
X150132455Y-68672419D01*
X150132455Y-68148609D02*
X150180074Y-68053371D01*
X150180074Y-68053371D02*
X150275312Y-68005752D01*
X150275312Y-68005752D02*
X150418169Y-68005752D01*
X150418169Y-68005752D02*
X150513408Y-68053371D01*
X150513408Y-68053371D02*
X150561027Y-68148609D01*
X150561027Y-68148609D02*
X150561027Y-68672419D01*
X151418169Y-68624800D02*
X151322931Y-68672419D01*
X151322931Y-68672419D02*
X151132455Y-68672419D01*
X151132455Y-68672419D02*
X151037217Y-68624800D01*
X151037217Y-68624800D02*
X150989598Y-68529561D01*
X150989598Y-68529561D02*
X150989598Y-68148609D01*
X150989598Y-68148609D02*
X151037217Y-68053371D01*
X151037217Y-68053371D02*
X151132455Y-68005752D01*
X151132455Y-68005752D02*
X151322931Y-68005752D01*
X151322931Y-68005752D02*
X151418169Y-68053371D01*
X151418169Y-68053371D02*
X151465788Y-68148609D01*
X151465788Y-68148609D02*
X151465788Y-68243847D01*
X151465788Y-68243847D02*
X150989598Y-68339085D01*
X152037217Y-68672419D02*
X151941979Y-68624800D01*
X151941979Y-68624800D02*
X151894360Y-68577180D01*
X151894360Y-68577180D02*
X151846741Y-68481942D01*
X151846741Y-68481942D02*
X151846741Y-68196228D01*
X151846741Y-68196228D02*
X151894360Y-68100990D01*
X151894360Y-68100990D02*
X151941979Y-68053371D01*
X151941979Y-68053371D02*
X152037217Y-68005752D01*
X152037217Y-68005752D02*
X152180074Y-68005752D01*
X152180074Y-68005752D02*
X152275312Y-68053371D01*
X152275312Y-68053371D02*
X152322931Y-68100990D01*
X152322931Y-68100990D02*
X152370550Y-68196228D01*
X152370550Y-68196228D02*
X152370550Y-68481942D01*
X152370550Y-68481942D02*
X152322931Y-68577180D01*
X152322931Y-68577180D02*
X152275312Y-68624800D01*
X152275312Y-68624800D02*
X152180074Y-68672419D01*
X152180074Y-68672419D02*
X152037217Y-68672419D01*
X152703884Y-68005752D02*
X152894360Y-68672419D01*
X152894360Y-68672419D02*
X153084836Y-68196228D01*
X153084836Y-68196228D02*
X153275312Y-68672419D01*
X153275312Y-68672419D02*
X153465788Y-68005752D01*
D11*
X166833333Y-72679580D02*
X166785714Y-72727200D01*
X166785714Y-72727200D02*
X166642857Y-72774819D01*
X166642857Y-72774819D02*
X166547619Y-72774819D01*
X166547619Y-72774819D02*
X166404762Y-72727200D01*
X166404762Y-72727200D02*
X166309524Y-72631961D01*
X166309524Y-72631961D02*
X166261905Y-72536723D01*
X166261905Y-72536723D02*
X166214286Y-72346247D01*
X166214286Y-72346247D02*
X166214286Y-72203390D01*
X166214286Y-72203390D02*
X166261905Y-72012914D01*
X166261905Y-72012914D02*
X166309524Y-71917676D01*
X166309524Y-71917676D02*
X166404762Y-71822438D01*
X166404762Y-71822438D02*
X166547619Y-71774819D01*
X166547619Y-71774819D02*
X166642857Y-71774819D01*
X166642857Y-71774819D02*
X166785714Y-71822438D01*
X166785714Y-71822438D02*
X166833333Y-71870057D01*
X167690476Y-71774819D02*
X167500000Y-71774819D01*
X167500000Y-71774819D02*
X167404762Y-71822438D01*
X167404762Y-71822438D02*
X167357143Y-71870057D01*
X167357143Y-71870057D02*
X167261905Y-72012914D01*
X167261905Y-72012914D02*
X167214286Y-72203390D01*
X167214286Y-72203390D02*
X167214286Y-72584342D01*
X167214286Y-72584342D02*
X167261905Y-72679580D01*
X167261905Y-72679580D02*
X167309524Y-72727200D01*
X167309524Y-72727200D02*
X167404762Y-72774819D01*
X167404762Y-72774819D02*
X167595238Y-72774819D01*
X167595238Y-72774819D02*
X167690476Y-72727200D01*
X167690476Y-72727200D02*
X167738095Y-72679580D01*
X167738095Y-72679580D02*
X167785714Y-72584342D01*
X167785714Y-72584342D02*
X167785714Y-72346247D01*
X167785714Y-72346247D02*
X167738095Y-72251009D01*
X167738095Y-72251009D02*
X167690476Y-72203390D01*
X167690476Y-72203390D02*
X167595238Y-72155771D01*
X167595238Y-72155771D02*
X167404762Y-72155771D01*
X167404762Y-72155771D02*
X167309524Y-72203390D01*
X167309524Y-72203390D02*
X167261905Y-72251009D01*
X167261905Y-72251009D02*
X167214286Y-72346247D01*
X190694642Y-95804819D02*
X190361309Y-95328628D01*
X190123214Y-95804819D02*
X190123214Y-94804819D01*
X190123214Y-94804819D02*
X190504166Y-94804819D01*
X190504166Y-94804819D02*
X190599404Y-94852438D01*
X190599404Y-94852438D02*
X190647023Y-94900057D01*
X190647023Y-94900057D02*
X190694642Y-94995295D01*
X190694642Y-94995295D02*
X190694642Y-95138152D01*
X190694642Y-95138152D02*
X190647023Y-95233390D01*
X190647023Y-95233390D02*
X190599404Y-95281009D01*
X190599404Y-95281009D02*
X190504166Y-95328628D01*
X190504166Y-95328628D02*
X190123214Y-95328628D01*
X191647023Y-95804819D02*
X191075595Y-95804819D01*
X191361309Y-95804819D02*
X191361309Y-94804819D01*
X191361309Y-94804819D02*
X191266071Y-94947676D01*
X191266071Y-94947676D02*
X191170833Y-95042914D01*
X191170833Y-95042914D02*
X191075595Y-95090533D01*
X192551785Y-94804819D02*
X192075595Y-94804819D01*
X192075595Y-94804819D02*
X192027976Y-95281009D01*
X192027976Y-95281009D02*
X192075595Y-95233390D01*
X192075595Y-95233390D02*
X192170833Y-95185771D01*
X192170833Y-95185771D02*
X192408928Y-95185771D01*
X192408928Y-95185771D02*
X192504166Y-95233390D01*
X192504166Y-95233390D02*
X192551785Y-95281009D01*
X192551785Y-95281009D02*
X192599404Y-95376247D01*
X192599404Y-95376247D02*
X192599404Y-95614342D01*
X192599404Y-95614342D02*
X192551785Y-95709580D01*
X192551785Y-95709580D02*
X192504166Y-95757200D01*
X192504166Y-95757200D02*
X192408928Y-95804819D01*
X192408928Y-95804819D02*
X192170833Y-95804819D01*
X192170833Y-95804819D02*
X192075595Y-95757200D01*
X192075595Y-95757200D02*
X192027976Y-95709580D01*
X160738095Y-68454819D02*
X160738095Y-69264342D01*
X160738095Y-69264342D02*
X160785714Y-69359580D01*
X160785714Y-69359580D02*
X160833333Y-69407200D01*
X160833333Y-69407200D02*
X160928571Y-69454819D01*
X160928571Y-69454819D02*
X161119047Y-69454819D01*
X161119047Y-69454819D02*
X161214285Y-69407200D01*
X161214285Y-69407200D02*
X161261904Y-69359580D01*
X161261904Y-69359580D02*
X161309523Y-69264342D01*
X161309523Y-69264342D02*
X161309523Y-68454819D01*
X162261904Y-68454819D02*
X161785714Y-68454819D01*
X161785714Y-68454819D02*
X161738095Y-68931009D01*
X161738095Y-68931009D02*
X161785714Y-68883390D01*
X161785714Y-68883390D02*
X161880952Y-68835771D01*
X161880952Y-68835771D02*
X162119047Y-68835771D01*
X162119047Y-68835771D02*
X162214285Y-68883390D01*
X162214285Y-68883390D02*
X162261904Y-68931009D01*
X162261904Y-68931009D02*
X162309523Y-69026247D01*
X162309523Y-69026247D02*
X162309523Y-69264342D01*
X162309523Y-69264342D02*
X162261904Y-69359580D01*
X162261904Y-69359580D02*
X162214285Y-69407200D01*
X162214285Y-69407200D02*
X162119047Y-69454819D01*
X162119047Y-69454819D02*
X161880952Y-69454819D01*
X161880952Y-69454819D02*
X161785714Y-69407200D01*
X161785714Y-69407200D02*
X161738095Y-69359580D01*
X151661905Y-112806819D02*
X152233333Y-112806819D01*
X151947619Y-113806819D02*
X151947619Y-112806819D01*
X152566667Y-113806819D02*
X152566667Y-112806819D01*
X152566667Y-112806819D02*
X152947619Y-112806819D01*
X152947619Y-112806819D02*
X153042857Y-112854438D01*
X153042857Y-112854438D02*
X153090476Y-112902057D01*
X153090476Y-112902057D02*
X153138095Y-112997295D01*
X153138095Y-112997295D02*
X153138095Y-113140152D01*
X153138095Y-113140152D02*
X153090476Y-113235390D01*
X153090476Y-113235390D02*
X153042857Y-113283009D01*
X153042857Y-113283009D02*
X152947619Y-113330628D01*
X152947619Y-113330628D02*
X152566667Y-113330628D01*
X154090476Y-113806819D02*
X153519048Y-113806819D01*
X153804762Y-113806819D02*
X153804762Y-112806819D01*
X153804762Y-112806819D02*
X153709524Y-112949676D01*
X153709524Y-112949676D02*
X153614286Y-113044914D01*
X153614286Y-113044914D02*
X153519048Y-113092533D01*
X154709524Y-112806819D02*
X154804762Y-112806819D01*
X154804762Y-112806819D02*
X154900000Y-112854438D01*
X154900000Y-112854438D02*
X154947619Y-112902057D01*
X154947619Y-112902057D02*
X154995238Y-112997295D01*
X154995238Y-112997295D02*
X155042857Y-113187771D01*
X155042857Y-113187771D02*
X155042857Y-113425866D01*
X155042857Y-113425866D02*
X154995238Y-113616342D01*
X154995238Y-113616342D02*
X154947619Y-113711580D01*
X154947619Y-113711580D02*
X154900000Y-113759200D01*
X154900000Y-113759200D02*
X154804762Y-113806819D01*
X154804762Y-113806819D02*
X154709524Y-113806819D01*
X154709524Y-113806819D02*
X154614286Y-113759200D01*
X154614286Y-113759200D02*
X154566667Y-113711580D01*
X154566667Y-113711580D02*
X154519048Y-113616342D01*
X154519048Y-113616342D02*
X154471429Y-113425866D01*
X154471429Y-113425866D02*
X154471429Y-113187771D01*
X154471429Y-113187771D02*
X154519048Y-112997295D01*
X154519048Y-112997295D02*
X154566667Y-112902057D01*
X154566667Y-112902057D02*
X154614286Y-112854438D01*
X154614286Y-112854438D02*
X154709524Y-112806819D01*
X156038142Y-91261819D02*
X155704809Y-90785628D01*
X155466714Y-91261819D02*
X155466714Y-90261819D01*
X155466714Y-90261819D02*
X155847666Y-90261819D01*
X155847666Y-90261819D02*
X155942904Y-90309438D01*
X155942904Y-90309438D02*
X155990523Y-90357057D01*
X155990523Y-90357057D02*
X156038142Y-90452295D01*
X156038142Y-90452295D02*
X156038142Y-90595152D01*
X156038142Y-90595152D02*
X155990523Y-90690390D01*
X155990523Y-90690390D02*
X155942904Y-90738009D01*
X155942904Y-90738009D02*
X155847666Y-90785628D01*
X155847666Y-90785628D02*
X155466714Y-90785628D01*
X156895285Y-90595152D02*
X156895285Y-91261819D01*
X156657190Y-90214200D02*
X156419095Y-90928485D01*
X156419095Y-90928485D02*
X157038142Y-90928485D01*
X157609571Y-90261819D02*
X157704809Y-90261819D01*
X157704809Y-90261819D02*
X157800047Y-90309438D01*
X157800047Y-90309438D02*
X157847666Y-90357057D01*
X157847666Y-90357057D02*
X157895285Y-90452295D01*
X157895285Y-90452295D02*
X157942904Y-90642771D01*
X157942904Y-90642771D02*
X157942904Y-90880866D01*
X157942904Y-90880866D02*
X157895285Y-91071342D01*
X157895285Y-91071342D02*
X157847666Y-91166580D01*
X157847666Y-91166580D02*
X157800047Y-91214200D01*
X157800047Y-91214200D02*
X157704809Y-91261819D01*
X157704809Y-91261819D02*
X157609571Y-91261819D01*
X157609571Y-91261819D02*
X157514333Y-91214200D01*
X157514333Y-91214200D02*
X157466714Y-91166580D01*
X157466714Y-91166580D02*
X157419095Y-91071342D01*
X157419095Y-91071342D02*
X157371476Y-90880866D01*
X157371476Y-90880866D02*
X157371476Y-90642771D01*
X157371476Y-90642771D02*
X157419095Y-90452295D01*
X157419095Y-90452295D02*
X157466714Y-90357057D01*
X157466714Y-90357057D02*
X157514333Y-90309438D01*
X157514333Y-90309438D02*
X157609571Y-90261819D01*
X162688095Y-64956819D02*
X163259523Y-64956819D01*
X162973809Y-65956819D02*
X162973809Y-64956819D01*
X163592857Y-65956819D02*
X163592857Y-64956819D01*
X163592857Y-64956819D02*
X163973809Y-64956819D01*
X163973809Y-64956819D02*
X164069047Y-65004438D01*
X164069047Y-65004438D02*
X164116666Y-65052057D01*
X164116666Y-65052057D02*
X164164285Y-65147295D01*
X164164285Y-65147295D02*
X164164285Y-65290152D01*
X164164285Y-65290152D02*
X164116666Y-65385390D01*
X164116666Y-65385390D02*
X164069047Y-65433009D01*
X164069047Y-65433009D02*
X163973809Y-65480628D01*
X163973809Y-65480628D02*
X163592857Y-65480628D01*
X164545238Y-65052057D02*
X164592857Y-65004438D01*
X164592857Y-65004438D02*
X164688095Y-64956819D01*
X164688095Y-64956819D02*
X164926190Y-64956819D01*
X164926190Y-64956819D02*
X165021428Y-65004438D01*
X165021428Y-65004438D02*
X165069047Y-65052057D01*
X165069047Y-65052057D02*
X165116666Y-65147295D01*
X165116666Y-65147295D02*
X165116666Y-65242533D01*
X165116666Y-65242533D02*
X165069047Y-65385390D01*
X165069047Y-65385390D02*
X164497619Y-65956819D01*
X164497619Y-65956819D02*
X165116666Y-65956819D01*
X173795833Y-83634819D02*
X173462500Y-83158628D01*
X173224405Y-83634819D02*
X173224405Y-82634819D01*
X173224405Y-82634819D02*
X173605357Y-82634819D01*
X173605357Y-82634819D02*
X173700595Y-82682438D01*
X173700595Y-82682438D02*
X173748214Y-82730057D01*
X173748214Y-82730057D02*
X173795833Y-82825295D01*
X173795833Y-82825295D02*
X173795833Y-82968152D01*
X173795833Y-82968152D02*
X173748214Y-83063390D01*
X173748214Y-83063390D02*
X173700595Y-83111009D01*
X173700595Y-83111009D02*
X173605357Y-83158628D01*
X173605357Y-83158628D02*
X173224405Y-83158628D01*
X174129167Y-82634819D02*
X174748214Y-82634819D01*
X174748214Y-82634819D02*
X174414881Y-83015771D01*
X174414881Y-83015771D02*
X174557738Y-83015771D01*
X174557738Y-83015771D02*
X174652976Y-83063390D01*
X174652976Y-83063390D02*
X174700595Y-83111009D01*
X174700595Y-83111009D02*
X174748214Y-83206247D01*
X174748214Y-83206247D02*
X174748214Y-83444342D01*
X174748214Y-83444342D02*
X174700595Y-83539580D01*
X174700595Y-83539580D02*
X174652976Y-83587200D01*
X174652976Y-83587200D02*
X174557738Y-83634819D01*
X174557738Y-83634819D02*
X174272024Y-83634819D01*
X174272024Y-83634819D02*
X174176786Y-83587200D01*
X174176786Y-83587200D02*
X174129167Y-83539580D01*
X191338095Y-112406819D02*
X191909523Y-112406819D01*
X191623809Y-113406819D02*
X191623809Y-112406819D01*
X192242857Y-113406819D02*
X192242857Y-112406819D01*
X192242857Y-112406819D02*
X192623809Y-112406819D01*
X192623809Y-112406819D02*
X192719047Y-112454438D01*
X192719047Y-112454438D02*
X192766666Y-112502057D01*
X192766666Y-112502057D02*
X192814285Y-112597295D01*
X192814285Y-112597295D02*
X192814285Y-112740152D01*
X192814285Y-112740152D02*
X192766666Y-112835390D01*
X192766666Y-112835390D02*
X192719047Y-112883009D01*
X192719047Y-112883009D02*
X192623809Y-112930628D01*
X192623809Y-112930628D02*
X192242857Y-112930628D01*
X193671428Y-112740152D02*
X193671428Y-113406819D01*
X193433333Y-112359200D02*
X193195238Y-113073485D01*
X193195238Y-113073485D02*
X193814285Y-113073485D01*
X186376642Y-95931819D02*
X186043309Y-95455628D01*
X185805214Y-95931819D02*
X185805214Y-94931819D01*
X185805214Y-94931819D02*
X186186166Y-94931819D01*
X186186166Y-94931819D02*
X186281404Y-94979438D01*
X186281404Y-94979438D02*
X186329023Y-95027057D01*
X186329023Y-95027057D02*
X186376642Y-95122295D01*
X186376642Y-95122295D02*
X186376642Y-95265152D01*
X186376642Y-95265152D02*
X186329023Y-95360390D01*
X186329023Y-95360390D02*
X186281404Y-95408009D01*
X186281404Y-95408009D02*
X186186166Y-95455628D01*
X186186166Y-95455628D02*
X185805214Y-95455628D01*
X187329023Y-95931819D02*
X186757595Y-95931819D01*
X187043309Y-95931819D02*
X187043309Y-94931819D01*
X187043309Y-94931819D02*
X186948071Y-95074676D01*
X186948071Y-95074676D02*
X186852833Y-95169914D01*
X186852833Y-95169914D02*
X186757595Y-95217533D01*
X188186166Y-94931819D02*
X187995690Y-94931819D01*
X187995690Y-94931819D02*
X187900452Y-94979438D01*
X187900452Y-94979438D02*
X187852833Y-95027057D01*
X187852833Y-95027057D02*
X187757595Y-95169914D01*
X187757595Y-95169914D02*
X187709976Y-95360390D01*
X187709976Y-95360390D02*
X187709976Y-95741342D01*
X187709976Y-95741342D02*
X187757595Y-95836580D01*
X187757595Y-95836580D02*
X187805214Y-95884200D01*
X187805214Y-95884200D02*
X187900452Y-95931819D01*
X187900452Y-95931819D02*
X188090928Y-95931819D01*
X188090928Y-95931819D02*
X188186166Y-95884200D01*
X188186166Y-95884200D02*
X188233785Y-95836580D01*
X188233785Y-95836580D02*
X188281404Y-95741342D01*
X188281404Y-95741342D02*
X188281404Y-95503247D01*
X188281404Y-95503247D02*
X188233785Y-95408009D01*
X188233785Y-95408009D02*
X188186166Y-95360390D01*
X188186166Y-95360390D02*
X188090928Y-95312771D01*
X188090928Y-95312771D02*
X187900452Y-95312771D01*
X187900452Y-95312771D02*
X187805214Y-95360390D01*
X187805214Y-95360390D02*
X187757595Y-95408009D01*
X187757595Y-95408009D02*
X187709976Y-95503247D01*
X166883333Y-69179580D02*
X166835714Y-69227200D01*
X166835714Y-69227200D02*
X166692857Y-69274819D01*
X166692857Y-69274819D02*
X166597619Y-69274819D01*
X166597619Y-69274819D02*
X166454762Y-69227200D01*
X166454762Y-69227200D02*
X166359524Y-69131961D01*
X166359524Y-69131961D02*
X166311905Y-69036723D01*
X166311905Y-69036723D02*
X166264286Y-68846247D01*
X166264286Y-68846247D02*
X166264286Y-68703390D01*
X166264286Y-68703390D02*
X166311905Y-68512914D01*
X166311905Y-68512914D02*
X166359524Y-68417676D01*
X166359524Y-68417676D02*
X166454762Y-68322438D01*
X166454762Y-68322438D02*
X166597619Y-68274819D01*
X166597619Y-68274819D02*
X166692857Y-68274819D01*
X166692857Y-68274819D02*
X166835714Y-68322438D01*
X166835714Y-68322438D02*
X166883333Y-68370057D01*
X167216667Y-68274819D02*
X167883333Y-68274819D01*
X167883333Y-68274819D02*
X167454762Y-69274819D01*
X171357142Y-73634819D02*
X171023809Y-73158628D01*
X170785714Y-73634819D02*
X170785714Y-72634819D01*
X170785714Y-72634819D02*
X171166666Y-72634819D01*
X171166666Y-72634819D02*
X171261904Y-72682438D01*
X171261904Y-72682438D02*
X171309523Y-72730057D01*
X171309523Y-72730057D02*
X171357142Y-72825295D01*
X171357142Y-72825295D02*
X171357142Y-72968152D01*
X171357142Y-72968152D02*
X171309523Y-73063390D01*
X171309523Y-73063390D02*
X171261904Y-73111009D01*
X171261904Y-73111009D02*
X171166666Y-73158628D01*
X171166666Y-73158628D02*
X170785714Y-73158628D01*
X171738095Y-72730057D02*
X171785714Y-72682438D01*
X171785714Y-72682438D02*
X171880952Y-72634819D01*
X171880952Y-72634819D02*
X172119047Y-72634819D01*
X172119047Y-72634819D02*
X172214285Y-72682438D01*
X172214285Y-72682438D02*
X172261904Y-72730057D01*
X172261904Y-72730057D02*
X172309523Y-72825295D01*
X172309523Y-72825295D02*
X172309523Y-72920533D01*
X172309523Y-72920533D02*
X172261904Y-73063390D01*
X172261904Y-73063390D02*
X171690476Y-73634819D01*
X171690476Y-73634819D02*
X172309523Y-73634819D01*
X172642857Y-72634819D02*
X173309523Y-72634819D01*
X173309523Y-72634819D02*
X172880952Y-73634819D01*
X190883333Y-77079580D02*
X190835714Y-77127200D01*
X190835714Y-77127200D02*
X190692857Y-77174819D01*
X190692857Y-77174819D02*
X190597619Y-77174819D01*
X190597619Y-77174819D02*
X190454762Y-77127200D01*
X190454762Y-77127200D02*
X190359524Y-77031961D01*
X190359524Y-77031961D02*
X190311905Y-76936723D01*
X190311905Y-76936723D02*
X190264286Y-76746247D01*
X190264286Y-76746247D02*
X190264286Y-76603390D01*
X190264286Y-76603390D02*
X190311905Y-76412914D01*
X190311905Y-76412914D02*
X190359524Y-76317676D01*
X190359524Y-76317676D02*
X190454762Y-76222438D01*
X190454762Y-76222438D02*
X190597619Y-76174819D01*
X190597619Y-76174819D02*
X190692857Y-76174819D01*
X190692857Y-76174819D02*
X190835714Y-76222438D01*
X190835714Y-76222438D02*
X190883333Y-76270057D01*
X191835714Y-77174819D02*
X191264286Y-77174819D01*
X191550000Y-77174819D02*
X191550000Y-76174819D01*
X191550000Y-76174819D02*
X191454762Y-76317676D01*
X191454762Y-76317676D02*
X191359524Y-76412914D01*
X191359524Y-76412914D02*
X191264286Y-76460533D01*
X198290057Y-93635238D02*
X198242438Y-93730476D01*
X198242438Y-93730476D02*
X198147200Y-93825714D01*
X198147200Y-93825714D02*
X198004342Y-93968571D01*
X198004342Y-93968571D02*
X197956723Y-94063809D01*
X197956723Y-94063809D02*
X197956723Y-94159047D01*
X198194819Y-94111428D02*
X198147200Y-94206666D01*
X198147200Y-94206666D02*
X198051961Y-94301904D01*
X198051961Y-94301904D02*
X197861485Y-94349523D01*
X197861485Y-94349523D02*
X197528152Y-94349523D01*
X197528152Y-94349523D02*
X197337676Y-94301904D01*
X197337676Y-94301904D02*
X197242438Y-94206666D01*
X197242438Y-94206666D02*
X197194819Y-94111428D01*
X197194819Y-94111428D02*
X197194819Y-93920952D01*
X197194819Y-93920952D02*
X197242438Y-93825714D01*
X197242438Y-93825714D02*
X197337676Y-93730476D01*
X197337676Y-93730476D02*
X197528152Y-93682857D01*
X197528152Y-93682857D02*
X197861485Y-93682857D01*
X197861485Y-93682857D02*
X198051961Y-93730476D01*
X198051961Y-93730476D02*
X198147200Y-93825714D01*
X198147200Y-93825714D02*
X198194819Y-93920952D01*
X198194819Y-93920952D02*
X198194819Y-94111428D01*
X197194819Y-93349523D02*
X197194819Y-92730476D01*
X197194819Y-92730476D02*
X197575771Y-93063809D01*
X197575771Y-93063809D02*
X197575771Y-92920952D01*
X197575771Y-92920952D02*
X197623390Y-92825714D01*
X197623390Y-92825714D02*
X197671009Y-92778095D01*
X197671009Y-92778095D02*
X197766247Y-92730476D01*
X197766247Y-92730476D02*
X198004342Y-92730476D01*
X198004342Y-92730476D02*
X198099580Y-92778095D01*
X198099580Y-92778095D02*
X198147200Y-92825714D01*
X198147200Y-92825714D02*
X198194819Y-92920952D01*
X198194819Y-92920952D02*
X198194819Y-93206666D01*
X198194819Y-93206666D02*
X198147200Y-93301904D01*
X198147200Y-93301904D02*
X198099580Y-93349523D01*
X156038142Y-94055819D02*
X155704809Y-93579628D01*
X155466714Y-94055819D02*
X155466714Y-93055819D01*
X155466714Y-93055819D02*
X155847666Y-93055819D01*
X155847666Y-93055819D02*
X155942904Y-93103438D01*
X155942904Y-93103438D02*
X155990523Y-93151057D01*
X155990523Y-93151057D02*
X156038142Y-93246295D01*
X156038142Y-93246295D02*
X156038142Y-93389152D01*
X156038142Y-93389152D02*
X155990523Y-93484390D01*
X155990523Y-93484390D02*
X155942904Y-93532009D01*
X155942904Y-93532009D02*
X155847666Y-93579628D01*
X155847666Y-93579628D02*
X155466714Y-93579628D01*
X156990523Y-94055819D02*
X156419095Y-94055819D01*
X156704809Y-94055819D02*
X156704809Y-93055819D01*
X156704809Y-93055819D02*
X156609571Y-93198676D01*
X156609571Y-93198676D02*
X156514333Y-93293914D01*
X156514333Y-93293914D02*
X156419095Y-93341533D01*
X157371476Y-93151057D02*
X157419095Y-93103438D01*
X157419095Y-93103438D02*
X157514333Y-93055819D01*
X157514333Y-93055819D02*
X157752428Y-93055819D01*
X157752428Y-93055819D02*
X157847666Y-93103438D01*
X157847666Y-93103438D02*
X157895285Y-93151057D01*
X157895285Y-93151057D02*
X157942904Y-93246295D01*
X157942904Y-93246295D02*
X157942904Y-93341533D01*
X157942904Y-93341533D02*
X157895285Y-93484390D01*
X157895285Y-93484390D02*
X157323857Y-94055819D01*
X157323857Y-94055819D02*
X157942904Y-94055819D01*
X155911142Y-97230819D02*
X155577809Y-96754628D01*
X155339714Y-97230819D02*
X155339714Y-96230819D01*
X155339714Y-96230819D02*
X155720666Y-96230819D01*
X155720666Y-96230819D02*
X155815904Y-96278438D01*
X155815904Y-96278438D02*
X155863523Y-96326057D01*
X155863523Y-96326057D02*
X155911142Y-96421295D01*
X155911142Y-96421295D02*
X155911142Y-96564152D01*
X155911142Y-96564152D02*
X155863523Y-96659390D01*
X155863523Y-96659390D02*
X155815904Y-96707009D01*
X155815904Y-96707009D02*
X155720666Y-96754628D01*
X155720666Y-96754628D02*
X155339714Y-96754628D01*
X156244476Y-96230819D02*
X156863523Y-96230819D01*
X156863523Y-96230819D02*
X156530190Y-96611771D01*
X156530190Y-96611771D02*
X156673047Y-96611771D01*
X156673047Y-96611771D02*
X156768285Y-96659390D01*
X156768285Y-96659390D02*
X156815904Y-96707009D01*
X156815904Y-96707009D02*
X156863523Y-96802247D01*
X156863523Y-96802247D02*
X156863523Y-97040342D01*
X156863523Y-97040342D02*
X156815904Y-97135580D01*
X156815904Y-97135580D02*
X156768285Y-97183200D01*
X156768285Y-97183200D02*
X156673047Y-97230819D01*
X156673047Y-97230819D02*
X156387333Y-97230819D01*
X156387333Y-97230819D02*
X156292095Y-97183200D01*
X156292095Y-97183200D02*
X156244476Y-97135580D01*
X157339714Y-97230819D02*
X157530190Y-97230819D01*
X157530190Y-97230819D02*
X157625428Y-97183200D01*
X157625428Y-97183200D02*
X157673047Y-97135580D01*
X157673047Y-97135580D02*
X157768285Y-96992723D01*
X157768285Y-96992723D02*
X157815904Y-96802247D01*
X157815904Y-96802247D02*
X157815904Y-96421295D01*
X157815904Y-96421295D02*
X157768285Y-96326057D01*
X157768285Y-96326057D02*
X157720666Y-96278438D01*
X157720666Y-96278438D02*
X157625428Y-96230819D01*
X157625428Y-96230819D02*
X157434952Y-96230819D01*
X157434952Y-96230819D02*
X157339714Y-96278438D01*
X157339714Y-96278438D02*
X157292095Y-96326057D01*
X157292095Y-96326057D02*
X157244476Y-96421295D01*
X157244476Y-96421295D02*
X157244476Y-96659390D01*
X157244476Y-96659390D02*
X157292095Y-96754628D01*
X157292095Y-96754628D02*
X157339714Y-96802247D01*
X157339714Y-96802247D02*
X157434952Y-96849866D01*
X157434952Y-96849866D02*
X157625428Y-96849866D01*
X157625428Y-96849866D02*
X157720666Y-96802247D01*
X157720666Y-96802247D02*
X157768285Y-96754628D01*
X157768285Y-96754628D02*
X157815904Y-96659390D01*
X186332142Y-73624819D02*
X185998809Y-73148628D01*
X185760714Y-73624819D02*
X185760714Y-72624819D01*
X185760714Y-72624819D02*
X186141666Y-72624819D01*
X186141666Y-72624819D02*
X186236904Y-72672438D01*
X186236904Y-72672438D02*
X186284523Y-72720057D01*
X186284523Y-72720057D02*
X186332142Y-72815295D01*
X186332142Y-72815295D02*
X186332142Y-72958152D01*
X186332142Y-72958152D02*
X186284523Y-73053390D01*
X186284523Y-73053390D02*
X186236904Y-73101009D01*
X186236904Y-73101009D02*
X186141666Y-73148628D01*
X186141666Y-73148628D02*
X185760714Y-73148628D01*
X186713095Y-72720057D02*
X186760714Y-72672438D01*
X186760714Y-72672438D02*
X186855952Y-72624819D01*
X186855952Y-72624819D02*
X187094047Y-72624819D01*
X187094047Y-72624819D02*
X187189285Y-72672438D01*
X187189285Y-72672438D02*
X187236904Y-72720057D01*
X187236904Y-72720057D02*
X187284523Y-72815295D01*
X187284523Y-72815295D02*
X187284523Y-72910533D01*
X187284523Y-72910533D02*
X187236904Y-73053390D01*
X187236904Y-73053390D02*
X186665476Y-73624819D01*
X186665476Y-73624819D02*
X187284523Y-73624819D01*
X188236904Y-73624819D02*
X187665476Y-73624819D01*
X187951190Y-73624819D02*
X187951190Y-72624819D01*
X187951190Y-72624819D02*
X187855952Y-72767676D01*
X187855952Y-72767676D02*
X187760714Y-72862914D01*
X187760714Y-72862914D02*
X187665476Y-72910533D01*
X190207142Y-69679580D02*
X190159523Y-69727200D01*
X190159523Y-69727200D02*
X190016666Y-69774819D01*
X190016666Y-69774819D02*
X189921428Y-69774819D01*
X189921428Y-69774819D02*
X189778571Y-69727200D01*
X189778571Y-69727200D02*
X189683333Y-69631961D01*
X189683333Y-69631961D02*
X189635714Y-69536723D01*
X189635714Y-69536723D02*
X189588095Y-69346247D01*
X189588095Y-69346247D02*
X189588095Y-69203390D01*
X189588095Y-69203390D02*
X189635714Y-69012914D01*
X189635714Y-69012914D02*
X189683333Y-68917676D01*
X189683333Y-68917676D02*
X189778571Y-68822438D01*
X189778571Y-68822438D02*
X189921428Y-68774819D01*
X189921428Y-68774819D02*
X190016666Y-68774819D01*
X190016666Y-68774819D02*
X190159523Y-68822438D01*
X190159523Y-68822438D02*
X190207142Y-68870057D01*
X191159523Y-69774819D02*
X190588095Y-69774819D01*
X190873809Y-69774819D02*
X190873809Y-68774819D01*
X190873809Y-68774819D02*
X190778571Y-68917676D01*
X190778571Y-68917676D02*
X190683333Y-69012914D01*
X190683333Y-69012914D02*
X190588095Y-69060533D01*
X191778571Y-68774819D02*
X191873809Y-68774819D01*
X191873809Y-68774819D02*
X191969047Y-68822438D01*
X191969047Y-68822438D02*
X192016666Y-68870057D01*
X192016666Y-68870057D02*
X192064285Y-68965295D01*
X192064285Y-68965295D02*
X192111904Y-69155771D01*
X192111904Y-69155771D02*
X192111904Y-69393866D01*
X192111904Y-69393866D02*
X192064285Y-69584342D01*
X192064285Y-69584342D02*
X192016666Y-69679580D01*
X192016666Y-69679580D02*
X191969047Y-69727200D01*
X191969047Y-69727200D02*
X191873809Y-69774819D01*
X191873809Y-69774819D02*
X191778571Y-69774819D01*
X191778571Y-69774819D02*
X191683333Y-69727200D01*
X191683333Y-69727200D02*
X191635714Y-69679580D01*
X191635714Y-69679580D02*
X191588095Y-69584342D01*
X191588095Y-69584342D02*
X191540476Y-69393866D01*
X191540476Y-69393866D02*
X191540476Y-69155771D01*
X191540476Y-69155771D02*
X191588095Y-68965295D01*
X191588095Y-68965295D02*
X191635714Y-68870057D01*
X191635714Y-68870057D02*
X191683333Y-68822438D01*
X191683333Y-68822438D02*
X191778571Y-68774819D01*
X173494642Y-80034819D02*
X173161309Y-79558628D01*
X172923214Y-80034819D02*
X172923214Y-79034819D01*
X172923214Y-79034819D02*
X173304166Y-79034819D01*
X173304166Y-79034819D02*
X173399404Y-79082438D01*
X173399404Y-79082438D02*
X173447023Y-79130057D01*
X173447023Y-79130057D02*
X173494642Y-79225295D01*
X173494642Y-79225295D02*
X173494642Y-79368152D01*
X173494642Y-79368152D02*
X173447023Y-79463390D01*
X173447023Y-79463390D02*
X173399404Y-79511009D01*
X173399404Y-79511009D02*
X173304166Y-79558628D01*
X173304166Y-79558628D02*
X172923214Y-79558628D01*
X173827976Y-79034819D02*
X174447023Y-79034819D01*
X174447023Y-79034819D02*
X174113690Y-79415771D01*
X174113690Y-79415771D02*
X174256547Y-79415771D01*
X174256547Y-79415771D02*
X174351785Y-79463390D01*
X174351785Y-79463390D02*
X174399404Y-79511009D01*
X174399404Y-79511009D02*
X174447023Y-79606247D01*
X174447023Y-79606247D02*
X174447023Y-79844342D01*
X174447023Y-79844342D02*
X174399404Y-79939580D01*
X174399404Y-79939580D02*
X174351785Y-79987200D01*
X174351785Y-79987200D02*
X174256547Y-80034819D01*
X174256547Y-80034819D02*
X173970833Y-80034819D01*
X173970833Y-80034819D02*
X173875595Y-79987200D01*
X173875595Y-79987200D02*
X173827976Y-79939580D01*
X175304166Y-79034819D02*
X175113690Y-79034819D01*
X175113690Y-79034819D02*
X175018452Y-79082438D01*
X175018452Y-79082438D02*
X174970833Y-79130057D01*
X174970833Y-79130057D02*
X174875595Y-79272914D01*
X174875595Y-79272914D02*
X174827976Y-79463390D01*
X174827976Y-79463390D02*
X174827976Y-79844342D01*
X174827976Y-79844342D02*
X174875595Y-79939580D01*
X174875595Y-79939580D02*
X174923214Y-79987200D01*
X174923214Y-79987200D02*
X175018452Y-80034819D01*
X175018452Y-80034819D02*
X175208928Y-80034819D01*
X175208928Y-80034819D02*
X175304166Y-79987200D01*
X175304166Y-79987200D02*
X175351785Y-79939580D01*
X175351785Y-79939580D02*
X175399404Y-79844342D01*
X175399404Y-79844342D02*
X175399404Y-79606247D01*
X175399404Y-79606247D02*
X175351785Y-79511009D01*
X175351785Y-79511009D02*
X175304166Y-79463390D01*
X175304166Y-79463390D02*
X175208928Y-79415771D01*
X175208928Y-79415771D02*
X175018452Y-79415771D01*
X175018452Y-79415771D02*
X174923214Y-79463390D01*
X174923214Y-79463390D02*
X174875595Y-79511009D01*
X174875595Y-79511009D02*
X174827976Y-79606247D01*
X174161905Y-112508819D02*
X174733333Y-112508819D01*
X174447619Y-113508819D02*
X174447619Y-112508819D01*
X175066667Y-113508819D02*
X175066667Y-112508819D01*
X175066667Y-112508819D02*
X175447619Y-112508819D01*
X175447619Y-112508819D02*
X175542857Y-112556438D01*
X175542857Y-112556438D02*
X175590476Y-112604057D01*
X175590476Y-112604057D02*
X175638095Y-112699295D01*
X175638095Y-112699295D02*
X175638095Y-112842152D01*
X175638095Y-112842152D02*
X175590476Y-112937390D01*
X175590476Y-112937390D02*
X175542857Y-112985009D01*
X175542857Y-112985009D02*
X175447619Y-113032628D01*
X175447619Y-113032628D02*
X175066667Y-113032628D01*
X176590476Y-113508819D02*
X176019048Y-113508819D01*
X176304762Y-113508819D02*
X176304762Y-112508819D01*
X176304762Y-112508819D02*
X176209524Y-112651676D01*
X176209524Y-112651676D02*
X176114286Y-112746914D01*
X176114286Y-112746914D02*
X176019048Y-112794533D01*
X176923810Y-112508819D02*
X177590476Y-112508819D01*
X177590476Y-112508819D02*
X177161905Y-113508819D01*
X193061905Y-65254819D02*
X193633333Y-65254819D01*
X193347619Y-66254819D02*
X193347619Y-65254819D01*
X193966667Y-66254819D02*
X193966667Y-65254819D01*
X193966667Y-65254819D02*
X194347619Y-65254819D01*
X194347619Y-65254819D02*
X194442857Y-65302438D01*
X194442857Y-65302438D02*
X194490476Y-65350057D01*
X194490476Y-65350057D02*
X194538095Y-65445295D01*
X194538095Y-65445295D02*
X194538095Y-65588152D01*
X194538095Y-65588152D02*
X194490476Y-65683390D01*
X194490476Y-65683390D02*
X194442857Y-65731009D01*
X194442857Y-65731009D02*
X194347619Y-65778628D01*
X194347619Y-65778628D02*
X193966667Y-65778628D01*
X195490476Y-66254819D02*
X194919048Y-66254819D01*
X195204762Y-66254819D02*
X195204762Y-65254819D01*
X195204762Y-65254819D02*
X195109524Y-65397676D01*
X195109524Y-65397676D02*
X195014286Y-65492914D01*
X195014286Y-65492914D02*
X194919048Y-65540533D01*
X195966667Y-66254819D02*
X196157143Y-66254819D01*
X196157143Y-66254819D02*
X196252381Y-66207200D01*
X196252381Y-66207200D02*
X196300000Y-66159580D01*
X196300000Y-66159580D02*
X196395238Y-66016723D01*
X196395238Y-66016723D02*
X196442857Y-65826247D01*
X196442857Y-65826247D02*
X196442857Y-65445295D01*
X196442857Y-65445295D02*
X196395238Y-65350057D01*
X196395238Y-65350057D02*
X196347619Y-65302438D01*
X196347619Y-65302438D02*
X196252381Y-65254819D01*
X196252381Y-65254819D02*
X196061905Y-65254819D01*
X196061905Y-65254819D02*
X195966667Y-65302438D01*
X195966667Y-65302438D02*
X195919048Y-65350057D01*
X195919048Y-65350057D02*
X195871429Y-65445295D01*
X195871429Y-65445295D02*
X195871429Y-65683390D01*
X195871429Y-65683390D02*
X195919048Y-65778628D01*
X195919048Y-65778628D02*
X195966667Y-65826247D01*
X195966667Y-65826247D02*
X196061905Y-65873866D01*
X196061905Y-65873866D02*
X196252381Y-65873866D01*
X196252381Y-65873866D02*
X196347619Y-65826247D01*
X196347619Y-65826247D02*
X196395238Y-65778628D01*
X196395238Y-65778628D02*
X196442857Y-65683390D01*
X185576333Y-83268819D02*
X185100143Y-83268819D01*
X185100143Y-83268819D02*
X185100143Y-82268819D01*
X186385857Y-82268819D02*
X185909667Y-82268819D01*
X185909667Y-82268819D02*
X185862048Y-82745009D01*
X185862048Y-82745009D02*
X185909667Y-82697390D01*
X185909667Y-82697390D02*
X186004905Y-82649771D01*
X186004905Y-82649771D02*
X186243000Y-82649771D01*
X186243000Y-82649771D02*
X186338238Y-82697390D01*
X186338238Y-82697390D02*
X186385857Y-82745009D01*
X186385857Y-82745009D02*
X186433476Y-82840247D01*
X186433476Y-82840247D02*
X186433476Y-83078342D01*
X186433476Y-83078342D02*
X186385857Y-83173580D01*
X186385857Y-83173580D02*
X186338238Y-83221200D01*
X186338238Y-83221200D02*
X186243000Y-83268819D01*
X186243000Y-83268819D02*
X186004905Y-83268819D01*
X186004905Y-83268819D02*
X185909667Y-83221200D01*
X185909667Y-83221200D02*
X185862048Y-83173580D01*
X160357142Y-94039580D02*
X160309523Y-94087200D01*
X160309523Y-94087200D02*
X160166666Y-94134819D01*
X160166666Y-94134819D02*
X160071428Y-94134819D01*
X160071428Y-94134819D02*
X159928571Y-94087200D01*
X159928571Y-94087200D02*
X159833333Y-93991961D01*
X159833333Y-93991961D02*
X159785714Y-93896723D01*
X159785714Y-93896723D02*
X159738095Y-93706247D01*
X159738095Y-93706247D02*
X159738095Y-93563390D01*
X159738095Y-93563390D02*
X159785714Y-93372914D01*
X159785714Y-93372914D02*
X159833333Y-93277676D01*
X159833333Y-93277676D02*
X159928571Y-93182438D01*
X159928571Y-93182438D02*
X160071428Y-93134819D01*
X160071428Y-93134819D02*
X160166666Y-93134819D01*
X160166666Y-93134819D02*
X160309523Y-93182438D01*
X160309523Y-93182438D02*
X160357142Y-93230057D01*
X161309523Y-94134819D02*
X160738095Y-94134819D01*
X161023809Y-94134819D02*
X161023809Y-93134819D01*
X161023809Y-93134819D02*
X160928571Y-93277676D01*
X160928571Y-93277676D02*
X160833333Y-93372914D01*
X160833333Y-93372914D02*
X160738095Y-93420533D01*
X161642857Y-93134819D02*
X162261904Y-93134819D01*
X162261904Y-93134819D02*
X161928571Y-93515771D01*
X161928571Y-93515771D02*
X162071428Y-93515771D01*
X162071428Y-93515771D02*
X162166666Y-93563390D01*
X162166666Y-93563390D02*
X162214285Y-93611009D01*
X162214285Y-93611009D02*
X162261904Y-93706247D01*
X162261904Y-93706247D02*
X162261904Y-93944342D01*
X162261904Y-93944342D02*
X162214285Y-94039580D01*
X162214285Y-94039580D02*
X162166666Y-94087200D01*
X162166666Y-94087200D02*
X162071428Y-94134819D01*
X162071428Y-94134819D02*
X161785714Y-94134819D01*
X161785714Y-94134819D02*
X161690476Y-94087200D01*
X161690476Y-94087200D02*
X161642857Y-94039580D01*
X183408333Y-73494319D02*
X183075000Y-73018128D01*
X182836905Y-73494319D02*
X182836905Y-72494319D01*
X182836905Y-72494319D02*
X183217857Y-72494319D01*
X183217857Y-72494319D02*
X183313095Y-72541938D01*
X183313095Y-72541938D02*
X183360714Y-72589557D01*
X183360714Y-72589557D02*
X183408333Y-72684795D01*
X183408333Y-72684795D02*
X183408333Y-72827652D01*
X183408333Y-72827652D02*
X183360714Y-72922890D01*
X183360714Y-72922890D02*
X183313095Y-72970509D01*
X183313095Y-72970509D02*
X183217857Y-73018128D01*
X183217857Y-73018128D02*
X182836905Y-73018128D01*
X184360714Y-73494319D02*
X183789286Y-73494319D01*
X184075000Y-73494319D02*
X184075000Y-72494319D01*
X184075000Y-72494319D02*
X183979762Y-72637176D01*
X183979762Y-72637176D02*
X183884524Y-72732414D01*
X183884524Y-72732414D02*
X183789286Y-72780033D01*
X173857142Y-95954819D02*
X173523809Y-95478628D01*
X173285714Y-95954819D02*
X173285714Y-94954819D01*
X173285714Y-94954819D02*
X173666666Y-94954819D01*
X173666666Y-94954819D02*
X173761904Y-95002438D01*
X173761904Y-95002438D02*
X173809523Y-95050057D01*
X173809523Y-95050057D02*
X173857142Y-95145295D01*
X173857142Y-95145295D02*
X173857142Y-95288152D01*
X173857142Y-95288152D02*
X173809523Y-95383390D01*
X173809523Y-95383390D02*
X173761904Y-95431009D01*
X173761904Y-95431009D02*
X173666666Y-95478628D01*
X173666666Y-95478628D02*
X173285714Y-95478628D01*
X174190476Y-94954819D02*
X174809523Y-94954819D01*
X174809523Y-94954819D02*
X174476190Y-95335771D01*
X174476190Y-95335771D02*
X174619047Y-95335771D01*
X174619047Y-95335771D02*
X174714285Y-95383390D01*
X174714285Y-95383390D02*
X174761904Y-95431009D01*
X174761904Y-95431009D02*
X174809523Y-95526247D01*
X174809523Y-95526247D02*
X174809523Y-95764342D01*
X174809523Y-95764342D02*
X174761904Y-95859580D01*
X174761904Y-95859580D02*
X174714285Y-95907200D01*
X174714285Y-95907200D02*
X174619047Y-95954819D01*
X174619047Y-95954819D02*
X174333333Y-95954819D01*
X174333333Y-95954819D02*
X174238095Y-95907200D01*
X174238095Y-95907200D02*
X174190476Y-95859580D01*
X175142857Y-94954819D02*
X175809523Y-94954819D01*
X175809523Y-94954819D02*
X175380952Y-95954819D01*
X173900595Y-88904819D02*
X173900595Y-89714342D01*
X173900595Y-89714342D02*
X173948214Y-89809580D01*
X173948214Y-89809580D02*
X173995833Y-89857200D01*
X173995833Y-89857200D02*
X174091071Y-89904819D01*
X174091071Y-89904819D02*
X174281547Y-89904819D01*
X174281547Y-89904819D02*
X174376785Y-89857200D01*
X174376785Y-89857200D02*
X174424404Y-89809580D01*
X174424404Y-89809580D02*
X174472023Y-89714342D01*
X174472023Y-89714342D02*
X174472023Y-88904819D01*
X175091071Y-89333390D02*
X174995833Y-89285771D01*
X174995833Y-89285771D02*
X174948214Y-89238152D01*
X174948214Y-89238152D02*
X174900595Y-89142914D01*
X174900595Y-89142914D02*
X174900595Y-89095295D01*
X174900595Y-89095295D02*
X174948214Y-89000057D01*
X174948214Y-89000057D02*
X174995833Y-88952438D01*
X174995833Y-88952438D02*
X175091071Y-88904819D01*
X175091071Y-88904819D02*
X175281547Y-88904819D01*
X175281547Y-88904819D02*
X175376785Y-88952438D01*
X175376785Y-88952438D02*
X175424404Y-89000057D01*
X175424404Y-89000057D02*
X175472023Y-89095295D01*
X175472023Y-89095295D02*
X175472023Y-89142914D01*
X175472023Y-89142914D02*
X175424404Y-89238152D01*
X175424404Y-89238152D02*
X175376785Y-89285771D01*
X175376785Y-89285771D02*
X175281547Y-89333390D01*
X175281547Y-89333390D02*
X175091071Y-89333390D01*
X175091071Y-89333390D02*
X174995833Y-89381009D01*
X174995833Y-89381009D02*
X174948214Y-89428628D01*
X174948214Y-89428628D02*
X174900595Y-89523866D01*
X174900595Y-89523866D02*
X174900595Y-89714342D01*
X174900595Y-89714342D02*
X174948214Y-89809580D01*
X174948214Y-89809580D02*
X174995833Y-89857200D01*
X174995833Y-89857200D02*
X175091071Y-89904819D01*
X175091071Y-89904819D02*
X175281547Y-89904819D01*
X175281547Y-89904819D02*
X175376785Y-89857200D01*
X175376785Y-89857200D02*
X175424404Y-89809580D01*
X175424404Y-89809580D02*
X175472023Y-89714342D01*
X175472023Y-89714342D02*
X175472023Y-89523866D01*
X175472023Y-89523866D02*
X175424404Y-89428628D01*
X175424404Y-89428628D02*
X175376785Y-89381009D01*
X175376785Y-89381009D02*
X175281547Y-89333390D01*
X167870833Y-80058819D02*
X167537500Y-79582628D01*
X167299405Y-80058819D02*
X167299405Y-79058819D01*
X167299405Y-79058819D02*
X167680357Y-79058819D01*
X167680357Y-79058819D02*
X167775595Y-79106438D01*
X167775595Y-79106438D02*
X167823214Y-79154057D01*
X167823214Y-79154057D02*
X167870833Y-79249295D01*
X167870833Y-79249295D02*
X167870833Y-79392152D01*
X167870833Y-79392152D02*
X167823214Y-79487390D01*
X167823214Y-79487390D02*
X167775595Y-79535009D01*
X167775595Y-79535009D02*
X167680357Y-79582628D01*
X167680357Y-79582628D02*
X167299405Y-79582628D01*
X168347024Y-80058819D02*
X168537500Y-80058819D01*
X168537500Y-80058819D02*
X168632738Y-80011200D01*
X168632738Y-80011200D02*
X168680357Y-79963580D01*
X168680357Y-79963580D02*
X168775595Y-79820723D01*
X168775595Y-79820723D02*
X168823214Y-79630247D01*
X168823214Y-79630247D02*
X168823214Y-79249295D01*
X168823214Y-79249295D02*
X168775595Y-79154057D01*
X168775595Y-79154057D02*
X168727976Y-79106438D01*
X168727976Y-79106438D02*
X168632738Y-79058819D01*
X168632738Y-79058819D02*
X168442262Y-79058819D01*
X168442262Y-79058819D02*
X168347024Y-79106438D01*
X168347024Y-79106438D02*
X168299405Y-79154057D01*
X168299405Y-79154057D02*
X168251786Y-79249295D01*
X168251786Y-79249295D02*
X168251786Y-79487390D01*
X168251786Y-79487390D02*
X168299405Y-79582628D01*
X168299405Y-79582628D02*
X168347024Y-79630247D01*
X168347024Y-79630247D02*
X168442262Y-79677866D01*
X168442262Y-79677866D02*
X168632738Y-79677866D01*
X168632738Y-79677866D02*
X168727976Y-79630247D01*
X168727976Y-79630247D02*
X168775595Y-79582628D01*
X168775595Y-79582628D02*
X168823214Y-79487390D01*
X173666666Y-99304819D02*
X173666666Y-100019104D01*
X173666666Y-100019104D02*
X173619047Y-100161961D01*
X173619047Y-100161961D02*
X173523809Y-100257200D01*
X173523809Y-100257200D02*
X173380952Y-100304819D01*
X173380952Y-100304819D02*
X173285714Y-100304819D01*
X174047619Y-99304819D02*
X174666666Y-99304819D01*
X174666666Y-99304819D02*
X174333333Y-99685771D01*
X174333333Y-99685771D02*
X174476190Y-99685771D01*
X174476190Y-99685771D02*
X174571428Y-99733390D01*
X174571428Y-99733390D02*
X174619047Y-99781009D01*
X174619047Y-99781009D02*
X174666666Y-99876247D01*
X174666666Y-99876247D02*
X174666666Y-100114342D01*
X174666666Y-100114342D02*
X174619047Y-100209580D01*
X174619047Y-100209580D02*
X174571428Y-100257200D01*
X174571428Y-100257200D02*
X174476190Y-100304819D01*
X174476190Y-100304819D02*
X174190476Y-100304819D01*
X174190476Y-100304819D02*
X174095238Y-100257200D01*
X174095238Y-100257200D02*
X174047619Y-100209580D01*
X182857142Y-80274819D02*
X182523809Y-79798628D01*
X182285714Y-80274819D02*
X182285714Y-79274819D01*
X182285714Y-79274819D02*
X182666666Y-79274819D01*
X182666666Y-79274819D02*
X182761904Y-79322438D01*
X182761904Y-79322438D02*
X182809523Y-79370057D01*
X182809523Y-79370057D02*
X182857142Y-79465295D01*
X182857142Y-79465295D02*
X182857142Y-79608152D01*
X182857142Y-79608152D02*
X182809523Y-79703390D01*
X182809523Y-79703390D02*
X182761904Y-79751009D01*
X182761904Y-79751009D02*
X182666666Y-79798628D01*
X182666666Y-79798628D02*
X182285714Y-79798628D01*
X183190476Y-79274819D02*
X183809523Y-79274819D01*
X183809523Y-79274819D02*
X183476190Y-79655771D01*
X183476190Y-79655771D02*
X183619047Y-79655771D01*
X183619047Y-79655771D02*
X183714285Y-79703390D01*
X183714285Y-79703390D02*
X183761904Y-79751009D01*
X183761904Y-79751009D02*
X183809523Y-79846247D01*
X183809523Y-79846247D02*
X183809523Y-80084342D01*
X183809523Y-80084342D02*
X183761904Y-80179580D01*
X183761904Y-80179580D02*
X183714285Y-80227200D01*
X183714285Y-80227200D02*
X183619047Y-80274819D01*
X183619047Y-80274819D02*
X183333333Y-80274819D01*
X183333333Y-80274819D02*
X183238095Y-80227200D01*
X183238095Y-80227200D02*
X183190476Y-80179580D01*
X184142857Y-79274819D02*
X184761904Y-79274819D01*
X184761904Y-79274819D02*
X184428571Y-79655771D01*
X184428571Y-79655771D02*
X184571428Y-79655771D01*
X184571428Y-79655771D02*
X184666666Y-79703390D01*
X184666666Y-79703390D02*
X184714285Y-79751009D01*
X184714285Y-79751009D02*
X184761904Y-79846247D01*
X184761904Y-79846247D02*
X184761904Y-80084342D01*
X184761904Y-80084342D02*
X184714285Y-80179580D01*
X184714285Y-80179580D02*
X184666666Y-80227200D01*
X184666666Y-80227200D02*
X184571428Y-80274819D01*
X184571428Y-80274819D02*
X184285714Y-80274819D01*
X184285714Y-80274819D02*
X184190476Y-80227200D01*
X184190476Y-80227200D02*
X184142857Y-80179580D01*
X188870819Y-86061904D02*
X189680342Y-86061904D01*
X189680342Y-86061904D02*
X189775580Y-86014285D01*
X189775580Y-86014285D02*
X189823200Y-85966666D01*
X189823200Y-85966666D02*
X189870819Y-85871428D01*
X189870819Y-85871428D02*
X189870819Y-85680952D01*
X189870819Y-85680952D02*
X189823200Y-85585714D01*
X189823200Y-85585714D02*
X189775580Y-85538095D01*
X189775580Y-85538095D02*
X189680342Y-85490476D01*
X189680342Y-85490476D02*
X188870819Y-85490476D01*
X188870819Y-85109523D02*
X188870819Y-84442857D01*
X188870819Y-84442857D02*
X189870819Y-84871428D01*
X178557142Y-79834819D02*
X178223809Y-79358628D01*
X177985714Y-79834819D02*
X177985714Y-78834819D01*
X177985714Y-78834819D02*
X178366666Y-78834819D01*
X178366666Y-78834819D02*
X178461904Y-78882438D01*
X178461904Y-78882438D02*
X178509523Y-78930057D01*
X178509523Y-78930057D02*
X178557142Y-79025295D01*
X178557142Y-79025295D02*
X178557142Y-79168152D01*
X178557142Y-79168152D02*
X178509523Y-79263390D01*
X178509523Y-79263390D02*
X178461904Y-79311009D01*
X178461904Y-79311009D02*
X178366666Y-79358628D01*
X178366666Y-79358628D02*
X177985714Y-79358628D01*
X178938095Y-78930057D02*
X178985714Y-78882438D01*
X178985714Y-78882438D02*
X179080952Y-78834819D01*
X179080952Y-78834819D02*
X179319047Y-78834819D01*
X179319047Y-78834819D02*
X179414285Y-78882438D01*
X179414285Y-78882438D02*
X179461904Y-78930057D01*
X179461904Y-78930057D02*
X179509523Y-79025295D01*
X179509523Y-79025295D02*
X179509523Y-79120533D01*
X179509523Y-79120533D02*
X179461904Y-79263390D01*
X179461904Y-79263390D02*
X178890476Y-79834819D01*
X178890476Y-79834819D02*
X179509523Y-79834819D01*
X180128571Y-78834819D02*
X180223809Y-78834819D01*
X180223809Y-78834819D02*
X180319047Y-78882438D01*
X180319047Y-78882438D02*
X180366666Y-78930057D01*
X180366666Y-78930057D02*
X180414285Y-79025295D01*
X180414285Y-79025295D02*
X180461904Y-79215771D01*
X180461904Y-79215771D02*
X180461904Y-79453866D01*
X180461904Y-79453866D02*
X180414285Y-79644342D01*
X180414285Y-79644342D02*
X180366666Y-79739580D01*
X180366666Y-79739580D02*
X180319047Y-79787200D01*
X180319047Y-79787200D02*
X180223809Y-79834819D01*
X180223809Y-79834819D02*
X180128571Y-79834819D01*
X180128571Y-79834819D02*
X180033333Y-79787200D01*
X180033333Y-79787200D02*
X179985714Y-79739580D01*
X179985714Y-79739580D02*
X179938095Y-79644342D01*
X179938095Y-79644342D02*
X179890476Y-79453866D01*
X179890476Y-79453866D02*
X179890476Y-79215771D01*
X179890476Y-79215771D02*
X179938095Y-79025295D01*
X179938095Y-79025295D02*
X179985714Y-78930057D01*
X179985714Y-78930057D02*
X180033333Y-78882438D01*
X180033333Y-78882438D02*
X180128571Y-78834819D01*
X173688095Y-65206819D02*
X174259523Y-65206819D01*
X173973809Y-66206819D02*
X173973809Y-65206819D01*
X174592857Y-66206819D02*
X174592857Y-65206819D01*
X174592857Y-65206819D02*
X174973809Y-65206819D01*
X174973809Y-65206819D02*
X175069047Y-65254438D01*
X175069047Y-65254438D02*
X175116666Y-65302057D01*
X175116666Y-65302057D02*
X175164285Y-65397295D01*
X175164285Y-65397295D02*
X175164285Y-65540152D01*
X175164285Y-65540152D02*
X175116666Y-65635390D01*
X175116666Y-65635390D02*
X175069047Y-65683009D01*
X175069047Y-65683009D02*
X174973809Y-65730628D01*
X174973809Y-65730628D02*
X174592857Y-65730628D01*
X175497619Y-65206819D02*
X176164285Y-65206819D01*
X176164285Y-65206819D02*
X175735714Y-66206819D01*
X181233333Y-69604819D02*
X180900000Y-69128628D01*
X180661905Y-69604819D02*
X180661905Y-68604819D01*
X180661905Y-68604819D02*
X181042857Y-68604819D01*
X181042857Y-68604819D02*
X181138095Y-68652438D01*
X181138095Y-68652438D02*
X181185714Y-68700057D01*
X181185714Y-68700057D02*
X181233333Y-68795295D01*
X181233333Y-68795295D02*
X181233333Y-68938152D01*
X181233333Y-68938152D02*
X181185714Y-69033390D01*
X181185714Y-69033390D02*
X181138095Y-69081009D01*
X181138095Y-69081009D02*
X181042857Y-69128628D01*
X181042857Y-69128628D02*
X180661905Y-69128628D01*
X182090476Y-68938152D02*
X182090476Y-69604819D01*
X181852381Y-68557200D02*
X181614286Y-69271485D01*
X181614286Y-69271485D02*
X182233333Y-69271485D01*
X182489642Y-96054819D02*
X182156309Y-95578628D01*
X181918214Y-96054819D02*
X181918214Y-95054819D01*
X181918214Y-95054819D02*
X182299166Y-95054819D01*
X182299166Y-95054819D02*
X182394404Y-95102438D01*
X182394404Y-95102438D02*
X182442023Y-95150057D01*
X182442023Y-95150057D02*
X182489642Y-95245295D01*
X182489642Y-95245295D02*
X182489642Y-95388152D01*
X182489642Y-95388152D02*
X182442023Y-95483390D01*
X182442023Y-95483390D02*
X182394404Y-95531009D01*
X182394404Y-95531009D02*
X182299166Y-95578628D01*
X182299166Y-95578628D02*
X181918214Y-95578628D01*
X182822976Y-95054819D02*
X183442023Y-95054819D01*
X183442023Y-95054819D02*
X183108690Y-95435771D01*
X183108690Y-95435771D02*
X183251547Y-95435771D01*
X183251547Y-95435771D02*
X183346785Y-95483390D01*
X183346785Y-95483390D02*
X183394404Y-95531009D01*
X183394404Y-95531009D02*
X183442023Y-95626247D01*
X183442023Y-95626247D02*
X183442023Y-95864342D01*
X183442023Y-95864342D02*
X183394404Y-95959580D01*
X183394404Y-95959580D02*
X183346785Y-96007200D01*
X183346785Y-96007200D02*
X183251547Y-96054819D01*
X183251547Y-96054819D02*
X182965833Y-96054819D01*
X182965833Y-96054819D02*
X182870595Y-96007200D01*
X182870595Y-96007200D02*
X182822976Y-95959580D01*
X184299166Y-95388152D02*
X184299166Y-96054819D01*
X184061071Y-95007200D02*
X183822976Y-95721485D01*
X183822976Y-95721485D02*
X184442023Y-95721485D01*
X176357142Y-69634819D02*
X176023809Y-69158628D01*
X175785714Y-69634819D02*
X175785714Y-68634819D01*
X175785714Y-68634819D02*
X176166666Y-68634819D01*
X176166666Y-68634819D02*
X176261904Y-68682438D01*
X176261904Y-68682438D02*
X176309523Y-68730057D01*
X176309523Y-68730057D02*
X176357142Y-68825295D01*
X176357142Y-68825295D02*
X176357142Y-68968152D01*
X176357142Y-68968152D02*
X176309523Y-69063390D01*
X176309523Y-69063390D02*
X176261904Y-69111009D01*
X176261904Y-69111009D02*
X176166666Y-69158628D01*
X176166666Y-69158628D02*
X175785714Y-69158628D01*
X176738095Y-68730057D02*
X176785714Y-68682438D01*
X176785714Y-68682438D02*
X176880952Y-68634819D01*
X176880952Y-68634819D02*
X177119047Y-68634819D01*
X177119047Y-68634819D02*
X177214285Y-68682438D01*
X177214285Y-68682438D02*
X177261904Y-68730057D01*
X177261904Y-68730057D02*
X177309523Y-68825295D01*
X177309523Y-68825295D02*
X177309523Y-68920533D01*
X177309523Y-68920533D02*
X177261904Y-69063390D01*
X177261904Y-69063390D02*
X176690476Y-69634819D01*
X176690476Y-69634819D02*
X177309523Y-69634819D01*
X177785714Y-69634819D02*
X177976190Y-69634819D01*
X177976190Y-69634819D02*
X178071428Y-69587200D01*
X178071428Y-69587200D02*
X178119047Y-69539580D01*
X178119047Y-69539580D02*
X178214285Y-69396723D01*
X178214285Y-69396723D02*
X178261904Y-69206247D01*
X178261904Y-69206247D02*
X178261904Y-68825295D01*
X178261904Y-68825295D02*
X178214285Y-68730057D01*
X178214285Y-68730057D02*
X178166666Y-68682438D01*
X178166666Y-68682438D02*
X178071428Y-68634819D01*
X178071428Y-68634819D02*
X177880952Y-68634819D01*
X177880952Y-68634819D02*
X177785714Y-68682438D01*
X177785714Y-68682438D02*
X177738095Y-68730057D01*
X177738095Y-68730057D02*
X177690476Y-68825295D01*
X177690476Y-68825295D02*
X177690476Y-69063390D01*
X177690476Y-69063390D02*
X177738095Y-69158628D01*
X177738095Y-69158628D02*
X177785714Y-69206247D01*
X177785714Y-69206247D02*
X177880952Y-69253866D01*
X177880952Y-69253866D02*
X178071428Y-69253866D01*
X178071428Y-69253866D02*
X178166666Y-69206247D01*
X178166666Y-69206247D02*
X178214285Y-69158628D01*
X178214285Y-69158628D02*
X178261904Y-69063390D01*
X161011905Y-112506819D02*
X161583333Y-112506819D01*
X161297619Y-113506819D02*
X161297619Y-112506819D01*
X161916667Y-113506819D02*
X161916667Y-112506819D01*
X161916667Y-112506819D02*
X162297619Y-112506819D01*
X162297619Y-112506819D02*
X162392857Y-112554438D01*
X162392857Y-112554438D02*
X162440476Y-112602057D01*
X162440476Y-112602057D02*
X162488095Y-112697295D01*
X162488095Y-112697295D02*
X162488095Y-112840152D01*
X162488095Y-112840152D02*
X162440476Y-112935390D01*
X162440476Y-112935390D02*
X162392857Y-112983009D01*
X162392857Y-112983009D02*
X162297619Y-113030628D01*
X162297619Y-113030628D02*
X161916667Y-113030628D01*
X162869048Y-112602057D02*
X162916667Y-112554438D01*
X162916667Y-112554438D02*
X163011905Y-112506819D01*
X163011905Y-112506819D02*
X163250000Y-112506819D01*
X163250000Y-112506819D02*
X163345238Y-112554438D01*
X163345238Y-112554438D02*
X163392857Y-112602057D01*
X163392857Y-112602057D02*
X163440476Y-112697295D01*
X163440476Y-112697295D02*
X163440476Y-112792533D01*
X163440476Y-112792533D02*
X163392857Y-112935390D01*
X163392857Y-112935390D02*
X162821429Y-113506819D01*
X162821429Y-113506819D02*
X163440476Y-113506819D01*
X163821429Y-112602057D02*
X163869048Y-112554438D01*
X163869048Y-112554438D02*
X163964286Y-112506819D01*
X163964286Y-112506819D02*
X164202381Y-112506819D01*
X164202381Y-112506819D02*
X164297619Y-112554438D01*
X164297619Y-112554438D02*
X164345238Y-112602057D01*
X164345238Y-112602057D02*
X164392857Y-112697295D01*
X164392857Y-112697295D02*
X164392857Y-112792533D01*
X164392857Y-112792533D02*
X164345238Y-112935390D01*
X164345238Y-112935390D02*
X163773810Y-113506819D01*
X163773810Y-113506819D02*
X164392857Y-113506819D01*
X178461905Y-112606819D02*
X179033333Y-112606819D01*
X178747619Y-113606819D02*
X178747619Y-112606819D01*
X179366667Y-113606819D02*
X179366667Y-112606819D01*
X179366667Y-112606819D02*
X179747619Y-112606819D01*
X179747619Y-112606819D02*
X179842857Y-112654438D01*
X179842857Y-112654438D02*
X179890476Y-112702057D01*
X179890476Y-112702057D02*
X179938095Y-112797295D01*
X179938095Y-112797295D02*
X179938095Y-112940152D01*
X179938095Y-112940152D02*
X179890476Y-113035390D01*
X179890476Y-113035390D02*
X179842857Y-113083009D01*
X179842857Y-113083009D02*
X179747619Y-113130628D01*
X179747619Y-113130628D02*
X179366667Y-113130628D01*
X180890476Y-113606819D02*
X180319048Y-113606819D01*
X180604762Y-113606819D02*
X180604762Y-112606819D01*
X180604762Y-112606819D02*
X180509524Y-112749676D01*
X180509524Y-112749676D02*
X180414286Y-112844914D01*
X180414286Y-112844914D02*
X180319048Y-112892533D01*
X181271429Y-112702057D02*
X181319048Y-112654438D01*
X181319048Y-112654438D02*
X181414286Y-112606819D01*
X181414286Y-112606819D02*
X181652381Y-112606819D01*
X181652381Y-112606819D02*
X181747619Y-112654438D01*
X181747619Y-112654438D02*
X181795238Y-112702057D01*
X181795238Y-112702057D02*
X181842857Y-112797295D01*
X181842857Y-112797295D02*
X181842857Y-112892533D01*
X181842857Y-112892533D02*
X181795238Y-113035390D01*
X181795238Y-113035390D02*
X181223810Y-113606819D01*
X181223810Y-113606819D02*
X181842857Y-113606819D01*
X167883333Y-99679580D02*
X167835714Y-99727200D01*
X167835714Y-99727200D02*
X167692857Y-99774819D01*
X167692857Y-99774819D02*
X167597619Y-99774819D01*
X167597619Y-99774819D02*
X167454762Y-99727200D01*
X167454762Y-99727200D02*
X167359524Y-99631961D01*
X167359524Y-99631961D02*
X167311905Y-99536723D01*
X167311905Y-99536723D02*
X167264286Y-99346247D01*
X167264286Y-99346247D02*
X167264286Y-99203390D01*
X167264286Y-99203390D02*
X167311905Y-99012914D01*
X167311905Y-99012914D02*
X167359524Y-98917676D01*
X167359524Y-98917676D02*
X167454762Y-98822438D01*
X167454762Y-98822438D02*
X167597619Y-98774819D01*
X167597619Y-98774819D02*
X167692857Y-98774819D01*
X167692857Y-98774819D02*
X167835714Y-98822438D01*
X167835714Y-98822438D02*
X167883333Y-98870057D01*
X168740476Y-99108152D02*
X168740476Y-99774819D01*
X168502381Y-98727200D02*
X168264286Y-99441485D01*
X168264286Y-99441485D02*
X168883333Y-99441485D01*
X170188095Y-65206819D02*
X170759523Y-65206819D01*
X170473809Y-66206819D02*
X170473809Y-65206819D01*
X171092857Y-66206819D02*
X171092857Y-65206819D01*
X171092857Y-65206819D02*
X171473809Y-65206819D01*
X171473809Y-65206819D02*
X171569047Y-65254438D01*
X171569047Y-65254438D02*
X171616666Y-65302057D01*
X171616666Y-65302057D02*
X171664285Y-65397295D01*
X171664285Y-65397295D02*
X171664285Y-65540152D01*
X171664285Y-65540152D02*
X171616666Y-65635390D01*
X171616666Y-65635390D02*
X171569047Y-65683009D01*
X171569047Y-65683009D02*
X171473809Y-65730628D01*
X171473809Y-65730628D02*
X171092857Y-65730628D01*
X172616666Y-66206819D02*
X172045238Y-66206819D01*
X172330952Y-66206819D02*
X172330952Y-65206819D01*
X172330952Y-65206819D02*
X172235714Y-65349676D01*
X172235714Y-65349676D02*
X172140476Y-65444914D01*
X172140476Y-65444914D02*
X172045238Y-65492533D01*
X156875095Y-112733819D02*
X157446523Y-112733819D01*
X157160809Y-113733819D02*
X157160809Y-112733819D01*
X157779857Y-113733819D02*
X157779857Y-112733819D01*
X157779857Y-112733819D02*
X158160809Y-112733819D01*
X158160809Y-112733819D02*
X158256047Y-112781438D01*
X158256047Y-112781438D02*
X158303666Y-112829057D01*
X158303666Y-112829057D02*
X158351285Y-112924295D01*
X158351285Y-112924295D02*
X158351285Y-113067152D01*
X158351285Y-113067152D02*
X158303666Y-113162390D01*
X158303666Y-113162390D02*
X158256047Y-113210009D01*
X158256047Y-113210009D02*
X158160809Y-113257628D01*
X158160809Y-113257628D02*
X157779857Y-113257628D01*
X158827476Y-113733819D02*
X159017952Y-113733819D01*
X159017952Y-113733819D02*
X159113190Y-113686200D01*
X159113190Y-113686200D02*
X159160809Y-113638580D01*
X159160809Y-113638580D02*
X159256047Y-113495723D01*
X159256047Y-113495723D02*
X159303666Y-113305247D01*
X159303666Y-113305247D02*
X159303666Y-112924295D01*
X159303666Y-112924295D02*
X159256047Y-112829057D01*
X159256047Y-112829057D02*
X159208428Y-112781438D01*
X159208428Y-112781438D02*
X159113190Y-112733819D01*
X159113190Y-112733819D02*
X158922714Y-112733819D01*
X158922714Y-112733819D02*
X158827476Y-112781438D01*
X158827476Y-112781438D02*
X158779857Y-112829057D01*
X158779857Y-112829057D02*
X158732238Y-112924295D01*
X158732238Y-112924295D02*
X158732238Y-113162390D01*
X158732238Y-113162390D02*
X158779857Y-113257628D01*
X158779857Y-113257628D02*
X158827476Y-113305247D01*
X158827476Y-113305247D02*
X158922714Y-113352866D01*
X158922714Y-113352866D02*
X159113190Y-113352866D01*
X159113190Y-113352866D02*
X159208428Y-113305247D01*
X159208428Y-113305247D02*
X159256047Y-113257628D01*
X159256047Y-113257628D02*
X159303666Y-113162390D01*
X182661905Y-112606819D02*
X183233333Y-112606819D01*
X182947619Y-113606819D02*
X182947619Y-112606819D01*
X183566667Y-113606819D02*
X183566667Y-112606819D01*
X183566667Y-112606819D02*
X183947619Y-112606819D01*
X183947619Y-112606819D02*
X184042857Y-112654438D01*
X184042857Y-112654438D02*
X184090476Y-112702057D01*
X184090476Y-112702057D02*
X184138095Y-112797295D01*
X184138095Y-112797295D02*
X184138095Y-112940152D01*
X184138095Y-112940152D02*
X184090476Y-113035390D01*
X184090476Y-113035390D02*
X184042857Y-113083009D01*
X184042857Y-113083009D02*
X183947619Y-113130628D01*
X183947619Y-113130628D02*
X183566667Y-113130628D01*
X185090476Y-113606819D02*
X184519048Y-113606819D01*
X184804762Y-113606819D02*
X184804762Y-112606819D01*
X184804762Y-112606819D02*
X184709524Y-112749676D01*
X184709524Y-112749676D02*
X184614286Y-112844914D01*
X184614286Y-112844914D02*
X184519048Y-112892533D01*
X185423810Y-112606819D02*
X186042857Y-112606819D01*
X186042857Y-112606819D02*
X185709524Y-112987771D01*
X185709524Y-112987771D02*
X185852381Y-112987771D01*
X185852381Y-112987771D02*
X185947619Y-113035390D01*
X185947619Y-113035390D02*
X185995238Y-113083009D01*
X185995238Y-113083009D02*
X186042857Y-113178247D01*
X186042857Y-113178247D02*
X186042857Y-113416342D01*
X186042857Y-113416342D02*
X185995238Y-113511580D01*
X185995238Y-113511580D02*
X185947619Y-113559200D01*
X185947619Y-113559200D02*
X185852381Y-113606819D01*
X185852381Y-113606819D02*
X185566667Y-113606819D01*
X185566667Y-113606819D02*
X185471429Y-113559200D01*
X185471429Y-113559200D02*
X185423810Y-113511580D01*
X194461905Y-112406819D02*
X195033333Y-112406819D01*
X194747619Y-113406819D02*
X194747619Y-112406819D01*
X195366667Y-113406819D02*
X195366667Y-112406819D01*
X195366667Y-112406819D02*
X195747619Y-112406819D01*
X195747619Y-112406819D02*
X195842857Y-112454438D01*
X195842857Y-112454438D02*
X195890476Y-112502057D01*
X195890476Y-112502057D02*
X195938095Y-112597295D01*
X195938095Y-112597295D02*
X195938095Y-112740152D01*
X195938095Y-112740152D02*
X195890476Y-112835390D01*
X195890476Y-112835390D02*
X195842857Y-112883009D01*
X195842857Y-112883009D02*
X195747619Y-112930628D01*
X195747619Y-112930628D02*
X195366667Y-112930628D01*
X196890476Y-113406819D02*
X196319048Y-113406819D01*
X196604762Y-113406819D02*
X196604762Y-112406819D01*
X196604762Y-112406819D02*
X196509524Y-112549676D01*
X196509524Y-112549676D02*
X196414286Y-112644914D01*
X196414286Y-112644914D02*
X196319048Y-112692533D01*
X197842857Y-113406819D02*
X197271429Y-113406819D01*
X197557143Y-113406819D02*
X197557143Y-112406819D01*
X197557143Y-112406819D02*
X197461905Y-112549676D01*
X197461905Y-112549676D02*
X197366667Y-112644914D01*
X197366667Y-112644914D02*
X197271429Y-112692533D01*
X200504819Y-67888094D02*
X199504819Y-67888094D01*
X199504819Y-67888094D02*
X199504819Y-67649999D01*
X199504819Y-67649999D02*
X199552438Y-67507142D01*
X199552438Y-67507142D02*
X199647676Y-67411904D01*
X199647676Y-67411904D02*
X199742914Y-67364285D01*
X199742914Y-67364285D02*
X199933390Y-67316666D01*
X199933390Y-67316666D02*
X200076247Y-67316666D01*
X200076247Y-67316666D02*
X200266723Y-67364285D01*
X200266723Y-67364285D02*
X200361961Y-67411904D01*
X200361961Y-67411904D02*
X200457200Y-67507142D01*
X200457200Y-67507142D02*
X200504819Y-67649999D01*
X200504819Y-67649999D02*
X200504819Y-67888094D01*
X200504819Y-66364285D02*
X200504819Y-66935713D01*
X200504819Y-66649999D02*
X199504819Y-66649999D01*
X199504819Y-66649999D02*
X199647676Y-66745237D01*
X199647676Y-66745237D02*
X199742914Y-66840475D01*
X199742914Y-66840475D02*
X199790533Y-66935713D01*
X200020057Y-104835238D02*
X199972438Y-104930476D01*
X199972438Y-104930476D02*
X199877200Y-105025714D01*
X199877200Y-105025714D02*
X199734342Y-105168571D01*
X199734342Y-105168571D02*
X199686723Y-105263809D01*
X199686723Y-105263809D02*
X199686723Y-105359047D01*
X199924819Y-105311428D02*
X199877200Y-105406666D01*
X199877200Y-105406666D02*
X199781961Y-105501904D01*
X199781961Y-105501904D02*
X199591485Y-105549523D01*
X199591485Y-105549523D02*
X199258152Y-105549523D01*
X199258152Y-105549523D02*
X199067676Y-105501904D01*
X199067676Y-105501904D02*
X198972438Y-105406666D01*
X198972438Y-105406666D02*
X198924819Y-105311428D01*
X198924819Y-105311428D02*
X198924819Y-105120952D01*
X198924819Y-105120952D02*
X198972438Y-105025714D01*
X198972438Y-105025714D02*
X199067676Y-104930476D01*
X199067676Y-104930476D02*
X199258152Y-104882857D01*
X199258152Y-104882857D02*
X199591485Y-104882857D01*
X199591485Y-104882857D02*
X199781961Y-104930476D01*
X199781961Y-104930476D02*
X199877200Y-105025714D01*
X199877200Y-105025714D02*
X199924819Y-105120952D01*
X199924819Y-105120952D02*
X199924819Y-105311428D01*
X199924819Y-103930476D02*
X199924819Y-104501904D01*
X199924819Y-104216190D02*
X198924819Y-104216190D01*
X198924819Y-104216190D02*
X199067676Y-104311428D01*
X199067676Y-104311428D02*
X199162914Y-104406666D01*
X199162914Y-104406666D02*
X199210533Y-104501904D01*
X179757142Y-99434819D02*
X179423809Y-98958628D01*
X179185714Y-99434819D02*
X179185714Y-98434819D01*
X179185714Y-98434819D02*
X179566666Y-98434819D01*
X179566666Y-98434819D02*
X179661904Y-98482438D01*
X179661904Y-98482438D02*
X179709523Y-98530057D01*
X179709523Y-98530057D02*
X179757142Y-98625295D01*
X179757142Y-98625295D02*
X179757142Y-98768152D01*
X179757142Y-98768152D02*
X179709523Y-98863390D01*
X179709523Y-98863390D02*
X179661904Y-98911009D01*
X179661904Y-98911009D02*
X179566666Y-98958628D01*
X179566666Y-98958628D02*
X179185714Y-98958628D01*
X180709523Y-99434819D02*
X180138095Y-99434819D01*
X180423809Y-99434819D02*
X180423809Y-98434819D01*
X180423809Y-98434819D02*
X180328571Y-98577676D01*
X180328571Y-98577676D02*
X180233333Y-98672914D01*
X180233333Y-98672914D02*
X180138095Y-98720533D01*
X181185714Y-99434819D02*
X181376190Y-99434819D01*
X181376190Y-99434819D02*
X181471428Y-99387200D01*
X181471428Y-99387200D02*
X181519047Y-99339580D01*
X181519047Y-99339580D02*
X181614285Y-99196723D01*
X181614285Y-99196723D02*
X181661904Y-99006247D01*
X181661904Y-99006247D02*
X181661904Y-98625295D01*
X181661904Y-98625295D02*
X181614285Y-98530057D01*
X181614285Y-98530057D02*
X181566666Y-98482438D01*
X181566666Y-98482438D02*
X181471428Y-98434819D01*
X181471428Y-98434819D02*
X181280952Y-98434819D01*
X181280952Y-98434819D02*
X181185714Y-98482438D01*
X181185714Y-98482438D02*
X181138095Y-98530057D01*
X181138095Y-98530057D02*
X181090476Y-98625295D01*
X181090476Y-98625295D02*
X181090476Y-98863390D01*
X181090476Y-98863390D02*
X181138095Y-98958628D01*
X181138095Y-98958628D02*
X181185714Y-99006247D01*
X181185714Y-99006247D02*
X181280952Y-99053866D01*
X181280952Y-99053866D02*
X181471428Y-99053866D01*
X181471428Y-99053866D02*
X181566666Y-99006247D01*
X181566666Y-99006247D02*
X181614285Y-98958628D01*
X181614285Y-98958628D02*
X181661904Y-98863390D01*
X179734333Y-89618819D02*
X179258143Y-89618819D01*
X179258143Y-89618819D02*
X179258143Y-88618819D01*
X180496238Y-88952152D02*
X180496238Y-89618819D01*
X180258143Y-88571200D02*
X180020048Y-89285485D01*
X180020048Y-89285485D02*
X180639095Y-89285485D01*
X167920833Y-103304819D02*
X167587500Y-102828628D01*
X167349405Y-103304819D02*
X167349405Y-102304819D01*
X167349405Y-102304819D02*
X167730357Y-102304819D01*
X167730357Y-102304819D02*
X167825595Y-102352438D01*
X167825595Y-102352438D02*
X167873214Y-102400057D01*
X167873214Y-102400057D02*
X167920833Y-102495295D01*
X167920833Y-102495295D02*
X167920833Y-102638152D01*
X167920833Y-102638152D02*
X167873214Y-102733390D01*
X167873214Y-102733390D02*
X167825595Y-102781009D01*
X167825595Y-102781009D02*
X167730357Y-102828628D01*
X167730357Y-102828628D02*
X167349405Y-102828628D01*
X168777976Y-102304819D02*
X168587500Y-102304819D01*
X168587500Y-102304819D02*
X168492262Y-102352438D01*
X168492262Y-102352438D02*
X168444643Y-102400057D01*
X168444643Y-102400057D02*
X168349405Y-102542914D01*
X168349405Y-102542914D02*
X168301786Y-102733390D01*
X168301786Y-102733390D02*
X168301786Y-103114342D01*
X168301786Y-103114342D02*
X168349405Y-103209580D01*
X168349405Y-103209580D02*
X168397024Y-103257200D01*
X168397024Y-103257200D02*
X168492262Y-103304819D01*
X168492262Y-103304819D02*
X168682738Y-103304819D01*
X168682738Y-103304819D02*
X168777976Y-103257200D01*
X168777976Y-103257200D02*
X168825595Y-103209580D01*
X168825595Y-103209580D02*
X168873214Y-103114342D01*
X168873214Y-103114342D02*
X168873214Y-102876247D01*
X168873214Y-102876247D02*
X168825595Y-102781009D01*
X168825595Y-102781009D02*
X168777976Y-102733390D01*
X168777976Y-102733390D02*
X168682738Y-102685771D01*
X168682738Y-102685771D02*
X168492262Y-102685771D01*
X168492262Y-102685771D02*
X168397024Y-102733390D01*
X168397024Y-102733390D02*
X168349405Y-102781009D01*
X168349405Y-102781009D02*
X168301786Y-102876247D01*
X199454819Y-73766666D02*
X198978628Y-74099999D01*
X199454819Y-74338094D02*
X198454819Y-74338094D01*
X198454819Y-74338094D02*
X198454819Y-73957142D01*
X198454819Y-73957142D02*
X198502438Y-73861904D01*
X198502438Y-73861904D02*
X198550057Y-73814285D01*
X198550057Y-73814285D02*
X198645295Y-73766666D01*
X198645295Y-73766666D02*
X198788152Y-73766666D01*
X198788152Y-73766666D02*
X198883390Y-73814285D01*
X198883390Y-73814285D02*
X198931009Y-73861904D01*
X198931009Y-73861904D02*
X198978628Y-73957142D01*
X198978628Y-73957142D02*
X198978628Y-74338094D01*
X198550057Y-73385713D02*
X198502438Y-73338094D01*
X198502438Y-73338094D02*
X198454819Y-73242856D01*
X198454819Y-73242856D02*
X198454819Y-73004761D01*
X198454819Y-73004761D02*
X198502438Y-72909523D01*
X198502438Y-72909523D02*
X198550057Y-72861904D01*
X198550057Y-72861904D02*
X198645295Y-72814285D01*
X198645295Y-72814285D02*
X198740533Y-72814285D01*
X198740533Y-72814285D02*
X198883390Y-72861904D01*
X198883390Y-72861904D02*
X199454819Y-73433332D01*
X199454819Y-73433332D02*
X199454819Y-72814285D01*
X165954819Y-109586904D02*
X166764342Y-109586904D01*
X166764342Y-109586904D02*
X166859580Y-109539285D01*
X166859580Y-109539285D02*
X166907200Y-109491666D01*
X166907200Y-109491666D02*
X166954819Y-109396428D01*
X166954819Y-109396428D02*
X166954819Y-109205952D01*
X166954819Y-109205952D02*
X166907200Y-109110714D01*
X166907200Y-109110714D02*
X166859580Y-109063095D01*
X166859580Y-109063095D02*
X166764342Y-109015476D01*
X166764342Y-109015476D02*
X165954819Y-109015476D01*
X166050057Y-108586904D02*
X166002438Y-108539285D01*
X166002438Y-108539285D02*
X165954819Y-108444047D01*
X165954819Y-108444047D02*
X165954819Y-108205952D01*
X165954819Y-108205952D02*
X166002438Y-108110714D01*
X166002438Y-108110714D02*
X166050057Y-108063095D01*
X166050057Y-108063095D02*
X166145295Y-108015476D01*
X166145295Y-108015476D02*
X166240533Y-108015476D01*
X166240533Y-108015476D02*
X166383390Y-108063095D01*
X166383390Y-108063095D02*
X166954819Y-108634523D01*
X166954819Y-108634523D02*
X166954819Y-108015476D01*
X186233333Y-69709580D02*
X186185714Y-69757200D01*
X186185714Y-69757200D02*
X186042857Y-69804819D01*
X186042857Y-69804819D02*
X185947619Y-69804819D01*
X185947619Y-69804819D02*
X185804762Y-69757200D01*
X185804762Y-69757200D02*
X185709524Y-69661961D01*
X185709524Y-69661961D02*
X185661905Y-69566723D01*
X185661905Y-69566723D02*
X185614286Y-69376247D01*
X185614286Y-69376247D02*
X185614286Y-69233390D01*
X185614286Y-69233390D02*
X185661905Y-69042914D01*
X185661905Y-69042914D02*
X185709524Y-68947676D01*
X185709524Y-68947676D02*
X185804762Y-68852438D01*
X185804762Y-68852438D02*
X185947619Y-68804819D01*
X185947619Y-68804819D02*
X186042857Y-68804819D01*
X186042857Y-68804819D02*
X186185714Y-68852438D01*
X186185714Y-68852438D02*
X186233333Y-68900057D01*
X186804762Y-69233390D02*
X186709524Y-69185771D01*
X186709524Y-69185771D02*
X186661905Y-69138152D01*
X186661905Y-69138152D02*
X186614286Y-69042914D01*
X186614286Y-69042914D02*
X186614286Y-68995295D01*
X186614286Y-68995295D02*
X186661905Y-68900057D01*
X186661905Y-68900057D02*
X186709524Y-68852438D01*
X186709524Y-68852438D02*
X186804762Y-68804819D01*
X186804762Y-68804819D02*
X186995238Y-68804819D01*
X186995238Y-68804819D02*
X187090476Y-68852438D01*
X187090476Y-68852438D02*
X187138095Y-68900057D01*
X187138095Y-68900057D02*
X187185714Y-68995295D01*
X187185714Y-68995295D02*
X187185714Y-69042914D01*
X187185714Y-69042914D02*
X187138095Y-69138152D01*
X187138095Y-69138152D02*
X187090476Y-69185771D01*
X187090476Y-69185771D02*
X186995238Y-69233390D01*
X186995238Y-69233390D02*
X186804762Y-69233390D01*
X186804762Y-69233390D02*
X186709524Y-69281009D01*
X186709524Y-69281009D02*
X186661905Y-69328628D01*
X186661905Y-69328628D02*
X186614286Y-69423866D01*
X186614286Y-69423866D02*
X186614286Y-69614342D01*
X186614286Y-69614342D02*
X186661905Y-69709580D01*
X186661905Y-69709580D02*
X186709524Y-69757200D01*
X186709524Y-69757200D02*
X186804762Y-69804819D01*
X186804762Y-69804819D02*
X186995238Y-69804819D01*
X186995238Y-69804819D02*
X187090476Y-69757200D01*
X187090476Y-69757200D02*
X187138095Y-69709580D01*
X187138095Y-69709580D02*
X187185714Y-69614342D01*
X187185714Y-69614342D02*
X187185714Y-69423866D01*
X187185714Y-69423866D02*
X187138095Y-69328628D01*
X187138095Y-69328628D02*
X187090476Y-69281009D01*
X187090476Y-69281009D02*
X186995238Y-69233390D01*
X179694642Y-103234819D02*
X179361309Y-102758628D01*
X179123214Y-103234819D02*
X179123214Y-102234819D01*
X179123214Y-102234819D02*
X179504166Y-102234819D01*
X179504166Y-102234819D02*
X179599404Y-102282438D01*
X179599404Y-102282438D02*
X179647023Y-102330057D01*
X179647023Y-102330057D02*
X179694642Y-102425295D01*
X179694642Y-102425295D02*
X179694642Y-102568152D01*
X179694642Y-102568152D02*
X179647023Y-102663390D01*
X179647023Y-102663390D02*
X179599404Y-102711009D01*
X179599404Y-102711009D02*
X179504166Y-102758628D01*
X179504166Y-102758628D02*
X179123214Y-102758628D01*
X180647023Y-103234819D02*
X180075595Y-103234819D01*
X180361309Y-103234819D02*
X180361309Y-102234819D01*
X180361309Y-102234819D02*
X180266071Y-102377676D01*
X180266071Y-102377676D02*
X180170833Y-102472914D01*
X180170833Y-102472914D02*
X180075595Y-102520533D01*
X181218452Y-102663390D02*
X181123214Y-102615771D01*
X181123214Y-102615771D02*
X181075595Y-102568152D01*
X181075595Y-102568152D02*
X181027976Y-102472914D01*
X181027976Y-102472914D02*
X181027976Y-102425295D01*
X181027976Y-102425295D02*
X181075595Y-102330057D01*
X181075595Y-102330057D02*
X181123214Y-102282438D01*
X181123214Y-102282438D02*
X181218452Y-102234819D01*
X181218452Y-102234819D02*
X181408928Y-102234819D01*
X181408928Y-102234819D02*
X181504166Y-102282438D01*
X181504166Y-102282438D02*
X181551785Y-102330057D01*
X181551785Y-102330057D02*
X181599404Y-102425295D01*
X181599404Y-102425295D02*
X181599404Y-102472914D01*
X181599404Y-102472914D02*
X181551785Y-102568152D01*
X181551785Y-102568152D02*
X181504166Y-102615771D01*
X181504166Y-102615771D02*
X181408928Y-102663390D01*
X181408928Y-102663390D02*
X181218452Y-102663390D01*
X181218452Y-102663390D02*
X181123214Y-102711009D01*
X181123214Y-102711009D02*
X181075595Y-102758628D01*
X181075595Y-102758628D02*
X181027976Y-102853866D01*
X181027976Y-102853866D02*
X181027976Y-103044342D01*
X181027976Y-103044342D02*
X181075595Y-103139580D01*
X181075595Y-103139580D02*
X181123214Y-103187200D01*
X181123214Y-103187200D02*
X181218452Y-103234819D01*
X181218452Y-103234819D02*
X181408928Y-103234819D01*
X181408928Y-103234819D02*
X181504166Y-103187200D01*
X181504166Y-103187200D02*
X181551785Y-103139580D01*
X181551785Y-103139580D02*
X181599404Y-103044342D01*
X181599404Y-103044342D02*
X181599404Y-102853866D01*
X181599404Y-102853866D02*
X181551785Y-102758628D01*
X181551785Y-102758628D02*
X181504166Y-102711009D01*
X181504166Y-102711009D02*
X181408928Y-102663390D01*
X156527833Y-84326819D02*
X156194500Y-83850628D01*
X155956405Y-84326819D02*
X155956405Y-83326819D01*
X155956405Y-83326819D02*
X156337357Y-83326819D01*
X156337357Y-83326819D02*
X156432595Y-83374438D01*
X156432595Y-83374438D02*
X156480214Y-83422057D01*
X156480214Y-83422057D02*
X156527833Y-83517295D01*
X156527833Y-83517295D02*
X156527833Y-83660152D01*
X156527833Y-83660152D02*
X156480214Y-83755390D01*
X156480214Y-83755390D02*
X156432595Y-83803009D01*
X156432595Y-83803009D02*
X156337357Y-83850628D01*
X156337357Y-83850628D02*
X155956405Y-83850628D01*
X157099262Y-83755390D02*
X157004024Y-83707771D01*
X157004024Y-83707771D02*
X156956405Y-83660152D01*
X156956405Y-83660152D02*
X156908786Y-83564914D01*
X156908786Y-83564914D02*
X156908786Y-83517295D01*
X156908786Y-83517295D02*
X156956405Y-83422057D01*
X156956405Y-83422057D02*
X157004024Y-83374438D01*
X157004024Y-83374438D02*
X157099262Y-83326819D01*
X157099262Y-83326819D02*
X157289738Y-83326819D01*
X157289738Y-83326819D02*
X157384976Y-83374438D01*
X157384976Y-83374438D02*
X157432595Y-83422057D01*
X157432595Y-83422057D02*
X157480214Y-83517295D01*
X157480214Y-83517295D02*
X157480214Y-83564914D01*
X157480214Y-83564914D02*
X157432595Y-83660152D01*
X157432595Y-83660152D02*
X157384976Y-83707771D01*
X157384976Y-83707771D02*
X157289738Y-83755390D01*
X157289738Y-83755390D02*
X157099262Y-83755390D01*
X157099262Y-83755390D02*
X157004024Y-83803009D01*
X157004024Y-83803009D02*
X156956405Y-83850628D01*
X156956405Y-83850628D02*
X156908786Y-83945866D01*
X156908786Y-83945866D02*
X156908786Y-84136342D01*
X156908786Y-84136342D02*
X156956405Y-84231580D01*
X156956405Y-84231580D02*
X157004024Y-84279200D01*
X157004024Y-84279200D02*
X157099262Y-84326819D01*
X157099262Y-84326819D02*
X157289738Y-84326819D01*
X157289738Y-84326819D02*
X157384976Y-84279200D01*
X157384976Y-84279200D02*
X157432595Y-84231580D01*
X157432595Y-84231580D02*
X157480214Y-84136342D01*
X157480214Y-84136342D02*
X157480214Y-83945866D01*
X157480214Y-83945866D02*
X157432595Y-83850628D01*
X157432595Y-83850628D02*
X157384976Y-83803009D01*
X157384976Y-83803009D02*
X157289738Y-83755390D01*
X190532142Y-92524819D02*
X190198809Y-92048628D01*
X189960714Y-92524819D02*
X189960714Y-91524819D01*
X189960714Y-91524819D02*
X190341666Y-91524819D01*
X190341666Y-91524819D02*
X190436904Y-91572438D01*
X190436904Y-91572438D02*
X190484523Y-91620057D01*
X190484523Y-91620057D02*
X190532142Y-91715295D01*
X190532142Y-91715295D02*
X190532142Y-91858152D01*
X190532142Y-91858152D02*
X190484523Y-91953390D01*
X190484523Y-91953390D02*
X190436904Y-92001009D01*
X190436904Y-92001009D02*
X190341666Y-92048628D01*
X190341666Y-92048628D02*
X189960714Y-92048628D01*
X191484523Y-92524819D02*
X190913095Y-92524819D01*
X191198809Y-92524819D02*
X191198809Y-91524819D01*
X191198809Y-91524819D02*
X191103571Y-91667676D01*
X191103571Y-91667676D02*
X191008333Y-91762914D01*
X191008333Y-91762914D02*
X190913095Y-91810533D01*
X192341666Y-91858152D02*
X192341666Y-92524819D01*
X192103571Y-91477200D02*
X191865476Y-92191485D01*
X191865476Y-92191485D02*
X192484523Y-92191485D01*
X181967095Y-65154819D02*
X182538523Y-65154819D01*
X182252809Y-66154819D02*
X182252809Y-65154819D01*
X182871857Y-66154819D02*
X182871857Y-65154819D01*
X182871857Y-65154819D02*
X183252809Y-65154819D01*
X183252809Y-65154819D02*
X183348047Y-65202438D01*
X183348047Y-65202438D02*
X183395666Y-65250057D01*
X183395666Y-65250057D02*
X183443285Y-65345295D01*
X183443285Y-65345295D02*
X183443285Y-65488152D01*
X183443285Y-65488152D02*
X183395666Y-65583390D01*
X183395666Y-65583390D02*
X183348047Y-65631009D01*
X183348047Y-65631009D02*
X183252809Y-65678628D01*
X183252809Y-65678628D02*
X182871857Y-65678628D01*
X184300428Y-65154819D02*
X184109952Y-65154819D01*
X184109952Y-65154819D02*
X184014714Y-65202438D01*
X184014714Y-65202438D02*
X183967095Y-65250057D01*
X183967095Y-65250057D02*
X183871857Y-65392914D01*
X183871857Y-65392914D02*
X183824238Y-65583390D01*
X183824238Y-65583390D02*
X183824238Y-65964342D01*
X183824238Y-65964342D02*
X183871857Y-66059580D01*
X183871857Y-66059580D02*
X183919476Y-66107200D01*
X183919476Y-66107200D02*
X184014714Y-66154819D01*
X184014714Y-66154819D02*
X184205190Y-66154819D01*
X184205190Y-66154819D02*
X184300428Y-66107200D01*
X184300428Y-66107200D02*
X184348047Y-66059580D01*
X184348047Y-66059580D02*
X184395666Y-65964342D01*
X184395666Y-65964342D02*
X184395666Y-65726247D01*
X184395666Y-65726247D02*
X184348047Y-65631009D01*
X184348047Y-65631009D02*
X184300428Y-65583390D01*
X184300428Y-65583390D02*
X184205190Y-65535771D01*
X184205190Y-65535771D02*
X184014714Y-65535771D01*
X184014714Y-65535771D02*
X183919476Y-65583390D01*
X183919476Y-65583390D02*
X183871857Y-65631009D01*
X183871857Y-65631009D02*
X183824238Y-65726247D01*
X184894642Y-103054819D02*
X184561309Y-102578628D01*
X184323214Y-103054819D02*
X184323214Y-102054819D01*
X184323214Y-102054819D02*
X184704166Y-102054819D01*
X184704166Y-102054819D02*
X184799404Y-102102438D01*
X184799404Y-102102438D02*
X184847023Y-102150057D01*
X184847023Y-102150057D02*
X184894642Y-102245295D01*
X184894642Y-102245295D02*
X184894642Y-102388152D01*
X184894642Y-102388152D02*
X184847023Y-102483390D01*
X184847023Y-102483390D02*
X184799404Y-102531009D01*
X184799404Y-102531009D02*
X184704166Y-102578628D01*
X184704166Y-102578628D02*
X184323214Y-102578628D01*
X185227976Y-102054819D02*
X185847023Y-102054819D01*
X185847023Y-102054819D02*
X185513690Y-102435771D01*
X185513690Y-102435771D02*
X185656547Y-102435771D01*
X185656547Y-102435771D02*
X185751785Y-102483390D01*
X185751785Y-102483390D02*
X185799404Y-102531009D01*
X185799404Y-102531009D02*
X185847023Y-102626247D01*
X185847023Y-102626247D02*
X185847023Y-102864342D01*
X185847023Y-102864342D02*
X185799404Y-102959580D01*
X185799404Y-102959580D02*
X185751785Y-103007200D01*
X185751785Y-103007200D02*
X185656547Y-103054819D01*
X185656547Y-103054819D02*
X185370833Y-103054819D01*
X185370833Y-103054819D02*
X185275595Y-103007200D01*
X185275595Y-103007200D02*
X185227976Y-102959580D01*
X186418452Y-102483390D02*
X186323214Y-102435771D01*
X186323214Y-102435771D02*
X186275595Y-102388152D01*
X186275595Y-102388152D02*
X186227976Y-102292914D01*
X186227976Y-102292914D02*
X186227976Y-102245295D01*
X186227976Y-102245295D02*
X186275595Y-102150057D01*
X186275595Y-102150057D02*
X186323214Y-102102438D01*
X186323214Y-102102438D02*
X186418452Y-102054819D01*
X186418452Y-102054819D02*
X186608928Y-102054819D01*
X186608928Y-102054819D02*
X186704166Y-102102438D01*
X186704166Y-102102438D02*
X186751785Y-102150057D01*
X186751785Y-102150057D02*
X186799404Y-102245295D01*
X186799404Y-102245295D02*
X186799404Y-102292914D01*
X186799404Y-102292914D02*
X186751785Y-102388152D01*
X186751785Y-102388152D02*
X186704166Y-102435771D01*
X186704166Y-102435771D02*
X186608928Y-102483390D01*
X186608928Y-102483390D02*
X186418452Y-102483390D01*
X186418452Y-102483390D02*
X186323214Y-102531009D01*
X186323214Y-102531009D02*
X186275595Y-102578628D01*
X186275595Y-102578628D02*
X186227976Y-102673866D01*
X186227976Y-102673866D02*
X186227976Y-102864342D01*
X186227976Y-102864342D02*
X186275595Y-102959580D01*
X186275595Y-102959580D02*
X186323214Y-103007200D01*
X186323214Y-103007200D02*
X186418452Y-103054819D01*
X186418452Y-103054819D02*
X186608928Y-103054819D01*
X186608928Y-103054819D02*
X186704166Y-103007200D01*
X186704166Y-103007200D02*
X186751785Y-102959580D01*
X186751785Y-102959580D02*
X186799404Y-102864342D01*
X186799404Y-102864342D02*
X186799404Y-102673866D01*
X186799404Y-102673866D02*
X186751785Y-102578628D01*
X186751785Y-102578628D02*
X186704166Y-102531009D01*
X186704166Y-102531009D02*
X186608928Y-102483390D01*
X176038095Y-72654819D02*
X176038095Y-73464342D01*
X176038095Y-73464342D02*
X176085714Y-73559580D01*
X176085714Y-73559580D02*
X176133333Y-73607200D01*
X176133333Y-73607200D02*
X176228571Y-73654819D01*
X176228571Y-73654819D02*
X176419047Y-73654819D01*
X176419047Y-73654819D02*
X176514285Y-73607200D01*
X176514285Y-73607200D02*
X176561904Y-73559580D01*
X176561904Y-73559580D02*
X176609523Y-73464342D01*
X176609523Y-73464342D02*
X176609523Y-72654819D01*
X177609523Y-73654819D02*
X177038095Y-73654819D01*
X177323809Y-73654819D02*
X177323809Y-72654819D01*
X177323809Y-72654819D02*
X177228571Y-72797676D01*
X177228571Y-72797676D02*
X177133333Y-72892914D01*
X177133333Y-72892914D02*
X177038095Y-72940533D01*
X165812142Y-76604819D02*
X165478809Y-76128628D01*
X165240714Y-76604819D02*
X165240714Y-75604819D01*
X165240714Y-75604819D02*
X165621666Y-75604819D01*
X165621666Y-75604819D02*
X165716904Y-75652438D01*
X165716904Y-75652438D02*
X165764523Y-75700057D01*
X165764523Y-75700057D02*
X165812142Y-75795295D01*
X165812142Y-75795295D02*
X165812142Y-75938152D01*
X165812142Y-75938152D02*
X165764523Y-76033390D01*
X165764523Y-76033390D02*
X165716904Y-76081009D01*
X165716904Y-76081009D02*
X165621666Y-76128628D01*
X165621666Y-76128628D02*
X165240714Y-76128628D01*
X166764523Y-76604819D02*
X166193095Y-76604819D01*
X166478809Y-76604819D02*
X166478809Y-75604819D01*
X166478809Y-75604819D02*
X166383571Y-75747676D01*
X166383571Y-75747676D02*
X166288333Y-75842914D01*
X166288333Y-75842914D02*
X166193095Y-75890533D01*
X167097857Y-75604819D02*
X167764523Y-75604819D01*
X167764523Y-75604819D02*
X167335952Y-76604819D01*
X155993142Y-69428819D02*
X155659809Y-68952628D01*
X155421714Y-69428819D02*
X155421714Y-68428819D01*
X155421714Y-68428819D02*
X155802666Y-68428819D01*
X155802666Y-68428819D02*
X155897904Y-68476438D01*
X155897904Y-68476438D02*
X155945523Y-68524057D01*
X155945523Y-68524057D02*
X155993142Y-68619295D01*
X155993142Y-68619295D02*
X155993142Y-68762152D01*
X155993142Y-68762152D02*
X155945523Y-68857390D01*
X155945523Y-68857390D02*
X155897904Y-68905009D01*
X155897904Y-68905009D02*
X155802666Y-68952628D01*
X155802666Y-68952628D02*
X155421714Y-68952628D01*
X156850285Y-68762152D02*
X156850285Y-69428819D01*
X156612190Y-68381200D02*
X156374095Y-69095485D01*
X156374095Y-69095485D02*
X156993142Y-69095485D01*
X157278857Y-68428819D02*
X157897904Y-68428819D01*
X157897904Y-68428819D02*
X157564571Y-68809771D01*
X157564571Y-68809771D02*
X157707428Y-68809771D01*
X157707428Y-68809771D02*
X157802666Y-68857390D01*
X157802666Y-68857390D02*
X157850285Y-68905009D01*
X157850285Y-68905009D02*
X157897904Y-69000247D01*
X157897904Y-69000247D02*
X157897904Y-69238342D01*
X157897904Y-69238342D02*
X157850285Y-69333580D01*
X157850285Y-69333580D02*
X157802666Y-69381200D01*
X157802666Y-69381200D02*
X157707428Y-69428819D01*
X157707428Y-69428819D02*
X157421714Y-69428819D01*
X157421714Y-69428819D02*
X157326476Y-69381200D01*
X157326476Y-69381200D02*
X157278857Y-69333580D01*
X155944642Y-80672819D02*
X155611309Y-80196628D01*
X155373214Y-80672819D02*
X155373214Y-79672819D01*
X155373214Y-79672819D02*
X155754166Y-79672819D01*
X155754166Y-79672819D02*
X155849404Y-79720438D01*
X155849404Y-79720438D02*
X155897023Y-79768057D01*
X155897023Y-79768057D02*
X155944642Y-79863295D01*
X155944642Y-79863295D02*
X155944642Y-80006152D01*
X155944642Y-80006152D02*
X155897023Y-80101390D01*
X155897023Y-80101390D02*
X155849404Y-80149009D01*
X155849404Y-80149009D02*
X155754166Y-80196628D01*
X155754166Y-80196628D02*
X155373214Y-80196628D01*
X156897023Y-80672819D02*
X156325595Y-80672819D01*
X156611309Y-80672819D02*
X156611309Y-79672819D01*
X156611309Y-79672819D02*
X156516071Y-79815676D01*
X156516071Y-79815676D02*
X156420833Y-79910914D01*
X156420833Y-79910914D02*
X156325595Y-79958533D01*
X157849404Y-80672819D02*
X157277976Y-80672819D01*
X157563690Y-80672819D02*
X157563690Y-79672819D01*
X157563690Y-79672819D02*
X157468452Y-79815676D01*
X157468452Y-79815676D02*
X157373214Y-79910914D01*
X157373214Y-79910914D02*
X157277976Y-79958533D01*
X182757142Y-76624819D02*
X182423809Y-76148628D01*
X182185714Y-76624819D02*
X182185714Y-75624819D01*
X182185714Y-75624819D02*
X182566666Y-75624819D01*
X182566666Y-75624819D02*
X182661904Y-75672438D01*
X182661904Y-75672438D02*
X182709523Y-75720057D01*
X182709523Y-75720057D02*
X182757142Y-75815295D01*
X182757142Y-75815295D02*
X182757142Y-75958152D01*
X182757142Y-75958152D02*
X182709523Y-76053390D01*
X182709523Y-76053390D02*
X182661904Y-76101009D01*
X182661904Y-76101009D02*
X182566666Y-76148628D01*
X182566666Y-76148628D02*
X182185714Y-76148628D01*
X183090476Y-75624819D02*
X183709523Y-75624819D01*
X183709523Y-75624819D02*
X183376190Y-76005771D01*
X183376190Y-76005771D02*
X183519047Y-76005771D01*
X183519047Y-76005771D02*
X183614285Y-76053390D01*
X183614285Y-76053390D02*
X183661904Y-76101009D01*
X183661904Y-76101009D02*
X183709523Y-76196247D01*
X183709523Y-76196247D02*
X183709523Y-76434342D01*
X183709523Y-76434342D02*
X183661904Y-76529580D01*
X183661904Y-76529580D02*
X183614285Y-76577200D01*
X183614285Y-76577200D02*
X183519047Y-76624819D01*
X183519047Y-76624819D02*
X183233333Y-76624819D01*
X183233333Y-76624819D02*
X183138095Y-76577200D01*
X183138095Y-76577200D02*
X183090476Y-76529580D01*
X184328571Y-75624819D02*
X184423809Y-75624819D01*
X184423809Y-75624819D02*
X184519047Y-75672438D01*
X184519047Y-75672438D02*
X184566666Y-75720057D01*
X184566666Y-75720057D02*
X184614285Y-75815295D01*
X184614285Y-75815295D02*
X184661904Y-76005771D01*
X184661904Y-76005771D02*
X184661904Y-76243866D01*
X184661904Y-76243866D02*
X184614285Y-76434342D01*
X184614285Y-76434342D02*
X184566666Y-76529580D01*
X184566666Y-76529580D02*
X184519047Y-76577200D01*
X184519047Y-76577200D02*
X184423809Y-76624819D01*
X184423809Y-76624819D02*
X184328571Y-76624819D01*
X184328571Y-76624819D02*
X184233333Y-76577200D01*
X184233333Y-76577200D02*
X184185714Y-76529580D01*
X184185714Y-76529580D02*
X184138095Y-76434342D01*
X184138095Y-76434342D02*
X184090476Y-76243866D01*
X184090476Y-76243866D02*
X184090476Y-76005771D01*
X184090476Y-76005771D02*
X184138095Y-75815295D01*
X184138095Y-75815295D02*
X184185714Y-75720057D01*
X184185714Y-75720057D02*
X184233333Y-75672438D01*
X184233333Y-75672438D02*
X184328571Y-75624819D01*
X167870833Y-84134819D02*
X167537500Y-83658628D01*
X167299405Y-84134819D02*
X167299405Y-83134819D01*
X167299405Y-83134819D02*
X167680357Y-83134819D01*
X167680357Y-83134819D02*
X167775595Y-83182438D01*
X167775595Y-83182438D02*
X167823214Y-83230057D01*
X167823214Y-83230057D02*
X167870833Y-83325295D01*
X167870833Y-83325295D02*
X167870833Y-83468152D01*
X167870833Y-83468152D02*
X167823214Y-83563390D01*
X167823214Y-83563390D02*
X167775595Y-83611009D01*
X167775595Y-83611009D02*
X167680357Y-83658628D01*
X167680357Y-83658628D02*
X167299405Y-83658628D01*
X168204167Y-83134819D02*
X168870833Y-83134819D01*
X168870833Y-83134819D02*
X168442262Y-84134819D01*
X161238095Y-77954819D02*
X161238095Y-78764342D01*
X161238095Y-78764342D02*
X161285714Y-78859580D01*
X161285714Y-78859580D02*
X161333333Y-78907200D01*
X161333333Y-78907200D02*
X161428571Y-78954819D01*
X161428571Y-78954819D02*
X161619047Y-78954819D01*
X161619047Y-78954819D02*
X161714285Y-78907200D01*
X161714285Y-78907200D02*
X161761904Y-78859580D01*
X161761904Y-78859580D02*
X161809523Y-78764342D01*
X161809523Y-78764342D02*
X161809523Y-77954819D01*
X162190476Y-77954819D02*
X162809523Y-77954819D01*
X162809523Y-77954819D02*
X162476190Y-78335771D01*
X162476190Y-78335771D02*
X162619047Y-78335771D01*
X162619047Y-78335771D02*
X162714285Y-78383390D01*
X162714285Y-78383390D02*
X162761904Y-78431009D01*
X162761904Y-78431009D02*
X162809523Y-78526247D01*
X162809523Y-78526247D02*
X162809523Y-78764342D01*
X162809523Y-78764342D02*
X162761904Y-78859580D01*
X162761904Y-78859580D02*
X162714285Y-78907200D01*
X162714285Y-78907200D02*
X162619047Y-78954819D01*
X162619047Y-78954819D02*
X162333333Y-78954819D01*
X162333333Y-78954819D02*
X162238095Y-78907200D01*
X162238095Y-78907200D02*
X162190476Y-78859580D01*
X190207142Y-73479580D02*
X190159523Y-73527200D01*
X190159523Y-73527200D02*
X190016666Y-73574819D01*
X190016666Y-73574819D02*
X189921428Y-73574819D01*
X189921428Y-73574819D02*
X189778571Y-73527200D01*
X189778571Y-73527200D02*
X189683333Y-73431961D01*
X189683333Y-73431961D02*
X189635714Y-73336723D01*
X189635714Y-73336723D02*
X189588095Y-73146247D01*
X189588095Y-73146247D02*
X189588095Y-73003390D01*
X189588095Y-73003390D02*
X189635714Y-72812914D01*
X189635714Y-72812914D02*
X189683333Y-72717676D01*
X189683333Y-72717676D02*
X189778571Y-72622438D01*
X189778571Y-72622438D02*
X189921428Y-72574819D01*
X189921428Y-72574819D02*
X190016666Y-72574819D01*
X190016666Y-72574819D02*
X190159523Y-72622438D01*
X190159523Y-72622438D02*
X190207142Y-72670057D01*
X191159523Y-73574819D02*
X190588095Y-73574819D01*
X190873809Y-73574819D02*
X190873809Y-72574819D01*
X190873809Y-72574819D02*
X190778571Y-72717676D01*
X190778571Y-72717676D02*
X190683333Y-72812914D01*
X190683333Y-72812914D02*
X190588095Y-72860533D01*
X192111904Y-73574819D02*
X191540476Y-73574819D01*
X191826190Y-73574819D02*
X191826190Y-72574819D01*
X191826190Y-72574819D02*
X191730952Y-72717676D01*
X191730952Y-72717676D02*
X191635714Y-72812914D01*
X191635714Y-72812914D02*
X191540476Y-72860533D01*
X185461905Y-65206819D02*
X186033333Y-65206819D01*
X185747619Y-66206819D02*
X185747619Y-65206819D01*
X186366667Y-66206819D02*
X186366667Y-65206819D01*
X186366667Y-65206819D02*
X186747619Y-65206819D01*
X186747619Y-65206819D02*
X186842857Y-65254438D01*
X186842857Y-65254438D02*
X186890476Y-65302057D01*
X186890476Y-65302057D02*
X186938095Y-65397295D01*
X186938095Y-65397295D02*
X186938095Y-65540152D01*
X186938095Y-65540152D02*
X186890476Y-65635390D01*
X186890476Y-65635390D02*
X186842857Y-65683009D01*
X186842857Y-65683009D02*
X186747619Y-65730628D01*
X186747619Y-65730628D02*
X186366667Y-65730628D01*
X187890476Y-66206819D02*
X187319048Y-66206819D01*
X187604762Y-66206819D02*
X187604762Y-65206819D01*
X187604762Y-65206819D02*
X187509524Y-65349676D01*
X187509524Y-65349676D02*
X187414286Y-65444914D01*
X187414286Y-65444914D02*
X187319048Y-65492533D01*
X188747619Y-65206819D02*
X188557143Y-65206819D01*
X188557143Y-65206819D02*
X188461905Y-65254438D01*
X188461905Y-65254438D02*
X188414286Y-65302057D01*
X188414286Y-65302057D02*
X188319048Y-65444914D01*
X188319048Y-65444914D02*
X188271429Y-65635390D01*
X188271429Y-65635390D02*
X188271429Y-66016342D01*
X188271429Y-66016342D02*
X188319048Y-66111580D01*
X188319048Y-66111580D02*
X188366667Y-66159200D01*
X188366667Y-66159200D02*
X188461905Y-66206819D01*
X188461905Y-66206819D02*
X188652381Y-66206819D01*
X188652381Y-66206819D02*
X188747619Y-66159200D01*
X188747619Y-66159200D02*
X188795238Y-66111580D01*
X188795238Y-66111580D02*
X188842857Y-66016342D01*
X188842857Y-66016342D02*
X188842857Y-65778247D01*
X188842857Y-65778247D02*
X188795238Y-65683009D01*
X188795238Y-65683009D02*
X188747619Y-65635390D01*
X188747619Y-65635390D02*
X188652381Y-65587771D01*
X188652381Y-65587771D02*
X188461905Y-65587771D01*
X188461905Y-65587771D02*
X188366667Y-65635390D01*
X188366667Y-65635390D02*
X188319048Y-65683009D01*
X188319048Y-65683009D02*
X188271429Y-65778247D01*
X171277142Y-69634819D02*
X170943809Y-69158628D01*
X170705714Y-69634819D02*
X170705714Y-68634819D01*
X170705714Y-68634819D02*
X171086666Y-68634819D01*
X171086666Y-68634819D02*
X171181904Y-68682438D01*
X171181904Y-68682438D02*
X171229523Y-68730057D01*
X171229523Y-68730057D02*
X171277142Y-68825295D01*
X171277142Y-68825295D02*
X171277142Y-68968152D01*
X171277142Y-68968152D02*
X171229523Y-69063390D01*
X171229523Y-69063390D02*
X171181904Y-69111009D01*
X171181904Y-69111009D02*
X171086666Y-69158628D01*
X171086666Y-69158628D02*
X170705714Y-69158628D01*
X171658095Y-68730057D02*
X171705714Y-68682438D01*
X171705714Y-68682438D02*
X171800952Y-68634819D01*
X171800952Y-68634819D02*
X172039047Y-68634819D01*
X172039047Y-68634819D02*
X172134285Y-68682438D01*
X172134285Y-68682438D02*
X172181904Y-68730057D01*
X172181904Y-68730057D02*
X172229523Y-68825295D01*
X172229523Y-68825295D02*
X172229523Y-68920533D01*
X172229523Y-68920533D02*
X172181904Y-69063390D01*
X172181904Y-69063390D02*
X171610476Y-69634819D01*
X171610476Y-69634819D02*
X172229523Y-69634819D01*
X172800952Y-69063390D02*
X172705714Y-69015771D01*
X172705714Y-69015771D02*
X172658095Y-68968152D01*
X172658095Y-68968152D02*
X172610476Y-68872914D01*
X172610476Y-68872914D02*
X172610476Y-68825295D01*
X172610476Y-68825295D02*
X172658095Y-68730057D01*
X172658095Y-68730057D02*
X172705714Y-68682438D01*
X172705714Y-68682438D02*
X172800952Y-68634819D01*
X172800952Y-68634819D02*
X172991428Y-68634819D01*
X172991428Y-68634819D02*
X173086666Y-68682438D01*
X173086666Y-68682438D02*
X173134285Y-68730057D01*
X173134285Y-68730057D02*
X173181904Y-68825295D01*
X173181904Y-68825295D02*
X173181904Y-68872914D01*
X173181904Y-68872914D02*
X173134285Y-68968152D01*
X173134285Y-68968152D02*
X173086666Y-69015771D01*
X173086666Y-69015771D02*
X172991428Y-69063390D01*
X172991428Y-69063390D02*
X172800952Y-69063390D01*
X172800952Y-69063390D02*
X172705714Y-69111009D01*
X172705714Y-69111009D02*
X172658095Y-69158628D01*
X172658095Y-69158628D02*
X172610476Y-69253866D01*
X172610476Y-69253866D02*
X172610476Y-69444342D01*
X172610476Y-69444342D02*
X172658095Y-69539580D01*
X172658095Y-69539580D02*
X172705714Y-69587200D01*
X172705714Y-69587200D02*
X172800952Y-69634819D01*
X172800952Y-69634819D02*
X172991428Y-69634819D01*
X172991428Y-69634819D02*
X173086666Y-69587200D01*
X173086666Y-69587200D02*
X173134285Y-69539580D01*
X173134285Y-69539580D02*
X173181904Y-69444342D01*
X173181904Y-69444342D02*
X173181904Y-69253866D01*
X173181904Y-69253866D02*
X173134285Y-69158628D01*
X173134285Y-69158628D02*
X173086666Y-69111009D01*
X173086666Y-69111009D02*
X172991428Y-69063390D01*
X178444642Y-96054819D02*
X178111309Y-95578628D01*
X177873214Y-96054819D02*
X177873214Y-95054819D01*
X177873214Y-95054819D02*
X178254166Y-95054819D01*
X178254166Y-95054819D02*
X178349404Y-95102438D01*
X178349404Y-95102438D02*
X178397023Y-95150057D01*
X178397023Y-95150057D02*
X178444642Y-95245295D01*
X178444642Y-95245295D02*
X178444642Y-95388152D01*
X178444642Y-95388152D02*
X178397023Y-95483390D01*
X178397023Y-95483390D02*
X178349404Y-95531009D01*
X178349404Y-95531009D02*
X178254166Y-95578628D01*
X178254166Y-95578628D02*
X177873214Y-95578628D01*
X178777976Y-95054819D02*
X179397023Y-95054819D01*
X179397023Y-95054819D02*
X179063690Y-95435771D01*
X179063690Y-95435771D02*
X179206547Y-95435771D01*
X179206547Y-95435771D02*
X179301785Y-95483390D01*
X179301785Y-95483390D02*
X179349404Y-95531009D01*
X179349404Y-95531009D02*
X179397023Y-95626247D01*
X179397023Y-95626247D02*
X179397023Y-95864342D01*
X179397023Y-95864342D02*
X179349404Y-95959580D01*
X179349404Y-95959580D02*
X179301785Y-96007200D01*
X179301785Y-96007200D02*
X179206547Y-96054819D01*
X179206547Y-96054819D02*
X178920833Y-96054819D01*
X178920833Y-96054819D02*
X178825595Y-96007200D01*
X178825595Y-96007200D02*
X178777976Y-95959580D01*
X180301785Y-95054819D02*
X179825595Y-95054819D01*
X179825595Y-95054819D02*
X179777976Y-95531009D01*
X179777976Y-95531009D02*
X179825595Y-95483390D01*
X179825595Y-95483390D02*
X179920833Y-95435771D01*
X179920833Y-95435771D02*
X180158928Y-95435771D01*
X180158928Y-95435771D02*
X180254166Y-95483390D01*
X180254166Y-95483390D02*
X180301785Y-95531009D01*
X180301785Y-95531009D02*
X180349404Y-95626247D01*
X180349404Y-95626247D02*
X180349404Y-95864342D01*
X180349404Y-95864342D02*
X180301785Y-95959580D01*
X180301785Y-95959580D02*
X180254166Y-96007200D01*
X180254166Y-96007200D02*
X180158928Y-96054819D01*
X180158928Y-96054819D02*
X179920833Y-96054819D01*
X179920833Y-96054819D02*
X179825595Y-96007200D01*
X179825595Y-96007200D02*
X179777976Y-95959580D01*
X168033333Y-95743580D02*
X167985714Y-95791200D01*
X167985714Y-95791200D02*
X167842857Y-95838819D01*
X167842857Y-95838819D02*
X167747619Y-95838819D01*
X167747619Y-95838819D02*
X167604762Y-95791200D01*
X167604762Y-95791200D02*
X167509524Y-95695961D01*
X167509524Y-95695961D02*
X167461905Y-95600723D01*
X167461905Y-95600723D02*
X167414286Y-95410247D01*
X167414286Y-95410247D02*
X167414286Y-95267390D01*
X167414286Y-95267390D02*
X167461905Y-95076914D01*
X167461905Y-95076914D02*
X167509524Y-94981676D01*
X167509524Y-94981676D02*
X167604762Y-94886438D01*
X167604762Y-94886438D02*
X167747619Y-94838819D01*
X167747619Y-94838819D02*
X167842857Y-94838819D01*
X167842857Y-94838819D02*
X167985714Y-94886438D01*
X167985714Y-94886438D02*
X168033333Y-94934057D01*
X168938095Y-94838819D02*
X168461905Y-94838819D01*
X168461905Y-94838819D02*
X168414286Y-95315009D01*
X168414286Y-95315009D02*
X168461905Y-95267390D01*
X168461905Y-95267390D02*
X168557143Y-95219771D01*
X168557143Y-95219771D02*
X168795238Y-95219771D01*
X168795238Y-95219771D02*
X168890476Y-95267390D01*
X168890476Y-95267390D02*
X168938095Y-95315009D01*
X168938095Y-95315009D02*
X168985714Y-95410247D01*
X168985714Y-95410247D02*
X168985714Y-95648342D01*
X168985714Y-95648342D02*
X168938095Y-95743580D01*
X168938095Y-95743580D02*
X168890476Y-95791200D01*
X168890476Y-95791200D02*
X168795238Y-95838819D01*
X168795238Y-95838819D02*
X168557143Y-95838819D01*
X168557143Y-95838819D02*
X168461905Y-95791200D01*
X168461905Y-95791200D02*
X168414286Y-95743580D01*
X172920833Y-108554819D02*
X172587500Y-108078628D01*
X172349405Y-108554819D02*
X172349405Y-107554819D01*
X172349405Y-107554819D02*
X172730357Y-107554819D01*
X172730357Y-107554819D02*
X172825595Y-107602438D01*
X172825595Y-107602438D02*
X172873214Y-107650057D01*
X172873214Y-107650057D02*
X172920833Y-107745295D01*
X172920833Y-107745295D02*
X172920833Y-107888152D01*
X172920833Y-107888152D02*
X172873214Y-107983390D01*
X172873214Y-107983390D02*
X172825595Y-108031009D01*
X172825595Y-108031009D02*
X172730357Y-108078628D01*
X172730357Y-108078628D02*
X172349405Y-108078628D01*
X173825595Y-107554819D02*
X173349405Y-107554819D01*
X173349405Y-107554819D02*
X173301786Y-108031009D01*
X173301786Y-108031009D02*
X173349405Y-107983390D01*
X173349405Y-107983390D02*
X173444643Y-107935771D01*
X173444643Y-107935771D02*
X173682738Y-107935771D01*
X173682738Y-107935771D02*
X173777976Y-107983390D01*
X173777976Y-107983390D02*
X173825595Y-108031009D01*
X173825595Y-108031009D02*
X173873214Y-108126247D01*
X173873214Y-108126247D02*
X173873214Y-108364342D01*
X173873214Y-108364342D02*
X173825595Y-108459580D01*
X173825595Y-108459580D02*
X173777976Y-108507200D01*
X173777976Y-108507200D02*
X173682738Y-108554819D01*
X173682738Y-108554819D02*
X173444643Y-108554819D01*
X173444643Y-108554819D02*
X173349405Y-108507200D01*
X173349405Y-108507200D02*
X173301786Y-108459580D01*
X156056142Y-75016819D02*
X155722809Y-74540628D01*
X155484714Y-75016819D02*
X155484714Y-74016819D01*
X155484714Y-74016819D02*
X155865666Y-74016819D01*
X155865666Y-74016819D02*
X155960904Y-74064438D01*
X155960904Y-74064438D02*
X156008523Y-74112057D01*
X156008523Y-74112057D02*
X156056142Y-74207295D01*
X156056142Y-74207295D02*
X156056142Y-74350152D01*
X156056142Y-74350152D02*
X156008523Y-74445390D01*
X156008523Y-74445390D02*
X155960904Y-74493009D01*
X155960904Y-74493009D02*
X155865666Y-74540628D01*
X155865666Y-74540628D02*
X155484714Y-74540628D01*
X156913285Y-74350152D02*
X156913285Y-75016819D01*
X156675190Y-73969200D02*
X156437095Y-74683485D01*
X156437095Y-74683485D02*
X157056142Y-74683485D01*
X157389476Y-74112057D02*
X157437095Y-74064438D01*
X157437095Y-74064438D02*
X157532333Y-74016819D01*
X157532333Y-74016819D02*
X157770428Y-74016819D01*
X157770428Y-74016819D02*
X157865666Y-74064438D01*
X157865666Y-74064438D02*
X157913285Y-74112057D01*
X157913285Y-74112057D02*
X157960904Y-74207295D01*
X157960904Y-74207295D02*
X157960904Y-74302533D01*
X157960904Y-74302533D02*
X157913285Y-74445390D01*
X157913285Y-74445390D02*
X157341857Y-75016819D01*
X157341857Y-75016819D02*
X157960904Y-75016819D01*
X156051642Y-87804819D02*
X155718309Y-87328628D01*
X155480214Y-87804819D02*
X155480214Y-86804819D01*
X155480214Y-86804819D02*
X155861166Y-86804819D01*
X155861166Y-86804819D02*
X155956404Y-86852438D01*
X155956404Y-86852438D02*
X156004023Y-86900057D01*
X156004023Y-86900057D02*
X156051642Y-86995295D01*
X156051642Y-86995295D02*
X156051642Y-87138152D01*
X156051642Y-87138152D02*
X156004023Y-87233390D01*
X156004023Y-87233390D02*
X155956404Y-87281009D01*
X155956404Y-87281009D02*
X155861166Y-87328628D01*
X155861166Y-87328628D02*
X155480214Y-87328628D01*
X157004023Y-87804819D02*
X156432595Y-87804819D01*
X156718309Y-87804819D02*
X156718309Y-86804819D01*
X156718309Y-86804819D02*
X156623071Y-86947676D01*
X156623071Y-86947676D02*
X156527833Y-87042914D01*
X156527833Y-87042914D02*
X156432595Y-87090533D01*
X157623071Y-86804819D02*
X157718309Y-86804819D01*
X157718309Y-86804819D02*
X157813547Y-86852438D01*
X157813547Y-86852438D02*
X157861166Y-86900057D01*
X157861166Y-86900057D02*
X157908785Y-86995295D01*
X157908785Y-86995295D02*
X157956404Y-87185771D01*
X157956404Y-87185771D02*
X157956404Y-87423866D01*
X157956404Y-87423866D02*
X157908785Y-87614342D01*
X157908785Y-87614342D02*
X157861166Y-87709580D01*
X157861166Y-87709580D02*
X157813547Y-87757200D01*
X157813547Y-87757200D02*
X157718309Y-87804819D01*
X157718309Y-87804819D02*
X157623071Y-87804819D01*
X157623071Y-87804819D02*
X157527833Y-87757200D01*
X157527833Y-87757200D02*
X157480214Y-87709580D01*
X157480214Y-87709580D02*
X157432595Y-87614342D01*
X157432595Y-87614342D02*
X157384976Y-87423866D01*
X157384976Y-87423866D02*
X157384976Y-87185771D01*
X157384976Y-87185771D02*
X157432595Y-86995295D01*
X157432595Y-86995295D02*
X157480214Y-86900057D01*
X157480214Y-86900057D02*
X157527833Y-86852438D01*
X157527833Y-86852438D02*
X157623071Y-86804819D01*
X165261905Y-112506819D02*
X165833333Y-112506819D01*
X165547619Y-113506819D02*
X165547619Y-112506819D01*
X166166667Y-113506819D02*
X166166667Y-112506819D01*
X166166667Y-112506819D02*
X166547619Y-112506819D01*
X166547619Y-112506819D02*
X166642857Y-112554438D01*
X166642857Y-112554438D02*
X166690476Y-112602057D01*
X166690476Y-112602057D02*
X166738095Y-112697295D01*
X166738095Y-112697295D02*
X166738095Y-112840152D01*
X166738095Y-112840152D02*
X166690476Y-112935390D01*
X166690476Y-112935390D02*
X166642857Y-112983009D01*
X166642857Y-112983009D02*
X166547619Y-113030628D01*
X166547619Y-113030628D02*
X166166667Y-113030628D01*
X167690476Y-113506819D02*
X167119048Y-113506819D01*
X167404762Y-113506819D02*
X167404762Y-112506819D01*
X167404762Y-112506819D02*
X167309524Y-112649676D01*
X167309524Y-112649676D02*
X167214286Y-112744914D01*
X167214286Y-112744914D02*
X167119048Y-112792533D01*
X168261905Y-112935390D02*
X168166667Y-112887771D01*
X168166667Y-112887771D02*
X168119048Y-112840152D01*
X168119048Y-112840152D02*
X168071429Y-112744914D01*
X168071429Y-112744914D02*
X168071429Y-112697295D01*
X168071429Y-112697295D02*
X168119048Y-112602057D01*
X168119048Y-112602057D02*
X168166667Y-112554438D01*
X168166667Y-112554438D02*
X168261905Y-112506819D01*
X168261905Y-112506819D02*
X168452381Y-112506819D01*
X168452381Y-112506819D02*
X168547619Y-112554438D01*
X168547619Y-112554438D02*
X168595238Y-112602057D01*
X168595238Y-112602057D02*
X168642857Y-112697295D01*
X168642857Y-112697295D02*
X168642857Y-112744914D01*
X168642857Y-112744914D02*
X168595238Y-112840152D01*
X168595238Y-112840152D02*
X168547619Y-112887771D01*
X168547619Y-112887771D02*
X168452381Y-112935390D01*
X168452381Y-112935390D02*
X168261905Y-112935390D01*
X168261905Y-112935390D02*
X168166667Y-112983009D01*
X168166667Y-112983009D02*
X168119048Y-113030628D01*
X168119048Y-113030628D02*
X168071429Y-113125866D01*
X168071429Y-113125866D02*
X168071429Y-113316342D01*
X168071429Y-113316342D02*
X168119048Y-113411580D01*
X168119048Y-113411580D02*
X168166667Y-113459200D01*
X168166667Y-113459200D02*
X168261905Y-113506819D01*
X168261905Y-113506819D02*
X168452381Y-113506819D01*
X168452381Y-113506819D02*
X168547619Y-113459200D01*
X168547619Y-113459200D02*
X168595238Y-113411580D01*
X168595238Y-113411580D02*
X168642857Y-113316342D01*
X168642857Y-113316342D02*
X168642857Y-113125866D01*
X168642857Y-113125866D02*
X168595238Y-113030628D01*
X168595238Y-113030628D02*
X168547619Y-112983009D01*
X168547619Y-112983009D02*
X168452381Y-112935390D01*
X165853333Y-78699580D02*
X165805714Y-78747200D01*
X165805714Y-78747200D02*
X165662857Y-78794819D01*
X165662857Y-78794819D02*
X165567619Y-78794819D01*
X165567619Y-78794819D02*
X165424762Y-78747200D01*
X165424762Y-78747200D02*
X165329524Y-78651961D01*
X165329524Y-78651961D02*
X165281905Y-78556723D01*
X165281905Y-78556723D02*
X165234286Y-78366247D01*
X165234286Y-78366247D02*
X165234286Y-78223390D01*
X165234286Y-78223390D02*
X165281905Y-78032914D01*
X165281905Y-78032914D02*
X165329524Y-77937676D01*
X165329524Y-77937676D02*
X165424762Y-77842438D01*
X165424762Y-77842438D02*
X165567619Y-77794819D01*
X165567619Y-77794819D02*
X165662857Y-77794819D01*
X165662857Y-77794819D02*
X165805714Y-77842438D01*
X165805714Y-77842438D02*
X165853333Y-77890057D01*
X166186667Y-77794819D02*
X166805714Y-77794819D01*
X166805714Y-77794819D02*
X166472381Y-78175771D01*
X166472381Y-78175771D02*
X166615238Y-78175771D01*
X166615238Y-78175771D02*
X166710476Y-78223390D01*
X166710476Y-78223390D02*
X166758095Y-78271009D01*
X166758095Y-78271009D02*
X166805714Y-78366247D01*
X166805714Y-78366247D02*
X166805714Y-78604342D01*
X166805714Y-78604342D02*
X166758095Y-78699580D01*
X166758095Y-78699580D02*
X166710476Y-78747200D01*
X166710476Y-78747200D02*
X166615238Y-78794819D01*
X166615238Y-78794819D02*
X166329524Y-78794819D01*
X166329524Y-78794819D02*
X166234286Y-78747200D01*
X166234286Y-78747200D02*
X166186667Y-78699580D01*
X179908333Y-83474819D02*
X179432143Y-83474819D01*
X179432143Y-83474819D02*
X179432143Y-82474819D01*
X180146429Y-82474819D02*
X180765476Y-82474819D01*
X180765476Y-82474819D02*
X180432143Y-82855771D01*
X180432143Y-82855771D02*
X180575000Y-82855771D01*
X180575000Y-82855771D02*
X180670238Y-82903390D01*
X180670238Y-82903390D02*
X180717857Y-82951009D01*
X180717857Y-82951009D02*
X180765476Y-83046247D01*
X180765476Y-83046247D02*
X180765476Y-83284342D01*
X180765476Y-83284342D02*
X180717857Y-83379580D01*
X180717857Y-83379580D02*
X180670238Y-83427200D01*
X180670238Y-83427200D02*
X180575000Y-83474819D01*
X180575000Y-83474819D02*
X180289286Y-83474819D01*
X180289286Y-83474819D02*
X180194048Y-83427200D01*
X180194048Y-83427200D02*
X180146429Y-83379580D01*
X173859142Y-87427580D02*
X173811523Y-87475200D01*
X173811523Y-87475200D02*
X173668666Y-87522819D01*
X173668666Y-87522819D02*
X173573428Y-87522819D01*
X173573428Y-87522819D02*
X173430571Y-87475200D01*
X173430571Y-87475200D02*
X173335333Y-87379961D01*
X173335333Y-87379961D02*
X173287714Y-87284723D01*
X173287714Y-87284723D02*
X173240095Y-87094247D01*
X173240095Y-87094247D02*
X173240095Y-86951390D01*
X173240095Y-86951390D02*
X173287714Y-86760914D01*
X173287714Y-86760914D02*
X173335333Y-86665676D01*
X173335333Y-86665676D02*
X173430571Y-86570438D01*
X173430571Y-86570438D02*
X173573428Y-86522819D01*
X173573428Y-86522819D02*
X173668666Y-86522819D01*
X173668666Y-86522819D02*
X173811523Y-86570438D01*
X173811523Y-86570438D02*
X173859142Y-86618057D01*
X174811523Y-87522819D02*
X174240095Y-87522819D01*
X174525809Y-87522819D02*
X174525809Y-86522819D01*
X174525809Y-86522819D02*
X174430571Y-86665676D01*
X174430571Y-86665676D02*
X174335333Y-86760914D01*
X174335333Y-86760914D02*
X174240095Y-86808533D01*
X175668666Y-86856152D02*
X175668666Y-87522819D01*
X175430571Y-86475200D02*
X175192476Y-87189485D01*
X175192476Y-87189485D02*
X175811523Y-87189485D01*
X168011905Y-87404819D02*
X168011905Y-86404819D01*
X168011905Y-86404819D02*
X168250000Y-86404819D01*
X168250000Y-86404819D02*
X168392857Y-86452438D01*
X168392857Y-86452438D02*
X168488095Y-86547676D01*
X168488095Y-86547676D02*
X168535714Y-86642914D01*
X168535714Y-86642914D02*
X168583333Y-86833390D01*
X168583333Y-86833390D02*
X168583333Y-86976247D01*
X168583333Y-86976247D02*
X168535714Y-87166723D01*
X168535714Y-87166723D02*
X168488095Y-87261961D01*
X168488095Y-87261961D02*
X168392857Y-87357200D01*
X168392857Y-87357200D02*
X168250000Y-87404819D01*
X168250000Y-87404819D02*
X168011905Y-87404819D01*
X168964286Y-86500057D02*
X169011905Y-86452438D01*
X169011905Y-86452438D02*
X169107143Y-86404819D01*
X169107143Y-86404819D02*
X169345238Y-86404819D01*
X169345238Y-86404819D02*
X169440476Y-86452438D01*
X169440476Y-86452438D02*
X169488095Y-86500057D01*
X169488095Y-86500057D02*
X169535714Y-86595295D01*
X169535714Y-86595295D02*
X169535714Y-86690533D01*
X169535714Y-86690533D02*
X169488095Y-86833390D01*
X169488095Y-86833390D02*
X168916667Y-87404819D01*
X168916667Y-87404819D02*
X169535714Y-87404819D01*
X200075057Y-82295238D02*
X200027438Y-82390476D01*
X200027438Y-82390476D02*
X199932200Y-82485714D01*
X199932200Y-82485714D02*
X199789342Y-82628571D01*
X199789342Y-82628571D02*
X199741723Y-82723809D01*
X199741723Y-82723809D02*
X199741723Y-82819047D01*
X199979819Y-82771428D02*
X199932200Y-82866666D01*
X199932200Y-82866666D02*
X199836961Y-82961904D01*
X199836961Y-82961904D02*
X199646485Y-83009523D01*
X199646485Y-83009523D02*
X199313152Y-83009523D01*
X199313152Y-83009523D02*
X199122676Y-82961904D01*
X199122676Y-82961904D02*
X199027438Y-82866666D01*
X199027438Y-82866666D02*
X198979819Y-82771428D01*
X198979819Y-82771428D02*
X198979819Y-82580952D01*
X198979819Y-82580952D02*
X199027438Y-82485714D01*
X199027438Y-82485714D02*
X199122676Y-82390476D01*
X199122676Y-82390476D02*
X199313152Y-82342857D01*
X199313152Y-82342857D02*
X199646485Y-82342857D01*
X199646485Y-82342857D02*
X199836961Y-82390476D01*
X199836961Y-82390476D02*
X199932200Y-82485714D01*
X199932200Y-82485714D02*
X199979819Y-82580952D01*
X199979819Y-82580952D02*
X199979819Y-82771428D01*
X199075057Y-81961904D02*
X199027438Y-81914285D01*
X199027438Y-81914285D02*
X198979819Y-81819047D01*
X198979819Y-81819047D02*
X198979819Y-81580952D01*
X198979819Y-81580952D02*
X199027438Y-81485714D01*
X199027438Y-81485714D02*
X199075057Y-81438095D01*
X199075057Y-81438095D02*
X199170295Y-81390476D01*
X199170295Y-81390476D02*
X199265533Y-81390476D01*
X199265533Y-81390476D02*
X199408390Y-81438095D01*
X199408390Y-81438095D02*
X199979819Y-82009523D01*
X199979819Y-82009523D02*
X199979819Y-81390476D01*
X157066905Y-64927819D02*
X157638333Y-64927819D01*
X157352619Y-65927819D02*
X157352619Y-64927819D01*
X157971667Y-65927819D02*
X157971667Y-64927819D01*
X157971667Y-64927819D02*
X158352619Y-64927819D01*
X158352619Y-64927819D02*
X158447857Y-64975438D01*
X158447857Y-64975438D02*
X158495476Y-65023057D01*
X158495476Y-65023057D02*
X158543095Y-65118295D01*
X158543095Y-65118295D02*
X158543095Y-65261152D01*
X158543095Y-65261152D02*
X158495476Y-65356390D01*
X158495476Y-65356390D02*
X158447857Y-65404009D01*
X158447857Y-65404009D02*
X158352619Y-65451628D01*
X158352619Y-65451628D02*
X157971667Y-65451628D01*
X158924048Y-65023057D02*
X158971667Y-64975438D01*
X158971667Y-64975438D02*
X159066905Y-64927819D01*
X159066905Y-64927819D02*
X159305000Y-64927819D01*
X159305000Y-64927819D02*
X159400238Y-64975438D01*
X159400238Y-64975438D02*
X159447857Y-65023057D01*
X159447857Y-65023057D02*
X159495476Y-65118295D01*
X159495476Y-65118295D02*
X159495476Y-65213533D01*
X159495476Y-65213533D02*
X159447857Y-65356390D01*
X159447857Y-65356390D02*
X158876429Y-65927819D01*
X158876429Y-65927819D02*
X159495476Y-65927819D01*
X159828810Y-64927819D02*
X160447857Y-64927819D01*
X160447857Y-64927819D02*
X160114524Y-65308771D01*
X160114524Y-65308771D02*
X160257381Y-65308771D01*
X160257381Y-65308771D02*
X160352619Y-65356390D01*
X160352619Y-65356390D02*
X160400238Y-65404009D01*
X160400238Y-65404009D02*
X160447857Y-65499247D01*
X160447857Y-65499247D02*
X160447857Y-65737342D01*
X160447857Y-65737342D02*
X160400238Y-65832580D01*
X160400238Y-65832580D02*
X160352619Y-65880200D01*
X160352619Y-65880200D02*
X160257381Y-65927819D01*
X160257381Y-65927819D02*
X159971667Y-65927819D01*
X159971667Y-65927819D02*
X159876429Y-65880200D01*
X159876429Y-65880200D02*
X159828810Y-65832580D01*
X165483333Y-95854819D02*
X165007143Y-95854819D01*
X165007143Y-95854819D02*
X165007143Y-94854819D01*
X166340476Y-95854819D02*
X165769048Y-95854819D01*
X166054762Y-95854819D02*
X166054762Y-94854819D01*
X166054762Y-94854819D02*
X165959524Y-94997676D01*
X165959524Y-94997676D02*
X165864286Y-95092914D01*
X165864286Y-95092914D02*
X165769048Y-95140533D01*
X166438095Y-65206819D02*
X167009523Y-65206819D01*
X166723809Y-66206819D02*
X166723809Y-65206819D01*
X167342857Y-66206819D02*
X167342857Y-65206819D01*
X167342857Y-65206819D02*
X167723809Y-65206819D01*
X167723809Y-65206819D02*
X167819047Y-65254438D01*
X167819047Y-65254438D02*
X167866666Y-65302057D01*
X167866666Y-65302057D02*
X167914285Y-65397295D01*
X167914285Y-65397295D02*
X167914285Y-65540152D01*
X167914285Y-65540152D02*
X167866666Y-65635390D01*
X167866666Y-65635390D02*
X167819047Y-65683009D01*
X167819047Y-65683009D02*
X167723809Y-65730628D01*
X167723809Y-65730628D02*
X167342857Y-65730628D01*
X168247619Y-65206819D02*
X168866666Y-65206819D01*
X168866666Y-65206819D02*
X168533333Y-65587771D01*
X168533333Y-65587771D02*
X168676190Y-65587771D01*
X168676190Y-65587771D02*
X168771428Y-65635390D01*
X168771428Y-65635390D02*
X168819047Y-65683009D01*
X168819047Y-65683009D02*
X168866666Y-65778247D01*
X168866666Y-65778247D02*
X168866666Y-66016342D01*
X168866666Y-66016342D02*
X168819047Y-66111580D01*
X168819047Y-66111580D02*
X168771428Y-66159200D01*
X168771428Y-66159200D02*
X168676190Y-66206819D01*
X168676190Y-66206819D02*
X168390476Y-66206819D01*
X168390476Y-66206819D02*
X168295238Y-66159200D01*
X168295238Y-66159200D02*
X168247619Y-66111580D01*
X170504819Y-78642857D02*
X170028628Y-78976190D01*
X170504819Y-79214285D02*
X169504819Y-79214285D01*
X169504819Y-79214285D02*
X169504819Y-78833333D01*
X169504819Y-78833333D02*
X169552438Y-78738095D01*
X169552438Y-78738095D02*
X169600057Y-78690476D01*
X169600057Y-78690476D02*
X169695295Y-78642857D01*
X169695295Y-78642857D02*
X169838152Y-78642857D01*
X169838152Y-78642857D02*
X169933390Y-78690476D01*
X169933390Y-78690476D02*
X169981009Y-78738095D01*
X169981009Y-78738095D02*
X170028628Y-78833333D01*
X170028628Y-78833333D02*
X170028628Y-79214285D01*
X169600057Y-78261904D02*
X169552438Y-78214285D01*
X169552438Y-78214285D02*
X169504819Y-78119047D01*
X169504819Y-78119047D02*
X169504819Y-77880952D01*
X169504819Y-77880952D02*
X169552438Y-77785714D01*
X169552438Y-77785714D02*
X169600057Y-77738095D01*
X169600057Y-77738095D02*
X169695295Y-77690476D01*
X169695295Y-77690476D02*
X169790533Y-77690476D01*
X169790533Y-77690476D02*
X169933390Y-77738095D01*
X169933390Y-77738095D02*
X170504819Y-78309523D01*
X170504819Y-78309523D02*
X170504819Y-77690476D01*
X169504819Y-77357142D02*
X169504819Y-76738095D01*
X169504819Y-76738095D02*
X169885771Y-77071428D01*
X169885771Y-77071428D02*
X169885771Y-76928571D01*
X169885771Y-76928571D02*
X169933390Y-76833333D01*
X169933390Y-76833333D02*
X169981009Y-76785714D01*
X169981009Y-76785714D02*
X170076247Y-76738095D01*
X170076247Y-76738095D02*
X170314342Y-76738095D01*
X170314342Y-76738095D02*
X170409580Y-76785714D01*
X170409580Y-76785714D02*
X170457200Y-76833333D01*
X170457200Y-76833333D02*
X170504819Y-76928571D01*
X170504819Y-76928571D02*
X170504819Y-77214285D01*
X170504819Y-77214285D02*
X170457200Y-77309523D01*
X170457200Y-77309523D02*
X170409580Y-77357142D01*
X177938095Y-65206819D02*
X178509523Y-65206819D01*
X178223809Y-66206819D02*
X178223809Y-65206819D01*
X178842857Y-66206819D02*
X178842857Y-65206819D01*
X178842857Y-65206819D02*
X179223809Y-65206819D01*
X179223809Y-65206819D02*
X179319047Y-65254438D01*
X179319047Y-65254438D02*
X179366666Y-65302057D01*
X179366666Y-65302057D02*
X179414285Y-65397295D01*
X179414285Y-65397295D02*
X179414285Y-65540152D01*
X179414285Y-65540152D02*
X179366666Y-65635390D01*
X179366666Y-65635390D02*
X179319047Y-65683009D01*
X179319047Y-65683009D02*
X179223809Y-65730628D01*
X179223809Y-65730628D02*
X178842857Y-65730628D01*
X179985714Y-65635390D02*
X179890476Y-65587771D01*
X179890476Y-65587771D02*
X179842857Y-65540152D01*
X179842857Y-65540152D02*
X179795238Y-65444914D01*
X179795238Y-65444914D02*
X179795238Y-65397295D01*
X179795238Y-65397295D02*
X179842857Y-65302057D01*
X179842857Y-65302057D02*
X179890476Y-65254438D01*
X179890476Y-65254438D02*
X179985714Y-65206819D01*
X179985714Y-65206819D02*
X180176190Y-65206819D01*
X180176190Y-65206819D02*
X180271428Y-65254438D01*
X180271428Y-65254438D02*
X180319047Y-65302057D01*
X180319047Y-65302057D02*
X180366666Y-65397295D01*
X180366666Y-65397295D02*
X180366666Y-65444914D01*
X180366666Y-65444914D02*
X180319047Y-65540152D01*
X180319047Y-65540152D02*
X180271428Y-65587771D01*
X180271428Y-65587771D02*
X180176190Y-65635390D01*
X180176190Y-65635390D02*
X179985714Y-65635390D01*
X179985714Y-65635390D02*
X179890476Y-65683009D01*
X179890476Y-65683009D02*
X179842857Y-65730628D01*
X179842857Y-65730628D02*
X179795238Y-65825866D01*
X179795238Y-65825866D02*
X179795238Y-66016342D01*
X179795238Y-66016342D02*
X179842857Y-66111580D01*
X179842857Y-66111580D02*
X179890476Y-66159200D01*
X179890476Y-66159200D02*
X179985714Y-66206819D01*
X179985714Y-66206819D02*
X180176190Y-66206819D01*
X180176190Y-66206819D02*
X180271428Y-66159200D01*
X180271428Y-66159200D02*
X180319047Y-66111580D01*
X180319047Y-66111580D02*
X180366666Y-66016342D01*
X180366666Y-66016342D02*
X180366666Y-65825866D01*
X180366666Y-65825866D02*
X180319047Y-65730628D01*
X180319047Y-65730628D02*
X180271428Y-65683009D01*
X180271428Y-65683009D02*
X180176190Y-65635390D01*
X190025595Y-99304819D02*
X190025595Y-100114342D01*
X190025595Y-100114342D02*
X190073214Y-100209580D01*
X190073214Y-100209580D02*
X190120833Y-100257200D01*
X190120833Y-100257200D02*
X190216071Y-100304819D01*
X190216071Y-100304819D02*
X190406547Y-100304819D01*
X190406547Y-100304819D02*
X190501785Y-100257200D01*
X190501785Y-100257200D02*
X190549404Y-100209580D01*
X190549404Y-100209580D02*
X190597023Y-100114342D01*
X190597023Y-100114342D02*
X190597023Y-99304819D01*
X191501785Y-99304819D02*
X191311309Y-99304819D01*
X191311309Y-99304819D02*
X191216071Y-99352438D01*
X191216071Y-99352438D02*
X191168452Y-99400057D01*
X191168452Y-99400057D02*
X191073214Y-99542914D01*
X191073214Y-99542914D02*
X191025595Y-99733390D01*
X191025595Y-99733390D02*
X191025595Y-100114342D01*
X191025595Y-100114342D02*
X191073214Y-100209580D01*
X191073214Y-100209580D02*
X191120833Y-100257200D01*
X191120833Y-100257200D02*
X191216071Y-100304819D01*
X191216071Y-100304819D02*
X191406547Y-100304819D01*
X191406547Y-100304819D02*
X191501785Y-100257200D01*
X191501785Y-100257200D02*
X191549404Y-100209580D01*
X191549404Y-100209580D02*
X191597023Y-100114342D01*
X191597023Y-100114342D02*
X191597023Y-99876247D01*
X191597023Y-99876247D02*
X191549404Y-99781009D01*
X191549404Y-99781009D02*
X191501785Y-99733390D01*
X191501785Y-99733390D02*
X191406547Y-99685771D01*
X191406547Y-99685771D02*
X191216071Y-99685771D01*
X191216071Y-99685771D02*
X191120833Y-99733390D01*
X191120833Y-99733390D02*
X191073214Y-99781009D01*
X191073214Y-99781009D02*
X191025595Y-99876247D01*
X191083333Y-88429580D02*
X191035714Y-88477200D01*
X191035714Y-88477200D02*
X190892857Y-88524819D01*
X190892857Y-88524819D02*
X190797619Y-88524819D01*
X190797619Y-88524819D02*
X190654762Y-88477200D01*
X190654762Y-88477200D02*
X190559524Y-88381961D01*
X190559524Y-88381961D02*
X190511905Y-88286723D01*
X190511905Y-88286723D02*
X190464286Y-88096247D01*
X190464286Y-88096247D02*
X190464286Y-87953390D01*
X190464286Y-87953390D02*
X190511905Y-87762914D01*
X190511905Y-87762914D02*
X190559524Y-87667676D01*
X190559524Y-87667676D02*
X190654762Y-87572438D01*
X190654762Y-87572438D02*
X190797619Y-87524819D01*
X190797619Y-87524819D02*
X190892857Y-87524819D01*
X190892857Y-87524819D02*
X191035714Y-87572438D01*
X191035714Y-87572438D02*
X191083333Y-87620057D01*
X191559524Y-88524819D02*
X191750000Y-88524819D01*
X191750000Y-88524819D02*
X191845238Y-88477200D01*
X191845238Y-88477200D02*
X191892857Y-88429580D01*
X191892857Y-88429580D02*
X191988095Y-88286723D01*
X191988095Y-88286723D02*
X192035714Y-88096247D01*
X192035714Y-88096247D02*
X192035714Y-87715295D01*
X192035714Y-87715295D02*
X191988095Y-87620057D01*
X191988095Y-87620057D02*
X191940476Y-87572438D01*
X191940476Y-87572438D02*
X191845238Y-87524819D01*
X191845238Y-87524819D02*
X191654762Y-87524819D01*
X191654762Y-87524819D02*
X191559524Y-87572438D01*
X191559524Y-87572438D02*
X191511905Y-87620057D01*
X191511905Y-87620057D02*
X191464286Y-87715295D01*
X191464286Y-87715295D02*
X191464286Y-87953390D01*
X191464286Y-87953390D02*
X191511905Y-88048628D01*
X191511905Y-88048628D02*
X191559524Y-88096247D01*
X191559524Y-88096247D02*
X191654762Y-88143866D01*
X191654762Y-88143866D02*
X191845238Y-88143866D01*
X191845238Y-88143866D02*
X191940476Y-88096247D01*
X191940476Y-88096247D02*
X191988095Y-88048628D01*
X191988095Y-88048628D02*
X192035714Y-87953390D01*
X179869642Y-107134819D02*
X179536309Y-106658628D01*
X179298214Y-107134819D02*
X179298214Y-106134819D01*
X179298214Y-106134819D02*
X179679166Y-106134819D01*
X179679166Y-106134819D02*
X179774404Y-106182438D01*
X179774404Y-106182438D02*
X179822023Y-106230057D01*
X179822023Y-106230057D02*
X179869642Y-106325295D01*
X179869642Y-106325295D02*
X179869642Y-106468152D01*
X179869642Y-106468152D02*
X179822023Y-106563390D01*
X179822023Y-106563390D02*
X179774404Y-106611009D01*
X179774404Y-106611009D02*
X179679166Y-106658628D01*
X179679166Y-106658628D02*
X179298214Y-106658628D01*
X180250595Y-106230057D02*
X180298214Y-106182438D01*
X180298214Y-106182438D02*
X180393452Y-106134819D01*
X180393452Y-106134819D02*
X180631547Y-106134819D01*
X180631547Y-106134819D02*
X180726785Y-106182438D01*
X180726785Y-106182438D02*
X180774404Y-106230057D01*
X180774404Y-106230057D02*
X180822023Y-106325295D01*
X180822023Y-106325295D02*
X180822023Y-106420533D01*
X180822023Y-106420533D02*
X180774404Y-106563390D01*
X180774404Y-106563390D02*
X180202976Y-107134819D01*
X180202976Y-107134819D02*
X180822023Y-107134819D01*
X181679166Y-106468152D02*
X181679166Y-107134819D01*
X181441071Y-106087200D02*
X181202976Y-106801485D01*
X181202976Y-106801485D02*
X181822023Y-106801485D01*
X158666666Y-111204819D02*
X158666666Y-111919104D01*
X158666666Y-111919104D02*
X158619047Y-112061961D01*
X158619047Y-112061961D02*
X158523809Y-112157200D01*
X158523809Y-112157200D02*
X158380952Y-112204819D01*
X158380952Y-112204819D02*
X158285714Y-112204819D01*
X159666666Y-112204819D02*
X159095238Y-112204819D01*
X159380952Y-112204819D02*
X159380952Y-111204819D01*
X159380952Y-111204819D02*
X159285714Y-111347676D01*
X159285714Y-111347676D02*
X159190476Y-111442914D01*
X159190476Y-111442914D02*
X159095238Y-111490533D01*
X186357142Y-76624819D02*
X186023809Y-76148628D01*
X185785714Y-76624819D02*
X185785714Y-75624819D01*
X185785714Y-75624819D02*
X186166666Y-75624819D01*
X186166666Y-75624819D02*
X186261904Y-75672438D01*
X186261904Y-75672438D02*
X186309523Y-75720057D01*
X186309523Y-75720057D02*
X186357142Y-75815295D01*
X186357142Y-75815295D02*
X186357142Y-75958152D01*
X186357142Y-75958152D02*
X186309523Y-76053390D01*
X186309523Y-76053390D02*
X186261904Y-76101009D01*
X186261904Y-76101009D02*
X186166666Y-76148628D01*
X186166666Y-76148628D02*
X185785714Y-76148628D01*
X186690476Y-75624819D02*
X187309523Y-75624819D01*
X187309523Y-75624819D02*
X186976190Y-76005771D01*
X186976190Y-76005771D02*
X187119047Y-76005771D01*
X187119047Y-76005771D02*
X187214285Y-76053390D01*
X187214285Y-76053390D02*
X187261904Y-76101009D01*
X187261904Y-76101009D02*
X187309523Y-76196247D01*
X187309523Y-76196247D02*
X187309523Y-76434342D01*
X187309523Y-76434342D02*
X187261904Y-76529580D01*
X187261904Y-76529580D02*
X187214285Y-76577200D01*
X187214285Y-76577200D02*
X187119047Y-76624819D01*
X187119047Y-76624819D02*
X186833333Y-76624819D01*
X186833333Y-76624819D02*
X186738095Y-76577200D01*
X186738095Y-76577200D02*
X186690476Y-76529580D01*
X188261904Y-76624819D02*
X187690476Y-76624819D01*
X187976190Y-76624819D02*
X187976190Y-75624819D01*
X187976190Y-75624819D02*
X187880952Y-75767676D01*
X187880952Y-75767676D02*
X187785714Y-75862914D01*
X187785714Y-75862914D02*
X187690476Y-75910533D01*
X186107142Y-80274819D02*
X185773809Y-79798628D01*
X185535714Y-80274819D02*
X185535714Y-79274819D01*
X185535714Y-79274819D02*
X185916666Y-79274819D01*
X185916666Y-79274819D02*
X186011904Y-79322438D01*
X186011904Y-79322438D02*
X186059523Y-79370057D01*
X186059523Y-79370057D02*
X186107142Y-79465295D01*
X186107142Y-79465295D02*
X186107142Y-79608152D01*
X186107142Y-79608152D02*
X186059523Y-79703390D01*
X186059523Y-79703390D02*
X186011904Y-79751009D01*
X186011904Y-79751009D02*
X185916666Y-79798628D01*
X185916666Y-79798628D02*
X185535714Y-79798628D01*
X186440476Y-79274819D02*
X187059523Y-79274819D01*
X187059523Y-79274819D02*
X186726190Y-79655771D01*
X186726190Y-79655771D02*
X186869047Y-79655771D01*
X186869047Y-79655771D02*
X186964285Y-79703390D01*
X186964285Y-79703390D02*
X187011904Y-79751009D01*
X187011904Y-79751009D02*
X187059523Y-79846247D01*
X187059523Y-79846247D02*
X187059523Y-80084342D01*
X187059523Y-80084342D02*
X187011904Y-80179580D01*
X187011904Y-80179580D02*
X186964285Y-80227200D01*
X186964285Y-80227200D02*
X186869047Y-80274819D01*
X186869047Y-80274819D02*
X186583333Y-80274819D01*
X186583333Y-80274819D02*
X186488095Y-80227200D01*
X186488095Y-80227200D02*
X186440476Y-80179580D01*
X187440476Y-79370057D02*
X187488095Y-79322438D01*
X187488095Y-79322438D02*
X187583333Y-79274819D01*
X187583333Y-79274819D02*
X187821428Y-79274819D01*
X187821428Y-79274819D02*
X187916666Y-79322438D01*
X187916666Y-79322438D02*
X187964285Y-79370057D01*
X187964285Y-79370057D02*
X188011904Y-79465295D01*
X188011904Y-79465295D02*
X188011904Y-79560533D01*
X188011904Y-79560533D02*
X187964285Y-79703390D01*
X187964285Y-79703390D02*
X187392857Y-80274819D01*
X187392857Y-80274819D02*
X188011904Y-80274819D01*
X190345142Y-80679580D02*
X190297523Y-80727200D01*
X190297523Y-80727200D02*
X190154666Y-80774819D01*
X190154666Y-80774819D02*
X190059428Y-80774819D01*
X190059428Y-80774819D02*
X189916571Y-80727200D01*
X189916571Y-80727200D02*
X189821333Y-80631961D01*
X189821333Y-80631961D02*
X189773714Y-80536723D01*
X189773714Y-80536723D02*
X189726095Y-80346247D01*
X189726095Y-80346247D02*
X189726095Y-80203390D01*
X189726095Y-80203390D02*
X189773714Y-80012914D01*
X189773714Y-80012914D02*
X189821333Y-79917676D01*
X189821333Y-79917676D02*
X189916571Y-79822438D01*
X189916571Y-79822438D02*
X190059428Y-79774819D01*
X190059428Y-79774819D02*
X190154666Y-79774819D01*
X190154666Y-79774819D02*
X190297523Y-79822438D01*
X190297523Y-79822438D02*
X190345142Y-79870057D01*
X191297523Y-80774819D02*
X190726095Y-80774819D01*
X191011809Y-80774819D02*
X191011809Y-79774819D01*
X191011809Y-79774819D02*
X190916571Y-79917676D01*
X190916571Y-79917676D02*
X190821333Y-80012914D01*
X190821333Y-80012914D02*
X190726095Y-80060533D01*
X191678476Y-79870057D02*
X191726095Y-79822438D01*
X191726095Y-79822438D02*
X191821333Y-79774819D01*
X191821333Y-79774819D02*
X192059428Y-79774819D01*
X192059428Y-79774819D02*
X192154666Y-79822438D01*
X192154666Y-79822438D02*
X192202285Y-79870057D01*
X192202285Y-79870057D02*
X192249904Y-79965295D01*
X192249904Y-79965295D02*
X192249904Y-80060533D01*
X192249904Y-80060533D02*
X192202285Y-80203390D01*
X192202285Y-80203390D02*
X191630857Y-80774819D01*
X191630857Y-80774819D02*
X192249904Y-80774819D01*
X169761905Y-112506819D02*
X170333333Y-112506819D01*
X170047619Y-113506819D02*
X170047619Y-112506819D01*
X170666667Y-113506819D02*
X170666667Y-112506819D01*
X170666667Y-112506819D02*
X171047619Y-112506819D01*
X171047619Y-112506819D02*
X171142857Y-112554438D01*
X171142857Y-112554438D02*
X171190476Y-112602057D01*
X171190476Y-112602057D02*
X171238095Y-112697295D01*
X171238095Y-112697295D02*
X171238095Y-112840152D01*
X171238095Y-112840152D02*
X171190476Y-112935390D01*
X171190476Y-112935390D02*
X171142857Y-112983009D01*
X171142857Y-112983009D02*
X171047619Y-113030628D01*
X171047619Y-113030628D02*
X170666667Y-113030628D01*
X171619048Y-112602057D02*
X171666667Y-112554438D01*
X171666667Y-112554438D02*
X171761905Y-112506819D01*
X171761905Y-112506819D02*
X172000000Y-112506819D01*
X172000000Y-112506819D02*
X172095238Y-112554438D01*
X172095238Y-112554438D02*
X172142857Y-112602057D01*
X172142857Y-112602057D02*
X172190476Y-112697295D01*
X172190476Y-112697295D02*
X172190476Y-112792533D01*
X172190476Y-112792533D02*
X172142857Y-112935390D01*
X172142857Y-112935390D02*
X171571429Y-113506819D01*
X171571429Y-113506819D02*
X172190476Y-113506819D01*
X173142857Y-113506819D02*
X172571429Y-113506819D01*
X172857143Y-113506819D02*
X172857143Y-112506819D01*
X172857143Y-112506819D02*
X172761905Y-112649676D01*
X172761905Y-112649676D02*
X172666667Y-112744914D01*
X172666667Y-112744914D02*
X172571429Y-112792533D01*
X190633333Y-105359580D02*
X190585714Y-105407200D01*
X190585714Y-105407200D02*
X190442857Y-105454819D01*
X190442857Y-105454819D02*
X190347619Y-105454819D01*
X190347619Y-105454819D02*
X190204762Y-105407200D01*
X190204762Y-105407200D02*
X190109524Y-105311961D01*
X190109524Y-105311961D02*
X190061905Y-105216723D01*
X190061905Y-105216723D02*
X190014286Y-105026247D01*
X190014286Y-105026247D02*
X190014286Y-104883390D01*
X190014286Y-104883390D02*
X190061905Y-104692914D01*
X190061905Y-104692914D02*
X190109524Y-104597676D01*
X190109524Y-104597676D02*
X190204762Y-104502438D01*
X190204762Y-104502438D02*
X190347619Y-104454819D01*
X190347619Y-104454819D02*
X190442857Y-104454819D01*
X190442857Y-104454819D02*
X190585714Y-104502438D01*
X190585714Y-104502438D02*
X190633333Y-104550057D01*
X191014286Y-104550057D02*
X191061905Y-104502438D01*
X191061905Y-104502438D02*
X191157143Y-104454819D01*
X191157143Y-104454819D02*
X191395238Y-104454819D01*
X191395238Y-104454819D02*
X191490476Y-104502438D01*
X191490476Y-104502438D02*
X191538095Y-104550057D01*
X191538095Y-104550057D02*
X191585714Y-104645295D01*
X191585714Y-104645295D02*
X191585714Y-104740533D01*
X191585714Y-104740533D02*
X191538095Y-104883390D01*
X191538095Y-104883390D02*
X190966667Y-105454819D01*
X190966667Y-105454819D02*
X191585714Y-105454819D01*
X155911142Y-100278819D02*
X155577809Y-99802628D01*
X155339714Y-100278819D02*
X155339714Y-99278819D01*
X155339714Y-99278819D02*
X155720666Y-99278819D01*
X155720666Y-99278819D02*
X155815904Y-99326438D01*
X155815904Y-99326438D02*
X155863523Y-99374057D01*
X155863523Y-99374057D02*
X155911142Y-99469295D01*
X155911142Y-99469295D02*
X155911142Y-99612152D01*
X155911142Y-99612152D02*
X155863523Y-99707390D01*
X155863523Y-99707390D02*
X155815904Y-99755009D01*
X155815904Y-99755009D02*
X155720666Y-99802628D01*
X155720666Y-99802628D02*
X155339714Y-99802628D01*
X156768285Y-99612152D02*
X156768285Y-100278819D01*
X156530190Y-99231200D02*
X156292095Y-99945485D01*
X156292095Y-99945485D02*
X156911142Y-99945485D01*
X157815904Y-100278819D02*
X157244476Y-100278819D01*
X157530190Y-100278819D02*
X157530190Y-99278819D01*
X157530190Y-99278819D02*
X157434952Y-99421676D01*
X157434952Y-99421676D02*
X157339714Y-99516914D01*
X157339714Y-99516914D02*
X157244476Y-99564533D01*
X185683333Y-89704819D02*
X185207143Y-89704819D01*
X185207143Y-89704819D02*
X185207143Y-88704819D01*
X185969048Y-88800057D02*
X186016667Y-88752438D01*
X186016667Y-88752438D02*
X186111905Y-88704819D01*
X186111905Y-88704819D02*
X186350000Y-88704819D01*
X186350000Y-88704819D02*
X186445238Y-88752438D01*
X186445238Y-88752438D02*
X186492857Y-88800057D01*
X186492857Y-88800057D02*
X186540476Y-88895295D01*
X186540476Y-88895295D02*
X186540476Y-88990533D01*
X186540476Y-88990533D02*
X186492857Y-89133390D01*
X186492857Y-89133390D02*
X185921429Y-89704819D01*
X185921429Y-89704819D02*
X186540476Y-89704819D01*
X160957142Y-90474819D02*
X160623809Y-89998628D01*
X160385714Y-90474819D02*
X160385714Y-89474819D01*
X160385714Y-89474819D02*
X160766666Y-89474819D01*
X160766666Y-89474819D02*
X160861904Y-89522438D01*
X160861904Y-89522438D02*
X160909523Y-89570057D01*
X160909523Y-89570057D02*
X160957142Y-89665295D01*
X160957142Y-89665295D02*
X160957142Y-89808152D01*
X160957142Y-89808152D02*
X160909523Y-89903390D01*
X160909523Y-89903390D02*
X160861904Y-89951009D01*
X160861904Y-89951009D02*
X160766666Y-89998628D01*
X160766666Y-89998628D02*
X160385714Y-89998628D01*
X161338095Y-89570057D02*
X161385714Y-89522438D01*
X161385714Y-89522438D02*
X161480952Y-89474819D01*
X161480952Y-89474819D02*
X161719047Y-89474819D01*
X161719047Y-89474819D02*
X161814285Y-89522438D01*
X161814285Y-89522438D02*
X161861904Y-89570057D01*
X161861904Y-89570057D02*
X161909523Y-89665295D01*
X161909523Y-89665295D02*
X161909523Y-89760533D01*
X161909523Y-89760533D02*
X161861904Y-89903390D01*
X161861904Y-89903390D02*
X161290476Y-90474819D01*
X161290476Y-90474819D02*
X161909523Y-90474819D01*
X162290476Y-89570057D02*
X162338095Y-89522438D01*
X162338095Y-89522438D02*
X162433333Y-89474819D01*
X162433333Y-89474819D02*
X162671428Y-89474819D01*
X162671428Y-89474819D02*
X162766666Y-89522438D01*
X162766666Y-89522438D02*
X162814285Y-89570057D01*
X162814285Y-89570057D02*
X162861904Y-89665295D01*
X162861904Y-89665295D02*
X162861904Y-89760533D01*
X162861904Y-89760533D02*
X162814285Y-89903390D01*
X162814285Y-89903390D02*
X162242857Y-90474819D01*
X162242857Y-90474819D02*
X162861904Y-90474819D01*
X156120142Y-77683819D02*
X155786809Y-77207628D01*
X155548714Y-77683819D02*
X155548714Y-76683819D01*
X155548714Y-76683819D02*
X155929666Y-76683819D01*
X155929666Y-76683819D02*
X156024904Y-76731438D01*
X156024904Y-76731438D02*
X156072523Y-76779057D01*
X156072523Y-76779057D02*
X156120142Y-76874295D01*
X156120142Y-76874295D02*
X156120142Y-77017152D01*
X156120142Y-77017152D02*
X156072523Y-77112390D01*
X156072523Y-77112390D02*
X156024904Y-77160009D01*
X156024904Y-77160009D02*
X155929666Y-77207628D01*
X155929666Y-77207628D02*
X155548714Y-77207628D01*
X156977285Y-77017152D02*
X156977285Y-77683819D01*
X156739190Y-76636200D02*
X156501095Y-77350485D01*
X156501095Y-77350485D02*
X157120142Y-77350485D01*
X157929666Y-77017152D02*
X157929666Y-77683819D01*
X157691571Y-76636200D02*
X157453476Y-77350485D01*
X157453476Y-77350485D02*
X158072523Y-77350485D01*
X184759642Y-107524819D02*
X184426309Y-107048628D01*
X184188214Y-107524819D02*
X184188214Y-106524819D01*
X184188214Y-106524819D02*
X184569166Y-106524819D01*
X184569166Y-106524819D02*
X184664404Y-106572438D01*
X184664404Y-106572438D02*
X184712023Y-106620057D01*
X184712023Y-106620057D02*
X184759642Y-106715295D01*
X184759642Y-106715295D02*
X184759642Y-106858152D01*
X184759642Y-106858152D02*
X184712023Y-106953390D01*
X184712023Y-106953390D02*
X184664404Y-107001009D01*
X184664404Y-107001009D02*
X184569166Y-107048628D01*
X184569166Y-107048628D02*
X184188214Y-107048628D01*
X185140595Y-106620057D02*
X185188214Y-106572438D01*
X185188214Y-106572438D02*
X185283452Y-106524819D01*
X185283452Y-106524819D02*
X185521547Y-106524819D01*
X185521547Y-106524819D02*
X185616785Y-106572438D01*
X185616785Y-106572438D02*
X185664404Y-106620057D01*
X185664404Y-106620057D02*
X185712023Y-106715295D01*
X185712023Y-106715295D02*
X185712023Y-106810533D01*
X185712023Y-106810533D02*
X185664404Y-106953390D01*
X185664404Y-106953390D02*
X185092976Y-107524819D01*
X185092976Y-107524819D02*
X185712023Y-107524819D01*
X186616785Y-106524819D02*
X186140595Y-106524819D01*
X186140595Y-106524819D02*
X186092976Y-107001009D01*
X186092976Y-107001009D02*
X186140595Y-106953390D01*
X186140595Y-106953390D02*
X186235833Y-106905771D01*
X186235833Y-106905771D02*
X186473928Y-106905771D01*
X186473928Y-106905771D02*
X186569166Y-106953390D01*
X186569166Y-106953390D02*
X186616785Y-107001009D01*
X186616785Y-107001009D02*
X186664404Y-107096247D01*
X186664404Y-107096247D02*
X186664404Y-107334342D01*
X186664404Y-107334342D02*
X186616785Y-107429580D01*
X186616785Y-107429580D02*
X186569166Y-107477200D01*
X186569166Y-107477200D02*
X186473928Y-107524819D01*
X186473928Y-107524819D02*
X186235833Y-107524819D01*
X186235833Y-107524819D02*
X186140595Y-107477200D01*
X186140595Y-107477200D02*
X186092976Y-107429580D01*
X161488095Y-95254819D02*
X161488095Y-96064342D01*
X161488095Y-96064342D02*
X161535714Y-96159580D01*
X161535714Y-96159580D02*
X161583333Y-96207200D01*
X161583333Y-96207200D02*
X161678571Y-96254819D01*
X161678571Y-96254819D02*
X161869047Y-96254819D01*
X161869047Y-96254819D02*
X161964285Y-96207200D01*
X161964285Y-96207200D02*
X162011904Y-96159580D01*
X162011904Y-96159580D02*
X162059523Y-96064342D01*
X162059523Y-96064342D02*
X162059523Y-95254819D01*
X162964285Y-95588152D02*
X162964285Y-96254819D01*
X162726190Y-95207200D02*
X162488095Y-95921485D01*
X162488095Y-95921485D02*
X163107142Y-95921485D01*
X186839905Y-112593319D02*
X187411333Y-112593319D01*
X187125619Y-113593319D02*
X187125619Y-112593319D01*
X187744667Y-113593319D02*
X187744667Y-112593319D01*
X187744667Y-112593319D02*
X188125619Y-112593319D01*
X188125619Y-112593319D02*
X188220857Y-112640938D01*
X188220857Y-112640938D02*
X188268476Y-112688557D01*
X188268476Y-112688557D02*
X188316095Y-112783795D01*
X188316095Y-112783795D02*
X188316095Y-112926652D01*
X188316095Y-112926652D02*
X188268476Y-113021890D01*
X188268476Y-113021890D02*
X188220857Y-113069509D01*
X188220857Y-113069509D02*
X188125619Y-113117128D01*
X188125619Y-113117128D02*
X187744667Y-113117128D01*
X189268476Y-113593319D02*
X188697048Y-113593319D01*
X188982762Y-113593319D02*
X188982762Y-112593319D01*
X188982762Y-112593319D02*
X188887524Y-112736176D01*
X188887524Y-112736176D02*
X188792286Y-112831414D01*
X188792286Y-112831414D02*
X188697048Y-112879033D01*
X190173238Y-112593319D02*
X189697048Y-112593319D01*
X189697048Y-112593319D02*
X189649429Y-113069509D01*
X189649429Y-113069509D02*
X189697048Y-113021890D01*
X189697048Y-113021890D02*
X189792286Y-112974271D01*
X189792286Y-112974271D02*
X190030381Y-112974271D01*
X190030381Y-112974271D02*
X190125619Y-113021890D01*
X190125619Y-113021890D02*
X190173238Y-113069509D01*
X190173238Y-113069509D02*
X190220857Y-113164747D01*
X190220857Y-113164747D02*
X190220857Y-113402842D01*
X190220857Y-113402842D02*
X190173238Y-113498080D01*
X190173238Y-113498080D02*
X190125619Y-113545700D01*
X190125619Y-113545700D02*
X190030381Y-113593319D01*
X190030381Y-113593319D02*
X189792286Y-113593319D01*
X189792286Y-113593319D02*
X189697048Y-113545700D01*
X189697048Y-113545700D02*
X189649429Y-113498080D01*
X189644642Y-107134819D02*
X189311309Y-106658628D01*
X189073214Y-107134819D02*
X189073214Y-106134819D01*
X189073214Y-106134819D02*
X189454166Y-106134819D01*
X189454166Y-106134819D02*
X189549404Y-106182438D01*
X189549404Y-106182438D02*
X189597023Y-106230057D01*
X189597023Y-106230057D02*
X189644642Y-106325295D01*
X189644642Y-106325295D02*
X189644642Y-106468152D01*
X189644642Y-106468152D02*
X189597023Y-106563390D01*
X189597023Y-106563390D02*
X189549404Y-106611009D01*
X189549404Y-106611009D02*
X189454166Y-106658628D01*
X189454166Y-106658628D02*
X189073214Y-106658628D01*
X190025595Y-106230057D02*
X190073214Y-106182438D01*
X190073214Y-106182438D02*
X190168452Y-106134819D01*
X190168452Y-106134819D02*
X190406547Y-106134819D01*
X190406547Y-106134819D02*
X190501785Y-106182438D01*
X190501785Y-106182438D02*
X190549404Y-106230057D01*
X190549404Y-106230057D02*
X190597023Y-106325295D01*
X190597023Y-106325295D02*
X190597023Y-106420533D01*
X190597023Y-106420533D02*
X190549404Y-106563390D01*
X190549404Y-106563390D02*
X189977976Y-107134819D01*
X189977976Y-107134819D02*
X190597023Y-107134819D01*
X191454166Y-106134819D02*
X191263690Y-106134819D01*
X191263690Y-106134819D02*
X191168452Y-106182438D01*
X191168452Y-106182438D02*
X191120833Y-106230057D01*
X191120833Y-106230057D02*
X191025595Y-106372914D01*
X191025595Y-106372914D02*
X190977976Y-106563390D01*
X190977976Y-106563390D02*
X190977976Y-106944342D01*
X190977976Y-106944342D02*
X191025595Y-107039580D01*
X191025595Y-107039580D02*
X191073214Y-107087200D01*
X191073214Y-107087200D02*
X191168452Y-107134819D01*
X191168452Y-107134819D02*
X191358928Y-107134819D01*
X191358928Y-107134819D02*
X191454166Y-107087200D01*
X191454166Y-107087200D02*
X191501785Y-107039580D01*
X191501785Y-107039580D02*
X191549404Y-106944342D01*
X191549404Y-106944342D02*
X191549404Y-106706247D01*
X191549404Y-106706247D02*
X191501785Y-106611009D01*
X191501785Y-106611009D02*
X191454166Y-106563390D01*
X191454166Y-106563390D02*
X191358928Y-106515771D01*
X191358928Y-106515771D02*
X191168452Y-106515771D01*
X191168452Y-106515771D02*
X191073214Y-106563390D01*
X191073214Y-106563390D02*
X191025595Y-106611009D01*
X191025595Y-106611009D02*
X190977976Y-106706247D01*
X152661905Y-65006819D02*
X153233333Y-65006819D01*
X152947619Y-66006819D02*
X152947619Y-65006819D01*
X153566667Y-66006819D02*
X153566667Y-65006819D01*
X153566667Y-65006819D02*
X153947619Y-65006819D01*
X153947619Y-65006819D02*
X154042857Y-65054438D01*
X154042857Y-65054438D02*
X154090476Y-65102057D01*
X154090476Y-65102057D02*
X154138095Y-65197295D01*
X154138095Y-65197295D02*
X154138095Y-65340152D01*
X154138095Y-65340152D02*
X154090476Y-65435390D01*
X154090476Y-65435390D02*
X154042857Y-65483009D01*
X154042857Y-65483009D02*
X153947619Y-65530628D01*
X153947619Y-65530628D02*
X153566667Y-65530628D01*
X154519048Y-65102057D02*
X154566667Y-65054438D01*
X154566667Y-65054438D02*
X154661905Y-65006819D01*
X154661905Y-65006819D02*
X154900000Y-65006819D01*
X154900000Y-65006819D02*
X154995238Y-65054438D01*
X154995238Y-65054438D02*
X155042857Y-65102057D01*
X155042857Y-65102057D02*
X155090476Y-65197295D01*
X155090476Y-65197295D02*
X155090476Y-65292533D01*
X155090476Y-65292533D02*
X155042857Y-65435390D01*
X155042857Y-65435390D02*
X154471429Y-66006819D01*
X154471429Y-66006819D02*
X155090476Y-66006819D01*
X155709524Y-65006819D02*
X155804762Y-65006819D01*
X155804762Y-65006819D02*
X155900000Y-65054438D01*
X155900000Y-65054438D02*
X155947619Y-65102057D01*
X155947619Y-65102057D02*
X155995238Y-65197295D01*
X155995238Y-65197295D02*
X156042857Y-65387771D01*
X156042857Y-65387771D02*
X156042857Y-65625866D01*
X156042857Y-65625866D02*
X155995238Y-65816342D01*
X155995238Y-65816342D02*
X155947619Y-65911580D01*
X155947619Y-65911580D02*
X155900000Y-65959200D01*
X155900000Y-65959200D02*
X155804762Y-66006819D01*
X155804762Y-66006819D02*
X155709524Y-66006819D01*
X155709524Y-66006819D02*
X155614286Y-65959200D01*
X155614286Y-65959200D02*
X155566667Y-65911580D01*
X155566667Y-65911580D02*
X155519048Y-65816342D01*
X155519048Y-65816342D02*
X155471429Y-65625866D01*
X155471429Y-65625866D02*
X155471429Y-65387771D01*
X155471429Y-65387771D02*
X155519048Y-65197295D01*
X155519048Y-65197295D02*
X155566667Y-65102057D01*
X155566667Y-65102057D02*
X155614286Y-65054438D01*
X155614286Y-65054438D02*
X155709524Y-65006819D01*
X198061905Y-112406819D02*
X198633333Y-112406819D01*
X198347619Y-113406819D02*
X198347619Y-112406819D01*
X198966667Y-113406819D02*
X198966667Y-112406819D01*
X198966667Y-112406819D02*
X199347619Y-112406819D01*
X199347619Y-112406819D02*
X199442857Y-112454438D01*
X199442857Y-112454438D02*
X199490476Y-112502057D01*
X199490476Y-112502057D02*
X199538095Y-112597295D01*
X199538095Y-112597295D02*
X199538095Y-112740152D01*
X199538095Y-112740152D02*
X199490476Y-112835390D01*
X199490476Y-112835390D02*
X199442857Y-112883009D01*
X199442857Y-112883009D02*
X199347619Y-112930628D01*
X199347619Y-112930628D02*
X198966667Y-112930628D01*
X200490476Y-113406819D02*
X199919048Y-113406819D01*
X200204762Y-113406819D02*
X200204762Y-112406819D01*
X200204762Y-112406819D02*
X200109524Y-112549676D01*
X200109524Y-112549676D02*
X200014286Y-112644914D01*
X200014286Y-112644914D02*
X199919048Y-112692533D01*
X201347619Y-112740152D02*
X201347619Y-113406819D01*
X201109524Y-112359200D02*
X200871429Y-113073485D01*
X200871429Y-113073485D02*
X201490476Y-113073485D01*
X199359580Y-71242857D02*
X199407200Y-71290476D01*
X199407200Y-71290476D02*
X199454819Y-71433333D01*
X199454819Y-71433333D02*
X199454819Y-71528571D01*
X199454819Y-71528571D02*
X199407200Y-71671428D01*
X199407200Y-71671428D02*
X199311961Y-71766666D01*
X199311961Y-71766666D02*
X199216723Y-71814285D01*
X199216723Y-71814285D02*
X199026247Y-71861904D01*
X199026247Y-71861904D02*
X198883390Y-71861904D01*
X198883390Y-71861904D02*
X198692914Y-71814285D01*
X198692914Y-71814285D02*
X198597676Y-71766666D01*
X198597676Y-71766666D02*
X198502438Y-71671428D01*
X198502438Y-71671428D02*
X198454819Y-71528571D01*
X198454819Y-71528571D02*
X198454819Y-71433333D01*
X198454819Y-71433333D02*
X198502438Y-71290476D01*
X198502438Y-71290476D02*
X198550057Y-71242857D01*
X199454819Y-70290476D02*
X199454819Y-70861904D01*
X199454819Y-70576190D02*
X198454819Y-70576190D01*
X198454819Y-70576190D02*
X198597676Y-70671428D01*
X198597676Y-70671428D02*
X198692914Y-70766666D01*
X198692914Y-70766666D02*
X198740533Y-70861904D01*
X198454819Y-69385714D02*
X198454819Y-69861904D01*
X198454819Y-69861904D02*
X198931009Y-69909523D01*
X198931009Y-69909523D02*
X198883390Y-69861904D01*
X198883390Y-69861904D02*
X198835771Y-69766666D01*
X198835771Y-69766666D02*
X198835771Y-69528571D01*
X198835771Y-69528571D02*
X198883390Y-69433333D01*
X198883390Y-69433333D02*
X198931009Y-69385714D01*
X198931009Y-69385714D02*
X199026247Y-69338095D01*
X199026247Y-69338095D02*
X199264342Y-69338095D01*
X199264342Y-69338095D02*
X199359580Y-69385714D01*
X199359580Y-69385714D02*
X199407200Y-69433333D01*
X199407200Y-69433333D02*
X199454819Y-69528571D01*
X199454819Y-69528571D02*
X199454819Y-69766666D01*
X199454819Y-69766666D02*
X199407200Y-69861904D01*
X199407200Y-69861904D02*
X199359580Y-69909523D01*
X189938095Y-65206819D02*
X190509523Y-65206819D01*
X190223809Y-66206819D02*
X190223809Y-65206819D01*
X190842857Y-66206819D02*
X190842857Y-65206819D01*
X190842857Y-65206819D02*
X191223809Y-65206819D01*
X191223809Y-65206819D02*
X191319047Y-65254438D01*
X191319047Y-65254438D02*
X191366666Y-65302057D01*
X191366666Y-65302057D02*
X191414285Y-65397295D01*
X191414285Y-65397295D02*
X191414285Y-65540152D01*
X191414285Y-65540152D02*
X191366666Y-65635390D01*
X191366666Y-65635390D02*
X191319047Y-65683009D01*
X191319047Y-65683009D02*
X191223809Y-65730628D01*
X191223809Y-65730628D02*
X190842857Y-65730628D01*
X192319047Y-65206819D02*
X191842857Y-65206819D01*
X191842857Y-65206819D02*
X191795238Y-65683009D01*
X191795238Y-65683009D02*
X191842857Y-65635390D01*
X191842857Y-65635390D02*
X191938095Y-65587771D01*
X191938095Y-65587771D02*
X192176190Y-65587771D01*
X192176190Y-65587771D02*
X192271428Y-65635390D01*
X192271428Y-65635390D02*
X192319047Y-65683009D01*
X192319047Y-65683009D02*
X192366666Y-65778247D01*
X192366666Y-65778247D02*
X192366666Y-66016342D01*
X192366666Y-66016342D02*
X192319047Y-66111580D01*
X192319047Y-66111580D02*
X192271428Y-66159200D01*
X192271428Y-66159200D02*
X192176190Y-66206819D01*
X192176190Y-66206819D02*
X191938095Y-66206819D01*
X191938095Y-66206819D02*
X191842857Y-66159200D01*
X191842857Y-66159200D02*
X191795238Y-66111580D01*
X150666666Y-111454819D02*
X150666666Y-112169104D01*
X150666666Y-112169104D02*
X150619047Y-112311961D01*
X150619047Y-112311961D02*
X150523809Y-112407200D01*
X150523809Y-112407200D02*
X150380952Y-112454819D01*
X150380952Y-112454819D02*
X150285714Y-112454819D01*
X151095238Y-111550057D02*
X151142857Y-111502438D01*
X151142857Y-111502438D02*
X151238095Y-111454819D01*
X151238095Y-111454819D02*
X151476190Y-111454819D01*
X151476190Y-111454819D02*
X151571428Y-111502438D01*
X151571428Y-111502438D02*
X151619047Y-111550057D01*
X151619047Y-111550057D02*
X151666666Y-111645295D01*
X151666666Y-111645295D02*
X151666666Y-111740533D01*
X151666666Y-111740533D02*
X151619047Y-111883390D01*
X151619047Y-111883390D02*
X151047619Y-112454819D01*
X151047619Y-112454819D02*
X151666666Y-112454819D01*
X155993142Y-72222819D02*
X155659809Y-71746628D01*
X155421714Y-72222819D02*
X155421714Y-71222819D01*
X155421714Y-71222819D02*
X155802666Y-71222819D01*
X155802666Y-71222819D02*
X155897904Y-71270438D01*
X155897904Y-71270438D02*
X155945523Y-71318057D01*
X155945523Y-71318057D02*
X155993142Y-71413295D01*
X155993142Y-71413295D02*
X155993142Y-71556152D01*
X155993142Y-71556152D02*
X155945523Y-71651390D01*
X155945523Y-71651390D02*
X155897904Y-71699009D01*
X155897904Y-71699009D02*
X155802666Y-71746628D01*
X155802666Y-71746628D02*
X155421714Y-71746628D01*
X156945523Y-72222819D02*
X156374095Y-72222819D01*
X156659809Y-72222819D02*
X156659809Y-71222819D01*
X156659809Y-71222819D02*
X156564571Y-71365676D01*
X156564571Y-71365676D02*
X156469333Y-71460914D01*
X156469333Y-71460914D02*
X156374095Y-71508533D01*
X157278857Y-71222819D02*
X157897904Y-71222819D01*
X157897904Y-71222819D02*
X157564571Y-71603771D01*
X157564571Y-71603771D02*
X157707428Y-71603771D01*
X157707428Y-71603771D02*
X157802666Y-71651390D01*
X157802666Y-71651390D02*
X157850285Y-71699009D01*
X157850285Y-71699009D02*
X157897904Y-71794247D01*
X157897904Y-71794247D02*
X157897904Y-72032342D01*
X157897904Y-72032342D02*
X157850285Y-72127580D01*
X157850285Y-72127580D02*
X157802666Y-72175200D01*
X157802666Y-72175200D02*
X157707428Y-72222819D01*
X157707428Y-72222819D02*
X157421714Y-72222819D01*
X157421714Y-72222819D02*
X157326476Y-72175200D01*
X157326476Y-72175200D02*
X157278857Y-72127580D01*
D12*
%TO.C,C6*%
X166738748Y-73265000D02*
X167261252Y-73265000D01*
X166738748Y-74735000D02*
X167261252Y-74735000D01*
%TO.C,R15*%
X191110436Y-96265000D02*
X191564564Y-96265000D01*
X191110436Y-97735000D02*
X191564564Y-97735000D01*
%TO.C,U5*%
X158990000Y-73637500D02*
X158990000Y-71437500D01*
X158990000Y-73637500D02*
X158990000Y-75837500D01*
X164460000Y-73637500D02*
X164460000Y-71437500D01*
X164460000Y-73637500D02*
X164460000Y-75837500D01*
X164000000Y-69777500D02*
X163760000Y-69447500D01*
X164240000Y-69447500D01*
X164000000Y-69777500D01*
G36*
X164000000Y-69777500D02*
G01*
X163760000Y-69447500D01*
X164240000Y-69447500D01*
X164000000Y-69777500D01*
G37*
%TO.C,TP10*%
X154100000Y-114800000D02*
G75*
G02*
X152700000Y-114800000I-700000J0D01*
G01*
X152700000Y-114800000D02*
G75*
G02*
X154100000Y-114800000I700000J0D01*
G01*
%TO.C,R40*%
X156443742Y-91714500D02*
X156918258Y-91714500D01*
X156443742Y-92759500D02*
X156918258Y-92759500D01*
%TO.C,TP2*%
X164650000Y-66950000D02*
G75*
G02*
X163250000Y-66950000I-700000J0D01*
G01*
X163250000Y-66950000D02*
G75*
G02*
X164650000Y-66950000I700000J0D01*
G01*
%TO.C,R3*%
X173235436Y-84090000D02*
X174689564Y-84090000D01*
X173235436Y-85910000D02*
X174689564Y-85910000D01*
%TO.C,TP4*%
X193300000Y-114400000D02*
G75*
G02*
X191900000Y-114400000I-700000J0D01*
G01*
X191900000Y-114400000D02*
G75*
G02*
X193300000Y-114400000I700000J0D01*
G01*
%TO.C,R16*%
X186792436Y-96392000D02*
X187246564Y-96392000D01*
X186792436Y-97862000D02*
X187246564Y-97862000D01*
%TO.C,C7*%
X166788748Y-69765000D02*
X167311252Y-69765000D01*
X166788748Y-71235000D02*
X167311252Y-71235000D01*
%TO.C,R27*%
X171272936Y-74090000D02*
X172727064Y-74090000D01*
X171272936Y-75910000D02*
X172727064Y-75910000D01*
%TO.C,C1*%
X190788748Y-77665000D02*
X191311252Y-77665000D01*
X190788748Y-79135000D02*
X191311252Y-79135000D01*
%TO.C,Q3*%
X193829000Y-88420000D02*
X193829000Y-98660000D01*
X196960000Y-88420000D02*
X196960000Y-98660000D01*
X198470000Y-88420000D02*
X193829000Y-88420000D01*
X198470000Y-88420000D02*
X198470000Y-98660000D01*
X198470000Y-91690000D02*
X196960000Y-91690000D01*
X198470000Y-95391000D02*
X196960000Y-95391000D01*
X198470000Y-98660000D02*
X193829000Y-98660000D01*
%TO.C,R12*%
X156443742Y-94508500D02*
X156918258Y-94508500D01*
X156443742Y-95553500D02*
X156918258Y-95553500D01*
%TO.C,R39*%
X156316742Y-97683500D02*
X156791258Y-97683500D01*
X156316742Y-98728500D02*
X156791258Y-98728500D01*
%TO.C,R21*%
X186737742Y-74077500D02*
X187212258Y-74077500D01*
X186737742Y-75122500D02*
X187212258Y-75122500D01*
%TO.C,C10*%
X190588748Y-70265000D02*
X191111252Y-70265000D01*
X190588748Y-71735000D02*
X191111252Y-71735000D01*
%TO.C,R36*%
X173410436Y-80490000D02*
X174864564Y-80490000D01*
X173410436Y-82310000D02*
X174864564Y-82310000D01*
%TO.C,TP17*%
X176450000Y-114750000D02*
G75*
G02*
X175050000Y-114750000I-700000J0D01*
G01*
X175050000Y-114750000D02*
G75*
G02*
X176450000Y-114750000I700000J0D01*
G01*
%TO.C,TP19*%
X195500000Y-67400000D02*
G75*
G02*
X194100000Y-67400000I-700000J0D01*
G01*
X194100000Y-67400000D02*
G75*
G02*
X195500000Y-67400000I700000J0D01*
G01*
%TO.C,L5*%
X183483000Y-83554000D02*
X183483000Y-83704000D01*
X183483000Y-83554000D02*
X188003000Y-83554000D01*
X183483000Y-88074000D02*
X183483000Y-87924000D01*
X183483000Y-88074000D02*
X188003000Y-88074000D01*
X188003000Y-83554000D02*
X188003000Y-83704000D01*
X188003000Y-88074000D02*
X188003000Y-87924000D01*
%TO.C,C13*%
X161261252Y-91265000D02*
X160738748Y-91265000D01*
X161261252Y-92735000D02*
X160738748Y-92735000D01*
%TO.C,R1*%
X183337742Y-74077500D02*
X183812258Y-74077500D01*
X183337742Y-75122500D02*
X183812258Y-75122500D01*
%TO.C,R37*%
X175227064Y-96590000D02*
X173772936Y-96590000D01*
X175227064Y-98410000D02*
X173772936Y-98410000D01*
%TO.C,U8*%
X174662500Y-90290000D02*
X173862500Y-90290000D01*
X174662500Y-90290000D02*
X175462500Y-90290000D01*
X174662500Y-93410000D02*
X173862500Y-93410000D01*
X174662500Y-93410000D02*
X175462500Y-93410000D01*
X173362500Y-90340000D02*
X173122500Y-90010000D01*
X173602500Y-90010000D01*
X173362500Y-90340000D01*
G36*
X173362500Y-90340000D02*
G01*
X173122500Y-90010000D01*
X173602500Y-90010000D01*
X173362500Y-90340000D01*
G37*
%TO.C,R9*%
X167310436Y-80514000D02*
X168764564Y-80514000D01*
X167310436Y-82334000D02*
X168764564Y-82334000D01*
%TO.C,J3*%
X170640000Y-100640000D02*
X170640000Y-101890000D01*
X170940000Y-100940000D02*
X170940000Y-105660000D01*
X170940000Y-102250000D02*
X171550000Y-102250000D01*
X170940000Y-103550000D02*
X171550000Y-103550000D01*
X170940000Y-105660000D02*
X177060000Y-105660000D01*
X171550000Y-101550000D02*
X171550000Y-105050000D01*
X171550000Y-105050000D02*
X176450000Y-105050000D01*
X171890000Y-100640000D02*
X170640000Y-100640000D01*
X172400000Y-100740000D02*
X172400000Y-100940000D01*
X172700000Y-100740000D02*
X172400000Y-100740000D01*
X172700000Y-100840000D02*
X172400000Y-100840000D01*
X172700000Y-100940000D02*
X172700000Y-100740000D01*
X173500000Y-100940000D02*
X173500000Y-101550000D01*
X173500000Y-101550000D02*
X171550000Y-101550000D01*
X173900000Y-104550000D02*
X174100000Y-104550000D01*
X173900000Y-105050000D02*
X173900000Y-104550000D01*
X174000000Y-105050000D02*
X174000000Y-104550000D01*
X174100000Y-104550000D02*
X174100000Y-105050000D01*
X174500000Y-101550000D02*
X174500000Y-100940000D01*
X176450000Y-101550000D02*
X174500000Y-101550000D01*
X176450000Y-105050000D02*
X176450000Y-101550000D01*
X177060000Y-100940000D02*
X170940000Y-100940000D01*
X177060000Y-102250000D02*
X176450000Y-102250000D01*
X177060000Y-103550000D02*
X176450000Y-103550000D01*
X177060000Y-105660000D02*
X177060000Y-100940000D01*
%TO.C,R33*%
X183262742Y-80727500D02*
X183737258Y-80727500D01*
X183262742Y-81772500D02*
X183737258Y-81772500D01*
%TO.C,U7*%
X190190000Y-84740000D02*
X192110000Y-84740000D01*
X190190000Y-85635000D02*
X190190000Y-84740000D01*
X192110000Y-84740000D02*
X192110000Y-85860000D01*
X192110000Y-85860000D02*
X190415000Y-85860000D01*
X190190000Y-86360000D02*
X189690000Y-85860000D01*
X190190000Y-85860000D01*
X190190000Y-86360000D01*
G36*
X190190000Y-86360000D02*
G01*
X189690000Y-85860000D01*
X190190000Y-85860000D01*
X190190000Y-86360000D01*
G37*
%TO.C,R20*%
X178472936Y-80290000D02*
X179927064Y-80290000D01*
X178472936Y-82110000D02*
X179927064Y-82110000D01*
%TO.C,TP7*%
X175650000Y-67200000D02*
G75*
G02*
X174250000Y-67200000I-700000J0D01*
G01*
X174250000Y-67200000D02*
G75*
G02*
X175650000Y-67200000I700000J0D01*
G01*
%TO.C,R4*%
X181172936Y-70065000D02*
X181627064Y-70065000D01*
X181172936Y-71535000D02*
X181627064Y-71535000D01*
%TO.C,R34*%
X182778436Y-96515000D02*
X183232564Y-96515000D01*
X182778436Y-97985000D02*
X183232564Y-97985000D01*
%TO.C,R29*%
X176272936Y-70090000D02*
X177727064Y-70090000D01*
X176272936Y-71910000D02*
X177727064Y-71910000D01*
%TO.C,TP22*%
X163450000Y-114500000D02*
G75*
G02*
X162050000Y-114500000I-700000J0D01*
G01*
X162050000Y-114500000D02*
G75*
G02*
X163450000Y-114500000I700000J0D01*
G01*
%TO.C,TP12*%
X180900000Y-114600000D02*
G75*
G02*
X179500000Y-114600000I-700000J0D01*
G01*
X179500000Y-114600000D02*
G75*
G02*
X180900000Y-114600000I700000J0D01*
G01*
%TO.C,C4*%
X167788748Y-100265000D02*
X168311252Y-100265000D01*
X167788748Y-101735000D02*
X168311252Y-101735000D01*
%TO.C,TP1*%
X172150000Y-67200000D02*
G75*
G02*
X170750000Y-67200000I-700000J0D01*
G01*
X170750000Y-67200000D02*
G75*
G02*
X172150000Y-67200000I700000J0D01*
G01*
%TO.C,TP9*%
X158700000Y-115600000D02*
G75*
G02*
X157300000Y-115600000I-700000J0D01*
G01*
X157300000Y-115600000D02*
G75*
G02*
X158700000Y-115600000I700000J0D01*
G01*
%TO.C,TP13*%
X185100000Y-114600000D02*
G75*
G02*
X183700000Y-114600000I-700000J0D01*
G01*
X183700000Y-114600000D02*
G75*
G02*
X185100000Y-114600000I700000J0D01*
G01*
%TO.C,TP11*%
X196900000Y-114400000D02*
G75*
G02*
X195500000Y-114400000I-700000J0D01*
G01*
X195500000Y-114400000D02*
G75*
G02*
X196900000Y-114400000I700000J0D01*
G01*
%TO.C,D1*%
X197350000Y-65540000D02*
X197350000Y-68200000D01*
X199050000Y-65540000D02*
X197350000Y-65540000D01*
X199050000Y-65540000D02*
X199050000Y-68200000D01*
%TO.C,Q1*%
X193829000Y-99620000D02*
X193829000Y-109860000D01*
X196960000Y-99620000D02*
X196960000Y-109860000D01*
X198470000Y-99620000D02*
X193829000Y-99620000D01*
X198470000Y-99620000D02*
X198470000Y-109860000D01*
X198470000Y-102890000D02*
X196960000Y-102890000D01*
X198470000Y-106591000D02*
X196960000Y-106591000D01*
X198470000Y-109860000D02*
X193829000Y-109860000D01*
%TO.C,R19*%
X179672936Y-99890000D02*
X181127064Y-99890000D01*
X179672936Y-101710000D02*
X181127064Y-101710000D01*
%TO.C,L4*%
X177641000Y-89904000D02*
X177641000Y-90054000D01*
X177641000Y-89904000D02*
X182161000Y-89904000D01*
X177641000Y-94424000D02*
X177641000Y-94274000D01*
X177641000Y-94424000D02*
X182161000Y-94424000D01*
X182161000Y-89904000D02*
X182161000Y-90054000D01*
X182161000Y-94424000D02*
X182161000Y-94274000D01*
%TO.C,R6*%
X167860436Y-103765000D02*
X168314564Y-103765000D01*
X167860436Y-105235000D02*
X168314564Y-105235000D01*
%TO.C,R2*%
X196327064Y-72690000D02*
X194872936Y-72690000D01*
X196327064Y-74510000D02*
X194872936Y-74510000D01*
%TO.C,U2*%
X167315000Y-110325000D02*
X167315000Y-107325000D01*
X169585000Y-110325000D02*
X169585000Y-107325000D01*
X167400000Y-111125000D02*
X167120000Y-110845000D01*
X167400000Y-110845000D01*
X167400000Y-111125000D01*
G36*
X167400000Y-111125000D02*
G01*
X167120000Y-110845000D01*
X167400000Y-110845000D01*
X167400000Y-111125000D01*
G37*
%TO.C,C8*%
X185688748Y-70290000D02*
X187111252Y-70290000D01*
X185688748Y-72110000D02*
X187111252Y-72110000D01*
%TO.C,R18*%
X179610436Y-103690000D02*
X181064564Y-103690000D01*
X179610436Y-105510000D02*
X181064564Y-105510000D01*
%TO.C,R8*%
X156467436Y-84787000D02*
X156921564Y-84787000D01*
X156467436Y-86257000D02*
X156921564Y-86257000D01*
%TO.C,R14*%
X190937742Y-92977500D02*
X191412258Y-92977500D01*
X190937742Y-94022500D02*
X191412258Y-94022500D01*
%TO.C,TP6*%
X183900000Y-67450000D02*
G75*
G02*
X182500000Y-67450000I-700000J0D01*
G01*
X182500000Y-67450000D02*
G75*
G02*
X183900000Y-67450000I700000J0D01*
G01*
%TO.C,R38*%
X186264564Y-103690000D02*
X184810436Y-103690000D01*
X186264564Y-105510000D02*
X184810436Y-105510000D01*
%TO.C,U1*%
X176800000Y-74040000D02*
X176000000Y-74040000D01*
X176800000Y-74040000D02*
X177600000Y-74040000D01*
X176800000Y-77160000D02*
X176000000Y-77160000D01*
X176800000Y-77160000D02*
X177600000Y-77160000D01*
X175500000Y-74115000D02*
X175260000Y-73785000D01*
X175740000Y-73785000D01*
X175500000Y-74115000D01*
G36*
X175500000Y-74115000D02*
G01*
X175260000Y-73785000D01*
X175740000Y-73785000D01*
X175500000Y-74115000D01*
G37*
%TO.C,R43*%
X156398742Y-69881500D02*
X156873258Y-69881500D01*
X156398742Y-70926500D02*
X156873258Y-70926500D01*
%TO.C,R11*%
X156360436Y-81133000D02*
X156814564Y-81133000D01*
X156360436Y-82603000D02*
X156814564Y-82603000D01*
%TO.C,R30*%
X183162742Y-77077500D02*
X183637258Y-77077500D01*
X183162742Y-78122500D02*
X183637258Y-78122500D01*
%TO.C,R7*%
X167310436Y-84590000D02*
X168764564Y-84590000D01*
X167310436Y-86410000D02*
X168764564Y-86410000D01*
%TO.C,U3*%
X159440000Y-82862500D02*
X159440000Y-80912500D01*
X159440000Y-82862500D02*
X159440000Y-84812500D01*
X164560000Y-82862500D02*
X164560000Y-80912500D01*
X164560000Y-82862500D02*
X164560000Y-84812500D01*
X159440000Y-85575000D02*
X159110000Y-85815000D01*
X159110000Y-85335000D01*
X159440000Y-85575000D01*
G36*
X159440000Y-85575000D02*
G01*
X159110000Y-85815000D01*
X159110000Y-85335000D01*
X159440000Y-85575000D01*
G37*
%TO.C,C11*%
X190588748Y-74065000D02*
X191111252Y-74065000D01*
X190588748Y-75535000D02*
X191111252Y-75535000D01*
%TO.C,TP16*%
X187900000Y-67200000D02*
G75*
G02*
X186500000Y-67200000I-700000J0D01*
G01*
X186500000Y-67200000D02*
G75*
G02*
X187900000Y-67200000I700000J0D01*
G01*
%TO.C,R28*%
X171192936Y-70090000D02*
X172647064Y-70090000D01*
X171192936Y-71910000D02*
X172647064Y-71910000D01*
%TO.C,R35*%
X178860436Y-96515000D02*
X179314564Y-96515000D01*
X178860436Y-97985000D02*
X179314564Y-97985000D01*
%TO.C,C5*%
X167938748Y-96665000D02*
X168461252Y-96665000D01*
X167938748Y-98135000D02*
X168461252Y-98135000D01*
%TO.C,R5*%
X172860436Y-109015000D02*
X173314564Y-109015000D01*
X172860436Y-110485000D02*
X173314564Y-110485000D01*
%TO.C,R42*%
X156461742Y-75469500D02*
X156936258Y-75469500D01*
X156461742Y-76514500D02*
X156936258Y-76514500D01*
%TO.C,R10*%
X156467436Y-88265000D02*
X156921564Y-88265000D01*
X156467436Y-89735000D02*
X156921564Y-89735000D01*
%TO.C,TP18*%
X167700000Y-114500000D02*
G75*
G02*
X166300000Y-114500000I-700000J0D01*
G01*
X166300000Y-114500000D02*
G75*
G02*
X167700000Y-114500000I700000J0D01*
G01*
%TO.C,C3*%
X165912164Y-79140000D02*
X166127836Y-79140000D01*
X165912164Y-79860000D02*
X166127836Y-79860000D01*
%TO.C,L3*%
X177815000Y-83681000D02*
X177815000Y-83831000D01*
X177815000Y-83681000D02*
X182335000Y-83681000D01*
X177815000Y-88201000D02*
X177815000Y-88051000D01*
X177815000Y-88201000D02*
X182335000Y-88201000D01*
X182335000Y-83681000D02*
X182335000Y-83831000D01*
X182335000Y-88201000D02*
X182335000Y-88051000D01*
%TO.C,C14*%
X174394164Y-87868000D02*
X174609836Y-87868000D01*
X174394164Y-88588000D02*
X174609836Y-88588000D01*
%TO.C,D2*%
X167140000Y-87950000D02*
X167140000Y-89650000D01*
X167140000Y-87950000D02*
X169800000Y-87950000D01*
X167140000Y-89650000D02*
X169800000Y-89650000D01*
%TO.C,Q2*%
X193884000Y-77080000D02*
X193884000Y-87320000D01*
X197015000Y-77080000D02*
X197015000Y-87320000D01*
X198525000Y-77080000D02*
X193884000Y-77080000D01*
X198525000Y-77080000D02*
X198525000Y-87320000D01*
X198525000Y-80350000D02*
X197015000Y-80350000D01*
X198525000Y-84051000D02*
X197015000Y-84051000D01*
X198525000Y-87320000D02*
X193884000Y-87320000D01*
%TO.C,TP23*%
X159505000Y-66921000D02*
G75*
G02*
X158105000Y-66921000I-700000J0D01*
G01*
X158105000Y-66921000D02*
G75*
G02*
X159505000Y-66921000I700000J0D01*
G01*
%TO.C,L1*%
X163390000Y-90140000D02*
X163390000Y-90290000D01*
X163390000Y-94660000D02*
X163390000Y-94510000D01*
X167910000Y-90140000D02*
X163390000Y-90140000D01*
X167910000Y-90140000D02*
X167910000Y-90290000D01*
X167910000Y-94660000D02*
X163390000Y-94660000D01*
X167910000Y-94660000D02*
X167910000Y-94510000D01*
%TO.C,TP3*%
X168400000Y-67200000D02*
G75*
G02*
X167000000Y-67200000I-700000J0D01*
G01*
X167000000Y-67200000D02*
G75*
G02*
X168400000Y-67200000I700000J0D01*
G01*
%TO.C,TP8*%
X179900000Y-67200000D02*
G75*
G02*
X178500000Y-67200000I-700000J0D01*
G01*
X178500000Y-67200000D02*
G75*
G02*
X179900000Y-67200000I700000J0D01*
G01*
%TO.C,U6*%
X190787500Y-100565000D02*
X190187500Y-100565000D01*
X190787500Y-100565000D02*
X191387500Y-100565000D01*
X190787500Y-102435000D02*
X190187500Y-102435000D01*
X190787500Y-102435000D02*
X191387500Y-102435000D01*
X189477500Y-101000000D02*
X189147500Y-101240000D01*
X189147500Y-100760000D01*
X189477500Y-101000000D01*
G36*
X189477500Y-101000000D02*
G01*
X189147500Y-101240000D01*
X189147500Y-100760000D01*
X189477500Y-101000000D01*
G37*
%TO.C,C9*%
X190988748Y-89015000D02*
X191511252Y-89015000D01*
X190988748Y-90485000D02*
X191511252Y-90485000D01*
%TO.C,R24*%
X179785436Y-107590000D02*
X181239564Y-107590000D01*
X179785436Y-109410000D02*
X181239564Y-109410000D01*
%TO.C,J1*%
X155830000Y-106750000D02*
X155830000Y-105050000D01*
X165170000Y-106750000D02*
X165170000Y-105050000D01*
%TO.C,R31*%
X186762742Y-77077500D02*
X187237258Y-77077500D01*
X186762742Y-78122500D02*
X187237258Y-78122500D01*
%TO.C,R32*%
X186512742Y-80727500D02*
X186987258Y-80727500D01*
X186512742Y-81772500D02*
X186987258Y-81772500D01*
%TO.C,C12*%
X190726748Y-81265000D02*
X191249252Y-81265000D01*
X190726748Y-82735000D02*
X191249252Y-82735000D01*
%TO.C,TP21*%
X172200000Y-114500000D02*
G75*
G02*
X170800000Y-114500000I-700000J0D01*
G01*
X170800000Y-114500000D02*
G75*
G02*
X172200000Y-114500000I700000J0D01*
G01*
%TO.C,C2*%
X190612164Y-103240000D02*
X190827836Y-103240000D01*
X190612164Y-103960000D02*
X190827836Y-103960000D01*
%TO.C,R41*%
X156316742Y-100731500D02*
X156791258Y-100731500D01*
X156316742Y-101776500D02*
X156791258Y-101776500D01*
%TO.C,L2*%
X183590000Y-89990000D02*
X183590000Y-90140000D01*
X183590000Y-89990000D02*
X188110000Y-89990000D01*
X183590000Y-94510000D02*
X183590000Y-94360000D01*
X183590000Y-94510000D02*
X188110000Y-94510000D01*
X188110000Y-89990000D02*
X188110000Y-90140000D01*
X188110000Y-94510000D02*
X188110000Y-94360000D01*
%TO.C,R22*%
X162327064Y-87290000D02*
X160872936Y-87290000D01*
X162327064Y-89110000D02*
X160872936Y-89110000D01*
%TO.C,R44*%
X156525742Y-78136500D02*
X157000258Y-78136500D01*
X156525742Y-79181500D02*
X157000258Y-79181500D01*
%TO.C,R25*%
X185165242Y-107977500D02*
X185639758Y-107977500D01*
X185165242Y-109022500D02*
X185639758Y-109022500D01*
%TO.C,U4*%
X162250000Y-96515000D02*
X160050000Y-96515000D01*
X162250000Y-96515000D02*
X164450000Y-96515000D01*
X162250000Y-101985000D02*
X160050000Y-101985000D01*
X162250000Y-101985000D02*
X164450000Y-101985000D01*
X158390000Y-96975000D02*
X158060000Y-97215000D01*
X158060000Y-96735000D01*
X158390000Y-96975000D01*
G36*
X158390000Y-96975000D02*
G01*
X158060000Y-97215000D01*
X158060000Y-96735000D01*
X158390000Y-96975000D01*
G37*
%TO.C,TP15*%
X189278000Y-114586500D02*
G75*
G02*
X187878000Y-114586500I-700000J0D01*
G01*
X187878000Y-114586500D02*
G75*
G02*
X189278000Y-114586500I700000J0D01*
G01*
%TO.C,R26*%
X189560436Y-107590000D02*
X191014564Y-107590000D01*
X189560436Y-109410000D02*
X191014564Y-109410000D01*
%TO.C,TP20*%
X155100000Y-67000000D02*
G75*
G02*
X153700000Y-67000000I-700000J0D01*
G01*
X153700000Y-67000000D02*
G75*
G02*
X155100000Y-67000000I700000J0D01*
G01*
%TO.C,TP14*%
X200500000Y-114400000D02*
G75*
G02*
X199100000Y-114400000I-700000J0D01*
G01*
X199100000Y-114400000D02*
G75*
G02*
X200500000Y-114400000I700000J0D01*
G01*
%TO.C,C15*%
X194813748Y-69540000D02*
X196236252Y-69540000D01*
X194813748Y-71360000D02*
X196236252Y-71360000D01*
%TO.C,TP5*%
X191900000Y-67200000D02*
G75*
G02*
X190500000Y-67200000I-700000J0D01*
G01*
X190500000Y-67200000D02*
G75*
G02*
X191900000Y-67200000I700000J0D01*
G01*
%TO.C,J2*%
X148670000Y-110190000D02*
X148670000Y-69430000D01*
X151270000Y-107590000D02*
X151270000Y-110190000D01*
X151270000Y-110190000D02*
X148670000Y-110190000D01*
X153870000Y-69430000D02*
X148670000Y-69430000D01*
X153870000Y-107590000D02*
X151270000Y-107590000D01*
X153870000Y-107590000D02*
X153870000Y-69430000D01*
X153870000Y-108860000D02*
X153870000Y-110190000D01*
X153870000Y-110190000D02*
X152540000Y-110190000D01*
%TO.C,R13*%
X156398742Y-72675500D02*
X156873258Y-72675500D01*
X156398742Y-73720500D02*
X156873258Y-73720500D01*
%TD*%
%LPC*%
D13*
%TO.C,C6*%
X166050000Y-74000000D03*
X167950000Y-74000000D03*
%TD*%
D14*
%TO.C,R15*%
X190425000Y-97000000D03*
X192250000Y-97000000D03*
%TD*%
D15*
%TO.C,U5*%
X164000000Y-70775000D03*
X163350000Y-70775000D03*
X162700000Y-70775000D03*
X162050000Y-70775000D03*
X161400000Y-70775000D03*
X160750000Y-70775000D03*
X160100000Y-70775000D03*
X159450000Y-70775000D03*
X159450000Y-76500000D03*
X160100000Y-76500000D03*
X160750000Y-76500000D03*
X161400000Y-76500000D03*
X162050000Y-76500000D03*
X162700000Y-76500000D03*
X163350000Y-76500000D03*
X164000000Y-76500000D03*
%TD*%
D16*
%TO.C,TP10*%
X153400000Y-114800000D03*
%TD*%
D17*
%TO.C,R40*%
X155856000Y-92237000D03*
X157506000Y-92237000D03*
%TD*%
D16*
%TO.C,TP2*%
X163950000Y-66950000D03*
%TD*%
D18*
%TO.C,R3*%
X172500000Y-85000000D03*
X175425000Y-85000000D03*
%TD*%
D16*
%TO.C,TP4*%
X192600000Y-114400000D03*
%TD*%
D14*
%TO.C,R16*%
X186107000Y-97127000D03*
X187932000Y-97127000D03*
%TD*%
D13*
%TO.C,C7*%
X166100000Y-70500000D03*
X168000000Y-70500000D03*
%TD*%
D18*
%TO.C,R27*%
X170537500Y-75000000D03*
X173462500Y-75000000D03*
%TD*%
D13*
%TO.C,C1*%
X190100000Y-78400000D03*
X192000000Y-78400000D03*
%TD*%
D19*
%TO.C,Q3*%
X195200000Y-91000000D03*
D20*
X195200000Y-93540000D03*
X195200000Y-96080000D03*
%TD*%
D17*
%TO.C,R12*%
X155856000Y-95031000D03*
X157506000Y-95031000D03*
%TD*%
%TO.C,R39*%
X155729000Y-98206000D03*
X157379000Y-98206000D03*
%TD*%
%TO.C,R21*%
X186150000Y-74600000D03*
X187800000Y-74600000D03*
%TD*%
D13*
%TO.C,C10*%
X189900000Y-71000000D03*
X191800000Y-71000000D03*
%TD*%
D18*
%TO.C,R36*%
X172675000Y-81400000D03*
X175600000Y-81400000D03*
%TD*%
D16*
%TO.C,TP17*%
X175750000Y-114750000D03*
%TD*%
%TO.C,TP19*%
X194800000Y-67400000D03*
%TD*%
D21*
%TO.C,L5*%
X184393000Y-85814000D03*
X187093000Y-85814000D03*
%TD*%
D22*
%TO.C,C13*%
X161950000Y-92000000D03*
X160050000Y-92000000D03*
%TD*%
D17*
%TO.C,R1*%
X182750000Y-74600000D03*
X184400000Y-74600000D03*
%TD*%
D23*
%TO.C,R37*%
X175962500Y-97500000D03*
X173037500Y-97500000D03*
%TD*%
D24*
%TO.C,U8*%
X173525000Y-90900000D03*
X173525000Y-91850000D03*
X173525000Y-92800000D03*
X175800000Y-92800000D03*
X175800000Y-91850000D03*
X175800000Y-90900000D03*
%TD*%
D18*
%TO.C,R9*%
X166575000Y-81424000D03*
X169500000Y-81424000D03*
%TD*%
D25*
%TO.C,J3*%
X173000000Y-102750000D03*
D26*
X175000000Y-102750000D03*
%TD*%
D17*
%TO.C,R33*%
X182675000Y-81250000D03*
X184325000Y-81250000D03*
%TD*%
D27*
%TO.C,U7*%
X190550000Y-85500000D03*
X190550000Y-85100000D03*
X190950000Y-85500000D03*
X190950000Y-85100000D03*
X191350000Y-85500000D03*
X191350000Y-85100000D03*
X191750000Y-85500000D03*
X191750000Y-85100000D03*
%TD*%
D18*
%TO.C,R20*%
X177737500Y-81200000D03*
X180662500Y-81200000D03*
%TD*%
D16*
%TO.C,TP7*%
X174950000Y-67200000D03*
%TD*%
D14*
%TO.C,R4*%
X180487500Y-70800000D03*
X182312500Y-70800000D03*
%TD*%
%TO.C,R34*%
X182093000Y-97250000D03*
X183918000Y-97250000D03*
%TD*%
D18*
%TO.C,R29*%
X175537500Y-71000000D03*
X178462500Y-71000000D03*
%TD*%
D16*
%TO.C,TP22*%
X162750000Y-114500000D03*
%TD*%
%TO.C,TP12*%
X180200000Y-114600000D03*
%TD*%
D13*
%TO.C,C4*%
X167100000Y-101000000D03*
X169000000Y-101000000D03*
%TD*%
D16*
%TO.C,TP1*%
X171450000Y-67200000D03*
%TD*%
%TO.C,TP9*%
X158000000Y-115600000D03*
%TD*%
%TO.C,TP13*%
X184400000Y-114600000D03*
%TD*%
%TO.C,TP11*%
X196200000Y-114400000D03*
%TD*%
D28*
%TO.C,D1*%
X198200000Y-66100000D03*
X198200000Y-68200000D03*
%TD*%
D19*
%TO.C,Q1*%
X195200000Y-102200000D03*
D20*
X195200000Y-104740000D03*
X195200000Y-107280000D03*
%TD*%
D18*
%TO.C,R19*%
X178937500Y-100800000D03*
X181862500Y-100800000D03*
%TD*%
D21*
%TO.C,L4*%
X178551000Y-92164000D03*
X181251000Y-92164000D03*
%TD*%
D14*
%TO.C,R6*%
X167175000Y-104500000D03*
X169000000Y-104500000D03*
%TD*%
D23*
%TO.C,R2*%
X197062500Y-73600000D03*
X194137500Y-73600000D03*
%TD*%
D29*
%TO.C,U2*%
X167700000Y-110275000D03*
X168200000Y-110275000D03*
X168700000Y-110275000D03*
X169200000Y-110275000D03*
X169200000Y-107375000D03*
X168700000Y-107375000D03*
X168200000Y-107375000D03*
X167700000Y-107375000D03*
D30*
X168450000Y-108825000D03*
%TD*%
D31*
%TO.C,C8*%
X184925000Y-71200000D03*
X187875000Y-71200000D03*
%TD*%
D18*
%TO.C,R18*%
X178875000Y-104600000D03*
X181800000Y-104600000D03*
%TD*%
D14*
%TO.C,R8*%
X155782000Y-85522000D03*
X157607000Y-85522000D03*
%TD*%
D17*
%TO.C,R14*%
X190350000Y-93500000D03*
X192000000Y-93500000D03*
%TD*%
D16*
%TO.C,TP6*%
X183200000Y-67450000D03*
%TD*%
D23*
%TO.C,R38*%
X187000000Y-104600000D03*
X184075000Y-104600000D03*
%TD*%
D32*
%TO.C,U1*%
X175662500Y-74625000D03*
X175662500Y-75275000D03*
X175662500Y-75925000D03*
X175662500Y-76575000D03*
X177937500Y-76575000D03*
X177937500Y-75925000D03*
X177937500Y-75275000D03*
X177937500Y-74625000D03*
%TD*%
D33*
%TO.C,R17*%
X166135000Y-77200000D03*
X166775000Y-77200000D03*
%TD*%
D17*
%TO.C,R43*%
X155811000Y-70404000D03*
X157461000Y-70404000D03*
%TD*%
D14*
%TO.C,R11*%
X155675000Y-81868000D03*
X157500000Y-81868000D03*
%TD*%
D17*
%TO.C,R30*%
X182575000Y-77600000D03*
X184225000Y-77600000D03*
%TD*%
D18*
%TO.C,R7*%
X166575000Y-85500000D03*
X169500000Y-85500000D03*
%TD*%
D34*
%TO.C,U3*%
X160000000Y-85500000D03*
X161000000Y-85500000D03*
X162000000Y-85500000D03*
X163000000Y-85500000D03*
X164000000Y-85500000D03*
X164000000Y-80225000D03*
X163000000Y-80225000D03*
X162000000Y-80225000D03*
X161000000Y-80225000D03*
X160000000Y-80225000D03*
D35*
X162000000Y-82862500D03*
%TD*%
D13*
%TO.C,C11*%
X189900000Y-74800000D03*
X191800000Y-74800000D03*
%TD*%
D16*
%TO.C,TP16*%
X187200000Y-67200000D03*
%TD*%
D18*
%TO.C,R28*%
X170457500Y-71000000D03*
X173382500Y-71000000D03*
%TD*%
D14*
%TO.C,R35*%
X178175000Y-97250000D03*
X180000000Y-97250000D03*
%TD*%
D13*
%TO.C,C5*%
X167250000Y-97400000D03*
X169150000Y-97400000D03*
%TD*%
D14*
%TO.C,R5*%
X172175000Y-109750000D03*
X174000000Y-109750000D03*
%TD*%
D17*
%TO.C,R42*%
X155874000Y-75992000D03*
X157524000Y-75992000D03*
%TD*%
D14*
%TO.C,R10*%
X155782000Y-89000000D03*
X157607000Y-89000000D03*
%TD*%
D16*
%TO.C,TP18*%
X167000000Y-114500000D03*
%TD*%
D36*
%TO.C,C3*%
X165540000Y-79500000D03*
X166500000Y-79500000D03*
%TD*%
D21*
%TO.C,L3*%
X178725000Y-85941000D03*
X181425000Y-85941000D03*
%TD*%
D36*
%TO.C,C14*%
X174022000Y-88228000D03*
X174982000Y-88228000D03*
%TD*%
D37*
%TO.C,D2*%
X167700000Y-88800000D03*
X169800000Y-88800000D03*
%TD*%
D19*
%TO.C,Q2*%
X195255000Y-79660000D03*
D20*
X195255000Y-82200000D03*
X195255000Y-84740000D03*
%TD*%
D16*
%TO.C,TP23*%
X158805000Y-66921000D03*
%TD*%
D38*
%TO.C,L1*%
X167000000Y-92400000D03*
X164300000Y-92400000D03*
%TD*%
D16*
%TO.C,TP3*%
X167700000Y-67200000D03*
%TD*%
D39*
%TO.C,R23*%
X169000000Y-77680000D03*
X169000000Y-78320000D03*
%TD*%
D16*
%TO.C,TP8*%
X179200000Y-67200000D03*
%TD*%
D40*
%TO.C,U6*%
X190075000Y-101000000D03*
X190075000Y-101500000D03*
X190075000Y-102000000D03*
X191500000Y-102000000D03*
X191500000Y-101500000D03*
X191500000Y-101000000D03*
%TD*%
D13*
%TO.C,C9*%
X190300000Y-89750000D03*
X192200000Y-89750000D03*
%TD*%
D18*
%TO.C,R24*%
X179050000Y-108500000D03*
X181975000Y-108500000D03*
%TD*%
D41*
%TO.C,J1*%
X160000000Y-103920000D03*
D42*
X162020000Y-103920000D03*
D43*
X163250000Y-103920000D03*
D44*
X161000000Y-103920000D03*
D45*
X158980000Y-103920000D03*
D46*
X157750000Y-103920000D03*
D47*
X156180000Y-104000000D03*
X156180000Y-107800000D03*
X164820000Y-104000000D03*
X164820000Y-107800000D03*
%TD*%
D17*
%TO.C,R31*%
X186175000Y-77600000D03*
X187825000Y-77600000D03*
%TD*%
%TO.C,R32*%
X185925000Y-81250000D03*
X187575000Y-81250000D03*
%TD*%
D13*
%TO.C,C12*%
X190038000Y-82000000D03*
X191938000Y-82000000D03*
%TD*%
D16*
%TO.C,TP21*%
X171500000Y-114500000D03*
%TD*%
D36*
%TO.C,C2*%
X190240000Y-103600000D03*
X191200000Y-103600000D03*
%TD*%
D17*
%TO.C,R41*%
X155729000Y-101254000D03*
X157379000Y-101254000D03*
%TD*%
D21*
%TO.C,L2*%
X184500000Y-92250000D03*
X187200000Y-92250000D03*
%TD*%
D23*
%TO.C,R22*%
X163062500Y-88200000D03*
X160137500Y-88200000D03*
%TD*%
D17*
%TO.C,R44*%
X155938000Y-78659000D03*
X157588000Y-78659000D03*
%TD*%
%TO.C,R25*%
X184577500Y-108500000D03*
X186227500Y-108500000D03*
%TD*%
D48*
%TO.C,U4*%
X159387500Y-96975000D03*
X159387500Y-97625000D03*
X159387500Y-98275000D03*
X159387500Y-98925000D03*
X159387500Y-99575000D03*
X159387500Y-100225000D03*
X159387500Y-100875000D03*
X159387500Y-101525000D03*
X165112500Y-101525000D03*
X165112500Y-100875000D03*
X165112500Y-100225000D03*
X165112500Y-99575000D03*
X165112500Y-98925000D03*
X165112500Y-98275000D03*
X165112500Y-97625000D03*
X165112500Y-96975000D03*
%TD*%
D16*
%TO.C,TP15*%
X188578000Y-114586500D03*
%TD*%
D18*
%TO.C,R26*%
X188825000Y-108500000D03*
X191750000Y-108500000D03*
%TD*%
D16*
%TO.C,TP20*%
X154400000Y-67000000D03*
%TD*%
%TO.C,TP14*%
X199800000Y-114400000D03*
%TD*%
D31*
%TO.C,C15*%
X194050000Y-70450000D03*
X197000000Y-70450000D03*
%TD*%
D16*
%TO.C,TP5*%
X191200000Y-67200000D03*
%TD*%
D49*
%TO.C,J2*%
X152540000Y-108860000D03*
D50*
X150000000Y-108860000D03*
X152540000Y-106320000D03*
X150000000Y-106320000D03*
X152540000Y-103780000D03*
X150000000Y-103780000D03*
X152540000Y-101240000D03*
X150000000Y-101240000D03*
X152540000Y-98700000D03*
X150000000Y-98700000D03*
X152540000Y-96160000D03*
X150000000Y-96160000D03*
X152540000Y-93620000D03*
X150000000Y-93620000D03*
X152540000Y-91080000D03*
X150000000Y-91080000D03*
X152540000Y-88540000D03*
X150000000Y-88540000D03*
X152540000Y-86000000D03*
X150000000Y-86000000D03*
X152540000Y-83460000D03*
X150000000Y-83460000D03*
X152540000Y-80920000D03*
X150000000Y-80920000D03*
X152540000Y-78380000D03*
X150000000Y-78380000D03*
X152540000Y-75840000D03*
X150000000Y-75840000D03*
X152540000Y-73300000D03*
X150000000Y-73300000D03*
X152540000Y-70760000D03*
X150000000Y-70760000D03*
%TD*%
D17*
%TO.C,R13*%
X155811000Y-73198000D03*
X157461000Y-73198000D03*
%TD*%
%LPD*%
M02*
